<?xml version="1.0" encoding="UTF-8" standalone="no"?>
<!DOCTYPE svg PUBLIC "-//W3C//DTD SVG 1.1//EN"
 "http://www.w3.org/Graphics/SVG/1.1/DTD/svg11.dtd">
<!-- Generated by graphviz version 2.26.3 (20100126.1600)
 -->
<!-- Title: G Pages: 1 -->
<svg width="720pt" height="486pt"
 viewBox="0.00 0.00 720.00 486.12" xmlns="http://www.w3.org/2000/svg" xmlns:xlink="http://www.w3.org/1999/xlink">
<g id="graph1" class="graph" transform="scale(0.568733 0.568733) rotate(0) translate(4 850.75)">
<title>G</title>
<polygon fill="white" stroke="white" points="-4,5 -4,-850.75 1262.97,-850.75 1262.97,5 -4,5"/>
<!-- Option -->
<g id="node1" class="node"><title>Option</title>
<ellipse fill="darkturquoise" stroke="darkturquoise" cx="532" cy="-387" rx="43.7776" ry="18"/>
<text text-anchor="middle" x="532" y="-382.9" font-family="DejaVu Sans, Helvetica, sans" font-size="14.00"><a xlink:href="../doc/Option.html" target="_parent">Option</a></text>
</g>
<!-- InfiniteArray -->
<g id="node2" class="node"><title>InfiniteArray</title>
<ellipse fill="darkturquoise" stroke="darkturquoise" cx="774" cy="-92" rx="71.7694" ry="18"/>
<text text-anchor="middle" x="774" y="-87.9" font-family="DejaVu Sans, Helvetica, sans" font-size="14.00"><a xlink:href="../doc/InfiniteArray.html" target="_parent">InfiniteArray</a></text>
</g>
<!-- Hml_Map -->
<g id="node3" class="node"><title>Hml_Map</title>
<ellipse fill="darkturquoise" stroke="darkturquoise" cx="1036" cy="-387" rx="55.0898" ry="18"/>
<text text-anchor="middle" x="1036" y="-382.9" font-family="DejaVu Sans, Helvetica, sans" font-size="14.00"><a xlink:href="../doc/Hml_Map.html" target="_parent">Hml_Map</a></text>
</g>
<!-- Hml_List -->
<g id="node4" class="node"><title>Hml_List</title>
<ellipse fill="darkturquoise" stroke="darkturquoise" cx="697" cy="-460" rx="52.8111" ry="18"/>
<text text-anchor="middle" x="697" y="-455.9" font-family="DejaVu Sans, Helvetica, sans" font-size="14.00"><a xlink:href="../doc/Hml_List.html" target="_parent">Hml_List</a></text>
</g>
<!-- Hml_List&#45;&gt;Option -->
<g id="edge2" class="edge"><title>Hml_List&#45;&gt;Option</title>
<path fill="none" stroke="black" d="M664.401,-445.578C637.653,-433.743 599.695,-416.95 571.274,-404.376"/>
<polygon fill="black" stroke="black" points="572.592,-401.132 562.031,-400.287 569.76,-407.533 572.592,-401.132"/>
</g>
<!-- Bash -->
<g id="node6" class="node"><title>Bash</title>
<ellipse fill="darkturquoise" stroke="darkturquoise" cx="708" cy="-534" rx="34.2406" ry="18"/>
<text text-anchor="middle" x="708" y="-529.9" font-family="DejaVu Sans, Helvetica, sans" font-size="14.00"><a xlink:href="../doc/Bash.html" target="_parent">Bash</a></text>
</g>
<!-- Hml_String -->
<g id="node7" class="node"><title>Hml_String</title>
<ellipse fill="darkturquoise" stroke="darkturquoise" cx="478" cy="-534" rx="64.1231" ry="18"/>
<text text-anchor="middle" x="478" y="-529.9" font-family="DejaVu Sans, Helvetica, sans" font-size="14.00"><a xlink:href="../doc/Hml_String.html" target="_parent">Hml_String</a></text>
</g>
<!-- Hml_String&#45;&gt;Option -->
<g id="edge4" class="edge"><title>Hml_String&#45;&gt;Option</title>
<path fill="none" stroke="black" d="M484.621,-515.975C493.892,-490.737 510.827,-444.637 521.739,-414.934"/>
<polygon fill="black" stroke="black" points="525.161,-415.766 525.324,-405.173 518.591,-413.352 525.161,-415.766"/>
</g>
<!-- Log -->
<g id="node9" class="node"><title>Log</title>
<ellipse fill="darkturquoise" stroke="darkturquoise" cx="476" cy="-607" rx="27.9903" ry="18"/>
<text text-anchor="middle" x="476" y="-602.9" font-family="DejaVu Sans, Helvetica, sans" font-size="14.00"><a xlink:href="../doc/Log.html" target="_parent">Log</a></text>
</g>
<!-- Log&#45;&gt;Hml_String -->
<g id="edge6" class="edge"><title>Log&#45;&gt;Hml_String</title>
<path fill="none" stroke="black" d="M476.494,-588.955C476.716,-580.883 476.981,-571.176 477.228,-562.182"/>
<polygon fill="black" stroke="black" points="480.729,-562.182 477.504,-552.09 473.732,-561.991 480.729,-562.182"/>
</g>
<!-- Datacon -->
<g id="node11" class="node"><title>Datacon</title>
<ellipse fill="#eead0e" stroke="#eead0e" cx="790" cy="-313" rx="50.9221" ry="18"/>
<text text-anchor="middle" x="790" y="-308.9" font-family="DejaVu Sans, Helvetica, sans" font-size="14.00"><a xlink:href="../doc/Datacon.html" target="_parent">Datacon</a></text>
</g>
<!-- Identifier -->
<g id="node13" class="node"><title>Identifier</title>
<ellipse fill="#eead0e" stroke="#eead0e" cx="774" cy="-239" rx="54.8957" ry="18"/>
<text text-anchor="middle" x="774" y="-234.9" font-family="DejaVu Sans, Helvetica, sans" font-size="14.00"><a xlink:href="../doc/Identifier.html" target="_parent">Identifier</a></text>
</g>
<!-- Datacon&#45;&gt;Identifier -->
<g id="edge8" class="edge"><title>Datacon&#45;&gt;Identifier</title>
<path fill="none" stroke="black" d="M786.045,-294.708C784.243,-286.374 782.07,-276.322 780.068,-267.063"/>
<polygon fill="black" stroke="black" points="783.444,-266.116 777.91,-257.082 776.602,-267.596 783.444,-266.116"/>
</g>
<!-- Hashcons -->
<g id="node23" class="node"><title>Hashcons</title>
<ellipse fill="#eead0e" stroke="#eead0e" cx="774" cy="-166" rx="56.9803" ry="18"/>
<text text-anchor="middle" x="774" y="-161.9" font-family="DejaVu Sans, Helvetica, sans" font-size="14.00"><a xlink:href="../doc/Hashcons.html" target="_parent">Hashcons</a></text>
</g>
<!-- Identifier&#45;&gt;Hashcons -->
<g id="edge22" class="edge"><title>Identifier&#45;&gt;Hashcons</title>
<path fill="none" stroke="black" d="M774,-220.955C774,-212.883 774,-203.176 774,-194.182"/>
<polygon fill="black" stroke="black" points="777.5,-194.09 774,-184.09 770.5,-194.09 777.5,-194.09"/>
</g>
<!-- Patricia -->
<g id="node27" class="node"><title>Patricia</title>
<ellipse fill="cyan" stroke="cyan" cx="506" cy="-166" rx="46.7546" ry="18"/>
<text text-anchor="middle" x="506" y="-161.9" font-family="DejaVu Sans, Helvetica, sans" font-size="14.00"><a xlink:href="../doc/Patricia.html" target="_parent">Patricia</a></text>
</g>
<!-- Identifier&#45;&gt;Patricia -->
<g id="edge24" class="edge"><title>Identifier&#45;&gt;Patricia</title>
<path fill="none" stroke="black" d="M731.535,-227.433C683.243,-214.279 604.57,-192.849 554.067,-179.093"/>
<polygon fill="black" stroke="black" points="554.927,-175.7 544.359,-176.449 553.088,-182.454 554.927,-175.7"/>
</g>
<!-- GMap -->
<g id="node29" class="node"><title>GMap</title>
<ellipse fill="cyan" stroke="cyan" cx="576" cy="-92" rx="38.9134" ry="18"/>
<text text-anchor="middle" x="576" y="-87.9" font-family="DejaVu Sans, Helvetica, sans" font-size="14.00"><a xlink:href="../doc/GMap.html" target="_parent">GMap</a></text>
</g>
<!-- Identifier&#45;&gt;GMap -->
<g id="edge26" class="edge"><title>Identifier&#45;&gt;GMap</title>
<path fill="none" stroke="black" d="M751.672,-222.423C715.679,-195.701 644.846,-143.113 604.998,-113.529"/>
<polygon fill="black" stroke="black" points="606.868,-110.558 596.753,-107.407 602.695,-116.178 606.868,-110.558"/>
</g>
<!-- Driver -->
<g id="node14" class="node"><title>Driver</title>
<ellipse fill="#eead0e" stroke="#eead0e" cx="386" cy="-607" rx="41.1906" ry="18"/>
<text text-anchor="middle" x="386" y="-602.9" font-family="DejaVu Sans, Helvetica, sans" font-size="14.00"><a xlink:href="../doc/Driver.html" target="_parent">Driver</a></text>
</g>
<!-- Driver&#45;&gt;Hml_String -->
<g id="edge10" class="edge"><title>Driver&#45;&gt;Hml_String</title>
<path fill="none" stroke="black" d="M405.963,-591.16C418.421,-581.275 434.678,-568.375 448.595,-557.333"/>
<polygon fill="black" stroke="black" points="450.814,-560.04 456.472,-551.082 446.463,-554.556 450.814,-560.04"/>
</g>
<!-- Lexer -->
<g id="node17" class="node"><title>Lexer</title>
<ellipse fill="#eead0e" stroke="#eead0e" cx="319" cy="-534" rx="38.9134" ry="18"/>
<text text-anchor="middle" x="319" y="-529.9" font-family="DejaVu Sans, Helvetica, sans" font-size="14.00"><a xlink:href="../doc/Lexer.html" target="_parent">Lexer</a></text>
</g>
<!-- Driver&#45;&gt;Lexer -->
<g id="edge12" class="edge"><title>Driver&#45;&gt;Lexer</title>
<path fill="none" stroke="black" d="M370.46,-590.069C361.773,-580.604 350.799,-568.646 341.218,-558.208"/>
<polygon fill="black" stroke="black" points="343.565,-555.588 334.224,-550.588 338.408,-560.322 343.565,-555.588"/>
</g>
<!-- SurfaceSyntax -->
<g id="node19" class="node"><title>SurfaceSyntax</title>
<ellipse fill="#eead0e" stroke="#eead0e" cx="806" cy="-387" rx="80.8024" ry="18"/>
<text text-anchor="middle" x="806" y="-382.9" font-family="DejaVu Sans, Helvetica, sans" font-size="14.00"><a xlink:href="../doc/SurfaceSyntax.html" target="_parent">SurfaceSyntax</a></text>
</g>
<!-- Driver&#45;&gt;SurfaceSyntax -->
<g id="edge14" class="edge"><title>Driver&#45;&gt;SurfaceSyntax</title>
<path fill="none" stroke="black" d="M384.981,-588.753C384.851,-568.65 387.705,-536.461 405,-516 447.718,-465.46 630.438,-421.909 733.868,-400.723"/>
<polygon fill="black" stroke="black" points="734.825,-404.1 743.929,-398.681 733.433,-397.24 734.825,-404.1"/>
</g>
<!-- SurfaceSyntax&#45;&gt;Datacon -->
<g id="edge18" class="edge"><title>SurfaceSyntax&#45;&gt;Datacon</title>
<path fill="none" stroke="black" d="M802.045,-368.708C800.243,-360.374 798.07,-350.322 796.068,-341.063"/>
<polygon fill="black" stroke="black" points="799.444,-340.116 793.91,-331.082 792.602,-341.596 799.444,-340.116"/>
</g>
<!-- Variable -->
<g id="node21" class="node"><title>Variable</title>
<ellipse fill="#eead0e" stroke="#eead0e" cx="1006" cy="-313" rx="50.0315" ry="18"/>
<text text-anchor="middle" x="1006" y="-308.9" font-family="DejaVu Sans, Helvetica, sans" font-size="14.00"><a xlink:href="../doc/Variable.html" target="_parent">Variable</a></text>
</g>
<!-- SurfaceSyntax&#45;&gt;Variable -->
<g id="edge16" class="edge"><title>SurfaceSyntax&#45;&gt;Variable</title>
<path fill="none" stroke="black" d="M847.927,-371.487C881.183,-359.182 927.554,-342.025 961.471,-329.476"/>
<polygon fill="black" stroke="black" points="962.962,-332.656 971.126,-325.903 960.533,-326.091 962.962,-332.656"/>
</g>
<!-- Variable&#45;&gt;Identifier -->
<g id="edge28" class="edge"><title>Variable&#45;&gt;Identifier</title>
<path fill="none" stroke="black" d="M968.467,-301.028C928.967,-288.429 866.615,-268.541 823.2,-254.693"/>
<polygon fill="black" stroke="black" points="824.01,-251.278 813.419,-251.573 821.883,-257.947 824.01,-251.278"/>
</g>
<!-- Hashcons&#45;&gt;InfiniteArray -->
<g id="edge20" class="edge"><title>Hashcons&#45;&gt;InfiniteArray</title>
<path fill="none" stroke="black" d="M774,-147.708C774,-139.464 774,-129.538 774,-120.362"/>
<polygon fill="black" stroke="black" points="777.5,-120.082 774,-110.082 770.5,-120.082 777.5,-120.082"/>
</g>
<!-- Patricia&#45;&gt;GMap -->
<g id="edge30" class="edge"><title>Patricia&#45;&gt;GMap</title>
<path fill="none" stroke="black" d="M522.235,-148.837C531.465,-139.08 543.167,-126.709 553.295,-116.002"/>
<polygon fill="black" stroke="black" points="556.005,-118.231 560.334,-108.561 550.92,-113.42 556.005,-118.231"/>
</g>
<!-- GSet -->
<g id="node32" class="node"><title>GSet</title>
<ellipse fill="cyan" stroke="cyan" cx="576" cy="-18" rx="34.9399" ry="18"/>
<text text-anchor="middle" x="576" y="-13.9" font-family="DejaVu Sans, Helvetica, sans" font-size="14.00"><a xlink:href="../doc/GSet.html" target="_parent">GSet</a></text>
</g>
<!-- GMap&#45;&gt;GSet -->
<g id="edge32" class="edge"><title>GMap&#45;&gt;GSet</title>
<path fill="none" stroke="black" d="M576,-73.7079C576,-65.4635 576,-55.5376 576,-46.3622"/>
<polygon fill="black" stroke="black" points="579.5,-46.0817 576,-36.0817 572.5,-46.0818 579.5,-46.0817"/>
</g>
<!-- ModeDeduction -->
<g id="node34" class="node"><title>ModeDeduction</title>
<ellipse fill="green" stroke="green" cx="909" cy="-828" rx="86.1654" ry="18"/>
<text text-anchor="middle" x="909" y="-823.9" font-family="DejaVu Sans, Helvetica, sans" font-size="14.00"><a xlink:href="../doc/ModeDeduction.html" target="_parent">ModeDeduction</a></text>
</g>
<!-- FactInference -->
<g id="node35" class="node"><title>FactInference</title>
<ellipse fill="green" stroke="green" cx="655" cy="-681" rx="75.9375" ry="18"/>
<text text-anchor="middle" x="655" y="-676.9" font-family="DejaVu Sans, Helvetica, sans" font-size="14.00"><a xlink:href="../doc/FactInference.html" target="_parent">FactInference</a></text>
</g>
<!-- FactInference&#45;&gt;Option -->
<g id="edge42" class="edge"><title>FactInference&#45;&gt;Option</title>
<path fill="none" stroke="black" d="M630.399,-663.873C617.787,-653.892 603.188,-640.276 594,-625 552.963,-556.768 538.813,-461.658 534.155,-415.03"/>
<polygon fill="black" stroke="black" points="537.638,-414.687 533.231,-405.052 530.668,-415.332 537.638,-414.687"/>
</g>
<!-- FactInference&#45;&gt;Hml_List -->
<g id="edge36" class="edge"><title>FactInference&#45;&gt;Hml_List</title>
<path fill="none" stroke="black" d="M653.445,-662.71C651.396,-631.764 649.662,-567.428 665,-516 668.072,-505.699 673.34,-495.248 678.725,-486.209"/>
<polygon fill="black" stroke="black" points="681.716,-488.028 684.072,-477.699 675.789,-484.304 681.716,-488.028"/>
</g>
<!-- FactInference&#45;&gt;Bash -->
<g id="edge34" class="edge"><title>FactInference&#45;&gt;Bash</title>
<path fill="none" stroke="black" d="M661.499,-662.975C670.648,-637.6 687.4,-591.135 698.103,-561.451"/>
<polygon fill="black" stroke="black" points="701.514,-562.308 701.614,-551.713 694.929,-559.933 701.514,-562.308"/>
</g>
<!-- FactInference&#45;&gt;Hml_String -->
<g id="edge38" class="edge"><title>FactInference&#45;&gt;Hml_String</title>
<path fill="none" stroke="black" d="M619.672,-664.81C599.882,-654.84 575.366,-640.934 556,-625 532.765,-605.883 510.892,-579.328 496.256,-559.838"/>
<polygon fill="black" stroke="black" points="499.005,-557.668 490.253,-551.696 493.371,-561.822 499.005,-557.668"/>
</g>
<!-- FactInference&#45;&gt;Log -->
<g id="edge40" class="edge"><title>FactInference&#45;&gt;Log</title>
<path fill="none" stroke="black" d="M616.249,-665.363C588.774,-654.227 551.064,-638.842 518,-625 515,-623.744 511.883,-622.429 508.765,-621.105"/>
<polygon fill="black" stroke="black" points="510.088,-617.865 499.517,-617.161 507.342,-624.304 510.088,-617.865"/>
</g>
<!-- FactInference&#45;&gt;SurfaceSyntax -->
<g id="edge46" class="edge"><title>FactInference&#45;&gt;SurfaceSyntax</title>
<path fill="none" stroke="black" d="M646.238,-662.976C626.757,-620.024 585.338,-510.14 635,-442 647.286,-425.143 693.426,-410.885 734.684,-401.112"/>
<polygon fill="black" stroke="black" points="735.536,-404.508 744.493,-398.85 733.962,-397.687 735.536,-404.508"/>
</g>
<!-- FactInference&#45;&gt;Variable -->
<g id="edge48" class="edge"><title>FactInference&#45;&gt;Variable</title>
<path fill="none" stroke="black" d="M726.435,-674.765C822.498,-665.689 987.76,-647.448 1044,-625 1096.11,-604.2 1118.91,-600.573 1147,-552 1187.75,-481.523 1190.66,-431.919 1139,-369 1119.6,-345.374 1088.48,-331.548 1061.22,-323.547"/>
<polygon fill="black" stroke="black" points="1061.95,-320.118 1051.38,-320.856 1060.1,-326.87 1061.95,-320.118"/>
</g>
<!-- Printers -->
<g id="node42" class="node"><title>Printers</title>
<ellipse fill="green" stroke="green" cx="836" cy="-607" rx="48.8383" ry="18"/>
<text text-anchor="middle" x="836" y="-602.9" font-family="DejaVu Sans, Helvetica, sans" font-size="14.00"><a xlink:href="../doc/Printers.html" target="_parent">Printers</a></text>
</g>
<!-- FactInference&#45;&gt;Printers -->
<g id="edge44" class="edge"><title>FactInference&#45;&gt;Printers</title>
<path fill="none" stroke="black" d="M693.385,-665.307C722.788,-653.286 763.322,-636.713 793.664,-624.308"/>
<polygon fill="black" stroke="black" points="795.199,-627.462 803.13,-620.438 792.55,-620.983 795.199,-627.462"/>
</g>
<!-- WellKindedness -->
<g id="node46" class="node"><title>WellKindedness</title>
<ellipse fill="green" stroke="green" cx="1036" cy="-534" rx="86.1654" ry="18"/>
<text text-anchor="middle" x="1036" y="-529.9" font-family="DejaVu Sans, Helvetica, sans" font-size="14.00"><a xlink:href="../doc/WellKindedness.html" target="_parent">WellKindedness</a></text>
</g>
<!-- FactInference&#45;&gt;WellKindedness -->
<g id="edge50" class="edge"><title>FactInference&#45;&gt;WellKindedness</title>
<path fill="none" stroke="black" d="M720.524,-671.816C769.635,-663.477 837.771,-648.775 894,-625 935.304,-607.535 978.012,-578.396 1005.66,-557.803"/>
<polygon fill="black" stroke="black" points="1007.86,-560.526 1013.74,-551.709 1003.65,-554.937 1007.86,-560.526"/>
</g>
<!-- Types -->
<g id="node48" class="node"><title>Types</title>
<ellipse fill="green" stroke="green" cx="1090" cy="-460" rx="38.9134" ry="18"/>
<text text-anchor="middle" x="1090" y="-455.9" font-family="DejaVu Sans, Helvetica, sans" font-size="14.00"><a xlink:href="../doc/Types.html" target="_parent">Types</a></text>
</g>
<!-- FactInference&#45;&gt;Types -->
<g id="edge52" class="edge"><title>FactInference&#45;&gt;Types</title>
<path fill="none" stroke="black" d="M723.456,-673.18C843.755,-657.809 1084.76,-619.176 1131,-552 1145.57,-530.826 1129.89,-503.634 1113.9,-484.317"/>
<polygon fill="black" stroke="black" points="1116.33,-481.781 1107.11,-476.561 1111.06,-486.391 1116.33,-481.781"/>
</g>
<!-- Printers&#45;&gt;Hml_List -->
<g id="edge98" class="edge"><title>Printers&#45;&gt;Hml_List</title>
<path fill="none" stroke="black" d="M820.101,-589.817C803.085,-571.463 775.258,-541.56 751,-516 741.316,-505.796 730.573,-494.626 721.236,-484.964"/>
<polygon fill="black" stroke="black" points="723.566,-482.338 714.097,-477.586 718.536,-487.206 723.566,-482.338"/>
</g>
<!-- Printers&#45;&gt;Bash -->
<g id="edge102" class="edge"><title>Printers&#45;&gt;Bash</title>
<path fill="none" stroke="black" d="M809.167,-591.697C789.026,-580.21 761.369,-564.437 740.062,-552.285"/>
<polygon fill="black" stroke="black" points="741.78,-549.236 731.36,-547.322 738.312,-555.317 741.78,-549.236"/>
</g>
<!-- Printers&#45;&gt;Datacon -->
<g id="edge100" class="edge"><title>Printers&#45;&gt;Datacon</title>
<path fill="none" stroke="black" d="M830.436,-589.048C819.988,-557.216 795.179,-489.745 759,-442 743.773,-421.905 726.513,-427.916 716,-405 709.328,-390.457 708.875,-383.326 716,-369 723.415,-354.09 736.905,-342.091 750.357,-333.083"/>
<polygon fill="black" stroke="black" points="752.506,-335.866 759.126,-327.594 748.792,-329.933 752.506,-335.866"/>
</g>
<!-- Printers&#45;&gt;SurfaceSyntax -->
<g id="edge96" class="edge"><title>Printers&#45;&gt;SurfaceSyntax</title>
<path fill="none" stroke="black" d="M833.545,-588.996C828.337,-550.804 816.147,-461.408 809.876,-415.426"/>
<polygon fill="black" stroke="black" points="813.308,-414.688 808.489,-405.252 806.372,-415.634 813.308,-414.688"/>
</g>
<!-- Printers&#45;&gt;Variable -->
<g id="edge92" class="edge"><title>Printers&#45;&gt;Variable</title>
<path fill="none" stroke="black" d="M845.907,-589.292C868.134,-549.646 923.807,-450.801 972,-369 977.716,-359.298 984.095,-348.725 989.771,-339.406"/>
<polygon fill="black" stroke="black" points="992.934,-340.941 995.161,-330.583 986.961,-337.292 992.934,-340.941"/>
</g>
<!-- Printers&#45;&gt;WellKindedness -->
<g id="edge90" class="edge"><title>Printers&#45;&gt;WellKindedness</title>
<path fill="none" stroke="black" d="M870.837,-594.284C901.936,-582.933 947.927,-566.146 983.486,-553.168"/>
<polygon fill="black" stroke="black" points="985.024,-556.332 993.218,-549.616 982.624,-549.757 985.024,-556.332"/>
</g>
<!-- Printers&#45;&gt;Types -->
<g id="edge94" class="edge"><title>Printers&#45;&gt;Types</title>
<path fill="none" stroke="black" d="M855.114,-590.128C884.075,-564.607 936.232,-518.837 941,-516 974.071,-496.32 1015.25,-481.48 1045.94,-472.038"/>
<polygon fill="black" stroke="black" points="1047.34,-475.271 1055.91,-469.043 1045.33,-468.566 1047.34,-475.271"/>
</g>
<!-- WellKindedness&#45;&gt;Hml_List -->
<g id="edge78" class="edge"><title>WellKindedness&#45;&gt;Hml_List</title>
<path fill="none" stroke="black" d="M976.174,-520.941C912.615,-507.066 812.999,-485.321 751.533,-471.904"/>
<polygon fill="black" stroke="black" points="752.152,-468.457 741.636,-469.743 750.659,-475.296 752.152,-468.457"/>
</g>
<!-- WellKindedness&#45;&gt;SurfaceSyntax -->
<g id="edge76" class="edge"><title>WellKindedness&#45;&gt;SurfaceSyntax</title>
<path fill="none" stroke="black" d="M1009.17,-516.85C967.531,-490.239 887.363,-439.001 841.155,-409.468"/>
<polygon fill="black" stroke="black" points="842.974,-406.477 832.663,-404.041 839.204,-412.376 842.974,-406.477"/>
</g>
<!-- WellKindedness&#45;&gt;Variable -->
<g id="edge72" class="edge"><title>WellKindedness&#45;&gt;Variable</title>
<path fill="none" stroke="black" d="M1085.57,-519.26C1105.51,-510.624 1126.48,-497.472 1138,-478 1146.15,-464.23 1140.23,-457.843 1138,-442 1133.29,-408.57 1138.54,-394.998 1117,-369 1101.05,-349.743 1076.8,-336.446 1055.03,-327.659"/>
<polygon fill="black" stroke="black" points="1056.16,-324.343 1045.57,-324.05 1053.66,-330.883 1056.16,-324.343"/>
</g>
<!-- WellKindedness&#45;&gt;Types -->
<g id="edge74" class="edge"><title>WellKindedness&#45;&gt;Types</title>
<path fill="none" stroke="black" d="M1049.07,-516.087C1055.8,-506.863 1064.12,-495.461 1071.5,-485.351"/>
<polygon fill="black" stroke="black" points="1074.35,-487.38 1077.42,-477.239 1068.7,-483.254 1074.35,-487.38"/>
</g>
<!-- Types&#45;&gt;Hml_Map -->
<g id="edge58" class="edge"><title>Types&#45;&gt;Hml_Map</title>
<path fill="none" stroke="black" d="M1077.2,-442.7C1070.64,-433.83 1062.52,-422.846 1055.22,-412.981"/>
<polygon fill="black" stroke="black" points="1057.84,-410.641 1049.08,-404.683 1052.21,-414.804 1057.84,-410.641"/>
</g>
<!-- Types&#45;&gt;Datacon -->
<g id="edge60" class="edge"><title>Types&#45;&gt;Datacon</title>
<path fill="none" stroke="black" d="M1062.23,-447.357C1038.24,-436.366 1002.7,-419.909 972,-405 922.008,-380.721 864.895,-351.626 828.189,-332.75"/>
<polygon fill="black" stroke="black" points="829.351,-329.411 818.858,-327.945 826.146,-335.635 829.351,-329.411"/>
</g>
<!-- Types&#45;&gt;SurfaceSyntax -->
<g id="edge56" class="edge"><title>Types&#45;&gt;SurfaceSyntax</title>
<path fill="none" stroke="black" d="M1059.05,-448.945C1051.85,-446.526 1044.19,-444.072 1037,-442 982.934,-426.42 920.857,-411.819 874.68,-401.582"/>
<polygon fill="black" stroke="black" points="875.301,-398.135 864.782,-399.4 873.794,-404.971 875.301,-398.135"/>
</g>
<!-- Types&#45;&gt;Variable -->
<g id="edge54" class="edge"><title>Types&#45;&gt;Variable</title>
<path fill="none" stroke="black" d="M1097.8,-442.322C1105.06,-423.013 1112.96,-391.8 1100,-369 1089.69,-350.857 1070.92,-337.974 1052.85,-329.176"/>
<polygon fill="black" stroke="black" points="1054.06,-325.884 1043.51,-324.942 1051.17,-332.259 1054.06,-325.884"/>
</g>
<!-- Mode -->
<g id="node49" class="node"><title>Mode</title>
<ellipse fill="green" stroke="green" cx="1050" cy="-828" rx="36.8288" ry="18"/>
<text text-anchor="middle" x="1050" y="-823.9" font-family="DejaVu Sans, Helvetica, sans" font-size="14.00"><a xlink:href="../doc/Mode.html" target="_parent">Mode</a></text>
</g>
<!-- PersistentRef -->
<g id="node54" class="node"><title>PersistentRef</title>
<ellipse fill="green" stroke="green" cx="474" cy="-239" rx="73.8534" ry="18"/>
<text text-anchor="middle" x="474" y="-234.9" font-family="DejaVu Sans, Helvetica, sans" font-size="14.00"><a xlink:href="../doc/PersistentRef.html" target="_parent">PersistentRef</a></text>
</g>
<!-- PersistentRef&#45;&gt;Patricia -->
<g id="edge62" class="edge"><title>PersistentRef&#45;&gt;Patricia</title>
<path fill="none" stroke="black" d="M481.91,-220.955C485.591,-212.557 490.048,-202.39 494.122,-193.096"/>
<polygon fill="black" stroke="black" points="497.372,-194.401 498.181,-183.837 490.961,-191.591 497.372,-194.401"/>
</g>
<!-- PersistentUnionFind -->
<g id="node56" class="node"><title>PersistentUnionFind</title>
<ellipse fill="green" stroke="green" cx="302" cy="-313" rx="107.206" ry="18"/>
<text text-anchor="middle" x="302" y="-308.9" font-family="DejaVu Sans, Helvetica, sans" font-size="14.00"><a xlink:href="../doc/PersistentUnionFind.html" target="_parent">PersistentUnionFind</a></text>
</g>
<!-- PersistentUnionFind&#45;&gt;PersistentRef -->
<g id="edge64" class="edge"><title>PersistentUnionFind&#45;&gt;PersistentRef</title>
<path fill="none" stroke="black" d="M341.029,-296.208C366.919,-285.07 401,-270.407 428.177,-258.714"/>
<polygon fill="black" stroke="black" points="429.675,-261.881 437.477,-254.713 426.908,-255.45 429.675,-261.881"/>
</g>
<!-- PermissionDeduction -->
<g id="node58" class="node"><title>PermissionDeduction</title>
<ellipse fill="green" stroke="green" cx="112" cy="-387" rx="111.876" ry="18"/>
<text text-anchor="middle" x="112" y="-382.9" font-family="DejaVu Sans, Helvetica, sans" font-size="14.00"><a xlink:href="../doc/PermissionDeduction.html" target="_parent">PermissionDeduction</a></text>
</g>
<!-- PermissionDeduction&#45;&gt;Patricia -->
<g id="edge66" class="edge"><title>PermissionDeduction&#45;&gt;Patricia</title>
<path fill="none" stroke="black" d="M102.74,-368.884C93.9455,-348.857 84.2132,-316.581 100,-295 142.269,-237.218 352.806,-193.054 452.929,-174.957"/>
<polygon fill="black" stroke="black" points="453.615,-178.39 462.843,-173.186 452.383,-171.5 453.615,-178.39"/>
</g>
<!-- PermissionDeduction&#45;&gt;PersistentUnionFind -->
<g id="edge68" class="edge"><title>PermissionDeduction&#45;&gt;PersistentUnionFind</title>
<path fill="none" stroke="black" d="M155.114,-370.208C183.271,-359.242 220.2,-344.859 249.985,-333.258"/>
<polygon fill="black" stroke="black" points="251.336,-336.488 259.384,-329.598 248.796,-329.966 251.336,-336.488"/>
</g>
<!-- Data -->
<g id="node62" class="node"><title>Data</title>
<ellipse fill="green" stroke="green" cx="143" cy="-313" rx="34.2406" ry="18"/>
<text text-anchor="middle" x="143" y="-308.9" font-family="DejaVu Sans, Helvetica, sans" font-size="14.00"><a xlink:href="../doc/Data.html" target="_parent">Data</a></text>
</g>
<!-- PermissionDeduction&#45;&gt;Data -->
<g id="edge70" class="edge"><title>PermissionDeduction&#45;&gt;Data</title>
<path fill="none" stroke="black" d="M119.663,-368.708C123.256,-360.131 127.611,-349.735 131.582,-340.256"/>
<polygon fill="black" stroke="black" points="134.896,-341.402 135.532,-330.826 128.44,-338.697 134.896,-341.402"/>
</g>
<!-- Env -->
<g id="node67" class="node"><title>Env</title>
<ellipse fill="green" stroke="green" cx="936" cy="-755" rx="29.8799" ry="18"/>
<text text-anchor="middle" x="936" y="-750.9" font-family="DejaVu Sans, Helvetica, sans" font-size="14.00"><a xlink:href="../doc/Env.html" target="_parent">Env</a></text>
</g>
<!-- Env&#45;&gt;SurfaceSyntax -->
<g id="edge84" class="edge"><title>Env&#45;&gt;SurfaceSyntax</title>
<path fill="none" stroke="black" d="M959.202,-743.396C1023.3,-709.78 1194.02,-608.818 1131,-516 1126.92,-509.988 947.041,-440.77 856.69,-406.284"/>
<polygon fill="black" stroke="black" points="857.773,-402.951 847.182,-402.657 855.278,-409.492 857.773,-402.951"/>
</g>
<!-- Env&#45;&gt;FactInference -->
<g id="edge88" class="edge"><title>Env&#45;&gt;FactInference</title>
<path fill="none" stroke="black" d="M908.288,-747.702C863.759,-735.976 775.239,-712.664 715.559,-696.948"/>
<polygon fill="black" stroke="black" points="716.434,-693.559 705.872,-694.397 714.651,-700.328 716.434,-693.559"/>
</g>
<!-- Env&#45;&gt;WellKindedness -->
<g id="edge80" class="edge"><title>Env&#45;&gt;WellKindedness</title>
<path fill="none" stroke="black" d="M944.014,-737.288C961.415,-698.832 1002.76,-607.461 1023.57,-561.46"/>
<polygon fill="black" stroke="black" points="1026.87,-562.659 1027.81,-552.105 1020.5,-559.773 1026.87,-562.659"/>
</g>
<!-- Env&#45;&gt;Types -->
<g id="edge82" class="edge"><title>Env&#45;&gt;Types</title>
<path fill="none" stroke="black" d="M965.878,-752.688C1011.26,-748.108 1099.13,-734.985 1164,-699 1205.23,-676.131 1221.67,-668.435 1240,-625 1258.84,-580.368 1267.62,-555.798 1240,-516 1227.58,-498.106 1174.15,-481.134 1134.58,-470.661"/>
<polygon fill="black" stroke="black" points="1135.41,-467.26 1124.85,-468.142 1133.65,-474.037 1135.41,-467.26"/>
</g>
<!-- Env&#45;&gt;PersistentUnionFind -->
<g id="edge86" class="edge"><title>Env&#45;&gt;PersistentUnionFind</title>
<path fill="none" stroke="black" d="M906.675,-751.11C831.701,-741.068 634.402,-714.015 570,-699 463.773,-674.233 427.548,-684.301 336,-625 299.539,-601.382 286.456,-592.6 271,-552 243.321,-479.293 272.203,-386.121 290.086,-340.568"/>
<polygon fill="black" stroke="black" points="293.419,-341.662 293.925,-331.079 286.93,-339.036 293.419,-341.662"/>
</g>
<!-- Hamlet -->
<g id="node80" class="node"><title>Hamlet</title>
<ellipse fill="magenta" stroke="magenta" cx="759" cy="-828" rx="45.8622" ry="18"/>
<text text-anchor="middle" x="759" y="-823.9" font-family="DejaVu Sans, Helvetica, sans" font-size="14.00"><a xlink:href="../doc/Hamlet.html" target="_parent">Hamlet</a></text>
</g>
<!-- Hamlet&#45;&gt;Bash -->
<g id="edge116" class="edge"><title>Hamlet&#45;&gt;Bash</title>
<path fill="none" stroke="black" d="M757.656,-809.575C755.249,-778.965 749.544,-715.777 740,-663 733.612,-627.677 723.171,-587.647 715.962,-561.675"/>
<polygon fill="black" stroke="black" points="719.259,-560.471 713.185,-551.79 712.52,-562.364 719.259,-560.471"/>
</g>
<!-- Hamlet&#45;&gt;Log -->
<g id="edge108" class="edge"><title>Hamlet&#45;&gt;Log</title>
<path fill="none" stroke="black" d="M733.849,-812.821C696.666,-789.948 625.451,-744.466 570,-699 543.616,-677.367 516.01,-649.647 497.595,-630.314"/>
<polygon fill="black" stroke="black" points="499.945,-627.705 490.534,-622.839 494.856,-632.512 499.945,-627.705"/>
</g>
<!-- Hamlet&#45;&gt;Driver -->
<g id="edge114" class="edge"><title>Hamlet&#45;&gt;Driver</title>
<path fill="none" stroke="black" d="M722.336,-816.958C692.519,-807.288 649.833,-791.851 615,-773 536.254,-730.385 453.505,-664.259 412.407,-629.735"/>
<polygon fill="black" stroke="black" points="414.652,-627.05 404.756,-623.268 410.133,-632.396 414.652,-627.05"/>
</g>
<!-- Hamlet&#45;&gt;FactInference -->
<g id="edge110" class="edge"><title>Hamlet&#45;&gt;FactInference</title>
<path fill="none" stroke="black" d="M746.661,-810.56C728.542,-784.949 694.604,-736.979 673.495,-707.143"/>
<polygon fill="black" stroke="black" points="676.28,-705.018 667.647,-698.876 670.565,-709.061 676.28,-705.018"/>
</g>
<!-- Hamlet&#45;&gt;Printers -->
<g id="edge106" class="edge"><title>Hamlet&#45;&gt;Printers</title>
<path fill="none" stroke="black" d="M765.301,-809.915C778.758,-771.291 810.378,-680.537 826.373,-634.63"/>
<polygon fill="black" stroke="black" points="829.735,-635.62 829.72,-625.025 823.124,-633.317 829.735,-635.62"/>
</g>
<!-- Hamlet&#45;&gt;WellKindedness -->
<g id="edge104" class="edge"><title>Hamlet&#45;&gt;WellKindedness</title>
<path fill="none" stroke="black" d="M793.77,-816.095C800.451,-813.957 807.418,-811.829 814,-810 884.739,-790.339 921.786,-823.586 975,-773 1033.99,-716.925 1039.01,-612.383 1037.68,-562.245"/>
<polygon fill="black" stroke="black" points="1041.18,-561.99 1037.31,-552.127 1034.18,-562.25 1041.18,-561.99"/>
</g>
<!-- Hamlet&#45;&gt;Env -->
<g id="edge112" class="edge"><title>Hamlet&#45;&gt;Env</title>
<path fill="none" stroke="black" d="M791.053,-814.78C822.291,-801.897 869.632,-782.372 901.636,-769.173"/>
<polygon fill="black" stroke="black" points="903.13,-772.342 911.04,-765.294 900.461,-765.871 903.13,-772.342"/>
</g>
</g>
</svg>
