<?xml version="1.0" encoding="UTF-8" standalone="no"?>
<!DOCTYPE svg PUBLIC "-//W3C//DTD SVG 1.1//EN"
 "http://www.w3.org/Graphics/SVG/1.1/DTD/svg11.dtd">
<!-- Generated by graphviz version 2.26.3 (20100126.1600)
 -->
<!-- Title: G Pages: 1 -->
<svg width="720pt" height="464pt"
 viewBox="0.00 0.00 720.00 464.39" xmlns="http://www.w3.org/2000/svg" xmlns:xlink="http://www.w3.org/1999/xlink">
<g id="graph1" class="graph" transform="scale(0.367981 0.367981) rotate(0) translate(4 1258)">
<title>G</title>
<polygon fill="white" stroke="white" points="-4,5 -4,-1258 1953.62,-1258 1953.62,5 -4,5"/>
<!-- FactInference -->
<g id="node1" class="node"><title>FactInference</title>
<ellipse fill="darkturquoise" stroke="darkturquoise" cx="1149" cy="-900" rx="75.9375" ry="18"/>
<text text-anchor="middle" x="1149" y="-895.9" font-family="DejaVu Sans, Helvetica, sans" font-size="14.00"><a xlink:href="FactInference.html" target="_parent">FactInference</a></text>
</g>
<!-- DataTypeFlavor -->
<g id="node3" class="node"><title>DataTypeFlavor</title>
<ellipse fill="darkturquoise" stroke="darkturquoise" cx="286" cy="-136" rx="86.8603" ry="18"/>
<text text-anchor="middle" x="286" y="-131.9" font-family="DejaVu Sans, Helvetica, sans" font-size="14.00"><a xlink:href="DataTypeFlavor.html" target="_parent">DataTypeFlavor</a></text>
</g>
<!-- FactInference&#45;&gt;DataTypeFlavor -->
<g id="edge2" class="edge"><title>FactInference&#45;&gt;DataTypeFlavor</title>
<path fill="none" stroke="black" d="M1074.72,-895.981C894.906,-885.559 447.367,-855.21 399,-809 212.224,-630.555 261.632,-267.888 280.395,-164.242"/>
<polygon fill="black" stroke="black" points="283.869,-164.703 282.26,-154.231 276.988,-163.421 283.869,-164.703"/>
</g>
<!-- DeBruijn -->
<g id="node5" class="node"><title>DeBruijn</title>
<ellipse fill="darkturquoise" stroke="darkturquoise" cx="1151" cy="-354" rx="53.0059" ry="18"/>
<text text-anchor="middle" x="1151" y="-349.9" font-family="DejaVu Sans, Helvetica, sans" font-size="14.00"><a xlink:href="DeBruijn.html" target="_parent">DeBruijn</a></text>
</g>
<!-- FactInference&#45;&gt;DeBruijn -->
<g id="edge4" class="edge"><title>FactInference&#45;&gt;DeBruijn</title>
<path fill="none" stroke="black" d="M1153.67,-881.636C1168.76,-819.666 1213.48,-612.766 1184,-445 1180.1,-422.795 1171.22,-398.872 1163.66,-381.13"/>
<polygon fill="black" stroke="black" points="1166.86,-379.707 1159.63,-371.959 1160.45,-382.522 1166.86,-379.707"/>
</g>
<!-- Fact -->
<g id="node7" class="node"><title>Fact</title>
<ellipse fill="darkturquoise" stroke="darkturquoise" cx="456" cy="-136" rx="30.7734" ry="18"/>
<text text-anchor="middle" x="456" y="-131.9" font-family="DejaVu Sans, Helvetica, sans" font-size="14.00"><a xlink:href="Fact.html" target="_parent">Fact</a></text>
</g>
<!-- FactInference&#45;&gt;Fact -->
<g id="edge6" class="edge"><title>FactInference&#45;&gt;Fact</title>
<path fill="none" stroke="black" d="M1080.26,-892.132C1011.02,-881.718 903.263,-858.522 823,-809 574.71,-655.805 482.534,-271.467 461.174,-164.195"/>
<polygon fill="black" stroke="black" points="464.564,-163.293 459.22,-154.144 457.693,-164.628 464.564,-163.293"/>
</g>
<!-- Hoist -->
<g id="node9" class="node"><title>Hoist</title>
<ellipse fill="darkturquoise" stroke="darkturquoise" cx="1580" cy="-791" rx="36.1339" ry="18"/>
<text text-anchor="middle" x="1580" y="-786.9" font-family="DejaVu Sans, Helvetica, sans" font-size="14.00"><a xlink:href="Hoist.html" target="_parent">Hoist</a></text>
</g>
<!-- FactInference&#45;&gt;Hoist -->
<g id="edge8" class="edge"><title>FactInference&#45;&gt;Hoist</title>
<path fill="none" stroke="black" d="M1200.99,-886.852C1287.23,-865.041 1458.24,-821.793 1537.65,-801.711"/>
<polygon fill="black" stroke="black" points="1538.94,-804.995 1547.77,-799.15 1537.22,-798.209 1538.94,-804.995"/>
</g>
<!-- TypeErrors -->
<g id="node11" class="node"><title>TypeErrors</title>
<ellipse fill="darkturquoise" stroke="darkturquoise" cx="1294" cy="-791" rx="63.2343" ry="18"/>
<text text-anchor="middle" x="1294" y="-786.9" font-family="DejaVu Sans, Helvetica, sans" font-size="14.00"><a xlink:href="TypeErrors.html" target="_parent">TypeErrors</a></text>
</g>
<!-- FactInference&#45;&gt;TypeErrors -->
<g id="edge10" class="edge"><title>FactInference&#45;&gt;TypeErrors</title>
<path fill="none" stroke="black" d="M1171.98,-882.729C1196.73,-864.123 1236.23,-834.43 1263.55,-813.89"/>
<polygon fill="black" stroke="black" points="1265.72,-816.639 1271.61,-807.832 1261.51,-811.044 1265.72,-816.639"/>
</g>
<!-- Types -->
<g id="node13" class="node"><title>Types</title>
<ellipse fill="darkturquoise" stroke="darkturquoise" cx="722" cy="-572" rx="38.9134" ry="18"/>
<text text-anchor="middle" x="722" y="-567.9" font-family="DejaVu Sans, Helvetica, sans" font-size="14.00"><a xlink:href="Types.html" target="_parent">Types</a></text>
</g>
<!-- FactInference&#45;&gt;Types -->
<g id="edge12" class="edge"><title>FactInference&#45;&gt;Types</title>
<path fill="none" stroke="black" d="M1090.78,-888.378C1001.58,-867.353 832.364,-814.141 746,-700 724.201,-671.19 720.265,-628.477 720.385,-600.441"/>
<polygon fill="black" stroke="black" points="723.891,-600.194 720.615,-590.119 716.893,-600.038 723.891,-600.194"/>
</g>
<!-- TypeCore -->
<g id="node15" class="node"><title>TypeCore</title>
<ellipse fill="darkturquoise" stroke="darkturquoise" cx="929" cy="-245" rx="55.7874" ry="18"/>
<text text-anchor="middle" x="929" y="-240.9" font-family="DejaVu Sans, Helvetica, sans" font-size="14.00"><a xlink:href="TypeCore.html" target="_parent">TypeCore</a></text>
</g>
<!-- FactInference&#45;&gt;TypeCore -->
<g id="edge14" class="edge"><title>FactInference&#45;&gt;TypeCore</title>
<path fill="none" stroke="black" d="M1197,-885.989C1242.88,-871.233 1312.75,-845.111 1366,-809 1422.19,-770.901 1442.76,-760.776 1473,-700 1498.62,-648.511 1492,-629.512 1492,-572 1492,-572 1492,-572 1492,-463 1492,-356.036 1134.13,-281.061 989.034,-255.058"/>
<polygon fill="black" stroke="black" points="989.42,-251.572 978.962,-253.27 988.197,-258.464 989.42,-251.572"/>
</g>
<!-- Mode -->
<g id="node17" class="node"><title>Mode</title>
<ellipse fill="darkturquoise" stroke="darkturquoise" cx="456" cy="-27" rx="36.8288" ry="18"/>
<text text-anchor="middle" x="456" y="-22.9" font-family="DejaVu Sans, Helvetica, sans" font-size="14.00"><a xlink:href="Mode.html" target="_parent">Mode</a></text>
</g>
<!-- FactInference&#45;&gt;Mode -->
<g id="edge16" class="edge"><title>FactInference&#45;&gt;Mode</title>
<path fill="none" stroke="black" d="M1215.36,-891.205C1339.01,-874.258 1594.92,-836.338 1625,-809 1663.98,-773.576 1758,-406.671 1758,-354 1758,-354 1758,-354 1758,-245 1758,-115.07 736.397,-44.2722 503.062,-29.7964"/>
<polygon fill="black" stroke="black" points="503.065,-26.29 492.869,-29.1688 502.635,-33.2768 503.065,-26.29"/>
</g>
<!-- DataTypeFlavor&#45;&gt;Mode -->
<g id="edge160" class="edge"><title>DataTypeFlavor&#45;&gt;Mode</title>
<path fill="none" stroke="black" d="M312.937,-118.729C343.403,-99.1947 392.931,-67.4383 424.985,-46.886"/>
<polygon fill="black" stroke="black" points="427.003,-49.7498 433.532,-41.4058 423.225,-43.857 427.003,-49.7498"/>
</g>
<!-- DeBruijn&#45;&gt;TypeCore -->
<g id="edge174" class="edge"><title>DeBruijn&#45;&gt;TypeCore</title>
<path fill="none" stroke="black" d="M1120.6,-339.073C1081.21,-319.735 1012.45,-285.975 968.905,-264.593"/>
<polygon fill="black" stroke="black" points="970.267,-261.363 959.748,-260.097 967.182,-267.646 970.267,-261.363"/>
</g>
<!-- Fact&#45;&gt;Mode -->
<g id="edge122" class="edge"><title>Fact&#45;&gt;Mode</title>
<path fill="none" stroke="black" d="M456,-117.51C456,-100.495 456,-75.0055 456,-55.4076"/>
<polygon fill="black" stroke="black" points="459.5,-55.2173 456,-45.2173 452.5,-55.2173 459.5,-55.2173"/>
</g>
<!-- Hoist&#45;&gt;TypeCore -->
<g id="edge50" class="edge"><title>Hoist&#45;&gt;TypeCore</title>
<path fill="none" stroke="black" d="M1578.33,-772.848C1575.03,-735.358 1568,-646.633 1568,-572 1568,-572 1568,-572 1568,-463 1568,-400.189 1556.51,-373.336 1506,-336 1425.82,-276.736 1128.41,-254.826 994.775,-247.851"/>
<polygon fill="black" stroke="black" points="994.835,-244.349 984.67,-247.336 994.479,-251.34 994.835,-244.349"/>
</g>
<!-- TypeErrors&#45;&gt;Types -->
<g id="edge102" class="edge"><title>TypeErrors&#45;&gt;Types</title>
<path fill="none" stroke="black" d="M1245.61,-779.306C1236.14,-777.126 1226.27,-774.929 1217,-773 1040.07,-736.199 970.454,-795.443 817,-700 777.771,-675.601 749.308,-628.595 734.251,-598.84"/>
<polygon fill="black" stroke="black" points="737.381,-597.275 729.837,-589.836 731.096,-600.356 737.381,-597.275"/>
</g>
<!-- TypeErrors&#45;&gt;TypeCore -->
<g id="edge104" class="edge"><title>TypeErrors&#45;&gt;TypeCore</title>
<path fill="none" stroke="black" d="M1287.22,-772.837C1273.99,-735.687 1246,-648.095 1246,-572 1246,-572 1246,-572 1246,-463 1246,-404.681 1253.07,-378.373 1213,-336 1181.87,-303.08 1060.56,-272.64 986.933,-256.675"/>
<polygon fill="black" stroke="black" points="987.385,-253.192 976.874,-254.519 985.918,-260.037 987.385,-253.192"/>
</g>
<!-- Expressions -->
<g id="node23" class="node"><title>Expressions</title>
<ellipse fill="darkturquoise" stroke="darkturquoise" cx="1074" cy="-682" rx="68.0985" ry="18"/>
<text text-anchor="middle" x="1074" y="-677.9" font-family="DejaVu Sans, Helvetica, sans" font-size="14.00"><a xlink:href="Expressions.html" target="_parent">Expressions</a></text>
</g>
<!-- TypeErrors&#45;&gt;Expressions -->
<g id="edge106" class="edge"><title>TypeErrors&#45;&gt;Expressions</title>
<path fill="none" stroke="black" d="M1262.48,-775.383C1223.74,-756.188 1157.9,-723.567 1115.19,-702.406"/>
<polygon fill="black" stroke="black" points="1116.69,-699.246 1106.18,-697.943 1113.58,-705.518 1116.69,-699.246"/>
</g>
<!-- Derivations -->
<g id="node45" class="node"><title>Derivations</title>
<ellipse fill="darkturquoise" stroke="darkturquoise" cx="1805" cy="-572" rx="66.2071" ry="18"/>
<text text-anchor="middle" x="1805" y="-567.9" font-family="DejaVu Sans, Helvetica, sans" font-size="14.00"><a xlink:href="Derivations.html" target="_parent">Derivations</a></text>
</g>
<!-- TypeErrors&#45;&gt;Derivations -->
<g id="edge108" class="edge"><title>TypeErrors&#45;&gt;Derivations</title>
<path fill="none" stroke="black" d="M1329.12,-775.947C1419.45,-737.236 1659.73,-634.259 1760.03,-591.272"/>
<polygon fill="black" stroke="black" points="1761.48,-594.46 1769.29,-587.304 1758.72,-588.026 1761.48,-594.46"/>
</g>
<!-- DerivationPrinter -->
<g id="node61" class="node"><title>DerivationPrinter</title>
<ellipse fill="darkturquoise" stroke="darkturquoise" cx="1369" cy="-682" rx="95.1989" ry="18"/>
<text text-anchor="middle" x="1369" y="-677.9" font-family="DejaVu Sans, Helvetica, sans" font-size="14.00"><a xlink:href="DerivationPrinter.html" target="_parent">DerivationPrinter</a></text>
</g>
<!-- TypeErrors&#45;&gt;DerivationPrinter -->
<g id="edge100" class="edge"><title>TypeErrors&#45;&gt;DerivationPrinter</title>
<path fill="none" stroke="black" d="M1306.38,-773.001C1318.49,-755.408 1337.06,-728.425 1350.83,-708.404"/>
<polygon fill="black" stroke="black" points="1353.81,-710.248 1356.6,-700.026 1348.04,-706.28 1353.81,-710.248"/>
</g>
<!-- Types&#45;&gt;DataTypeFlavor -->
<g id="edge38" class="edge"><title>Types&#45;&gt;DataTypeFlavor</title>
<path fill="none" stroke="black" d="M705.441,-555.441C638.988,-488.988 391.4,-241.4 311.227,-161.227"/>
<polygon fill="black" stroke="black" points="313.549,-158.599 304.003,-154.003 308.599,-163.549 313.549,-158.599"/>
</g>
<!-- Types&#45;&gt;DeBruijn -->
<g id="edge28" class="edge"><title>Types&#45;&gt;DeBruijn</title>
<path fill="none" stroke="black" d="M755.631,-562.821C834.332,-541.269 1024.78,-488.666 1037,-481 1078.85,-454.746 1114.55,-408.81 1134.35,-379.972"/>
<polygon fill="black" stroke="black" points="1137.3,-381.863 1139.98,-371.612 1131.49,-377.955 1137.3,-381.863"/>
</g>
<!-- Types&#45;&gt;Fact -->
<g id="edge36" class="edge"><title>Types&#45;&gt;Fact</title>
<path fill="none" stroke="black" d="M711.408,-554.639C670.284,-487.233 521.049,-242.622 471.852,-161.984"/>
<polygon fill="black" stroke="black" points="474.818,-160.124 466.622,-153.41 468.842,-163.77 474.818,-160.124"/>
</g>
<!-- Types&#45;&gt;TypeCore -->
<g id="edge34" class="edge"><title>Types&#45;&gt;TypeCore</title>
<path fill="none" stroke="black" d="M729.689,-554.304C747.617,-513.886 794.739,-412.39 848,-336 864.679,-312.077 886.889,-287.526 903.834,-269.963"/>
<polygon fill="black" stroke="black" points="906.725,-272.011 911.209,-262.412 901.718,-267.12 906.725,-272.011"/>
</g>
<!-- Types&#45;&gt;Mode -->
<g id="edge30" class="edge"><title>Types&#45;&gt;Mode</title>
<path fill="none" stroke="black" d="M717.133,-554.069C707.516,-517.005 687,-429.131 687,-354 687,-354 687,-354 687,-245 687,-140.409 560.195,-71.133 494.485,-42.2561"/>
<polygon fill="black" stroke="black" points="495.826,-39.0226 485.256,-38.2893 493.062,-45.4537 495.826,-39.0226"/>
</g>
<!-- Resugar -->
<g id="node28" class="node"><title>Resugar</title>
<ellipse fill="darkturquoise" stroke="darkturquoise" cx="978" cy="-463" rx="50.0315" ry="18"/>
<text text-anchor="middle" x="978" y="-458.9" font-family="DejaVu Sans, Helvetica, sans" font-size="14.00"><a xlink:href="Resugar.html" target="_parent">Resugar</a></text>
</g>
<!-- Types&#45;&gt;Resugar -->
<g id="edge32" class="edge"><title>Types&#45;&gt;Resugar</title>
<path fill="none" stroke="black" d="M750.869,-559.708C796.17,-540.42 884.155,-502.957 936.321,-480.746"/>
<polygon fill="black" stroke="black" points="937.797,-483.922 945.626,-476.784 935.054,-477.482 937.797,-483.922"/>
</g>
<!-- TypeCore&#45;&gt;DataTypeFlavor -->
<g id="edge96" class="edge"><title>TypeCore&#45;&gt;DataTypeFlavor</title>
<path fill="none" stroke="black" d="M879.347,-236.583C767.954,-217.7 497.441,-171.843 363.614,-149.157"/>
<polygon fill="black" stroke="black" points="363.883,-145.653 353.439,-147.432 362.713,-152.554 363.883,-145.653"/>
</g>
<!-- TypeCore&#45;&gt;Fact -->
<g id="edge94" class="edge"><title>TypeCore&#45;&gt;Fact</title>
<path fill="none" stroke="black" d="M883.217,-234.45C790.425,-213.066 581.651,-164.956 494.922,-144.969"/>
<polygon fill="black" stroke="black" points="495.497,-141.51 484.967,-142.675 493.925,-148.331 495.497,-141.51"/>
</g>
<!-- TypeCore&#45;&gt;Mode -->
<g id="edge92" class="edge"><title>TypeCore&#45;&gt;Mode</title>
<path fill="none" stroke="black" d="M932.168,-226.667C935.776,-199.181 937.975,-147.39 910,-118 854.474,-59.6662 607.745,-36.9 503.134,-29.7601"/>
<polygon fill="black" stroke="black" points="503.082,-26.2491 492.872,-29.079 502.619,-33.2337 503.082,-26.2491"/>
</g>
<!-- Mark -->
<g id="node65" class="node"><title>Mark</title>
<ellipse fill="darkturquoise" stroke="darkturquoise" cx="866" cy="-136" rx="34.9399" ry="18"/>
<text text-anchor="middle" x="866" y="-131.9" font-family="DejaVu Sans, Helvetica, sans" font-size="14.00"><a xlink:href="Mark.html" target="_parent">Mark</a></text>
</g>
<!-- TypeCore&#45;&gt;Mark -->
<g id="edge90" class="edge"><title>TypeCore&#45;&gt;Mark</title>
<path fill="none" stroke="black" d="M918.597,-227.001C908.399,-209.357 892.742,-182.268 881.16,-162.23"/>
<polygon fill="black" stroke="black" points="884.037,-160.212 876.002,-153.305 877.976,-163.715 884.037,-160.212"/>
</g>
<!-- KindCheck -->
<g id="node18" class="node"><title>KindCheck</title>
<ellipse fill="darkturquoise" stroke="darkturquoise" cx="470" cy="-791" rx="61.8445" ry="18"/>
<text text-anchor="middle" x="470" y="-786.9" font-family="DejaVu Sans, Helvetica, sans" font-size="14.00"><a xlink:href="KindCheck.html" target="_parent">KindCheck</a></text>
</g>
<!-- KindCheck&#45;&gt;DataTypeFlavor -->
<g id="edge26" class="edge"><title>KindCheck&#45;&gt;DataTypeFlavor</title>
<path fill="none" stroke="black" d="M464.887,-772.798C439.275,-681.625 324.937,-274.606 293.833,-163.884"/>
<polygon fill="black" stroke="black" points="297.163,-162.795 291.089,-154.114 290.424,-164.688 297.163,-162.795"/>
</g>
<!-- KindCheck&#45;&gt;Types -->
<g id="edge18" class="edge"><title>KindCheck&#45;&gt;Types</title>
<path fill="none" stroke="black" d="M485.556,-773.204C508.218,-747.727 552.179,-699.966 594,-664 625.132,-637.227 663.74,-610.234 690.366,-592.476"/>
<polygon fill="black" stroke="black" points="692.502,-595.26 698.909,-586.822 688.638,-589.423 692.502,-595.26"/>
</g>
<!-- KindCheck&#45;&gt;TypeCore -->
<g id="edge20" class="edge"><title>KindCheck&#45;&gt;TypeCore</title>
<path fill="none" stroke="black" d="M481.145,-772.953C496.742,-747.981 526.29,-701.703 554,-664 665.318,-512.536 689.216,-470.037 821,-336 845.54,-311.04 876.297,-285.619 898.705,-268.013"/>
<polygon fill="black" stroke="black" points="901.116,-270.572 906.854,-261.665 896.814,-265.049 901.116,-270.572"/>
</g>
<!-- KindCheck&#45;&gt;Mode -->
<g id="edge22" class="edge"><title>KindCheck&#45;&gt;Mode</title>
<path fill="none" stroke="black" d="M458.808,-773.186C413.68,-700.168 244.888,-415.27 190,-154 186.711,-138.342 180.696,-131.017 190,-118 216.187,-81.3646 342.827,-50.2629 411.499,-35.752"/>
<polygon fill="black" stroke="black" points="412.519,-39.1149 421.595,-33.6499 411.092,-32.2618 412.519,-39.1149"/>
</g>
<!-- KindCheck&#45;&gt;Expressions -->
<g id="edge24" class="edge"><title>KindCheck&#45;&gt;Expressions</title>
<path fill="none" stroke="black" d="M522.808,-781.47C632.962,-761.591 887.016,-715.744 1007.84,-693.939"/>
<polygon fill="black" stroke="black" points="1008.49,-697.379 1017.71,-692.158 1007.25,-690.49 1008.49,-697.379"/>
</g>
<!-- Expressions&#45;&gt;DeBruijn -->
<g id="edge40" class="edge"><title>Expressions&#45;&gt;DeBruijn</title>
<path fill="none" stroke="black" d="M1078.25,-663.898C1091,-609.576 1129.01,-447.674 1144.41,-382.072"/>
<polygon fill="black" stroke="black" points="1147.89,-382.581 1146.76,-372.046 1141.07,-380.981 1147.89,-382.581"/>
</g>
<!-- Expressions&#45;&gt;Types -->
<g id="edge42" class="edge"><title>Expressions&#45;&gt;Types</title>
<path fill="none" stroke="black" d="M1029.78,-668.18C961.454,-646.83 831.145,-606.108 764.122,-585.163"/>
<polygon fill="black" stroke="black" points="764.906,-581.741 754.317,-582.099 762.818,-588.423 764.906,-581.741"/>
</g>
<!-- Expressions&#45;&gt;TypeCore -->
<g id="edge44" class="edge"><title>Expressions&#45;&gt;TypeCore</title>
<path fill="none" stroke="black" d="M1073.27,-663.968C1071.18,-623.683 1063.53,-523.731 1037,-445 1014.7,-378.81 971.606,-308.54 947.135,-271.473"/>
<polygon fill="black" stroke="black" points="949.801,-269.163 941.339,-262.788 943.979,-273.048 949.801,-269.163"/>
</g>
<!-- Resugar&#45;&gt;DeBruijn -->
<g id="edge46" class="edge"><title>Resugar&#45;&gt;DeBruijn</title>
<path fill="none" stroke="black" d="M1003.16,-447.15C1033.26,-428.18 1083.8,-396.338 1117.28,-375.248"/>
<polygon fill="black" stroke="black" points="1119.22,-378.161 1125.81,-369.869 1115.49,-372.238 1119.22,-378.161"/>
</g>
<!-- Resugar&#45;&gt;TypeCore -->
<g id="edge48" class="edge"><title>Resugar&#45;&gt;TypeCore</title>
<path fill="none" stroke="black" d="M973.907,-444.788C965.346,-406.704 945.504,-318.425 935.304,-273.046"/>
<polygon fill="black" stroke="black" points="938.655,-271.995 933.047,-263.006 931.826,-273.531 938.655,-271.995"/>
</g>
<!-- Permissions -->
<g id="node38" class="node"><title>Permissions</title>
<ellipse fill="darkturquoise" stroke="darkturquoise" cx="1429" cy="-1009" rx="66.9043" ry="18"/>
<text text-anchor="middle" x="1429" y="-1004.9" font-family="DejaVu Sans, Helvetica, sans" font-size="14.00"><a xlink:href="Permissions.html" target="_parent">Permissions</a></text>
</g>
<!-- Permissions&#45;&gt;FactInference -->
<g id="edge54" class="edge"><title>Permissions&#45;&gt;FactInference</title>
<path fill="none" stroke="black" d="M1390.65,-994.073C1340.64,-974.602 1253.06,-940.51 1198.2,-919.153"/>
<polygon fill="black" stroke="black" points="1199.28,-915.816 1188.69,-915.45 1196.74,-922.339 1199.28,-915.816"/>
</g>
<!-- Permissions&#45;&gt;DeBruijn -->
<g id="edge52" class="edge"><title>Permissions&#45;&gt;DeBruijn</title>
<path fill="none" stroke="black" d="M1444.09,-991.271C1457.8,-973.901 1477.07,-946.023 1485,-918 1502.59,-855.844 1562.82,-860 1473,-664 1410.04,-526.609 1256.51,-418.846 1186.66,-375.148"/>
<polygon fill="black" stroke="black" points="1188.12,-371.935 1177.77,-369.652 1184.44,-377.889 1188.12,-371.935"/>
</g>
<!-- Permissions&#45;&gt;Hoist -->
<g id="edge56" class="edge"><title>Permissions&#45;&gt;Hoist</title>
<path fill="none" stroke="black" d="M1456.17,-992.344C1480.51,-976.134 1515.59,-949.397 1537,-918 1557.73,-887.61 1569.25,-846.347 1575.03,-819.214"/>
<polygon fill="black" stroke="black" points="1578.5,-819.708 1577.04,-809.214 1571.64,-818.329 1578.5,-819.708"/>
</g>
<!-- Permissions&#45;&gt;Types -->
<g id="edge58" class="edge"><title>Permissions&#45;&gt;Types</title>
<path fill="none" stroke="black" d="M1406.21,-991.976C1370.71,-965.982 1299.5,-915.852 1234,-882 1038.68,-781.054 930.176,-854.757 774,-700 746.504,-672.754 733.01,-628.992 726.791,-600.365"/>
<polygon fill="black" stroke="black" points="730.15,-599.315 724.75,-590.2 723.287,-600.694 730.15,-599.315"/>
</g>
<!-- Permissions&#45;&gt;TypeCore -->
<g id="edge60" class="edge"><title>Permissions&#45;&gt;TypeCore</title>
<path fill="none" stroke="black" d="M1459.89,-993.01C1511.02,-964.389 1610.63,-898.881 1641,-809 1674.72,-709.202 1644,-677.342 1644,-572 1644,-572 1644,-572 1644,-463 1644,-398.116 1625.63,-372.52 1572,-336 1478.89,-272.597 1139.35,-252.729 994.837,-247.063"/>
<polygon fill="black" stroke="black" points="994.901,-243.563 984.775,-246.679 994.634,-250.558 994.901,-243.563"/>
</g>
<!-- Permissions&#45;&gt;Derivations -->
<g id="edge62" class="edge"><title>Permissions&#45;&gt;Derivations</title>
<path fill="none" stroke="black" d="M1485.86,-999.284C1564.58,-984.668 1700.83,-954.779 1734,-918 1810.94,-832.682 1757.39,-776.22 1782,-664 1786.74,-642.39 1792.84,-618.118 1797.57,-599.933"/>
<polygon fill="black" stroke="black" points="1800.95,-600.815 1800.1,-590.254 1794.18,-599.041 1800.95,-600.815"/>
</g>
<!-- Derivations&#45;&gt;TypeCore -->
<g id="edge98" class="edge"><title>Derivations&#45;&gt;TypeCore</title>
<path fill="none" stroke="black" d="M1799.75,-553.98C1785.48,-508.577 1741.37,-389.312 1658,-336 1548.78,-266.156 1153.33,-249.854 995.106,-246.102"/>
<polygon fill="black" stroke="black" points="995.11,-242.601 985.033,-245.873 994.951,-249.6 995.11,-242.601"/>
</g>
<!-- Interfaces -->
<g id="node46" class="node"><title>Interfaces</title>
<ellipse fill="darkturquoise" stroke="darkturquoise" cx="608" cy="-1118" rx="59.065" ry="18"/>
<text text-anchor="middle" x="608" y="-1113.9" font-family="DejaVu Sans, Helvetica, sans" font-size="14.00"><a xlink:href="Interfaces.html" target="_parent">Interfaces</a></text>
</g>
<!-- Interfaces&#45;&gt;DataTypeFlavor -->
<g id="edge64" class="edge"><title>Interfaces&#45;&gt;DataTypeFlavor</title>
<path fill="none" stroke="black" d="M555.652,-1109.55C414.741,-1085.32 38,-1010.25 38,-900 38,-900 38,-900 38,-682 38,-463.96 203.976,-237.255 264.364,-161.987"/>
<polygon fill="black" stroke="black" points="267.285,-163.942 270.86,-153.968 261.845,-159.535 267.285,-163.942"/>
</g>
<!-- Interfaces&#45;&gt;Fact -->
<g id="edge72" class="edge"><title>Interfaces&#45;&gt;Fact</title>
<path fill="none" stroke="black" d="M555.659,-1109.68C471.988,-1095.46 313.218,-1064.34 271,-1027 153.473,-923.061 168.116,-853.977 138,-700 121.99,-618.143 130.552,-538.13 176,-445 238.792,-316.328 371.678,-202.045 428.879,-156.715"/>
<polygon fill="black" stroke="black" points="431.048,-159.462 436.752,-150.533 426.725,-153.956 431.048,-159.462"/>
</g>
<!-- Interfaces&#45;&gt;TypeErrors -->
<g id="edge80" class="edge"><title>Interfaces&#45;&gt;TypeErrors</title>
<path fill="none" stroke="black" d="M665.069,-1113.27C735.772,-1105.14 857.577,-1083.49 945,-1027 1015.02,-981.756 996.644,-931.127 1064,-882 1116.1,-844.004 1186.21,-819.273 1235.28,-805.319"/>
<polygon fill="black" stroke="black" points="1236.41,-808.637 1245.11,-802.587 1234.53,-801.892 1236.41,-808.637"/>
</g>
<!-- Interfaces&#45;&gt;TypeCore -->
<g id="edge84" class="edge"><title>Interfaces&#45;&gt;TypeCore</title>
<path fill="none" stroke="black" d="M555.463,-1109.78C446.513,-1089.7 208.677,-1028.66 241,-882 311.371,-562.712 455.708,-507.61 734,-336 782.722,-305.956 842.973,-279.278 883.501,-262.699"/>
<polygon fill="black" stroke="black" points="884.898,-265.909 892.852,-258.91 882.269,-259.422 884.898,-265.909"/>
</g>
<!-- Interfaces&#45;&gt;KindCheck -->
<g id="edge74" class="edge"><title>Interfaces&#45;&gt;KindCheck</title>
<path fill="none" stroke="black" d="M600.384,-1099.95C577.482,-1045.69 509.13,-883.722 481.64,-818.583"/>
<polygon fill="black" stroke="black" points="484.705,-816.843 477.593,-808.991 478.256,-819.565 484.705,-816.843"/>
</g>
<!-- Interfaces&#45;&gt;Expressions -->
<g id="edge70" class="edge"><title>Interfaces&#45;&gt;Expressions</title>
<path fill="none" stroke="black" d="M665.38,-1113.8C730.201,-1106.27 835.553,-1085.31 904,-1027 910.716,-1021.28 1022.27,-789.732 1060.93,-709.238"/>
<polygon fill="black" stroke="black" points="1064.1,-710.725 1065.27,-700.195 1057.79,-707.695 1064.1,-710.725"/>
</g>
<!-- Interfaces&#45;&gt;Permissions -->
<g id="edge76" class="edge"><title>Interfaces&#45;&gt;Permissions</title>
<path fill="none" stroke="black" d="M662.186,-1110.81C806.025,-1091.71 1197.45,-1039.74 1358.42,-1018.37"/>
<polygon fill="black" stroke="black" points="1359.23,-1021.79 1368.69,-1017.01 1358.31,-1014.85 1359.23,-1021.79"/>
</g>
<!-- Interfaces&#45;&gt;Derivations -->
<g id="edge68" class="edge"><title>Interfaces&#45;&gt;Derivations</title>
<path fill="none" stroke="black" d="M665.97,-1114.42C838.221,-1103.41 1344.91,-1068.31 1505,-1027 1641.64,-991.743 1796,-1041.11 1796,-900 1796,-900 1796,-900 1796,-791 1796,-722.534 1800.45,-642.13 1803.09,-600.388"/>
<polygon fill="black" stroke="black" points="1806.6,-600.365 1803.75,-590.16 1799.61,-599.914 1806.6,-600.365"/>
</g>
<!-- DataTypeGroup -->
<g id="node49" class="node"><title>DataTypeGroup</title>
<ellipse fill="darkturquoise" stroke="darkturquoise" cx="808" cy="-1009" rx="86.8603" ry="18"/>
<text text-anchor="middle" x="808" y="-1004.9" font-family="DejaVu Sans, Helvetica, sans" font-size="14.00"><a xlink:href="DataTypeGroup.html" target="_parent">DataTypeGroup</a></text>
</g>
<!-- Interfaces&#45;&gt;DataTypeGroup -->
<g id="edge66" class="edge"><title>Interfaces&#45;&gt;DataTypeGroup</title>
<path fill="none" stroke="black" d="M637.082,-1102.15C671.584,-1083.35 729.293,-1051.9 767.989,-1030.81"/>
<polygon fill="black" stroke="black" points="769.802,-1033.8 776.908,-1025.95 766.452,-1027.66 769.802,-1033.8"/>
</g>
<!-- TransSurface -->
<g id="node56" class="node"><title>TransSurface</title>
<ellipse fill="darkturquoise" stroke="darkturquoise" cx="323" cy="-900" rx="73.1565" ry="18"/>
<text text-anchor="middle" x="323" y="-895.9" font-family="DejaVu Sans, Helvetica, sans" font-size="14.00"><a xlink:href="TransSurface.html" target="_parent">TransSurface</a></text>
</g>
<!-- Interfaces&#45;&gt;TransSurface -->
<g id="edge78" class="edge"><title>Interfaces&#45;&gt;TransSurface</title>
<path fill="none" stroke="black" d="M579.733,-1102.06C550.002,-1084.87 502.304,-1056.02 464,-1027 421.036,-994.447 375.394,-951.628 348.048,-924.962"/>
<polygon fill="black" stroke="black" points="350.428,-922.394 340.838,-917.891 345.527,-927.392 350.428,-922.394"/>
</g>
<!-- Variance -->
<g id="node59" class="node"><title>Variance</title>
<ellipse fill="darkturquoise" stroke="darkturquoise" cx="727" cy="-900" rx="52.8111" ry="18"/>
<text text-anchor="middle" x="727" y="-895.9" font-family="DejaVu Sans, Helvetica, sans" font-size="14.00"><a xlink:href="Variance.html" target="_parent">Variance</a></text>
</g>
<!-- Interfaces&#45;&gt;Variance -->
<g id="edge82" class="edge"><title>Interfaces&#45;&gt;Variance</title>
<path fill="none" stroke="black" d="M617.738,-1100.16C638.623,-1061.9 687.814,-971.786 712.433,-926.686"/>
<polygon fill="black" stroke="black" points="715.575,-928.235 717.294,-917.781 709.431,-924.881 715.575,-928.235"/>
</g>
<!-- DataTypeGroup&#45;&gt;FactInference -->
<g id="edge178" class="edge"><title>DataTypeGroup&#45;&gt;FactInference</title>
<path fill="none" stroke="black" d="M855.415,-993.844C917.905,-973.869 1027.63,-938.796 1093.79,-917.649"/>
<polygon fill="black" stroke="black" points="1095.16,-920.885 1103.62,-914.506 1093.03,-914.217 1095.16,-920.885"/>
</g>
<!-- DataTypeGroup&#45;&gt;DeBruijn -->
<g id="edge176" class="edge"><title>DataTypeGroup&#45;&gt;DeBruijn</title>
<path fill="none" stroke="black" d="M840.43,-992.282C912.701,-952.935 1085.74,-846.632 1151,-700 1199.5,-591.022 1172.76,-442.923 1158.32,-381.967"/>
<polygon fill="black" stroke="black" points="1161.65,-380.839 1155.87,-371.957 1154.85,-382.502 1161.65,-380.839"/>
</g>
<!-- DataTypeGroup&#45;&gt;TypeCore -->
<g id="edge184" class="edge"><title>DataTypeGroup&#45;&gt;TypeCore</title>
<path fill="none" stroke="black" d="M812.847,-990.729C819.577,-965.887 832.461,-920.176 846,-882 875.243,-799.544 904.01,-785.822 921,-700 933.601,-636.346 924.54,-618.792 921,-554 919.22,-521.41 914.78,-513.59 913,-481 912.127,-465.024 912.707,-460.997 913,-445 913.889,-396.531 912.938,-384.307 917,-336 918.778,-314.861 921.952,-291.099 924.589,-273.158"/>
<polygon fill="black" stroke="black" points="928.079,-273.484 926.104,-263.074 921.157,-272.443 928.079,-273.484"/>
</g>
<!-- DataTypeGroup&#45;&gt;KindCheck -->
<g id="edge180" class="edge"><title>DataTypeGroup&#45;&gt;KindCheck</title>
<path fill="none" stroke="black" d="M780.798,-991.809C751.989,-973.575 705.207,-943.885 665,-918 608.392,-881.556 542.855,-838.745 503.999,-813.298"/>
<polygon fill="black" stroke="black" points="505.47,-810.077 495.187,-807.525 501.634,-815.933 505.47,-810.077"/>
</g>
<!-- DataTypeGroup&#45;&gt;Expressions -->
<g id="edge186" class="edge"><title>DataTypeGroup&#45;&gt;Expressions</title>
<path fill="none" stroke="black" d="M815.323,-991.06C833.017,-949.257 881.446,-843.564 946,-773 971.877,-744.714 1007.94,-720.048 1035.2,-703.558"/>
<polygon fill="black" stroke="black" points="1037.26,-706.402 1044.07,-698.286 1033.69,-700.383 1037.26,-706.402"/>
</g>
<!-- DataTypeGroup&#45;&gt;Variance -->
<g id="edge182" class="edge"><title>DataTypeGroup&#45;&gt;Variance</title>
<path fill="none" stroke="black" d="M794.624,-991.001C781.414,-973.224 761.077,-945.857 746.154,-925.775"/>
<polygon fill="black" stroke="black" points="748.901,-923.603 740.127,-917.664 743.282,-927.778 748.901,-923.603"/>
</g>
<!-- TransSurface&#45;&gt;DataTypeFlavor -->
<g id="edge146" class="edge"><title>TransSurface&#45;&gt;DataTypeFlavor</title>
<path fill="none" stroke="black" d="M303.283,-882.398C285.999,-865.535 262.102,-838.371 252,-809 167.867,-564.398 206.001,-481.544 252,-227 256.024,-204.735 265.167,-180.815 272.96,-163.089"/>
<polygon fill="black" stroke="black" points="276.171,-164.481 277.109,-153.928 269.795,-161.593 276.171,-164.481"/>
</g>
<!-- TransSurface&#45;&gt;Fact -->
<g id="edge148" class="edge"><title>TransSurface&#45;&gt;Fact</title>
<path fill="none" stroke="black" d="M324.859,-881.855C332.241,-811.338 361.181,-548.868 404,-336 416.514,-273.791 436.558,-202.073 447.754,-163.681"/>
<polygon fill="black" stroke="black" points="451.204,-164.353 450.663,-153.772 444.488,-162.381 451.204,-164.353"/>
</g>
<!-- TransSurface&#45;&gt;Types -->
<g id="edge152" class="edge"><title>TransSurface&#45;&gt;Types</title>
<path fill="none" stroke="black" d="M330.795,-882.026C342.736,-855.907 367.521,-806.886 399,-773 483.232,-682.327 617.206,-616.703 682.976,-588.038"/>
<polygon fill="black" stroke="black" points="684.748,-591.086 692.55,-583.917 681.981,-584.656 684.748,-591.086"/>
</g>
<!-- TransSurface&#45;&gt;TypeCore -->
<g id="edge154" class="edge"><title>TransSurface&#45;&gt;TypeCore</title>
<path fill="none" stroke="black" d="M328.002,-881.813C340.183,-839.933 374.59,-734.855 431,-664 564.187,-496.706 613.254,-466.047 783,-336 818.023,-309.168 861.24,-283.002 891.533,-265.668"/>
<polygon fill="black" stroke="black" points="893.527,-268.561 900.496,-260.581 890.071,-262.473 893.527,-268.561"/>
</g>
<!-- TransSurface&#45;&gt;Mode -->
<g id="edge150" class="edge"><title>TransSurface&#45;&gt;Mode</title>
<path fill="none" stroke="black" d="M302.815,-882.466C283.915,-865.237 255.838,-837.458 237,-809 115.17,-624.952 38,-574.718 38,-354 38,-354 38,-354 38,-245 38,-79.2878 299.464,-39.3353 408.812,-29.8725"/>
<polygon fill="black" stroke="black" points="409.223,-33.3506 418.905,-29.0487 408.654,-26.3738 409.223,-33.3506"/>
</g>
<!-- TransSurface&#45;&gt;KindCheck -->
<g id="edge156" class="edge"><title>TransSurface&#45;&gt;KindCheck</title>
<path fill="none" stroke="black" d="M346.293,-882.729C371.384,-864.123 411.429,-834.43 439.129,-813.89"/>
<polygon fill="black" stroke="black" points="441.351,-816.6 447.299,-807.832 437.182,-810.977 441.351,-816.6"/>
</g>
<!-- TransSurface&#45;&gt;Expressions -->
<g id="edge158" class="edge"><title>TransSurface&#45;&gt;Expressions</title>
<path fill="none" stroke="black" d="M370.263,-886.281C502.556,-847.879 876.157,-739.43 1018.23,-698.19"/>
<polygon fill="black" stroke="black" points="1019.42,-701.488 1028.05,-695.339 1017.47,-694.765 1019.42,-701.488"/>
</g>
<!-- Variance&#45;&gt;TypeErrors -->
<g id="edge116" class="edge"><title>Variance&#45;&gt;TypeErrors</title>
<path fill="none" stroke="black" d="M773.4,-891.08C874.939,-871.56 1116.91,-825.044 1231.62,-802.992"/>
<polygon fill="black" stroke="black" points="1232.49,-806.388 1241.65,-801.063 1231.17,-799.514 1232.49,-806.388"/>
</g>
<!-- Variance&#45;&gt;Types -->
<g id="edge118" class="edge"><title>Variance&#45;&gt;Types</title>
<path fill="none" stroke="black" d="M723.623,-881.944C716.658,-842.439 701.845,-745.361 708,-664 709.63,-642.453 713.378,-618.308 716.587,-600.161"/>
<polygon fill="black" stroke="black" points="720.046,-600.7 718.393,-590.235 713.159,-599.447 720.046,-600.7"/>
</g>
<!-- Variance&#45;&gt;TypeCore -->
<g id="edge120" class="edge"><title>Variance&#45;&gt;TypeCore</title>
<path fill="none" stroke="black" d="M748.809,-883.523C788.812,-852.171 874.105,-779.889 921,-700 954.678,-642.628 968.747,-618.871 954,-554 946.024,-518.914 926.976,-516.086 919,-481 915.453,-465.398 918.6,-460.995 919,-445 920.532,-383.688 924.701,-311.902 927.146,-273.193"/>
<polygon fill="black" stroke="black" points="930.64,-273.392 927.786,-263.189 923.654,-272.945 930.64,-273.392"/>
</g>
<!-- DerivationPrinter&#45;&gt;Types -->
<g id="edge86" class="edge"><title>DerivationPrinter&#45;&gt;Types</title>
<path fill="none" stroke="black" d="M1289.24,-672.051C1176.97,-657.435 966.245,-627.757 789,-590 781.214,-588.341 772.983,-586.339 765.054,-584.282"/>
<polygon fill="black" stroke="black" points="765.795,-580.857 755.231,-581.668 763.994,-587.622 765.795,-580.857"/>
</g>
<!-- DerivationPrinter&#45;&gt;Derivations -->
<g id="edge88" class="edge"><title>DerivationPrinter&#45;&gt;Derivations</title>
<path fill="none" stroke="black" d="M1426.45,-667.506C1509.66,-646.512 1662.92,-607.847 1746.64,-586.724"/>
<polygon fill="black" stroke="black" points="1747.66,-590.077 1756.5,-584.237 1745.94,-583.29 1747.66,-590.077"/>
</g>
<!-- Modules -->
<g id="node75" class="node"><title>Modules</title>
<ellipse fill="darkturquoise" stroke="darkturquoise" cx="1407" cy="-900" rx="50.2242" ry="18"/>
<text text-anchor="middle" x="1407" y="-895.9" font-family="DejaVu Sans, Helvetica, sans" font-size="14.00"><a xlink:href="Modules.html" target="_parent">Modules</a></text>
</g>
<!-- Modules&#45;&gt;TypeErrors -->
<g id="edge114" class="edge"><title>Modules&#45;&gt;TypeErrors</title>
<path fill="none" stroke="black" d="M1389.34,-882.969C1370.55,-864.838 1340.63,-835.983 1319.33,-815.432"/>
<polygon fill="black" stroke="black" points="1321.53,-812.695 1311.91,-808.271 1316.67,-817.733 1321.53,-812.695"/>
</g>
<!-- Modules&#45;&gt;TypeCore -->
<g id="edge112" class="edge"><title>Modules&#45;&gt;TypeCore</title>
<path fill="none" stroke="black" d="M1455.36,-895.102C1507.28,-886.971 1587.37,-865.488 1625,-809 1633.87,-795.684 1625.75,-788.982 1625,-773 1620.77,-683.368 1606,-661.732 1606,-572 1606,-572 1606,-572 1606,-463 1606,-398.974 1590.34,-372.876 1538,-336 1451.46,-275.031 1134.35,-253.934 995.2,-247.506"/>
<polygon fill="black" stroke="black" points="995.242,-244.004 985.095,-247.05 994.927,-250.997 995.242,-244.004"/>
</g>
<!-- Modules&#45;&gt;Expressions -->
<g id="edge110" class="edge"><title>Modules&#45;&gt;Expressions</title>
<path fill="none" stroke="black" d="M1406.22,-881.736C1404.05,-854.34 1395.97,-802.665 1366,-773 1333.77,-741.093 1214.53,-711.247 1138.75,-694.92"/>
<polygon fill="black" stroke="black" points="1139.33,-691.465 1128.82,-692.804 1137.87,-698.311 1139.33,-691.465"/>
</g>
<!-- TypeChecker -->
<g id="node83" class="node"><title>TypeChecker</title>
<ellipse fill="darkturquoise" stroke="darkturquoise" cx="1253" cy="-1227" rx="71.7694" ry="18"/>
<text text-anchor="middle" x="1253" y="-1222.9" font-family="DejaVu Sans, Helvetica, sans" font-size="14.00"><a xlink:href="TypeChecker.html" target="_parent">TypeChecker</a></text>
</g>
<!-- TypeChecker&#45;&gt;FactInference -->
<g id="edge132" class="edge"><title>TypeChecker&#45;&gt;FactInference</title>
<path fill="none" stroke="black" d="M1247.26,-1208.95C1230,-1154.69 1178.49,-992.722 1157.77,-927.583"/>
<polygon fill="black" stroke="black" points="1161.09,-926.46 1154.72,-917.991 1154.42,-928.581 1161.09,-926.46"/>
</g>
<!-- TypeChecker&#45;&gt;DataTypeFlavor -->
<g id="edge124" class="edge"><title>TypeChecker&#45;&gt;DataTypeFlavor</title>
<path fill="none" stroke="black" d="M1182.73,-1223.07C991.968,-1211.97 467.571,-1178.4 300,-1136 159.635,-1100.48 0,-1153.79 0,-1009 0,-1009 0,-1009 0,-354 0,-242.749 138.572,-180.751 222.803,-153.341"/>
<polygon fill="black" stroke="black" points="224.07,-156.611 232.541,-150.247 221.951,-149.94 224.07,-156.611"/>
</g>
<!-- TypeChecker&#45;&gt;DeBruijn -->
<g id="edge126" class="edge"><title>TypeChecker&#45;&gt;DeBruijn</title>
<path fill="none" stroke="black" d="M1319.65,-1219.86C1443.73,-1205.87 1705.08,-1173 1788,-1136 1870.91,-1099 1948,-1099.79 1948,-1009 1948,-1009 1948,-1009 1948,-791 1948,-681.417 1957.94,-631.034 1880,-554 1783.4,-458.516 1366.4,-386.686 1210.3,-362.684"/>
<polygon fill="black" stroke="black" points="1210.37,-359.155 1199.95,-361.106 1209.31,-366.075 1210.37,-359.155"/>
</g>
<!-- TypeChecker&#45;&gt;TypeErrors -->
<g id="edge138" class="edge"><title>TypeChecker&#45;&gt;TypeErrors</title>
<path fill="none" stroke="black" d="M1254.71,-1208.82C1261.09,-1140.96 1283.55,-902.098 1291.33,-819.419"/>
<polygon fill="black" stroke="black" points="1294.83,-819.541 1292.28,-809.257 1287.86,-818.885 1294.83,-819.541"/>
</g>
<!-- TypeChecker&#45;&gt;Types -->
<g id="edge140" class="edge"><title>TypeChecker&#45;&gt;Types</title>
<path fill="none" stroke="black" d="M1182.53,-1223.21C1010.9,-1213.26 582.108,-1183.82 540,-1136 392.787,-968.804 624.777,-680.986 699.841,-596.18"/>
<polygon fill="black" stroke="black" points="702.545,-598.406 706.597,-588.617 697.325,-593.743 702.545,-598.406"/>
</g>
<!-- TypeChecker&#45;&gt;TypeCore -->
<g id="edge142" class="edge"><title>TypeChecker&#45;&gt;TypeCore</title>
<path fill="none" stroke="black" d="M1184.74,-1221.23C939.009,-1199.57 114,-1118.66 114,-1009 114,-1009 114,-1009 114,-900 114,-507.831 694.428,-311.093 875.628,-259.229"/>
<polygon fill="black" stroke="black" points="876.802,-262.534 885.47,-256.443 874.895,-255.799 876.802,-262.534"/>
</g>
<!-- TypeChecker&#45;&gt;Expressions -->
<g id="edge144" class="edge"><title>TypeChecker&#45;&gt;Expressions</title>
<path fill="none" stroke="black" d="M1219.12,-1211.06C1160.18,-1180.71 1045,-1108.65 1045,-1009 1045,-1009 1045,-1009 1045,-900 1045,-831.159 1059.39,-751.148 1067.89,-709.851"/>
<polygon fill="black" stroke="black" points="1071.34,-710.486 1069.97,-699.98 1064.49,-709.046 1071.34,-710.486"/>
</g>
<!-- TypeChecker&#45;&gt;Permissions -->
<g id="edge136" class="edge"><title>TypeChecker&#45;&gt;Permissions</title>
<path fill="none" stroke="black" d="M1298.52,-1212.94C1334.76,-1199.28 1383.61,-1174.82 1410,-1136 1429.92,-1106.7 1432.43,-1064.84 1431.47,-1037.3"/>
<polygon fill="black" stroke="black" points="1434.96,-1036.96 1430.94,-1027.16 1427.96,-1037.33 1434.96,-1036.96"/>
</g>
<!-- TypeChecker&#45;&gt;Derivations -->
<g id="edge130" class="edge"><title>TypeChecker&#45;&gt;Derivations</title>
<path fill="none" stroke="black" d="M1318.4,-1219.47C1484.58,-1198.51 1910,-1132.78 1910,-1009 1910,-1009 1910,-1009 1910,-900 1910,-783.243 1848.91,-653.76 1819.92,-598.902"/>
<polygon fill="black" stroke="black" points="1822.88,-597.007 1815.07,-589.847 1816.71,-600.314 1822.88,-597.007"/>
</g>
<!-- TypeChecker&#45;&gt;DerivationPrinter -->
<g id="edge128" class="edge"><title>TypeChecker&#45;&gt;DerivationPrinter</title>
<path fill="none" stroke="black" d="M1256.82,-1208.8C1266.48,-1166.44 1295.3,-1059.64 1353,-991 1391.47,-945.232 1437.41,-970.511 1466,-918 1505.97,-844.598 1434.34,-751.203 1393.89,-707.154"/>
<polygon fill="black" stroke="black" points="1396.37,-704.675 1386.98,-699.768 1391.26,-709.46 1396.37,-704.675"/>
</g>
<!-- Merge -->
<g id="node90" class="node"><title>Merge</title>
<ellipse fill="darkturquoise" stroke="darkturquoise" cx="1360" cy="-1118" rx="40.9981" ry="18"/>
<text text-anchor="middle" x="1360" y="-1113.9" font-family="DejaVu Sans, Helvetica, sans" font-size="14.00"><a xlink:href="Merge.html" target="_parent">Merge</a></text>
</g>
<!-- TypeChecker&#45;&gt;Merge -->
<g id="edge134" class="edge"><title>TypeChecker&#45;&gt;Merge</title>
<path fill="none" stroke="black" d="M1270.19,-1209.49C1288.11,-1191.24 1316.31,-1162.51 1336.32,-1142.12"/>
<polygon fill="black" stroke="black" points="1339.05,-1144.34 1343.55,-1134.75 1334.05,-1139.44 1339.05,-1144.34"/>
</g>
<!-- Merge&#45;&gt;FactInference -->
<g id="edge164" class="edge"><title>Merge&#45;&gt;FactInference</title>
<path fill="none" stroke="black" d="M1343.79,-1101.26C1306.94,-1063.18 1216.69,-969.931 1173.2,-925.002"/>
<polygon fill="black" stroke="black" points="1175.61,-922.461 1166.14,-917.71 1170.58,-927.33 1175.61,-922.461"/>
</g>
<!-- Merge&#45;&gt;TypeErrors -->
<g id="edge168" class="edge"><title>Merge&#45;&gt;TypeErrors</title>
<path fill="none" stroke="black" d="M1356.36,-1099.95C1345.43,-1045.8 1312.85,-884.388 1299.65,-818.986"/>
<polygon fill="black" stroke="black" points="1303.04,-818.101 1297.63,-808.991 1296.18,-819.486 1303.04,-818.101"/>
</g>
<!-- Merge&#45;&gt;Types -->
<g id="edge170" class="edge"><title>Merge&#45;&gt;Types</title>
<path fill="none" stroke="black" d="M1318.77,-1117.05C1191.98,-1113.39 810.552,-1096.69 712,-1027 660.063,-990.272 646,-963.611 646,-900 646,-900 646,-900 646,-791 646,-717.974 684.182,-638.444 706.42,-598.319"/>
<polygon fill="black" stroke="black" points="709.558,-599.88 711.433,-589.452 703.464,-596.435 709.558,-599.88"/>
</g>
<!-- Merge&#45;&gt;TypeCore -->
<g id="edge172" class="edge"><title>Merge&#45;&gt;TypeCore</title>
<path fill="none" stroke="black" d="M1400.91,-1116.16C1505.06,-1110.59 1776.11,-1090.2 1835,-1027 1978.96,-872.504 1953.56,-751.944 1880,-554 1835.43,-434.073 1804.95,-396.092 1692,-336 1571.71,-272.006 1157.61,-252.199 995.151,-246.807"/>
<polygon fill="black" stroke="black" points="994.928,-243.298 984.82,-246.472 994.701,-250.294 994.928,-243.298"/>
</g>
<!-- Merge&#45;&gt;Permissions -->
<g id="edge166" class="edge"><title>Merge&#45;&gt;Permissions</title>
<path fill="none" stroke="black" d="M1371.09,-1100.49C1382.24,-1082.87 1399.56,-1055.5 1412.36,-1035.28"/>
<polygon fill="black" stroke="black" points="1415.32,-1037.15 1417.71,-1026.83 1409.41,-1033.41 1415.32,-1037.15"/>
</g>
<!-- Merge&#45;&gt;Derivations -->
<g id="edge162" class="edge"><title>Merge&#45;&gt;Derivations</title>
<path fill="none" stroke="black" d="M1400.72,-1115.45C1500.42,-1108.35 1752.81,-1084.92 1810,-1027 1850.36,-986.123 1834,-957.443 1834,-900 1834,-900 1834,-900 1834,-791 1834,-721.848 1819.61,-641.469 1811.11,-599.98"/>
<polygon fill="black" stroke="black" points="1814.51,-599.135 1809.03,-590.063 1807.65,-600.568 1814.51,-599.135"/>
</g>
<!-- Configure -->
<g id="node117" class="node"><title>Configure</title>
<ellipse fill="#eead0e" stroke="#eead0e" cx="855" cy="-572" rx="57.1737" ry="18"/>
<text text-anchor="middle" x="855" y="-567.9" font-family="DejaVu Sans, Helvetica, sans" font-size="14.00"><a xlink:href="Configure.html" target="_parent">Configure</a></text>
</g>
<!-- Mezzo -->
<g id="node118" class="node"><title>Mezzo</title>
<ellipse fill="#eead0e" stroke="#eead0e" cx="869" cy="-682" rx="43.0827" ry="18"/>
<text text-anchor="middle" x="869" y="-677.9" font-family="DejaVu Sans, Helvetica, sans" font-size="14.00"><a xlink:href="Mezzo.html" target="_parent">Mezzo</a></text>
</g>
<!-- Mezzo&#45;&gt;Types -->
<g id="edge188" class="edge"><title>Mezzo&#45;&gt;Types</title>
<path fill="none" stroke="black" d="M847.938,-666.24C822.47,-647.181 779.473,-615.007 750.913,-593.636"/>
<polygon fill="black" stroke="black" points="752.652,-590.565 742.549,-587.376 748.458,-596.17 752.652,-590.565"/>
</g>
<!-- Mezzo&#45;&gt;Configure -->
<g id="edge190" class="edge"><title>Mezzo&#45;&gt;Configure</title>
<path fill="none" stroke="black" d="M866.688,-663.836C864.489,-646.559 861.148,-620.309 858.601,-600.292"/>
<polygon fill="black" stroke="black" points="862.05,-599.669 857.315,-590.191 855.106,-600.553 862.05,-599.669"/>
</g>
</g>
</svg>
