<?xml version="1.0" encoding="UTF-8" standalone="no"?>
<!DOCTYPE svg PUBLIC "-//W3C//DTD SVG 1.1//EN"
 "http://www.w3.org/Graphics/SVG/1.1/DTD/svg11.dtd">
<!-- Generated by graphviz version 2.26.3 (20100126.1600)
 -->
<!-- Title: G Pages: 1 -->
<svg width="720pt" height="537pt"
 viewBox="0.00 0.00 720.00 536.58" xmlns="http://www.w3.org/2000/svg" xmlns:xlink="http://www.w3.org/1999/xlink">
<g id="graph1" class="graph" transform="scale(0.569317 0.569317) rotate(0) translate(4 938.5)">
<title>G</title>
<polygon fill="white" stroke="white" points="-4,5 -4,-938.5 1261.67,-938.5 1261.67,5 -4,5"/>
<!-- Option -->
<g id="node1" class="node"><title>Option</title>
<ellipse fill="darkturquoise" stroke="darkturquoise" cx="156" cy="-289" rx="43.7776" ry="18"/>
<text text-anchor="middle" x="156" y="-284.9" font-family="DejaVu Sans, Helvetica, sans" font-size="14.00"><a xlink:href="../doc/Option.html" target="_parent">Option</a></text>
</g>
<!-- InfiniteArray -->
<g id="node2" class="node"><title>InfiniteArray</title>
<ellipse fill="darkturquoise" stroke="darkturquoise" cx="741" cy="-111" rx="71.7694" ry="18"/>
<text text-anchor="middle" x="741" y="-106.9" font-family="DejaVu Sans, Helvetica, sans" font-size="14.00"><a xlink:href="../doc/InfiniteArray.html" target="_parent">InfiniteArray</a></text>
</g>
<!-- Hml_Map -->
<g id="node3" class="node"><title>Hml_Map</title>
<ellipse fill="darkturquoise" stroke="darkturquoise" cx="825" cy="-467" rx="55.0898" ry="18"/>
<text text-anchor="middle" x="825" y="-462.9" font-family="DejaVu Sans, Helvetica, sans" font-size="14.00"><a xlink:href="../doc/Hml_Map.html" target="_parent">Hml_Map</a></text>
</g>
<!-- Hml_List -->
<g id="node4" class="node"><title>Hml_List</title>
<ellipse fill="darkturquoise" stroke="darkturquoise" cx="237" cy="-378" rx="52.8111" ry="18"/>
<text text-anchor="middle" x="237" y="-373.9" font-family="DejaVu Sans, Helvetica, sans" font-size="14.00"><a xlink:href="../doc/Hml_List.html" target="_parent">Hml_List</a></text>
</g>
<!-- Hml_List&#45;&gt;Option -->
<g id="edge2" class="edge"><title>Hml_List&#45;&gt;Option</title>
<path fill="none" stroke="black" d="M220.997,-360.416C208.86,-347.081 192.021,-328.578 178.524,-313.748"/>
<polygon fill="black" stroke="black" points="180.74,-310.983 171.42,-305.943 175.563,-315.695 180.74,-310.983"/>
</g>
<!-- Bash -->
<g id="node6" class="node"><title>Bash</title>
<ellipse fill="darkturquoise" stroke="darkturquoise" cx="338" cy="-556" rx="34.2406" ry="18"/>
<text text-anchor="middle" x="338" y="-551.9" font-family="DejaVu Sans, Helvetica, sans" font-size="14.00"><a xlink:href="../doc/Bash.html" target="_parent">Bash</a></text>
</g>
<!-- Hml_String -->
<g id="node7" class="node"><title>Hml_String</title>
<ellipse fill="darkturquoise" stroke="darkturquoise" cx="64" cy="-467" rx="64.1231" ry="18"/>
<text text-anchor="middle" x="64" y="-462.9" font-family="DejaVu Sans, Helvetica, sans" font-size="14.00"><a xlink:href="../doc/Hml_String.html" target="_parent">Hml_String</a></text>
</g>
<!-- Hml_String&#45;&gt;Option -->
<g id="edge4" class="edge"><title>Hml_String&#45;&gt;Option</title>
<path fill="none" stroke="black" d="M73.3277,-448.953C89.5564,-417.554 123.066,-352.721 142.062,-315.967"/>
<polygon fill="black" stroke="black" points="145.302,-317.321 146.784,-306.83 139.084,-314.107 145.302,-317.321"/>
</g>
<!-- Log -->
<g id="node9" class="node"><title>Log</title>
<ellipse fill="darkturquoise" stroke="darkturquoise" cx="110" cy="-556" rx="27.9903" ry="18"/>
<text text-anchor="middle" x="110" y="-551.9" font-family="DejaVu Sans, Helvetica, sans" font-size="14.00"><a xlink:href="../doc/Log.html" target="_parent">Log</a></text>
</g>
<!-- Log&#45;&gt;Hml_String -->
<g id="edge6" class="edge"><title>Log&#45;&gt;Hml_String</title>
<path fill="none" stroke="black" d="M101.131,-538.84C94.5773,-526.16 85.525,-508.646 77.9992,-494.085"/>
<polygon fill="black" stroke="black" points="81.0165,-492.3 73.3157,-485.024 74.798,-495.515 81.0165,-492.3"/>
</g>
<!-- Datacon -->
<g id="node11" class="node"><title>Datacon</title>
<ellipse fill="#eead0e" stroke="#eead0e" cx="908" cy="-378" rx="50.9221" ry="18"/>
<text text-anchor="middle" x="908" y="-373.9" font-family="DejaVu Sans, Helvetica, sans" font-size="14.00"><a xlink:href="../doc/Datacon.html" target="_parent">Datacon</a></text>
</g>
<!-- Identifier -->
<g id="node13" class="node"><title>Identifier</title>
<ellipse fill="#eead0e" stroke="#eead0e" cx="741" cy="-289" rx="54.8957" ry="18"/>
<text text-anchor="middle" x="741" y="-284.9" font-family="DejaVu Sans, Helvetica, sans" font-size="14.00"><a xlink:href="../doc/Identifier.html" target="_parent">Identifier</a></text>
</g>
<!-- Datacon&#45;&gt;Identifier -->
<g id="edge8" class="edge"><title>Datacon&#45;&gt;Identifier</title>
<path fill="none" stroke="black" d="M879.671,-362.902C852.009,-348.161 809.726,-325.627 779.123,-309.317"/>
<polygon fill="black" stroke="black" points="780.501,-306.085 770.03,-304.471 777.208,-312.263 780.501,-306.085"/>
</g>
<!-- Hashcons -->
<g id="node23" class="node"><title>Hashcons</title>
<ellipse fill="#eead0e" stroke="#eead0e" cx="741" cy="-200" rx="56.9803" ry="18"/>
<text text-anchor="middle" x="741" y="-195.9" font-family="DejaVu Sans, Helvetica, sans" font-size="14.00"><a xlink:href="../doc/Hashcons.html" target="_parent">Hashcons</a></text>
</g>
<!-- Identifier&#45;&gt;Hashcons -->
<g id="edge22" class="edge"><title>Identifier&#45;&gt;Hashcons</title>
<path fill="none" stroke="black" d="M741,-270.99C741,-258.766 741,-242.349 741,-228.382"/>
<polygon fill="black" stroke="black" points="744.5,-228.289 741,-218.289 737.5,-228.289 744.5,-228.289"/>
</g>
<!-- Patricia -->
<g id="node27" class="node"><title>Patricia</title>
<ellipse fill="cyan" stroke="cyan" cx="575" cy="-200" rx="46.7546" ry="18"/>
<text text-anchor="middle" x="575" y="-195.9" font-family="DejaVu Sans, Helvetica, sans" font-size="14.00"><a xlink:href="../doc/Patricia.html" target="_parent">Patricia</a></text>
</g>
<!-- Identifier&#45;&gt;Patricia -->
<g id="edge24" class="edge"><title>Identifier&#45;&gt;Patricia</title>
<path fill="none" stroke="black" d="M712.085,-273.497C684.136,-258.513 641.696,-235.759 611.448,-219.541"/>
<polygon fill="black" stroke="black" points="612.948,-216.375 602.481,-214.734 609.641,-222.544 612.948,-216.375"/>
</g>
<!-- GMap -->
<g id="node29" class="node"><title>GMap</title>
<ellipse fill="cyan" stroke="cyan" cx="594" cy="-111" rx="38.9134" ry="18"/>
<text text-anchor="middle" x="594" y="-106.9" font-family="DejaVu Sans, Helvetica, sans" font-size="14.00"><a xlink:href="../doc/GMap.html" target="_parent">GMap</a></text>
</g>
<!-- Identifier&#45;&gt;GMap -->
<g id="edge26" class="edge"><title>Identifier&#45;&gt;GMap</title>
<path fill="none" stroke="black" d="M723.946,-271.651C710.309,-257.545 690.908,-236.947 675,-218 652.383,-191.064 628.274,-158.688 612.297,-136.655"/>
<polygon fill="black" stroke="black" points="615.076,-134.525 606.386,-128.464 609.4,-138.621 615.076,-134.525"/>
</g>
<!-- Driver -->
<g id="node14" class="node"><title>Driver</title>
<ellipse fill="#eead0e" stroke="#eead0e" cx="1017" cy="-556" rx="41.1906" ry="18"/>
<text text-anchor="middle" x="1017" y="-551.9" font-family="DejaVu Sans, Helvetica, sans" font-size="14.00"><a xlink:href="../doc/Driver.html" target="_parent">Driver</a></text>
</g>
<!-- Driver&#45;&gt;Hml_String -->
<g id="edge10" class="edge"><title>Driver&#45;&gt;Hml_String</title>
<path fill="none" stroke="black" d="M976.715,-552.317C862.793,-541.889 528.563,-511.222 251,-485 212.581,-481.37 169.728,-477.251 134.748,-473.869"/>
<polygon fill="black" stroke="black" points="134.922,-470.37 124.631,-472.891 134.248,-477.338 134.922,-470.37"/>
</g>
<!-- Lexer -->
<g id="node17" class="node"><title>Lexer</title>
<ellipse fill="#eead0e" stroke="#eead0e" cx="1155" cy="-467" rx="38.9134" ry="18"/>
<text text-anchor="middle" x="1155" y="-462.9" font-family="DejaVu Sans, Helvetica, sans" font-size="14.00"><a xlink:href="../doc/Lexer.html" target="_parent">Lexer</a></text>
</g>
<!-- Driver&#45;&gt;Lexer -->
<g id="edge12" class="edge"><title>Driver&#45;&gt;Lexer</title>
<path fill="none" stroke="black" d="M1040.1,-541.103C1063.02,-526.319 1098.32,-503.555 1123.74,-487.159"/>
<polygon fill="black" stroke="black" points="1125.78,-490.01 1132.29,-481.649 1121.98,-484.128 1125.78,-490.01"/>
</g>
<!-- SurfaceSyntax -->
<g id="node19" class="node"><title>SurfaceSyntax</title>
<ellipse fill="#eead0e" stroke="#eead0e" cx="1017" cy="-467" rx="80.8024" ry="18"/>
<text text-anchor="middle" x="1017" y="-462.9" font-family="DejaVu Sans, Helvetica, sans" font-size="14.00"><a xlink:href="../doc/SurfaceSyntax.html" target="_parent">SurfaceSyntax</a></text>
</g>
<!-- Driver&#45;&gt;SurfaceSyntax -->
<g id="edge14" class="edge"><title>Driver&#45;&gt;SurfaceSyntax</title>
<path fill="none" stroke="black" d="M1017,-537.99C1017,-525.766 1017,-509.349 1017,-495.382"/>
<polygon fill="black" stroke="black" points="1020.5,-495.289 1017,-485.289 1013.5,-495.289 1020.5,-495.289"/>
</g>
<!-- SurfaceSyntax&#45;&gt;Datacon -->
<g id="edge18" class="edge"><title>SurfaceSyntax&#45;&gt;Datacon</title>
<path fill="none" stroke="black" d="M995.725,-449.629C978.779,-435.792 954.902,-416.296 936.337,-401.137"/>
<polygon fill="black" stroke="black" points="938.443,-398.338 928.483,-394.725 934.015,-403.76 938.443,-398.338"/>
</g>
<!-- Variable -->
<g id="node21" class="node"><title>Variable</title>
<ellipse fill="#eead0e" stroke="#eead0e" cx="742" cy="-378" rx="50.0315" ry="18"/>
<text text-anchor="middle" x="742" y="-373.9" font-family="DejaVu Sans, Helvetica, sans" font-size="14.00"><a xlink:href="../doc/Variable.html" target="_parent">Variable</a></text>
</g>
<!-- SurfaceSyntax&#45;&gt;Variable -->
<g id="edge16" class="edge"><title>SurfaceSyntax&#45;&gt;Variable</title>
<path fill="none" stroke="black" d="M970.971,-452.103C920.514,-435.773 839.98,-409.71 789.101,-393.244"/>
<polygon fill="black" stroke="black" points="789.93,-389.833 779.338,-390.084 787.775,-396.493 789.93,-389.833"/>
</g>
<!-- Variable&#45;&gt;Identifier -->
<g id="edge28" class="edge"><title>Variable&#45;&gt;Identifier</title>
<path fill="none" stroke="black" d="M741.798,-359.99C741.66,-347.766 741.476,-331.349 741.319,-317.382"/>
<polygon fill="black" stroke="black" points="744.818,-317.249 741.205,-307.289 737.818,-317.328 744.818,-317.249"/>
</g>
<!-- Hashcons&#45;&gt;InfiniteArray -->
<g id="edge20" class="edge"><title>Hashcons&#45;&gt;InfiniteArray</title>
<path fill="none" stroke="black" d="M741,-181.99C741,-169.766 741,-153.349 741,-139.382"/>
<polygon fill="black" stroke="black" points="744.5,-139.289 741,-129.289 737.5,-139.289 744.5,-139.289"/>
</g>
<!-- Patricia&#45;&gt;GMap -->
<g id="edge30" class="edge"><title>Patricia&#45;&gt;GMap</title>
<path fill="none" stroke="black" d="M578.845,-181.99C581.472,-169.685 585.006,-153.132 588,-139.105"/>
<polygon fill="black" stroke="black" points="591.496,-139.494 590.161,-128.984 584.65,-138.033 591.496,-139.494"/>
</g>
<!-- GSet -->
<g id="node32" class="node"><title>GSet</title>
<ellipse fill="cyan" stroke="cyan" cx="594" cy="-22" rx="34.9399" ry="18"/>
<text text-anchor="middle" x="594" y="-17.9" font-family="DejaVu Sans, Helvetica, sans" font-size="14.00"><a xlink:href="../doc/GSet.html" target="_parent">GSet</a></text>
</g>
<!-- GMap&#45;&gt;GSet -->
<g id="edge32" class="edge"><title>GMap&#45;&gt;GSet</title>
<path fill="none" stroke="black" d="M594,-92.9895C594,-80.7658 594,-64.3495 594,-50.3824"/>
<polygon fill="black" stroke="black" points="597.5,-50.2891 594,-40.2892 590.5,-50.2892 597.5,-50.2891"/>
</g>
<!-- ModeDeduction -->
<g id="node34" class="node"><title>ModeDeduction</title>
<ellipse fill="green" stroke="green" cx="639" cy="-912" rx="86.1654" ry="18"/>
<text text-anchor="middle" x="639" y="-907.9" font-family="DejaVu Sans, Helvetica, sans" font-size="14.00"><a xlink:href="../doc/ModeDeduction.html" target="_parent">ModeDeduction</a></text>
</g>
<!-- FactInference -->
<g id="node35" class="node"><title>FactInference</title>
<ellipse fill="green" stroke="green" cx="412" cy="-734" rx="75.9375" ry="18"/>
<text text-anchor="middle" x="412" y="-729.9" font-family="DejaVu Sans, Helvetica, sans" font-size="14.00"><a xlink:href="../doc/FactInference.html" target="_parent">FactInference</a></text>
</g>
<!-- FactInference&#45;&gt;Option -->
<g id="edge42" class="edge"><title>FactInference&#45;&gt;Option</title>
<path fill="none" stroke="black" d="M381.415,-717.499C359.338,-704.604 329.715,-685.186 308,-663 215.267,-568.256 212.561,-523.142 175,-396 167.237,-369.721 162.167,-338.821 159.233,-317.001"/>
<polygon fill="black" stroke="black" points="162.704,-316.553 157.962,-307.079 155.761,-317.443 162.704,-316.553"/>
</g>
<!-- FactInference&#45;&gt;Hml_List -->
<g id="edge36" class="edge"><title>FactInference&#45;&gt;Hml_List</title>
<path fill="none" stroke="black" d="M392.735,-716.387C353.068,-678.643 263.29,-585.21 231,-485 222.713,-459.281 225.76,-428.305 229.948,-406.315"/>
<polygon fill="black" stroke="black" points="233.42,-406.81 232.051,-396.305 226.57,-405.371 233.42,-406.81"/>
</g>
<!-- FactInference&#45;&gt;Bash -->
<g id="edge34" class="edge"><title>FactInference&#45;&gt;Bash</title>
<path fill="none" stroke="black" d="M404.497,-715.953C391.499,-684.688 364.72,-620.272 349.407,-583.438"/>
<polygon fill="black" stroke="black" points="352.483,-581.721 345.413,-573.83 346.02,-584.408 352.483,-581.721"/>
</g>
<!-- FactInference&#45;&gt;Hml_String -->
<g id="edge38" class="edge"><title>FactInference&#45;&gt;Hml_String</title>
<path fill="none" stroke="black" d="M347.579,-724.289C273.593,-712.098 157.911,-689.535 123,-663 70.858,-623.368 63.2137,-539.213 63.0216,-495.183"/>
<polygon fill="black" stroke="black" points="66.5216,-495.187 63.1054,-485.158 59.5219,-495.129 66.5216,-495.187"/>
</g>
<!-- FactInference&#45;&gt;Log -->
<g id="edge40" class="edge"><title>FactInference&#45;&gt;Log</title>
<path fill="none" stroke="black" d="M349.814,-723.632C282.553,-711.298 181.028,-689.065 152,-663 129.364,-642.675 118.794,-608.615 113.946,-584.385"/>
<polygon fill="black" stroke="black" points="117.357,-583.576 112.149,-574.35 110.467,-584.81 117.357,-583.576"/>
</g>
<!-- FactInference&#45;&gt;SurfaceSyntax -->
<g id="edge46" class="edge"><title>FactInference&#45;&gt;SurfaceSyntax</title>
<path fill="none" stroke="black" d="M471.51,-722.776C527.872,-711.172 614.309,-690.836 686,-663 764.768,-632.416 781.268,-617.01 854,-574 900.139,-546.716 951.565,-512.246 984.083,-489.919"/>
<polygon fill="black" stroke="black" points="986.081,-492.793 992.331,-484.238 982.11,-487.028 986.081,-492.793"/>
</g>
<!-- FactInference&#45;&gt;Variable -->
<g id="edge48" class="edge"><title>FactInference&#45;&gt;Variable</title>
<path fill="none" stroke="black" d="M413.942,-715.647C420.343,-664.789 445.522,-521.054 531,-449 537.491,-443.528 634.482,-412.117 694.677,-392.954"/>
<polygon fill="black" stroke="black" points="695.896,-396.239 704.366,-389.874 693.776,-389.568 695.896,-396.239"/>
</g>
<!-- Printers -->
<g id="node42" class="node"><title>Printers</title>
<ellipse fill="green" stroke="green" cx="589" cy="-467" rx="48.8383" ry="18"/>
<text text-anchor="middle" x="589" y="-462.9" font-family="DejaVu Sans, Helvetica, sans" font-size="14.00"><a xlink:href="../doc/Printers.html" target="_parent">Printers</a></text>
</g>
<!-- FactInference&#45;&gt;Printers -->
<g id="edge44" class="edge"><title>FactInference&#45;&gt;Printers</title>
<path fill="none" stroke="black" d="M417.821,-715.812C425.244,-693.88 439.27,-656.314 457,-627 488.649,-574.671 536.397,-521.359 564.956,-491.396"/>
<polygon fill="black" stroke="black" points="567.718,-493.574 572.128,-483.94 562.673,-488.721 567.718,-493.574"/>
</g>
<!-- WellKindedness -->
<g id="node46" class="node"><title>WellKindedness</title>
<ellipse fill="green" stroke="green" cx="552" cy="-645" rx="86.1654" ry="18"/>
<text text-anchor="middle" x="552" y="-640.9" font-family="DejaVu Sans, Helvetica, sans" font-size="14.00"><a xlink:href="../doc/WellKindedness.html" target="_parent">WellKindedness</a></text>
</g>
<!-- FactInference&#45;&gt;WellKindedness -->
<g id="edge50" class="edge"><title>FactInference&#45;&gt;WellKindedness</title>
<path fill="none" stroke="black" d="M438.662,-717.05C460.708,-703.036 492.208,-683.011 516.406,-667.628"/>
<polygon fill="black" stroke="black" points="518.399,-670.508 524.96,-662.19 514.643,-664.601 518.399,-670.508"/>
</g>
<!-- Types -->
<g id="node48" class="node"><title>Types</title>
<ellipse fill="green" stroke="green" cx="771" cy="-556" rx="38.9134" ry="18"/>
<text text-anchor="middle" x="771" y="-551.9" font-family="DejaVu Sans, Helvetica, sans" font-size="14.00"><a xlink:href="../doc/Types.html" target="_parent">Types</a></text>
</g>
<!-- FactInference&#45;&gt;Types -->
<g id="edge52" class="edge"><title>FactInference&#45;&gt;Types</title>
<path fill="none" stroke="black" d="M472.672,-722.978C521.818,-712.371 591.725,-693.389 647,-663 687.021,-640.997 725.635,-604.484 748.853,-580.33"/>
<polygon fill="black" stroke="black" points="751.5,-582.624 755.833,-572.956 746.417,-577.812 751.5,-582.624"/>
</g>
<!-- Printers&#45;&gt;Hml_List -->
<g id="edge108" class="edge"><title>Printers&#45;&gt;Hml_List</title>
<path fill="none" stroke="black" d="M548.621,-456.791C484.765,-440.645 360.473,-409.219 289.683,-391.32"/>
<polygon fill="black" stroke="black" points="290.193,-387.839 279.64,-388.781 288.477,-394.626 290.193,-387.839"/>
</g>
<!-- Printers&#45;&gt;Datacon -->
<g id="edge110" class="edge"><title>Printers&#45;&gt;Datacon</title>
<path fill="none" stroke="black" d="M628.116,-456.087C685.994,-439.939 794.436,-409.684 858.008,-391.948"/>
<polygon fill="black" stroke="black" points="859.119,-395.271 867.811,-389.213 857.238,-388.529 859.119,-395.271"/>
</g>
<!-- Printers&#45;&gt;Variable -->
<g id="edge106" class="edge"><title>Printers&#45;&gt;Variable</title>
<path fill="none" stroke="black" d="M615.302,-451.7C640.589,-436.991 678.978,-414.66 706.872,-398.434"/>
<polygon fill="black" stroke="black" points="708.645,-401.451 715.53,-393.398 705.126,-395.401 708.645,-401.451"/>
</g>
<!-- WellKindedness&#45;&gt;Hml_List -->
<g id="edge84" class="edge"><title>WellKindedness&#45;&gt;Hml_List</title>
<path fill="none" stroke="black" d="M527.301,-627.645C494.746,-605.219 435.242,-565.766 381,-538 325.459,-509.569 289.102,-534.41 251,-485 233.837,-462.743 231.982,-429.825 233.387,-406.386"/>
<polygon fill="black" stroke="black" points="236.881,-406.611 234.219,-396.356 229.904,-406.032 236.881,-406.611"/>
</g>
<!-- WellKindedness&#45;&gt;Bash -->
<g id="edge86" class="edge"><title>WellKindedness&#45;&gt;Bash</title>
<path fill="none" stroke="black" d="M513.246,-628.883C473.717,-612.443 412.86,-587.133 374.259,-571.08"/>
<polygon fill="black" stroke="black" points="375.528,-567.817 364.951,-567.209 372.84,-574.28 375.528,-567.817"/>
</g>
<!-- WellKindedness&#45;&gt;Log -->
<g id="edge82" class="edge"><title>WellKindedness&#45;&gt;Log</title>
<path fill="none" stroke="black" d="M489.61,-632.437C396.086,-613.606 222.468,-578.646 146.823,-563.415"/>
<polygon fill="black" stroke="black" points="147.312,-559.943 136.818,-561.4 145.93,-566.805 147.312,-559.943"/>
</g>
<!-- WellKindedness&#45;&gt;SurfaceSyntax -->
<g id="edge78" class="edge"><title>WellKindedness&#45;&gt;SurfaceSyntax</title>
<path fill="none" stroke="black" d="M623.093,-634.798C678.733,-624.801 756.835,-606.242 819,-574 841.126,-562.524 840.926,-551.309 862,-538 894.885,-517.232 934.85,-499.077 965.962,-486.325"/>
<polygon fill="black" stroke="black" points="967.356,-489.537 975.315,-482.544 964.732,-483.047 967.356,-489.537"/>
</g>
<!-- WellKindedness&#45;&gt;Variable -->
<g id="edge74" class="edge"><title>WellKindedness&#45;&gt;Variable</title>
<path fill="none" stroke="black" d="M564.761,-627.067C597.628,-580.881 685.277,-457.711 723.616,-403.835"/>
<polygon fill="black" stroke="black" points="726.596,-405.683 729.542,-395.507 720.893,-401.625 726.596,-405.683"/>
</g>
<!-- WellKindedness&#45;&gt;Printers -->
<g id="edge80" class="edge"><title>WellKindedness&#45;&gt;Printers</title>
<path fill="none" stroke="black" d="M555.751,-626.953C562.206,-595.902 575.457,-532.152 583.139,-495.198"/>
<polygon fill="black" stroke="black" points="586.63,-495.598 585.239,-485.095 579.777,-494.173 586.63,-495.598"/>
</g>
<!-- WellKindedness&#45;&gt;Types -->
<g id="edge76" class="edge"><title>WellKindedness&#45;&gt;Types</title>
<path fill="none" stroke="black" d="M591.406,-628.986C631.338,-612.758 692.726,-587.81 732.375,-571.697"/>
<polygon fill="black" stroke="black" points="733.769,-574.908 741.715,-567.901 731.133,-568.424 733.769,-574.908"/>
</g>
<!-- Types&#45;&gt;Hml_Map -->
<g id="edge60" class="edge"><title>Types&#45;&gt;Hml_Map</title>
<path fill="none" stroke="black" d="M781.669,-538.416C789.458,-525.579 800.151,-507.955 808.966,-493.427"/>
<polygon fill="black" stroke="black" points="811.974,-495.217 814.169,-484.852 805.989,-491.585 811.974,-495.217"/>
</g>
<!-- Types&#45;&gt;Datacon -->
<g id="edge62" class="edge"><title>Types&#45;&gt;Datacon</title>
<path fill="none" stroke="black" d="M802.868,-545.406C830.172,-534.614 868.272,-515.141 889,-485 904.874,-461.917 908.726,-429.614 909.161,-406.552"/>
<polygon fill="black" stroke="black" points="912.661,-406.359 909.145,-396.364 905.661,-406.37 912.661,-406.359"/>
</g>
<!-- Types&#45;&gt;SurfaceSyntax -->
<g id="edge56" class="edge"><title>Types&#45;&gt;SurfaceSyntax</title>
<path fill="none" stroke="black" d="M802.156,-544.728C843.124,-529.906 915.674,-503.658 965.023,-485.805"/>
<polygon fill="black" stroke="black" points="966.354,-489.045 974.567,-482.352 963.972,-482.463 966.354,-489.045"/>
</g>
<!-- Types&#45;&gt;Variable -->
<g id="edge54" class="edge"><title>Types&#45;&gt;Variable</title>
<path fill="none" stroke="black" d="M768.06,-537.953C763.001,-506.902 752.615,-443.152 746.594,-406.198"/>
<polygon fill="black" stroke="black" points="750.011,-405.402 744.948,-396.095 743.102,-406.528 750.011,-405.402"/>
</g>
<!-- Types&#45;&gt;Printers -->
<g id="edge58" class="edge"><title>Types&#45;&gt;Printers</title>
<path fill="none" stroke="black" d="M744.145,-542.868C713.375,-527.821 662.696,-503.038 627.676,-485.913"/>
<polygon fill="black" stroke="black" points="629.209,-482.766 618.688,-481.518 626.134,-489.055 629.209,-482.766"/>
</g>
<!-- Mode -->
<g id="node49" class="node"><title>Mode</title>
<ellipse fill="green" stroke="green" cx="780" cy="-912" rx="36.8288" ry="18"/>
<text text-anchor="middle" x="780" y="-907.9" font-family="DejaVu Sans, Helvetica, sans" font-size="14.00"><a xlink:href="../doc/Mode.html" target="_parent">Mode</a></text>
</g>
<!-- PersistentRef -->
<g id="node55" class="node"><title>PersistentRef</title>
<ellipse fill="green" stroke="green" cx="574" cy="-289" rx="73.8534" ry="18"/>
<text text-anchor="middle" x="574" y="-284.9" font-family="DejaVu Sans, Helvetica, sans" font-size="14.00"><a xlink:href="../doc/PersistentRef.html" target="_parent">PersistentRef</a></text>
</g>
<!-- PersistentRef&#45;&gt;Patricia -->
<g id="edge64" class="edge"><title>PersistentRef&#45;&gt;Patricia</title>
<path fill="none" stroke="black" d="M574.202,-270.99C574.34,-258.766 574.524,-242.349 574.681,-228.382"/>
<polygon fill="black" stroke="black" points="578.182,-228.328 574.795,-218.289 571.182,-228.249 578.182,-228.328"/>
</g>
<!-- PersistentUnionFind -->
<g id="node57" class="node"><title>PersistentUnionFind</title>
<ellipse fill="green" stroke="green" cx="567" cy="-378" rx="107.206" ry="18"/>
<text text-anchor="middle" x="567" y="-373.9" font-family="DejaVu Sans, Helvetica, sans" font-size="14.00"><a xlink:href="../doc/PersistentUnionFind.html" target="_parent">PersistentUnionFind</a></text>
</g>
<!-- PersistentUnionFind&#45;&gt;PersistentRef -->
<g id="edge66" class="edge"><title>PersistentUnionFind&#45;&gt;PersistentRef</title>
<path fill="none" stroke="black" d="M568.417,-359.99C569.378,-347.766 570.669,-331.349 571.768,-317.382"/>
<polygon fill="black" stroke="black" points="575.267,-317.533 572.562,-307.289 568.288,-316.984 575.267,-317.533"/>
</g>
<!-- PermissionDeduction -->
<g id="node59" class="node"><title>PermissionDeduction</title>
<ellipse fill="green" stroke="green" cx="372" cy="-467" rx="111.876" ry="18"/>
<text text-anchor="middle" x="372" y="-462.9" font-family="DejaVu Sans, Helvetica, sans" font-size="14.00"><a xlink:href="../doc/PermissionDeduction.html" target="_parent">PermissionDeduction</a></text>
</g>
<!-- PermissionDeduction&#45;&gt;Patricia -->
<g id="edge68" class="edge"><title>PermissionDeduction&#45;&gt;Patricia</title>
<path fill="none" stroke="black" d="M382.514,-448.943C409.075,-403.432 477.71,-286.545 491,-271 506.533,-252.832 526.96,-235.455 543.781,-222.44"/>
<polygon fill="black" stroke="black" points="546.352,-224.883 552.203,-216.05 542.121,-219.306 546.352,-224.883"/>
</g>
<!-- PermissionDeduction&#45;&gt;PersistentUnionFind -->
<g id="edge70" class="edge"><title>PermissionDeduction&#45;&gt;PersistentUnionFind</title>
<path fill="none" stroke="black" d="M409.598,-449.84C441.262,-435.388 486.687,-414.656 520.607,-399.174"/>
<polygon fill="black" stroke="black" points="522.205,-402.292 529.849,-394.956 519.298,-395.924 522.205,-402.292"/>
</g>
<!-- Data -->
<g id="node63" class="node"><title>Data</title>
<ellipse fill="green" stroke="green" cx="370" cy="-378" rx="34.2406" ry="18"/>
<text text-anchor="middle" x="370" y="-373.9" font-family="DejaVu Sans, Helvetica, sans" font-size="14.00"><a xlink:href="../doc/Data.html" target="_parent">Data</a></text>
</g>
<!-- PermissionDeduction&#45;&gt;Data -->
<g id="edge72" class="edge"><title>PermissionDeduction&#45;&gt;Data</title>
<path fill="none" stroke="black" d="M371.595,-448.99C371.321,-436.766 370.952,-420.349 370.638,-406.382"/>
<polygon fill="black" stroke="black" points="374.135,-406.208 370.411,-396.289 367.137,-406.365 374.135,-406.208"/>
</g>
<!-- Expressions -->
<g id="node71" class="node"><title>Expressions</title>
<ellipse fill="green" stroke="green" cx="1178" cy="-645" rx="68.0985" ry="18"/>
<text text-anchor="middle" x="1178" y="-640.9" font-family="DejaVu Sans, Helvetica, sans" font-size="14.00"><a xlink:href="../doc/Expressions.html" target="_parent">Expressions</a></text>
</g>
<!-- Expressions&#45;&gt;Datacon -->
<g id="edge94" class="edge"><title>Expressions&#45;&gt;Datacon</title>
<path fill="none" stroke="black" d="M1198.03,-627.687C1211.63,-614.531 1228.46,-595.139 1236,-574 1254.66,-521.671 1270.88,-492.24 1236,-449 1203,-408.093 1053.61,-389.581 968.264,-382.215"/>
<polygon fill="black" stroke="black" points="968.443,-378.718 958.186,-381.371 967.859,-385.694 968.443,-378.718"/>
</g>
<!-- Expressions&#45;&gt;SurfaceSyntax -->
<g id="edge92" class="edge"><title>Expressions&#45;&gt;SurfaceSyntax</title>
<path fill="none" stroke="black" d="M1161.97,-627.282C1133.36,-595.644 1073.37,-529.323 1040.23,-492.686"/>
<polygon fill="black" stroke="black" points="1042.5,-489.979 1033.2,-484.911 1037.31,-494.675 1042.5,-489.979"/>
</g>
<!-- Expressions&#45;&gt;Variable -->
<g id="edge88" class="edge"><title>Expressions&#45;&gt;Variable</title>
<path fill="none" stroke="black" d="M1188.25,-627.013C1208.33,-589.112 1247.23,-500.321 1203,-449 1150.93,-388.578 926.767,-408.566 848,-396 831.438,-393.358 813.443,-390.353 797.063,-387.565"/>
<polygon fill="black" stroke="black" points="797.546,-384.097 787.099,-385.863 796.367,-390.997 797.546,-384.097"/>
</g>
<!-- Expressions&#45;&gt;Types -->
<g id="edge90" class="edge"><title>Expressions&#45;&gt;Types</title>
<path fill="none" stroke="black" d="M1125.21,-633.456C1044.68,-615.847 892.528,-582.575 816.556,-565.962"/>
<polygon fill="black" stroke="black" points="816.874,-562.449 806.357,-563.732 815.378,-569.287 816.874,-562.449"/>
</g>
<!-- Env -->
<g id="node76" class="node"><title>Env</title>
<ellipse fill="green" stroke="green" cx="665" cy="-823" rx="29.8799" ry="18"/>
<text text-anchor="middle" x="665" y="-818.9" font-family="DejaVu Sans, Helvetica, sans" font-size="14.00"><a xlink:href="../doc/Env.html" target="_parent">Env</a></text>
</g>
<!-- Env&#45;&gt;SurfaceSyntax -->
<g id="edge100" class="edge"><title>Env&#45;&gt;SurfaceSyntax</title>
<path fill="none" stroke="black" d="M681.059,-807.599C695.924,-793.293 718.592,-771.345 738,-752 833.195,-657.114 944.439,-542.261 992.66,-492.277"/>
<polygon fill="black" stroke="black" points="995.424,-494.453 999.845,-484.825 990.385,-489.594 995.424,-494.453"/>
</g>
<!-- Env&#45;&gt;FactInference -->
<g id="edge104" class="edge"><title>Env&#45;&gt;FactInference</title>
<path fill="none" stroke="black" d="M638.877,-813.811C597.873,-799.386 517.596,-771.146 464.371,-752.423"/>
<polygon fill="black" stroke="black" points="465.359,-749.06 454.764,-749.043 463.036,-755.664 465.359,-749.06"/>
</g>
<!-- Env&#45;&gt;WellKindedness -->
<g id="edge96" class="edge"><title>Env&#45;&gt;WellKindedness</title>
<path fill="none" stroke="black" d="M654.165,-805.933C634.457,-774.888 592.609,-708.969 569.045,-671.849"/>
<polygon fill="black" stroke="black" points="571.787,-669.638 563.472,-663.072 565.877,-673.39 571.787,-669.638"/>
</g>
<!-- Env&#45;&gt;Types -->
<g id="edge98" class="edge"><title>Env&#45;&gt;Types</title>
<path fill="none" stroke="black" d="M679.545,-807.234C691.447,-793.559 707.909,-772.749 718,-752 745.397,-695.667 760.297,-623.097 766.848,-583.977"/>
<polygon fill="black" stroke="black" points="770.304,-584.529 768.443,-574.099 763.394,-583.414 770.304,-584.529"/>
</g>
<!-- Env&#45;&gt;PersistentUnionFind -->
<g id="edge102" class="edge"><title>Env&#45;&gt;PersistentUnionFind</title>
<path fill="none" stroke="black" d="M671.528,-805.343C682.63,-773.68 704,-704.95 704,-645 704,-645 704,-645 704,-556 704,-489.194 642.648,-432.088 602.057,-401.617"/>
<polygon fill="black" stroke="black" points="603.876,-398.611 593.74,-395.525 599.739,-404.258 603.876,-398.611"/>
</g>
<!-- Hamlet -->
<g id="node85" class="node"><title>Hamlet</title>
<ellipse fill="magenta" stroke="magenta" cx="489" cy="-912" rx="45.8622" ry="18"/>
<text text-anchor="middle" x="489" y="-907.9" font-family="DejaVu Sans, Helvetica, sans" font-size="14.00"><a xlink:href="../doc/Hamlet.html" target="_parent">Hamlet</a></text>
</g>
<!-- Hamlet&#45;&gt;Bash -->
<g id="edge122" class="edge"><title>Hamlet&#45;&gt;Bash</title>
<path fill="none" stroke="black" d="M463.798,-896.672C425.689,-871.827 354.891,-818.747 327,-752 303.539,-695.854 318.154,-622.686 329.145,-583.55"/>
<polygon fill="black" stroke="black" points="332.517,-584.491 331.976,-573.91 325.8,-582.52 332.517,-584.491"/>
</g>
<!-- Hamlet&#45;&gt;Log -->
<g id="edge114" class="edge"><title>Hamlet&#45;&gt;Log</title>
<path fill="none" stroke="black" d="M453.941,-900.207C377.98,-872.575 198.947,-795.747 123,-663 109.202,-638.882 107.037,-606.745 107.652,-584.005"/>
<polygon fill="black" stroke="black" points="111.15,-584.129 108.118,-573.977 104.157,-583.804 111.15,-584.129"/>
</g>
<!-- Hamlet&#45;&gt;Driver -->
<g id="edge120" class="edge"><title>Hamlet&#45;&gt;Driver</title>
<path fill="none" stroke="black" d="M524.579,-900.354C585.147,-880.514 701.99,-842.174 704,-841 830.446,-767.12 949.69,-635.573 996.329,-580.899"/>
<polygon fill="black" stroke="black" points="999.138,-582.999 1002.93,-573.105 993.796,-578.475 999.138,-582.999"/>
</g>
<!-- Hamlet&#45;&gt;FactInference -->
<g id="edge116" class="edge"><title>Hamlet&#45;&gt;FactInference</title>
<path fill="none" stroke="black" d="M481.193,-893.953C467.703,-862.768 439.947,-798.605 423.993,-761.724"/>
<polygon fill="black" stroke="black" points="427.01,-759.883 419.828,-752.095 420.586,-762.663 427.01,-759.883"/>
</g>
<!-- Hamlet&#45;&gt;WellKindedness -->
<g id="edge112" class="edge"><title>Hamlet&#45;&gt;WellKindedness</title>
<path fill="none" stroke="black" d="M493.231,-894.067C503.987,-848.482 532.439,-727.902 545.4,-672.972"/>
<polygon fill="black" stroke="black" points="548.814,-673.743 547.704,-663.207 542.001,-672.136 548.814,-673.743"/>
</g>
<!-- Hamlet&#45;&gt;Env -->
<g id="edge118" class="edge"><title>Hamlet&#45;&gt;Env</title>
<path fill="none" stroke="black" d="M517.277,-897.701C548.762,-881.779 599.559,-856.093 632.615,-839.377"/>
<polygon fill="black" stroke="black" points="634.505,-842.343 641.85,-834.707 631.346,-836.096 634.505,-842.343"/>
</g>
</g>
</svg>
