<?xml version="1.0" encoding="UTF-8" standalone="no"?>
<!DOCTYPE svg PUBLIC "-//W3C//DTD SVG 1.1//EN"
 "http://www.w3.org/Graphics/SVG/1.1/DTD/svg11.dtd">
<!-- Generated by graphviz version 2.26.3 (20100126.1600)
 -->
<!-- Title: G Pages: 1 -->
<svg width="720pt" height="463pt"
 viewBox="0.00 0.00 720.00 463.42" xmlns="http://www.w3.org/2000/svg" xmlns:xlink="http://www.w3.org/1999/xlink">
<g id="graph1" class="graph" transform="scale(0.336606 0.336606) rotate(0) translate(4 1372.75)">
<title>G</title>
<polygon fill="white" stroke="white" points="-4,5 -4,-1372.75 2136,-1372.75 2136,5 -4,5"/>
<!-- TypeErrors -->
<g id="node1" class="node"><title>TypeErrors</title>
<ellipse fill="darkturquoise" stroke="darkturquoise" cx="758" cy="-903" rx="61.8445" ry="18"/>
<text text-anchor="middle" x="758" y="-898.9" font-family="DejaVu Sans, Helvetica, sans" font-size="14.00"><a xlink:href="TypeErrors.html" target="_parent">TypeErrors</a></text>
</g>
<!-- DerivationPrinter -->
<g id="node3" class="node"><title>DerivationPrinter</title>
<ellipse fill="darkturquoise" stroke="darkturquoise" cx="859" cy="-794" rx="95.1989" ry="18"/>
<text text-anchor="middle" x="859" y="-789.9" font-family="DejaVu Sans, Helvetica, sans" font-size="14.00"><a xlink:href="DerivationPrinter.html" target="_parent">DerivationPrinter</a></text>
</g>
<!-- TypeErrors&#45;&gt;DerivationPrinter -->
<g id="edge2" class="edge"><title>TypeErrors&#45;&gt;DerivationPrinter</title>
<path fill="none" stroke="black" d="M774.227,-885.487C790.841,-867.558 816.825,-839.516 835.648,-819.201"/>
<polygon fill="black" stroke="black" points="838.248,-821.545 842.477,-811.831 833.113,-816.788 838.248,-821.545"/>
</g>
<!-- Types -->
<g id="node5" class="node"><title>Types</title>
<ellipse fill="darkturquoise" stroke="darkturquoise" cx="1015" cy="-575" rx="38.2185" ry="18"/>
<text text-anchor="middle" x="1015" y="-570.9" font-family="DejaVu Sans, Helvetica, sans" font-size="14.00"><a xlink:href="Types.html" target="_parent">Types</a></text>
</g>
<!-- TypeErrors&#45;&gt;Types -->
<g id="edge4" class="edge"><title>TypeErrors&#45;&gt;Types</title>
<path fill="none" stroke="black" d="M799.654,-889.517C853.068,-871.416 941.395,-838.472 963,-812 988.969,-780.181 1005.55,-659.325 1011.97,-603.536"/>
<polygon fill="black" stroke="black" points="1015.49,-603.62 1013.12,-593.292 1008.53,-602.839 1015.49,-603.62"/>
</g>
<!-- TypeCore -->
<g id="node7" class="node"><title>TypeCore</title>
<ellipse fill="darkturquoise" stroke="darkturquoise" cx="1012" cy="-246" rx="55.0898" ry="18"/>
<text text-anchor="middle" x="1012" y="-241.9" font-family="DejaVu Sans, Helvetica, sans" font-size="14.00"><a xlink:href="TypeCore.html" target="_parent">TypeCore</a></text>
</g>
<!-- TypeErrors&#45;&gt;TypeCore -->
<g id="edge6" class="edge"><title>TypeErrors&#45;&gt;TypeCore</title>
<path fill="none" stroke="black" d="M749.949,-884.704C737.277,-857.732 710.328,-807.139 674,-776 614.207,-724.748 560.297,-764.967 513,-702 478.723,-656.367 494,-632.073 494,-575 494,-575 494,-575 494,-465 494,-365.916 819.597,-286.288 954.511,-257.546"/>
<polygon fill="black" stroke="black" points="955.596,-260.894 964.658,-255.404 954.15,-254.045 955.596,-260.894"/>
</g>
<!-- ExpressionsCore -->
<g id="node9" class="node"><title>ExpressionsCore</title>
<ellipse fill="darkturquoise" stroke="darkturquoise" cx="1392" cy="-794" rx="89.139" ry="18"/>
<text text-anchor="middle" x="1392" y="-789.9" font-family="DejaVu Sans, Helvetica, sans" font-size="14.00"><a xlink:href="ExpressionsCore.html" target="_parent">ExpressionsCore</a></text>
</g>
<!-- TypeErrors&#45;&gt;ExpressionsCore -->
<g id="edge8" class="edge"><title>TypeErrors&#45;&gt;ExpressionsCore</title>
<path fill="none" stroke="black" d="M811.508,-893.801C923.525,-874.542 1183.13,-829.91 1313.84,-807.438"/>
<polygon fill="black" stroke="black" points="1314.52,-810.872 1323.79,-805.728 1313.34,-803.973 1314.52,-810.872"/>
</g>
<!-- Derivations -->
<g id="node11" class="node"><title>Derivations</title>
<ellipse fill="darkturquoise" stroke="darkturquoise" cx="850" cy="-684" rx="66.2071" ry="18"/>
<text text-anchor="middle" x="850" y="-679.9" font-family="DejaVu Sans, Helvetica, sans" font-size="14.00"><a xlink:href="Derivations.html" target="_parent">Derivations</a></text>
</g>
<!-- TypeErrors&#45;&gt;Derivations -->
<g id="edge10" class="edge"><title>TypeErrors&#45;&gt;Derivations</title>
<path fill="none" stroke="black" d="M753.069,-884.882C747.119,-859.427 739.686,-812.148 755,-776 767.23,-747.132 793.443,-722.884 815.242,-706.541"/>
<polygon fill="black" stroke="black" points="817.298,-709.374 823.342,-700.672 813.191,-703.705 817.298,-709.374"/>
</g>
<!-- DerivationPrinter&#45;&gt;Types -->
<g id="edge82" class="edge"><title>DerivationPrinter&#45;&gt;Types</title>
<path fill="none" stroke="black" d="M871.93,-776.041C885.259,-757.513 906.627,-727.769 925,-702 949.981,-666.965 978.704,-626.381 996.85,-600.704"/>
<polygon fill="black" stroke="black" points="999.892,-602.464 1002.8,-592.278 994.175,-598.425 999.892,-602.464"/>
</g>
<!-- DerivationPrinter&#45;&gt;Derivations -->
<g id="edge84" class="edge"><title>DerivationPrinter&#45;&gt;Derivations</title>
<path fill="none" stroke="black" d="M857.514,-775.836C856.1,-758.559 853.953,-732.309 852.315,-712.292"/>
<polygon fill="black" stroke="black" points="855.792,-711.873 851.488,-702.191 848.816,-712.443 855.792,-711.873"/>
</g>
<!-- Types&#45;&gt;TypeCore -->
<g id="edge98" class="edge"><title>Types&#45;&gt;TypeCore</title>
<path fill="none" stroke="black" d="M1028.55,-557.91C1041.58,-540.306 1060.38,-511.492 1068,-483 1088.25,-407.278 1049.8,-316.932 1027.05,-272.858"/>
<polygon fill="black" stroke="black" points="1030.1,-271.13 1022.33,-263.928 1023.91,-274.404 1030.1,-271.13"/>
</g>
<!-- DeBruijn -->
<g id="node15" class="node"><title>DeBruijn</title>
<ellipse fill="darkturquoise" stroke="darkturquoise" cx="931" cy="-356" rx="53.0059" ry="18"/>
<text text-anchor="middle" x="931" y="-351.9" font-family="DejaVu Sans, Helvetica, sans" font-size="14.00"><a xlink:href="DeBruijn.html" target="_parent">DeBruijn</a></text>
</g>
<!-- Types&#45;&gt;DeBruijn -->
<g id="edge92" class="edge"><title>Types&#45;&gt;DeBruijn</title>
<path fill="none" stroke="black" d="M999.636,-558.466C984.416,-541.074 961.731,-512.219 950,-483 937.078,-450.815 932.845,-410.849 931.512,-384.443"/>
<polygon fill="black" stroke="black" points="935.005,-384.21 931.111,-374.357 928.011,-384.488 935.005,-384.21"/>
</g>
<!-- DataTypeFlavor -->
<g id="node19" class="node"><title>DataTypeFlavor</title>
<ellipse fill="darkturquoise" stroke="darkturquoise" cx="1540" cy="-137" rx="86.8603" ry="18"/>
<text text-anchor="middle" x="1540" y="-132.9" font-family="DejaVu Sans, Helvetica, sans" font-size="14.00"><a xlink:href="DataTypeFlavor.html" target="_parent">DataTypeFlavor</a></text>
</g>
<!-- Types&#45;&gt;DataTypeFlavor -->
<g id="edge102" class="edge"><title>Types&#45;&gt;DataTypeFlavor</title>
<path fill="none" stroke="black" d="M1034,-559.153C1113.04,-493.209 1416.17,-240.306 1511.28,-160.959"/>
<polygon fill="black" stroke="black" points="1513.62,-163.566 1519.06,-154.472 1509.14,-158.191 1513.62,-163.566"/>
</g>
<!-- Mode -->
<g id="node35" class="node"><title>Mode</title>
<ellipse fill="darkturquoise" stroke="darkturquoise" cx="1540" cy="-27" rx="36.8288" ry="18"/>
<text text-anchor="middle" x="1540" y="-22.9" font-family="DejaVu Sans, Helvetica, sans" font-size="14.00"><a xlink:href="Mode.html" target="_parent">Mode</a></text>
</g>
<!-- Types&#45;&gt;Mode -->
<g id="edge94" class="edge"><title>Types&#45;&gt;Mode</title>
<path fill="none" stroke="black" d="M1052.95,-572.909C1211.54,-563.157 1813,-515.647 1813,-356 1813,-356 1813,-356 1813,-246 1813,-128.972 1658.47,-64.075 1581.94,-39.1092"/>
<polygon fill="black" stroke="black" points="1582.71,-35.6827 1572.12,-35.9868 1580.59,-42.3534 1582.71,-35.6827"/>
</g>
<!-- Resugar -->
<g id="node49" class="node"><title>Resugar</title>
<ellipse fill="darkturquoise" stroke="darkturquoise" cx="1009" cy="-465" rx="50.0315" ry="18"/>
<text text-anchor="middle" x="1009" y="-460.9" font-family="DejaVu Sans, Helvetica, sans" font-size="14.00"><a xlink:href="Resugar.html" target="_parent">Resugar</a></text>
</g>
<!-- Types&#45;&gt;Resugar -->
<g id="edge96" class="edge"><title>Types&#45;&gt;Resugar</title>
<path fill="none" stroke="black" d="M1014.01,-556.836C1013.07,-539.559 1011.64,-513.309 1010.54,-493.292"/>
<polygon fill="black" stroke="black" points="1014.03,-492.986 1009.99,-483.191 1007.04,-493.367 1014.03,-492.986"/>
</g>
<!-- Fact -->
<g id="node73" class="node"><title>Fact</title>
<ellipse fill="darkturquoise" stroke="darkturquoise" cx="1323" cy="-137" rx="30.0736" ry="18"/>
<text text-anchor="middle" x="1323" y="-132.9" font-family="DejaVu Sans, Helvetica, sans" font-size="14.00"><a xlink:href="Fact.html" target="_parent">Fact</a></text>
</g>
<!-- Types&#45;&gt;Fact -->
<g id="edge100" class="edge"><title>Types&#45;&gt;Fact</title>
<path fill="none" stroke="black" d="M1029.14,-557.988C1043.77,-539.978 1066.85,-510.42 1084,-483 1151.58,-374.983 1135.62,-327.664 1215,-228 1237.86,-199.304 1270.89,-173.066 1294.39,-156.215"/>
<polygon fill="black" stroke="black" points="1296.43,-159.065 1302.59,-150.444 1292.39,-153.342 1296.43,-159.065"/>
</g>
<!-- TypeCore&#45;&gt;DataTypeFlavor -->
<g id="edge126" class="edge"><title>TypeCore&#45;&gt;DataTypeFlavor</title>
<path fill="none" stroke="black" d="M1058.86,-236.327C1151.49,-217.203 1358.58,-174.453 1468.41,-151.778"/>
<polygon fill="black" stroke="black" points="1469.32,-155.164 1478.41,-149.715 1467.91,-148.309 1469.32,-155.164"/>
</g>
<!-- TypeCore&#45;&gt;Mode -->
<g id="edge122" class="edge"><title>TypeCore&#45;&gt;Mode</title>
<path fill="none" stroke="black" d="M1008.76,-227.6C1005.06,-200.026 1002.75,-148.122 1031,-119 1094.67,-53.373 1379.13,-33.9394 1492.83,-28.7354"/>
<polygon fill="black" stroke="black" points="1493.13,-32.2256 1502.96,-28.2886 1492.82,-25.2324 1493.13,-32.2256"/>
</g>
<!-- Mark -->
<g id="node44" class="node"><title>Mark</title>
<ellipse fill="darkturquoise" stroke="darkturquoise" cx="1075" cy="-137" rx="34.9399" ry="18"/>
<text text-anchor="middle" x="1075" y="-132.9" font-family="DejaVu Sans, Helvetica, sans" font-size="14.00"><a xlink:href="Mark.html" target="_parent">Mark</a></text>
</g>
<!-- TypeCore&#45;&gt;Mark -->
<g id="edge120" class="edge"><title>TypeCore&#45;&gt;Mark</title>
<path fill="none" stroke="black" d="M1022.4,-228.001C1032.6,-210.357 1048.26,-183.268 1059.84,-163.23"/>
<polygon fill="black" stroke="black" points="1063.02,-164.715 1065,-154.305 1056.96,-161.212 1063.02,-164.715"/>
</g>
<!-- TypeCore&#45;&gt;Fact -->
<g id="edge124" class="edge"><title>TypeCore&#45;&gt;Fact</title>
<path fill="none" stroke="black" d="M1049.82,-232.743C1110.27,-211.558 1227.84,-170.351 1287.07,-149.593"/>
<polygon fill="black" stroke="black" points="1288.46,-152.814 1296.74,-146.203 1286.15,-146.208 1288.46,-152.814"/>
</g>
<!-- ExpressionsCore&#45;&gt;TypeCore -->
<g id="edge42" class="edge"><title>ExpressionsCore&#45;&gt;TypeCore</title>
<path fill="none" stroke="black" d="M1387.27,-775.977C1377.93,-738.724 1358,-650.414 1358,-575 1358,-575 1358,-575 1358,-465 1358,-402.948 1346.41,-379.186 1300,-338 1236.83,-281.947 1139.31,-260.012 1075.56,-251.45"/>
<polygon fill="black" stroke="black" points="1075.99,-247.976 1065.63,-250.187 1075.11,-254.92 1075.99,-247.976"/>
</g>
<!-- Derivations&#45;&gt;Types -->
<g id="edge86" class="edge"><title>Derivations&#45;&gt;Types</title>
<path fill="none" stroke="black" d="M875.42,-667.208C904.753,-647.83 952.97,-615.977 984.353,-595.246"/>
<polygon fill="black" stroke="black" points="986.313,-598.145 992.728,-589.713 982.455,-592.305 986.313,-598.145"/>
</g>
<!-- Derivations&#45;&gt;TypeCore -->
<g id="edge88" class="edge"><title>Derivations&#45;&gt;TypeCore</title>
<path fill="none" stroke="black" d="M845.637,-665.856C833.649,-611.622 805.16,-447.716 869,-338 890.012,-301.888 931.498,-277.586 964.398,-263.073"/>
<polygon fill="black" stroke="black" points="966.022,-266.186 973.862,-259.059 963.289,-259.742 966.022,-266.186"/>
</g>
<!-- KindPrinter -->
<g id="node12" class="node"><title>KindPrinter</title>
<ellipse fill="darkturquoise" stroke="darkturquoise" cx="587" cy="-684" rx="64.8203" ry="18"/>
<text text-anchor="middle" x="587" y="-679.9" font-family="DejaVu Sans, Helvetica, sans" font-size="14.00"><a xlink:href="KindPrinter.html" target="_parent">KindPrinter</a></text>
</g>
<!-- KindPrinter&#45;&gt;Types -->
<g id="edge12" class="edge"><title>KindPrinter&#45;&gt;Types</title>
<path fill="none" stroke="black" d="M634.851,-671.814C718.736,-650.451 891.062,-606.564 971.656,-586.039"/>
<polygon fill="black" stroke="black" points="972.652,-589.397 981.479,-583.537 970.924,-582.613 972.652,-589.397"/>
</g>
<!-- KindPrinter&#45;&gt;TypeCore -->
<g id="edge14" class="edge"><title>KindPrinter&#45;&gt;TypeCore</title>
<path fill="none" stroke="black" d="M596.9,-666.166C627.978,-611.419 728.726,-443.12 849,-338 885.118,-306.432 933.783,-280.68 968.513,-264.532"/>
<polygon fill="black" stroke="black" points="970.277,-267.575 977.918,-260.236 967.368,-261.208 970.277,-267.575"/>
</g>
<!-- DeBruijn&#45;&gt;TypeCore -->
<g id="edge16" class="edge"><title>DeBruijn&#45;&gt;TypeCore</title>
<path fill="none" stroke="black" d="M944.014,-338.327C957.24,-320.365 977.871,-292.348 992.939,-271.885"/>
<polygon fill="black" stroke="black" points="995.907,-273.757 999.018,-263.63 990.27,-269.607 995.907,-273.757"/>
</g>
<!-- TypeChecker -->
<g id="node17" class="node"><title>TypeChecker</title>
<ellipse fill="darkturquoise" stroke="darkturquoise" cx="630" cy="-1341" rx="71.7694" ry="18"/>
<text text-anchor="middle" x="630" y="-1336.9" font-family="DejaVu Sans, Helvetica, sans" font-size="14.00"><a xlink:href="TypeChecker.html" target="_parent">TypeChecker</a></text>
</g>
<!-- TypeChecker&#45;&gt;TypeErrors -->
<g id="edge32" class="edge"><title>TypeChecker&#45;&gt;TypeErrors</title>
<path fill="none" stroke="black" d="M635.256,-1323.01C655.107,-1255.09 725.604,-1013.85 749.788,-931.102"/>
<polygon fill="black" stroke="black" points="753.183,-931.96 752.629,-921.38 746.464,-929.996 753.183,-931.96"/>
</g>
<!-- TypeChecker&#45;&gt;DerivationPrinter -->
<g id="edge22" class="edge"><title>TypeChecker&#45;&gt;DerivationPrinter</title>
<path fill="none" stroke="black" d="M630,-1322.83C630,-1285.31 630,-1196.52 630,-1122 630,-1122 630,-1122 630,-1013 630,-950.725 644.48,-930.499 687,-885 718.232,-851.58 764.542,-828.055 801.243,-813.308"/>
<polygon fill="black" stroke="black" points="802.792,-816.46 810.835,-809.564 800.247,-809.94 802.792,-816.46"/>
</g>
<!-- TypeChecker&#45;&gt;Types -->
<g id="edge34" class="edge"><title>TypeChecker&#45;&gt;Types</title>
<path fill="none" stroke="black" d="M679.929,-1327.85C719.829,-1314.73 774.031,-1290.55 805,-1250 905.74,-1118.09 793.172,-1023.92 884,-885 914.309,-838.643 955.261,-858.725 985,-812 1026.63,-746.593 1023.46,-650.334 1018.72,-603.158"/>
<polygon fill="black" stroke="black" points="1022.18,-602.62 1017.6,-593.065 1015.22,-603.389 1022.18,-602.62"/>
</g>
<!-- TypeChecker&#45;&gt;TypeCore -->
<g id="edge36" class="edge"><title>TypeChecker&#45;&gt;TypeCore</title>
<path fill="none" stroke="black" d="M559.388,-1337.44C465.306,-1330.45 295.442,-1309.93 164,-1250 79.8707,-1211.64 0,-1214.46 0,-1122 0,-1122 0,-1122 0,-684 1.42109e-14,-502.717 59.2549,-429.075 216,-338 339.856,-266.035 779.559,-250.318 946.794,-246.923"/>
<polygon fill="black" stroke="black" points="947.005,-250.419 956.935,-246.725 946.869,-243.421 947.005,-250.419"/>
</g>
<!-- TypeChecker&#45;&gt;ExpressionsCore -->
<g id="edge38" class="edge"><title>TypeChecker&#45;&gt;ExpressionsCore</title>
<path fill="none" stroke="black" d="M681.852,-1328.39C745.642,-1311.77 848.415,-1280.98 872,-1250 921.329,-1185.2 850.198,-945.246 905,-885 956.068,-828.859 1168.15,-806.876 1294.99,-798.636"/>
<polygon fill="black" stroke="black" points="1295.34,-802.121 1305.1,-797.996 1294.9,-795.135 1295.34,-802.121"/>
</g>
<!-- TypeChecker&#45;&gt;DeBruijn -->
<g id="edge20" class="edge"><title>TypeChecker&#45;&gt;DeBruijn</title>
<path fill="none" stroke="black" d="M570.975,-1330.67C428.227,-1304.02 76,-1227.56 76,-1122 76,-1122 76,-1122 76,-1013 76,-851.926 228,-845.074 228,-684 228,-684 228,-684 228,-575 228,-441.113 698.676,-379.705 869.772,-361.805"/>
<polygon fill="black" stroke="black" points="870.288,-365.271 879.876,-360.762 869.569,-358.308 870.288,-365.271"/>
</g>
<!-- TypeChecker&#45;&gt;DataTypeFlavor -->
<g id="edge18" class="edge"><title>TypeChecker&#45;&gt;DataTypeFlavor</title>
<path fill="none" stroke="black" d="M683.972,-1328.95C749.057,-1313.71 861.267,-1285.17 954,-1250 1348.93,-1100.21 1623,-997.383 1623,-575 1623,-575 1623,-575 1623,-356 1623,-282.443 1581.55,-203.482 1557.23,-163.488"/>
<polygon fill="black" stroke="black" points="1560.14,-161.526 1551.89,-154.872 1554.19,-165.215 1560.14,-161.526"/>
</g>
<!-- Expressions -->
<g id="node23" class="node"><title>Expressions</title>
<ellipse fill="darkturquoise" stroke="darkturquoise" cx="1105" cy="-1122" rx="66.9043" ry="18"/>
<text text-anchor="middle" x="1105" y="-1117.9" font-family="DejaVu Sans, Helvetica, sans" font-size="14.00"><a xlink:href="Expressions.html" target="_parent">Expressions</a></text>
</g>
<!-- TypeChecker&#45;&gt;Expressions -->
<g id="edge24" class="edge"><title>TypeChecker&#45;&gt;Expressions</title>
<path fill="none" stroke="black" d="M682.166,-1328.51C739.629,-1313.75 833.968,-1286.5 910,-1250 972.019,-1220.23 1037.6,-1173.6 1074.7,-1145.6"/>
<polygon fill="black" stroke="black" points="1077.22,-1148.09 1083.06,-1139.25 1072.98,-1142.51 1077.22,-1148.09"/>
</g>
<!-- FactInference -->
<g id="node25" class="node"><title>FactInference</title>
<ellipse fill="darkturquoise" stroke="darkturquoise" cx="413" cy="-1013" rx="75.2406" ry="18"/>
<text text-anchor="middle" x="413" y="-1008.9" font-family="DejaVu Sans, Helvetica, sans" font-size="14.00"><a xlink:href="FactInference.html" target="_parent">FactInference</a></text>
</g>
<!-- TypeChecker&#45;&gt;FactInference -->
<g id="edge26" class="edge"><title>TypeChecker&#45;&gt;FactInference</title>
<path fill="none" stroke="black" d="M571.14,-1330.58C525.241,-1319.14 464.075,-1295.89 432,-1250 387.593,-1186.46 398.113,-1088.6 406.871,-1040.97"/>
<polygon fill="black" stroke="black" points="410.325,-1041.55 408.804,-1031.06 403.454,-1040.21 410.325,-1041.55"/>
</g>
<!-- Merge -->
<g id="node27" class="node"><title>Merge</title>
<ellipse fill="darkturquoise" stroke="darkturquoise" cx="482" cy="-1232" rx="40.9981" ry="18"/>
<text text-anchor="middle" x="482" y="-1227.9" font-family="DejaVu Sans, Helvetica, sans" font-size="14.00"><a xlink:href="Merge.html" target="_parent">Merge</a></text>
</g>
<!-- TypeChecker&#45;&gt;Merge -->
<g id="edge28" class="edge"><title>TypeChecker&#45;&gt;Merge</title>
<path fill="none" stroke="black" d="M606.549,-1323.73C580.843,-1304.8 539.55,-1274.38 511.624,-1253.82"/>
<polygon fill="black" stroke="black" points="513.547,-1250.89 503.419,-1247.77 509.396,-1256.52 513.547,-1250.89"/>
</g>
<!-- Permissions -->
<g id="node29" class="node"><title>Permissions</title>
<ellipse fill="darkturquoise" stroke="darkturquoise" cx="307" cy="-1122" rx="66.9043" ry="18"/>
<text text-anchor="middle" x="307" y="-1117.9" font-family="DejaVu Sans, Helvetica, sans" font-size="14.00"><a xlink:href="Permissions.html" target="_parent">Permissions</a></text>
</g>
<!-- TypeChecker&#45;&gt;Permissions -->
<g id="edge30" class="edge"><title>TypeChecker&#45;&gt;Permissions</title>
<path fill="none" stroke="black" d="M573.293,-1329.9C498.649,-1314.19 373.116,-1283.61 341,-1250 315.364,-1223.17 308.538,-1179.3 306.995,-1150.54"/>
<polygon fill="black" stroke="black" points="310.485,-1150.19 306.633,-1140.32 303.489,-1150.44 310.485,-1150.19"/>
</g>
<!-- DataTypeFlavor&#45;&gt;Mode -->
<g id="edge40" class="edge"><title>DataTypeFlavor&#45;&gt;Mode</title>
<path fill="none" stroke="black" d="M1540,-118.836C1540,-101.559 1540,-75.309 1540,-55.2917"/>
<polygon fill="black" stroke="black" points="1543.5,-55.1912 1540,-45.1912 1536.5,-55.1913 1543.5,-55.1912"/>
</g>
<!-- Expressions&#45;&gt;Types -->
<g id="edge70" class="edge"><title>Expressions&#45;&gt;Types</title>
<path fill="none" stroke="black" d="M1096.48,-1104.02C1088.43,-1086.01 1076.88,-1057.27 1072,-1031 1042.33,-871.336 1096.97,-822.881 1055,-666 1048.98,-643.494 1038.18,-619.418 1029.33,-601.687"/>
<polygon fill="black" stroke="black" points="1032.32,-599.848 1024.65,-592.54 1026.08,-603.037 1032.32,-599.848"/>
</g>
<!-- Expressions&#45;&gt;TypeCore -->
<g id="edge74" class="edge"><title>Expressions&#45;&gt;TypeCore</title>
<path fill="none" stroke="black" d="M1106.32,-1104C1108.82,-1068.84 1114.16,-988.599 1116,-921 1123.08,-661.314 1166.08,-580.916 1074,-338 1064.73,-313.546 1047.85,-289.151 1034.04,-271.632"/>
<polygon fill="black" stroke="black" points="1036.57,-269.188 1027.56,-263.614 1031.13,-273.59 1036.57,-269.188"/>
</g>
<!-- Expressions&#45;&gt;ExpressionsCore -->
<g id="edge76" class="edge"><title>Expressions&#45;&gt;ExpressionsCore</title>
<path fill="none" stroke="black" d="M1143.92,-1107.24C1179.06,-1092.34 1230.42,-1066.46 1265,-1031 1273.18,-1022.61 1346.63,-881.626 1377.95,-821.172"/>
<polygon fill="black" stroke="black" points="1381.11,-822.683 1382.6,-812.193 1374.9,-819.464 1381.11,-822.683"/>
</g>
<!-- Expressions&#45;&gt;DeBruijn -->
<g id="edge66" class="edge"><title>Expressions&#45;&gt;DeBruijn</title>
<path fill="none" stroke="black" d="M1104.97,-1103.68C1104.66,-1001.59 1101.44,-505.449 1068,-447 1048.02,-412.073 1008.52,-388.024 977.05,-373.46"/>
<polygon fill="black" stroke="black" points="978.13,-370.11 967.571,-369.243 975.285,-376.506 978.13,-370.11"/>
</g>
<!-- Expressions&#45;&gt;FactInference -->
<g id="edge68" class="edge"><title>Expressions&#45;&gt;FactInference</title>
<path fill="none" stroke="black" d="M1047.19,-1112.89C921.618,-1093.11 624.133,-1046.26 485.92,-1024.49"/>
<polygon fill="black" stroke="black" points="486.271,-1021 475.848,-1022.9 485.182,-1027.91 486.271,-1021"/>
</g>
<!-- Variance -->
<g id="node45" class="node"><title>Variance</title>
<ellipse fill="darkturquoise" stroke="darkturquoise" cx="1204" cy="-1013" rx="52.1162" ry="18"/>
<text text-anchor="middle" x="1204" y="-1008.9" font-family="DejaVu Sans, Helvetica, sans" font-size="14.00"><a xlink:href="Variance.html" target="_parent">Variance</a></text>
</g>
<!-- Expressions&#45;&gt;Variance -->
<g id="edge72" class="edge"><title>Expressions&#45;&gt;Variance</title>
<path fill="none" stroke="black" d="M1120.91,-1104.49C1137.22,-1086.53 1162.74,-1058.43 1181.19,-1038.11"/>
<polygon fill="black" stroke="black" points="1184,-1040.22 1188.13,-1030.47 1178.82,-1035.52 1184,-1040.22"/>
</g>
<!-- FactInference&#45;&gt;TypeErrors -->
<g id="edge172" class="edge"><title>FactInference&#45;&gt;TypeErrors</title>
<path fill="none" stroke="black" d="M458.457,-998.506C522.635,-978.044 639.459,-940.796 706.678,-919.363"/>
<polygon fill="black" stroke="black" points="707.76,-922.692 716.224,-916.32 705.633,-916.023 707.76,-922.692"/>
</g>
<!-- FactInference&#45;&gt;Types -->
<g id="edge174" class="edge"><title>FactInference&#45;&gt;Types</title>
<path fill="none" stroke="black" d="M426.861,-995.259C464.567,-947.143 568.794,-815.162 608,-776 621.629,-762.387 725.137,-675.312 742,-666 817.138,-624.507 914.383,-597.721 970.219,-584.59"/>
<polygon fill="black" stroke="black" points="971.193,-587.957 980.148,-582.297 969.617,-581.137 971.193,-587.957"/>
</g>
<!-- FactInference&#45;&gt;TypeCore -->
<g id="edge176" class="edge"><title>FactInference&#45;&gt;TypeCore</title>
<path fill="none" stroke="black" d="M413.561,-994.757C414.198,-969.915 414.917,-924.064 413,-885 401.085,-642.148 242.94,-520.15 404,-338 439.803,-297.509 799.444,-263.507 948.159,-251.067"/>
<polygon fill="black" stroke="black" points="948.819,-254.525 958.495,-250.209 948.24,-247.549 948.819,-254.525"/>
</g>
<!-- FactInference&#45;&gt;DeBruijn -->
<g id="edge166" class="edge"><title>FactInference&#45;&gt;DeBruijn</title>
<path fill="none" stroke="black" d="M421.632,-994.833C429.767,-976.633 441.377,-947.581 446,-921 453.093,-880.218 435.4,-785.554 433,-776 424.394,-741.74 410.558,-736.71 404,-702 401.029,-686.278 396.056,-679.889 404,-666 508.103,-483.984 765.333,-398.288 877.389,-368.64"/>
<polygon fill="black" stroke="black" points="878.332,-372.011 887.13,-366.107 876.571,-365.236 878.332,-372.011"/>
</g>
<!-- FactInference&#45;&gt;DataTypeFlavor -->
<g id="edge164" class="edge"><title>FactInference&#45;&gt;DataTypeFlavor</title>
<path fill="none" stroke="black" d="M386.093,-996.076C341.024,-965.796 252.415,-897.451 224,-812 157.517,-612.067 77.1902,-496.508 216,-338 257.25,-290.896 1166.81,-180.715 1453.95,-146.988"/>
<polygon fill="black" stroke="black" points="1454.38,-150.462 1463.9,-145.821 1453.56,-143.51 1454.38,-150.462"/>
</g>
<!-- FactInference&#45;&gt;Mode -->
<g id="edge178" class="edge"><title>FactInference&#45;&gt;Mode</title>
<path fill="none" stroke="black" d="M346.39,-1004.64C238.63,-986.993 38,-935.174 38,-794 38,-794 38,-794 38,-246 38,-95.2474 1238.08,-39.0204 1492.83,-28.7828"/>
<polygon fill="black" stroke="black" points="1493.02,-32.2781 1502.87,-28.3835 1492.74,-25.2837 1493.02,-32.2781"/>
</g>
<!-- Hoist -->
<g id="node40" class="node"><title>Hoist</title>
<ellipse fill="darkturquoise" stroke="darkturquoise" cx="368" cy="-903" rx="36.1339" ry="18"/>
<text text-anchor="middle" x="368" y="-898.9" font-family="DejaVu Sans, Helvetica, sans" font-size="14.00"><a xlink:href="Hoist.html" target="_parent">Hoist</a></text>
</g>
<!-- FactInference&#45;&gt;Hoist -->
<g id="edge170" class="edge"><title>FactInference&#45;&gt;Hoist</title>
<path fill="none" stroke="black" d="M405.569,-994.836C398.361,-977.216 387.334,-950.261 379.088,-930.104"/>
<polygon fill="black" stroke="black" points="382.318,-928.757 375.293,-920.826 375.84,-931.407 382.318,-928.757"/>
</g>
<!-- FactInference&#45;&gt;Fact -->
<g id="edge168" class="edge"><title>FactInference&#45;&gt;Fact</title>
<path fill="none" stroke="black" d="M390.838,-995.476C370.599,-978.413 341.148,-950.759 323,-921 157.021,-648.832 -78.8906,-461.63 138,-228 212.365,-147.896 1010.06,-163.859 1119,-155 1176.05,-150.361 1242.02,-144.438 1283.13,-140.681"/>
<polygon fill="black" stroke="black" points="1283.64,-144.149 1293.28,-139.751 1283,-137.178 1283.64,-144.149"/>
</g>
<!-- Merge&#45;&gt;TypeErrors -->
<g id="edge108" class="edge"><title>Merge&#45;&gt;TypeErrors</title>
<path fill="none" stroke="black" d="M496.45,-1214.77C541.975,-1160.51 682.593,-992.887 736.585,-928.527"/>
<polygon fill="black" stroke="black" points="739.278,-930.763 743.023,-920.853 733.915,-926.264 739.278,-930.763"/>
</g>
<!-- Merge&#45;&gt;Types -->
<g id="edge110" class="edge"><title>Merge&#45;&gt;Types</title>
<path fill="none" stroke="black" d="M486.077,-1213.96C504.573,-1136.21 587.925,-826.473 775,-666 831.6,-617.449 916.756,-593.487 968.949,-582.714"/>
<polygon fill="black" stroke="black" points="969.804,-586.113 978.93,-580.731 968.44,-579.247 969.804,-586.113"/>
</g>
<!-- Merge&#45;&gt;TypeCore -->
<g id="edge112" class="edge"><title>Merge&#45;&gt;TypeCore</title>
<path fill="none" stroke="black" d="M483.795,-1214.01C487.199,-1178.88 494.479,-1098.66 497,-1031 504.659,-825.457 418,-780.686 418,-575 418,-575 418,-575 418,-465 418,-395.302 451.043,-375.174 510,-338 582.281,-292.425 830.609,-263.301 948.675,-251.709"/>
<polygon fill="black" stroke="black" points="949.043,-255.19 958.658,-250.74 948.367,-248.223 949.043,-255.19"/>
</g>
<!-- Merge&#45;&gt;FactInference -->
<g id="edge104" class="edge"><title>Merge&#45;&gt;FactInference</title>
<path fill="none" stroke="black" d="M476.353,-1214.08C464.324,-1175.9 436.1,-1086.32 421.733,-1040.72"/>
<polygon fill="black" stroke="black" points="425.068,-1039.66 418.725,-1031.17 418.391,-1041.76 425.068,-1039.66"/>
</g>
<!-- Merge&#45;&gt;Permissions -->
<g id="edge106" class="edge"><title>Merge&#45;&gt;Permissions</title>
<path fill="none" stroke="black" d="M458.399,-1217.16C428.509,-1198.38 376.748,-1165.84 342.188,-1144.12"/>
<polygon fill="black" stroke="black" points="343.693,-1140.93 333.364,-1138.57 339.967,-1146.86 343.693,-1140.93"/>
</g>
<!-- Permissions&#45;&gt;Types -->
<g id="edge50" class="edge"><title>Permissions&#45;&gt;Types</title>
<path fill="none" stroke="black" d="M299.801,-1103.88C284.145,-1061.23 252.086,-952.958 300,-885 403.653,-737.985 517.691,-810.72 661,-702 678.292,-688.881 675.525,-677.392 694,-666 781.519,-612.035 901.998,-589.156 967.653,-580.199"/>
<polygon fill="black" stroke="black" points="968.247,-583.651 977.706,-578.878 967.335,-576.711 968.247,-583.651"/>
</g>
<!-- Permissions&#45;&gt;TypeCore -->
<g id="edge52" class="edge"><title>Permissions&#45;&gt;TypeCore</title>
<path fill="none" stroke="black" d="M276.419,-1105.78C221.998,-1074.45 114,-1000.05 114,-903 114,-903 114,-903 114,-794 114,-580.926 90.9696,-465.079 262,-338 316.659,-297.387 776.027,-262.133 947.655,-250.262"/>
<polygon fill="black" stroke="black" points="948.07,-253.742 957.807,-249.564 947.59,-246.758 948.07,-253.742"/>
</g>
<!-- Permissions&#45;&gt;Derivations -->
<g id="edge54" class="edge"><title>Permissions&#45;&gt;Derivations</title>
<path fill="none" stroke="black" d="M302.222,-1103.75C292.137,-1060.81 273.458,-951.971 323,-885 380.693,-807.012 664.764,-729.341 790.237,-698.212"/>
<polygon fill="black" stroke="black" points="791.204,-701.579 800.075,-695.787 789.528,-694.783 791.204,-701.579"/>
</g>
<!-- Permissions&#45;&gt;DeBruijn -->
<g id="edge44" class="edge"><title>Permissions&#45;&gt;DeBruijn</title>
<path fill="none" stroke="black" d="M297.59,-1104.14C288.72,-1086.21 276.058,-1057.54 271,-1031 264.637,-997.618 268.867,-917.109 278,-885 323.318,-725.67 347.999,-683.453 455,-557 505.889,-496.859 523.639,-482.44 594,-447 685.309,-401.008 802.625,-376.114 872.017,-364.484"/>
<polygon fill="black" stroke="black" points="872.597,-367.936 881.899,-362.864 871.464,-361.028 872.597,-367.936"/>
</g>
<!-- Permissions&#45;&gt;FactInference -->
<g id="edge46" class="edge"><title>Permissions&#45;&gt;FactInference</title>
<path fill="none" stroke="black" d="M324.031,-1104.49C341.467,-1086.56 368.737,-1058.52 388.492,-1038.2"/>
<polygon fill="black" stroke="black" points="391.197,-1040.44 395.659,-1030.83 386.178,-1035.56 391.197,-1040.44"/>
</g>
<!-- Permissions&#45;&gt;Hoist -->
<g id="edge48" class="edge"><title>Permissions&#45;&gt;Hoist</title>
<path fill="none" stroke="black" d="M308.845,-1103.61C311.652,-1078.64 317.88,-1032.78 329,-995 335.654,-972.393 346.228,-947.873 354.688,-929.836"/>
<polygon fill="black" stroke="black" points="357.978,-931.067 359.132,-920.536 351.662,-928.049 357.978,-931.067"/>
</g>
<!-- Hoist&#45;&gt;TypeCore -->
<g id="edge90" class="edge"><title>Hoist&#45;&gt;TypeCore</title>
<path fill="none" stroke="black" d="M358.404,-885.467C333.013,-837.378 266,-698.741 266,-575 266,-575 266,-575 266,-465 266,-407.557 248.181,-377.381 290,-338 337.559,-293.214 779.41,-260.751 947.506,-249.926"/>
<polygon fill="black" stroke="black" points="947.941,-253.406 957.698,-249.275 947.495,-246.42 947.941,-253.406"/>
</g>
<!-- Variance&#45;&gt;TypeErrors -->
<g id="edge56" class="edge"><title>Variance&#45;&gt;TypeErrors</title>
<path fill="none" stroke="black" d="M1161.64,-1002.55C1081.16,-982.703 906.102,-939.527 815.264,-917.123"/>
<polygon fill="black" stroke="black" points="815.96,-913.69 805.413,-914.694 814.284,-920.487 815.96,-913.69"/>
</g>
<!-- Variance&#45;&gt;Types -->
<g id="edge58" class="edge"><title>Variance&#45;&gt;Types</title>
<path fill="none" stroke="black" d="M1202.5,-994.718C1197.4,-940.773 1177.07,-778.976 1110,-666 1093.33,-637.913 1065.63,-612.807 1044.44,-596.117"/>
<polygon fill="black" stroke="black" points="1046.44,-593.245 1036.38,-589.929 1042.18,-598.796 1046.44,-593.245"/>
</g>
<!-- Variance&#45;&gt;TypeCore -->
<g id="edge60" class="edge"><title>Variance&#45;&gt;TypeCore</title>
<path fill="none" stroke="black" d="M1218.11,-995.576C1231.51,-977.94 1250.91,-949.305 1260,-921 1307.18,-774.182 1286,-729.211 1286,-575 1286,-575 1286,-575 1286,-465 1286,-352.29 1142.78,-288.082 1063.43,-261.158"/>
<polygon fill="black" stroke="black" points="1064.21,-257.729 1053.61,-257.908 1062.01,-264.374 1064.21,-257.729"/>
</g>
<!-- Resugar&#45;&gt;TypeCore -->
<g id="edge64" class="edge"><title>Resugar&#45;&gt;TypeCore</title>
<path fill="none" stroke="black" d="M1009.25,-446.705C1009.77,-408.446 1010.99,-319.762 1011.61,-274.174"/>
<polygon fill="black" stroke="black" points="1015.11,-274.136 1011.75,-264.089 1008.12,-274.04 1015.11,-274.136"/>
</g>
<!-- Resugar&#45;&gt;DeBruijn -->
<g id="edge62" class="edge"><title>Resugar&#45;&gt;DeBruijn</title>
<path fill="none" stroke="black" d="M996.468,-447.487C983.807,-429.795 964.1,-402.255 949.613,-382.011"/>
<polygon fill="black" stroke="black" points="952.426,-379.927 943.76,-373.831 946.733,-384.001 952.426,-379.927"/>
</g>
<!-- KindCheckGlue -->
<g id="node58" class="node"><title>KindCheckGlue</title>
<ellipse fill="darkturquoise" stroke="darkturquoise" cx="1527" cy="-1122" rx="84.0808" ry="18"/>
<text text-anchor="middle" x="1527" y="-1117.9" font-family="DejaVu Sans, Helvetica, sans" font-size="14.00"><a xlink:href="KindCheckGlue.html" target="_parent">KindCheckGlue</a></text>
</g>
<!-- KindCheckGlue&#45;&gt;TypeCore -->
<g id="edge78" class="edge"><title>KindCheckGlue&#45;&gt;TypeCore</title>
<path fill="none" stroke="black" d="M1528.16,-1103.59C1532.43,-1034.31 1547,-782.638 1547,-575 1547,-575 1547,-575 1547,-465 1547,-407.557 1563.79,-378.443 1523,-338 1460.97,-276.503 1200,-255.391 1076.85,-248.763"/>
<polygon fill="black" stroke="black" points="1076.97,-245.264 1066.8,-248.238 1076.6,-252.255 1076.97,-245.264"/>
</g>
<!-- KindCheck -->
<g id="node61" class="node"><title>KindCheck</title>
<ellipse fill="darkturquoise" stroke="darkturquoise" cx="1827" cy="-1013" rx="61.8445" ry="18"/>
<text text-anchor="middle" x="1827" y="-1008.9" font-family="DejaVu Sans, Helvetica, sans" font-size="14.00"><a xlink:href="KindCheck.html" target="_parent">KindCheck</a></text>
</g>
<!-- KindCheckGlue&#45;&gt;KindCheck -->
<g id="edge80" class="edge"><title>KindCheckGlue&#45;&gt;KindCheck</title>
<path fill="none" stroke="black" d="M1569.98,-1106.38C1625.12,-1086.35 1720.51,-1051.69 1778.28,-1030.7"/>
<polygon fill="black" stroke="black" points="1779.71,-1033.91 1787.91,-1027.2 1777.32,-1027.33 1779.71,-1033.91"/>
</g>
<!-- KindCheck&#45;&gt;DataTypeFlavor -->
<g id="edge118" class="edge"><title>KindCheck&#45;&gt;DataTypeFlavor</title>
<path fill="none" stroke="black" d="M1820.55,-994.9C1814.22,-976.51 1804.71,-947.096 1799,-921 1755.31,-721.19 1737,-669.531 1737,-465 1737,-465 1737,-465 1737,-356 1737,-298.12 1747.38,-274.565 1713,-228 1686.26,-191.785 1640.79,-168.668 1603.17,-154.798"/>
<polygon fill="black" stroke="black" points="1603.89,-151.339 1593.29,-151.299 1601.55,-157.937 1603.89,-151.339"/>
</g>
<!-- KindCheck&#45;&gt;Mode -->
<g id="edge114" class="edge"><title>KindCheck&#45;&gt;Mode</title>
<path fill="none" stroke="black" d="M1826.68,-994.828C1826.13,-955.078 1825.64,-857.444 1832,-776 1846.68,-588.195 1889,-544.378 1889,-356 1889,-356 1889,-356 1889,-246 1889,-188.557 1903.77,-161.387 1865,-119 1827.36,-77.8476 1666.23,-47.0587 1585.9,-33.9517"/>
<polygon fill="black" stroke="black" points="1586.02,-30.4254 1575.59,-32.2938 1584.91,-37.3367 1586.02,-30.4254"/>
</g>
<!-- Namespace -->
<g id="node82" class="node"><title>Namespace</title>
<ellipse fill="darkturquoise" stroke="darkturquoise" cx="1930" cy="-903" rx="66.0138" ry="18"/>
<text text-anchor="middle" x="1930" y="-898.9" font-family="DejaVu Sans, Helvetica, sans" font-size="14.00"><a xlink:href="Namespace.html" target="_parent">Namespace</a></text>
</g>
<!-- KindCheck&#45;&gt;Namespace -->
<g id="edge116" class="edge"><title>KindCheck&#45;&gt;Namespace</title>
<path fill="none" stroke="black" d="M1843.55,-995.327C1860.59,-977.125 1887.31,-948.596 1906.53,-928.067"/>
<polygon fill="black" stroke="black" points="1909.21,-930.321 1913.49,-920.63 1904.1,-925.537 1909.21,-930.321"/>
</g>
<!-- NamespaceSignature -->
<g id="node64" class="node"><title>NamespaceSignature</title>
<ellipse fill="darkturquoise" stroke="darkturquoise" cx="1953" cy="-794" rx="112.071" ry="18"/>
<text text-anchor="middle" x="1953" y="-789.9" font-family="DejaVu Sans, Helvetica, sans" font-size="14.00"><a xlink:href="NamespaceSignature.html" target="_parent">NamespaceSignature</a></text>
</g>
<!-- Fact&#45;&gt;Mode -->
<g id="edge128" class="edge"><title>Fact&#45;&gt;Mode</title>
<path fill="none" stroke="black" d="M1346.22,-125.228C1384.4,-105.876 1460.63,-67.2357 1505.25,-44.6148"/>
<polygon fill="black" stroke="black" points="1506.93,-47.6869 1514.27,-40.0436 1503.77,-41.4432 1506.93,-47.6869"/>
</g>
<!-- Namespace&#45;&gt;NamespaceSignature -->
<g id="edge130" class="edge"><title>Namespace&#45;&gt;NamespaceSignature</title>
<path fill="none" stroke="black" d="M1933.8,-885.001C1937.41,-867.882 1942.9,-841.87 1947.08,-822.035"/>
<polygon fill="black" stroke="black" points="1950.56,-822.533 1949.2,-812.026 1943.71,-821.088 1950.56,-822.533"/>
</g>
<!-- Modules -->
<g id="node90" class="node"><title>Modules</title>
<ellipse fill="darkturquoise" stroke="darkturquoise" cx="746" cy="-1232" rx="50.2242" ry="18"/>
<text text-anchor="middle" x="746" y="-1227.9" font-family="DejaVu Sans, Helvetica, sans" font-size="14.00"><a xlink:href="Modules.html" target="_parent">Modules</a></text>
</g>
<!-- Modules&#45;&gt;TypeErrors -->
<g id="edge136" class="edge"><title>Modules&#45;&gt;TypeErrors</title>
<path fill="none" stroke="black" d="M746.662,-1213.84C748.65,-1159.36 754.573,-996.959 756.973,-931.157"/>
<polygon fill="black" stroke="black" points="760.473,-931.222 757.34,-921.101 753.478,-930.967 760.473,-931.222"/>
</g>
<!-- Modules&#45;&gt;TypeCore -->
<g id="edge134" class="edge"><title>Modules&#45;&gt;TypeCore</title>
<path fill="none" stroke="black" d="M741.244,-1213.89C723.973,-1150.15 660.272,-931.594 560,-776 535.476,-737.945 512.085,-741.52 490,-702 461.495,-650.992 456,-633.432 456,-575 456,-575 456,-575 456,-465 456,-383.268 516.818,-376.338 589,-338 705.399,-276.176 860.829,-255.882 947.189,-249.232"/>
<polygon fill="black" stroke="black" points="947.654,-252.707 957.371,-248.486 947.143,-245.726 947.654,-252.707"/>
</g>
<!-- Modules&#45;&gt;Expressions -->
<g id="edge132" class="edge"><title>Modules&#45;&gt;Expressions</title>
<path fill="none" stroke="black" d="M784.079,-1220.33C848.021,-1200.74 977.163,-1161.17 1050.64,-1138.66"/>
<polygon fill="black" stroke="black" points="1052.09,-1141.87 1060.62,-1135.6 1050.03,-1135.18 1052.09,-1141.87"/>
</g>
<!-- Interfaces -->
<g id="node94" class="node"><title>Interfaces</title>
<ellipse fill="darkturquoise" stroke="darkturquoise" cx="1339" cy="-1341" rx="59.065" ry="18"/>
<text text-anchor="middle" x="1339" y="-1336.9" font-family="DejaVu Sans, Helvetica, sans" font-size="14.00"><a xlink:href="Interfaces.html" target="_parent">Interfaces</a></text>
</g>
<!-- Interfaces&#45;&gt;TypeErrors -->
<g id="edge154" class="edge"><title>Interfaces&#45;&gt;TypeErrors</title>
<path fill="none" stroke="black" d="M1304.62,-1326.19C1267.83,-1309.72 1208.35,-1281.27 1161,-1250 1004.37,-1146.56 842.35,-988.566 782.287,-927.906"/>
<polygon fill="black" stroke="black" points="784.662,-925.33 775.148,-920.669 779.679,-930.246 784.662,-925.33"/>
</g>
<!-- Interfaces&#45;&gt;DerivationPrinter -->
<g id="edge138" class="edge"><title>Interfaces&#45;&gt;DerivationPrinter</title>
<path fill="none" stroke="black" d="M1340.28,-1322.96C1343.23,-1267.62 1344.94,-1097.81 1265,-995 1181.5,-887.616 1025.52,-833.587 933.104,-809.833"/>
<polygon fill="black" stroke="black" points="933.813,-806.402 923.261,-807.355 932.104,-813.19 933.813,-806.402"/>
</g>
<!-- Interfaces&#45;&gt;Types -->
<g id="edge156" class="edge"><title>Interfaces&#45;&gt;Types</title>
<path fill="none" stroke="black" d="M1396.6,-1336.75C1572.86,-1322.18 2093,-1266.92 2093,-1122 2093,-1122 2093,-1122 2093,-903 2093,-845.927 2113.56,-817.137 2074,-776 2037.84,-738.399 1261.04,-613.776 1061.43,-582.28"/>
<polygon fill="black" stroke="black" points="1061.7,-578.78 1051.27,-580.68 1060.61,-585.694 1061.7,-578.78"/>
</g>
<!-- Interfaces&#45;&gt;TypeCore -->
<g id="edge160" class="edge"><title>Interfaces&#45;&gt;TypeCore</title>
<path fill="none" stroke="black" d="M1344.51,-1322.9C1368.97,-1242.43 1467.44,-916.442 1490,-812 1502.14,-755.784 1509,-741.512 1509,-684 1509,-684 1509,-684 1509,-465 1509,-369.543 1198.1,-288.088 1068.09,-258.199"/>
<polygon fill="black" stroke="black" points="1068.84,-254.779 1058.31,-255.968 1067.28,-261.604 1068.84,-254.779"/>
</g>
<!-- Interfaces&#45;&gt;ExpressionsCore -->
<g id="edge142" class="edge"><title>Interfaces&#45;&gt;ExpressionsCore</title>
<path fill="none" stroke="black" d="M1340.76,-1322.8C1348.54,-1242.57 1379.78,-920.158 1389.26,-822.302"/>
<polygon fill="black" stroke="black" points="1392.75,-822.559 1390.23,-812.268 1385.78,-821.884 1392.75,-822.559"/>
</g>
<!-- Interfaces&#45;&gt;Expressions -->
<g id="edge140" class="edge"><title>Interfaces&#45;&gt;Expressions</title>
<path fill="none" stroke="black" d="M1308.13,-1325.65C1277.67,-1309.55 1230.89,-1282.13 1197,-1250 1164.88,-1219.55 1136.63,-1176.49 1120.18,-1148.91"/>
<polygon fill="black" stroke="black" points="1123.14,-1147.04 1115.06,-1140.18 1117.1,-1150.58 1123.14,-1147.04"/>
</g>
<!-- Interfaces&#45;&gt;FactInference -->
<g id="edge146" class="edge"><title>Interfaces&#45;&gt;FactInference</title>
<path fill="none" stroke="black" d="M1281.35,-1337.15C1142.44,-1327.21 792.903,-1298.04 687,-1250 575.503,-1199.42 475.141,-1088.73 433.449,-1038.59"/>
<polygon fill="black" stroke="black" points="436.096,-1036.29 427.04,-1030.8 430.69,-1040.74 436.096,-1036.29"/>
</g>
<!-- Interfaces&#45;&gt;Permissions -->
<g id="edge150" class="edge"><title>Interfaces&#45;&gt;Permissions</title>
<path fill="none" stroke="black" d="M1279.98,-1340.29C1103.51,-1337.35 582.795,-1322.59 432,-1250 384.621,-1227.19 345.242,-1178.58 324.001,-1148.26"/>
<polygon fill="black" stroke="black" points="326.787,-1146.13 318.251,-1139.86 321.011,-1150.09 326.787,-1146.13"/>
</g>
<!-- Interfaces&#45;&gt;Variance -->
<g id="edge158" class="edge"><title>Interfaces&#45;&gt;Variance</title>
<path fill="none" stroke="black" d="M1315.91,-1324.24C1295.02,-1307.77 1265.12,-1280.69 1249,-1250 1212.84,-1181.18 1205.46,-1087.56 1204.13,-1041.29"/>
<polygon fill="black" stroke="black" points="1207.63,-1041.03 1203.92,-1031.11 1200.63,-1041.18 1207.63,-1041.03"/>
</g>
<!-- Interfaces&#45;&gt;KindCheckGlue -->
<g id="edge162" class="edge"><title>Interfaces&#45;&gt;KindCheckGlue</title>
<path fill="none" stroke="black" d="M1354.07,-1323.45C1387.12,-1284.94 1466.14,-1192.89 1504.86,-1147.79"/>
<polygon fill="black" stroke="black" points="1507.74,-1149.81 1511.6,-1139.94 1502.43,-1145.25 1507.74,-1149.81"/>
</g>
<!-- Interfaces&#45;&gt;KindCheck -->
<g id="edge148" class="edge"><title>Interfaces&#45;&gt;KindCheck</title>
<path fill="none" stroke="black" d="M1392.19,-1333.12C1458.4,-1321.75 1573.55,-1296.79 1662,-1250 1729.2,-1214.45 1752.17,-1204.13 1793,-1140 1812.37,-1109.57 1820.78,-1068.32 1824.38,-1041.2"/>
<polygon fill="black" stroke="black" points="1827.87,-1041.55 1825.58,-1031.2 1820.92,-1040.72 1827.87,-1041.55"/>
</g>
<!-- Interfaces&#45;&gt;Fact -->
<g id="edge144" class="edge"><title>Interfaces&#45;&gt;Fact</title>
<path fill="none" stroke="black" d="M1396.47,-1336.86C1533.18,-1326.38 1874.1,-1296.28 1978,-1250 2058.99,-1213.92 2131,-1210.66 2131,-1122 2131,-1122 2131,-1122 2131,-903 2131,-844.681 2127.45,-826.339 2098,-776 1997.38,-603.984 1775,-664.283 1775,-465 1775,-465 1775,-465 1775,-356 1775,-265.626 1696.72,-270.575 1617,-228 1531.63,-182.409 1419.89,-155.778 1361.83,-144.1"/>
<polygon fill="black" stroke="black" points="1362.46,-140.656 1351.97,-142.157 1361.11,-147.524 1362.46,-140.656"/>
</g>
<!-- TransSurface -->
<g id="node103" class="node"><title>TransSurface</title>
<ellipse fill="darkturquoise" stroke="darkturquoise" cx="1580" cy="-1232" rx="72.9626" ry="18"/>
<text text-anchor="middle" x="1580" y="-1227.9" font-family="DejaVu Sans, Helvetica, sans" font-size="14.00"><a xlink:href="TransSurface.html" target="_parent">TransSurface</a></text>
</g>
<!-- Interfaces&#45;&gt;TransSurface -->
<g id="edge152" class="edge"><title>Interfaces&#45;&gt;TransSurface</title>
<path fill="none" stroke="black" d="M1372,-1326.07C1414.46,-1306.87 1488.35,-1273.45 1535.67,-1252.05"/>
<polygon fill="black" stroke="black" points="1537.38,-1255.12 1545.05,-1247.81 1534.5,-1248.74 1537.38,-1255.12"/>
</g>
<!-- TransSurface&#45;&gt;TypeCore -->
<g id="edge192" class="edge"><title>TransSurface&#45;&gt;TypeCore</title>
<path fill="none" stroke="black" d="M1590.45,-1214.06C1600.3,-1196.04 1614.36,-1167.11 1620,-1140 1623.26,-1124.34 1620.53,-1119.99 1620,-1104 1612.22,-868.503 1585,-810.625 1585,-575 1585,-575 1585,-575 1585,-465 1585,-406.209 1591.86,-377.147 1548,-338 1479.31,-276.698 1204.22,-255.405 1077.06,-248.739"/>
<polygon fill="black" stroke="black" points="1076.86,-245.224 1066.7,-248.211 1076.51,-252.215 1076.86,-245.224"/>
</g>
<!-- TransSurface&#45;&gt;ExpressionsCore -->
<g id="edge196" class="edge"><title>TransSurface&#45;&gt;ExpressionsCore</title>
<path fill="none" stroke="black" d="M1538,-1217.27C1504.04,-1203.02 1458.05,-1177.96 1434,-1140 1369.41,-1038.04 1379.97,-884.918 1387.79,-822.256"/>
<polygon fill="black" stroke="black" points="1391.26,-822.689 1389.1,-812.316 1384.32,-821.772 1391.26,-822.689"/>
</g>
<!-- TransSurface&#45;&gt;DataTypeFlavor -->
<g id="edge180" class="edge"><title>TransSurface&#45;&gt;DataTypeFlavor</title>
<path fill="none" stroke="black" d="M1611.77,-1215.7C1638.25,-1200.18 1674.24,-1174.15 1691,-1140 1737.43,-1045.39 1699,-1008.39 1699,-903 1699,-903 1699,-903 1699,-356 1699,-298.12 1706.79,-276.367 1675,-228 1654.11,-196.214 1617.87,-172.699 1588.2,-157.543"/>
<polygon fill="black" stroke="black" points="1589.74,-154.401 1579.23,-153.108 1586.64,-160.677 1589.74,-154.401"/>
</g>
<!-- TransSurface&#45;&gt;Expressions -->
<g id="edge182" class="edge"><title>TransSurface&#45;&gt;Expressions</title>
<path fill="none" stroke="black" d="M1526.43,-1219.6C1437.36,-1198.97 1259.35,-1157.74 1165.74,-1136.07"/>
<polygon fill="black" stroke="black" points="1166.38,-1132.62 1155.85,-1133.78 1164.8,-1139.44 1166.38,-1132.62"/>
</g>
<!-- TransSurface&#45;&gt;Mode -->
<g id="edge190" class="edge"><title>TransSurface&#45;&gt;Mode</title>
<path fill="none" stroke="black" d="M1616.35,-1216.27C1646.64,-1201.2 1688.36,-1175.5 1711,-1140 1758.57,-1065.39 1851,-444.489 1851,-356 1851,-356 1851,-356 1851,-246 1851,-117.024 1669.98,-57.3753 1584.15,-36.3426"/>
<polygon fill="black" stroke="black" points="1584.71,-32.8787 1574.17,-33.967 1583.09,-39.6883 1584.71,-32.8787"/>
</g>
<!-- TransSurface&#45;&gt;Hoist -->
<g id="edge186" class="edge"><title>TransSurface&#45;&gt;Hoist</title>
<path fill="none" stroke="black" d="M1513.04,-1224.74C1408.51,-1212.53 1200.75,-1184.74 1029,-1140 784.96,-1076.42 503.715,-960.844 404.738,-918.816"/>
<polygon fill="black" stroke="black" points="406.036,-915.565 395.464,-914.867 403.294,-922.006 406.036,-915.565"/>
</g>
<!-- TransSurface&#45;&gt;KindCheckGlue -->
<g id="edge194" class="edge"><title>TransSurface&#45;&gt;KindCheckGlue</title>
<path fill="none" stroke="black" d="M1571.25,-1213.84C1562.81,-1196.32 1549.93,-1169.58 1540.23,-1149.47"/>
<polygon fill="black" stroke="black" points="1543.26,-1147.68 1535.76,-1140.19 1536.95,-1150.72 1543.26,-1147.68"/>
</g>
<!-- TransSurface&#45;&gt;KindCheck -->
<g id="edge188" class="edge"><title>TransSurface&#45;&gt;KindCheck</title>
<path fill="none" stroke="black" d="M1628,-1218.33C1669.34,-1204.44 1728.29,-1179.32 1767,-1140 1794.58,-1111.98 1811.21,-1068.89 1819.75,-1040.82"/>
<polygon fill="black" stroke="black" points="1823.12,-1041.79 1822.54,-1031.21 1816.39,-1039.84 1823.12,-1041.79"/>
</g>
<!-- TransSurface&#45;&gt;Fact -->
<g id="edge184" class="edge"><title>TransSurface&#45;&gt;Fact</title>
<path fill="none" stroke="black" d="M1593.61,-1214.08C1606.34,-1196.3 1624.74,-1167.76 1634,-1140 1667.56,-1039.44 1661,-1009.01 1661,-903 1661,-903 1661,-903 1661,-356 1661,-214.926 1451.05,-160.19 1362.09,-143.328"/>
<polygon fill="black" stroke="black" points="1362.58,-139.86 1352.11,-141.501 1361.32,-146.745 1362.58,-139.86"/>
</g>
<!-- Configure -->
<g id="node126" class="node"><title>Configure</title>
<ellipse fill="#eead0e" stroke="#eead0e" cx="971" cy="-903" rx="57.1737" ry="18"/>
<text text-anchor="middle" x="971" y="-898.9" font-family="DejaVu Sans, Helvetica, sans" font-size="14.00"><a xlink:href="Configure.html" target="_parent">Configure</a></text>
</g>
<!-- Mezzo -->
<g id="node127" class="node"><title>Mezzo</title>
<ellipse fill="#eead0e" stroke="#eead0e" cx="971" cy="-1013" rx="43.0827" ry="18"/>
<text text-anchor="middle" x="971" y="-1008.9" font-family="DejaVu Sans, Helvetica, sans" font-size="14.00"><a xlink:href="Mezzo.html" target="_parent">Mezzo</a></text>
</g>
<!-- Mezzo&#45;&gt;TypeErrors -->
<g id="edge200" class="edge"><title>Mezzo&#45;&gt;TypeErrors</title>
<path fill="none" stroke="black" d="M943.59,-998.845C906.429,-979.654 839.837,-945.263 797.342,-923.318"/>
<polygon fill="black" stroke="black" points="798.889,-920.177 788.398,-918.699 795.677,-926.397 798.889,-920.177"/>
</g>
<!-- Mezzo&#45;&gt;Types -->
<g id="edge198" class="edge"><title>Mezzo&#45;&gt;Types</title>
<path fill="none" stroke="black" d="M988.125,-996.2C1004.29,-979.038 1027.43,-950.754 1037,-921 1073.51,-807.485 1040.34,-662.457 1023.47,-602.667"/>
<polygon fill="black" stroke="black" points="1026.77,-601.476 1020.62,-592.844 1020.04,-603.423 1026.77,-601.476"/>
</g>
<!-- Mezzo&#45;&gt;Configure -->
<g id="edge202" class="edge"><title>Mezzo&#45;&gt;Configure</title>
<path fill="none" stroke="black" d="M971,-994.836C971,-977.559 971,-951.309 971,-931.292"/>
<polygon fill="black" stroke="black" points="974.5,-931.191 971,-921.191 967.5,-931.191 974.5,-931.191"/>
</g>
</g>
</svg>
