<?xml version="1.0" encoding="UTF-8" standalone="no"?>
<!DOCTYPE svg PUBLIC "-//W3C//DTD SVG 1.1//EN"
 "http://www.w3.org/Graphics/SVG/1.1/DTD/svg11.dtd">
<!-- Generated by graphviz version 2.26.3 (20100126.1600)
 -->
<!-- Title: G Pages: 1 -->
<svg width="720pt" height="510pt"
 viewBox="0.00 0.00 720.00 509.86" xmlns="http://www.w3.org/2000/svg" xmlns:xlink="http://www.w3.org/1999/xlink">
<g id="graph1" class="graph" transform="scale(0.532903 0.532903) rotate(0) translate(4 952.75)">
<title>G</title>
<polygon fill="white" stroke="white" points="-4,5 -4,-952.75 1348.09,-952.75 1348.09,5 -4,5"/>
<!-- Option -->
<g id="node1" class="node"><title>Option</title>
<ellipse fill="darkturquoise" stroke="darkturquoise" cx="79.0899" cy="-294" rx="43.7776" ry="18"/>
<text text-anchor="middle" x="79.0899" y="-289.9" font-family="DejaVu Sans, Helvetica, sans" font-size="14.00"><a xlink:href="../doc/Option.html" target="_parent">Option</a></text>
</g>
<!-- InfiniteArray -->
<g id="node2" class="node"><title>InfiniteArray</title>
<ellipse fill="darkturquoise" stroke="darkturquoise" cx="911.09" cy="-113" rx="71.7694" ry="18"/>
<text text-anchor="middle" x="911.09" y="-108.9" font-family="DejaVu Sans, Helvetica, sans" font-size="14.00"><a xlink:href="../doc/InfiniteArray.html" target="_parent">InfiniteArray</a></text>
</g>
<!-- Hml_Pprint -->
<g id="node3" class="node"><title>Hml_Pprint</title>
<ellipse fill="darkturquoise" stroke="darkturquoise" cx="263.09" cy="-474" rx="64.1231" ry="18"/>
<text text-anchor="middle" x="263.09" y="-469.9" font-family="DejaVu Sans, Helvetica, sans" font-size="14.00"><a xlink:href="../doc/Hml_Pprint.html" target="_parent">Hml_Pprint</a></text>
</g>
<!-- Hml_List -->
<g id="node5" class="node"><title>Hml_List</title>
<ellipse fill="darkturquoise" stroke="darkturquoise" cx="217.09" cy="-384" rx="52.8111" ry="18"/>
<text text-anchor="middle" x="217.09" y="-379.9" font-family="DejaVu Sans, Helvetica, sans" font-size="14.00"><a xlink:href="../doc/Hml_List.html" target="_parent">Hml_List</a></text>
</g>
<!-- Hml_Pprint&#45;&gt;Hml_List -->
<g id="edge2" class="edge"><title>Hml_Pprint&#45;&gt;Hml_List</title>
<path fill="none" stroke="black" d="M253.781,-455.787C247.191,-442.894 238.244,-425.388 230.835,-410.892"/>
<polygon fill="black" stroke="black" points="233.896,-409.19 226.228,-401.879 227.663,-412.376 233.896,-409.19"/>
</g>
<!-- Hml_List&#45;&gt;Option -->
<g id="edge4" class="edge"><title>Hml_List&#45;&gt;Option</title>
<path fill="none" stroke="black" d="M192.418,-367.91C169.771,-353.14 136.074,-331.164 111.31,-315.013"/>
<polygon fill="black" stroke="black" points="112.915,-311.881 102.627,-309.35 109.091,-317.745 112.915,-311.881"/>
</g>
<!-- Hml_Map -->
<g id="node6" class="node"><title>Hml_Map</title>
<ellipse fill="darkturquoise" stroke="darkturquoise" cx="1108.09" cy="-474" rx="55.0898" ry="18"/>
<text text-anchor="middle" x="1108.09" y="-469.9" font-family="DejaVu Sans, Helvetica, sans" font-size="14.00"><a xlink:href="../doc/Hml_Map.html" target="_parent">Hml_Map</a></text>
</g>
<!-- Bash -->
<g id="node8" class="node"><title>Bash</title>
<ellipse fill="darkturquoise" stroke="darkturquoise" cx="179.09" cy="-565" rx="34.2406" ry="18"/>
<text text-anchor="middle" x="179.09" y="-560.9" font-family="DejaVu Sans, Helvetica, sans" font-size="14.00"><a xlink:href="../doc/Bash.html" target="_parent">Bash</a></text>
</g>
<!-- Hml_String -->
<g id="node9" class="node"><title>Hml_String</title>
<ellipse fill="darkturquoise" stroke="darkturquoise" cx="79.0899" cy="-474" rx="64.1231" ry="18"/>
<text text-anchor="middle" x="79.0899" y="-469.9" font-family="DejaVu Sans, Helvetica, sans" font-size="14.00"><a xlink:href="../doc/Hml_String.html" target="_parent">Hml_String</a></text>
</g>
<!-- Hml_String&#45;&gt;Option -->
<g id="edge6" class="edge"><title>Hml_String&#45;&gt;Option</title>
<path fill="none" stroke="black" d="M79.0899,-455.75C79.0899,-424.269 79.0899,-359.55 79.0899,-322.225"/>
<polygon fill="black" stroke="black" points="82.59,-322.031 79.0899,-312.031 75.59,-322.031 82.59,-322.031"/>
</g>
<!-- Log -->
<g id="node11" class="node"><title>Log</title>
<ellipse fill="darkturquoise" stroke="darkturquoise" cx="61.0899" cy="-565" rx="27.9903" ry="18"/>
<text text-anchor="middle" x="61.0899" y="-560.9" font-family="DejaVu Sans, Helvetica, sans" font-size="14.00"><a xlink:href="../doc/Log.html" target="_parent">Log</a></text>
</g>
<!-- Log&#45;&gt;Hml_String -->
<g id="edge8" class="edge"><title>Log&#45;&gt;Hml_String</title>
<path fill="none" stroke="black" d="M64.6461,-547.021C67.1689,-534.267 70.6059,-516.891 73.4942,-502.289"/>
<polygon fill="black" stroke="black" points="76.9724,-502.742 75.4795,-492.253 70.1055,-501.384 76.9724,-502.742"/>
</g>
<!-- Datacon -->
<g id="node13" class="node"><title>Datacon</title>
<ellipse fill="#eead0e" stroke="#eead0e" cx="1229.09" cy="-384" rx="50.9221" ry="18"/>
<text text-anchor="middle" x="1229.09" y="-379.9" font-family="DejaVu Sans, Helvetica, sans" font-size="14.00"><a xlink:href="../doc/Datacon.html" target="_parent">Datacon</a></text>
</g>
<!-- Identifier -->
<g id="node15" class="node"><title>Identifier</title>
<ellipse fill="#eead0e" stroke="#eead0e" cx="911.09" cy="-294" rx="54.8957" ry="18"/>
<text text-anchor="middle" x="911.09" y="-289.9" font-family="DejaVu Sans, Helvetica, sans" font-size="14.00"><a xlink:href="../doc/Identifier.html" target="_parent">Identifier</a></text>
</g>
<!-- Datacon&#45;&gt;Identifier -->
<g id="edge10" class="edge"><title>Datacon&#45;&gt;Identifier</title>
<path fill="none" stroke="black" d="M1189.14,-372.693C1131.74,-356.448 1025.91,-326.496 962.667,-308.597"/>
<polygon fill="black" stroke="black" points="963.473,-305.188 952.897,-305.832 961.566,-311.923 963.473,-305.188"/>
</g>
<!-- Hashcons -->
<g id="node25" class="node"><title>Hashcons</title>
<ellipse fill="#eead0e" stroke="#eead0e" cx="911.09" cy="-203" rx="56.9803" ry="18"/>
<text text-anchor="middle" x="911.09" y="-198.9" font-family="DejaVu Sans, Helvetica, sans" font-size="14.00"><a xlink:href="../doc/Hashcons.html" target="_parent">Hashcons</a></text>
</g>
<!-- Identifier&#45;&gt;Hashcons -->
<g id="edge24" class="edge"><title>Identifier&#45;&gt;Hashcons</title>
<path fill="none" stroke="black" d="M911.09,-275.585C911.09,-262.921 911.09,-245.856 911.09,-231.454"/>
<polygon fill="black" stroke="black" points="914.59,-231.077 911.09,-221.077 907.59,-231.077 914.59,-231.077"/>
</g>
<!-- Patricia -->
<g id="node29" class="node"><title>Patricia</title>
<ellipse fill="cyan" stroke="cyan" cx="724.09" cy="-203" rx="46.7546" ry="18"/>
<text text-anchor="middle" x="724.09" y="-198.9" font-family="DejaVu Sans, Helvetica, sans" font-size="14.00"><a xlink:href="../doc/Patricia.html" target="_parent">Patricia</a></text>
</g>
<!-- Identifier&#45;&gt;Patricia -->
<g id="edge26" class="edge"><title>Identifier&#45;&gt;Patricia</title>
<path fill="none" stroke="black" d="M880.211,-278.973C847.971,-263.284 797.349,-238.65 762.538,-221.71"/>
<polygon fill="black" stroke="black" points="763.691,-218.379 753.168,-217.15 760.628,-224.673 763.691,-218.379"/>
</g>
<!-- GMap -->
<g id="node31" class="node"><title>GMap</title>
<ellipse fill="cyan" stroke="cyan" cx="753.09" cy="-113" rx="38.9134" ry="18"/>
<text text-anchor="middle" x="753.09" y="-108.9" font-family="DejaVu Sans, Helvetica, sans" font-size="14.00"><a xlink:href="../doc/GMap.html" target="_parent">GMap</a></text>
</g>
<!-- Identifier&#45;&gt;GMap -->
<g id="edge28" class="edge"><title>Identifier&#45;&gt;GMap</title>
<path fill="none" stroke="black" d="M895.209,-276.725C881.749,-262.014 861.995,-240.262 845.09,-221 820.31,-192.766 792.402,-159.841 773.889,-137.835"/>
<polygon fill="black" stroke="black" points="776.392,-135.373 767.279,-129.968 771.032,-139.876 776.392,-135.373"/>
</g>
<!-- Driver -->
<g id="node16" class="node"><title>Driver</title>
<ellipse fill="#eead0e" stroke="#eead0e" cx="780.09" cy="-565" rx="41.1906" ry="18"/>
<text text-anchor="middle" x="780.09" y="-560.9" font-family="DejaVu Sans, Helvetica, sans" font-size="14.00"><a xlink:href="../doc/Driver.html" target="_parent">Driver</a></text>
</g>
<!-- Driver&#45;&gt;Hml_String -->
<g id="edge12" class="edge"><title>Driver&#45;&gt;Hml_String</title>
<path fill="none" stroke="black" d="M740.313,-560.602C645.121,-549.963 396.736,-521.528 190.09,-492 175.251,-489.88 159.328,-487.412 144.306,-484.996"/>
<polygon fill="black" stroke="black" points="144.506,-481.483 134.075,-483.337 143.386,-488.393 144.506,-481.483"/>
</g>
<!-- Lexer -->
<g id="node19" class="node"><title>Lexer</title>
<ellipse fill="#eead0e" stroke="#eead0e" cx="778.09" cy="-474" rx="38.9134" ry="18"/>
<text text-anchor="middle" x="778.09" y="-469.9" font-family="DejaVu Sans, Helvetica, sans" font-size="14.00"><a xlink:href="../doc/Lexer.html" target="_parent">Lexer</a></text>
</g>
<!-- Driver&#45;&gt;Lexer -->
<g id="edge14" class="edge"><title>Driver&#45;&gt;Lexer</title>
<path fill="none" stroke="black" d="M779.685,-546.585C779.407,-533.921 779.032,-516.856 778.715,-502.454"/>
<polygon fill="black" stroke="black" points="782.206,-501.998 778.487,-492.077 775.208,-502.152 782.206,-501.998"/>
</g>
<!-- SurfaceSyntax -->
<g id="node21" class="node"><title>SurfaceSyntax</title>
<ellipse fill="#eead0e" stroke="#eead0e" cx="916.09" cy="-474" rx="80.8024" ry="18"/>
<text text-anchor="middle" x="916.09" y="-469.9" font-family="DejaVu Sans, Helvetica, sans" font-size="14.00"><a xlink:href="../doc/SurfaceSyntax.html" target="_parent">SurfaceSyntax</a></text>
</g>
<!-- Driver&#45;&gt;SurfaceSyntax -->
<g id="edge16" class="edge"><title>Driver&#45;&gt;SurfaceSyntax</title>
<path fill="none" stroke="black" d="M802.853,-549.769C824.499,-535.285 857.336,-513.314 882.084,-496.754"/>
<polygon fill="black" stroke="black" points="884.105,-499.613 890.469,-491.143 880.212,-493.795 884.105,-499.613"/>
</g>
<!-- SurfaceSyntax&#45;&gt;Datacon -->
<g id="edge20" class="edge"><title>SurfaceSyntax&#45;&gt;Datacon</title>
<path fill="none" stroke="black" d="M965.686,-459.739C1024.19,-442.918 1120.86,-415.121 1179.4,-398.288"/>
<polygon fill="black" stroke="black" points="1180.52,-401.608 1189.16,-395.481 1178.58,-394.881 1180.52,-401.608"/>
</g>
<!-- Variable -->
<g id="node23" class="node"><title>Variable</title>
<ellipse fill="#eead0e" stroke="#eead0e" cx="916.09" cy="-384" rx="50.0315" ry="18"/>
<text text-anchor="middle" x="916.09" y="-379.9" font-family="DejaVu Sans, Helvetica, sans" font-size="14.00"><a xlink:href="../doc/Variable.html" target="_parent">Variable</a></text>
</g>
<!-- SurfaceSyntax&#45;&gt;Variable -->
<g id="edge18" class="edge"><title>SurfaceSyntax&#45;&gt;Variable</title>
<path fill="none" stroke="black" d="M916.09,-455.787C916.09,-443.344 916.09,-426.605 916.09,-412.421"/>
<polygon fill="black" stroke="black" points="919.59,-412.186 916.09,-402.186 912.59,-412.186 919.59,-412.186"/>
</g>
<!-- Variable&#45;&gt;Identifier -->
<g id="edge30" class="edge"><title>Variable&#45;&gt;Identifier</title>
<path fill="none" stroke="black" d="M915.078,-365.787C914.387,-353.344 913.457,-336.605 912.669,-322.421"/>
<polygon fill="black" stroke="black" points="916.15,-321.976 912.1,-312.186 909.16,-322.365 916.15,-321.976"/>
</g>
<!-- Hashcons&#45;&gt;InfiniteArray -->
<g id="edge22" class="edge"><title>Hashcons&#45;&gt;InfiniteArray</title>
<path fill="none" stroke="black" d="M911.09,-184.787C911.09,-172.344 911.09,-155.605 911.09,-141.421"/>
<polygon fill="black" stroke="black" points="914.59,-141.186 911.09,-131.186 907.59,-141.186 914.59,-141.186"/>
</g>
<!-- Patricia&#45;&gt;GMap -->
<g id="edge32" class="edge"><title>Patricia&#45;&gt;GMap</title>
<path fill="none" stroke="black" d="M729.958,-184.787C734.034,-172.14 739.539,-155.053 744.157,-140.723"/>
<polygon fill="black" stroke="black" points="747.593,-141.47 747.329,-130.879 740.931,-139.323 747.593,-141.47"/>
</g>
<!-- GSet -->
<g id="node34" class="node"><title>GSet</title>
<ellipse fill="cyan" stroke="cyan" cx="753.09" cy="-23" rx="34.9399" ry="18"/>
<text text-anchor="middle" x="753.09" y="-18.9" font-family="DejaVu Sans, Helvetica, sans" font-size="14.00"><a xlink:href="../doc/GSet.html" target="_parent">GSet</a></text>
</g>
<!-- GMap&#45;&gt;GSet -->
<g id="edge34" class="edge"><title>GMap&#45;&gt;GSet</title>
<path fill="none" stroke="black" d="M753.09,-94.7872C753.09,-82.3443 753.09,-65.6053 753.09,-51.4211"/>
<polygon fill="black" stroke="black" points="756.59,-51.1857 753.09,-41.1858 749.59,-51.1858 756.59,-51.1857"/>
</g>
<!-- ModeDeduction -->
<g id="node36" class="node"><title>ModeDeduction</title>
<ellipse fill="green" stroke="green" cx="566.09" cy="-926" rx="86.1654" ry="18"/>
<text text-anchor="middle" x="566.09" y="-921.9" font-family="DejaVu Sans, Helvetica, sans" font-size="14.00"><a xlink:href="../doc/ModeDeduction.html" target="_parent">ModeDeduction</a></text>
</g>
<!-- FactInference -->
<g id="node37" class="node"><title>FactInference</title>
<ellipse fill="green" stroke="green" cx="318.09" cy="-745" rx="75.9375" ry="18"/>
<text text-anchor="middle" x="318.09" y="-740.9" font-family="DejaVu Sans, Helvetica, sans" font-size="14.00"><a xlink:href="../doc/FactInference.html" target="_parent">FactInference</a></text>
</g>
<!-- FactInference&#45;&gt;Option -->
<g id="edge46" class="edge"><title>FactInference&#45;&gt;Option</title>
<path fill="none" stroke="black" d="M252.64,-735.828C203.902,-726.44 137.675,-708.051 89.0899,-673 49.075,-644.132 43.7752,-628.244 24.0899,-583 1.34573,-530.725 -5.88794,-511.736 6.08991,-456 16.9565,-405.435 44.8998,-351.618 62.8918,-320.497"/>
<polygon fill="black" stroke="black" points="66.0741,-321.99 68.1261,-311.596 60.04,-318.441 66.0741,-321.99"/>
</g>
<!-- FactInference&#45;&gt;Hml_Pprint -->
<g id="edge40" class="edge"><title>FactInference&#45;&gt;Hml_Pprint</title>
<path fill="none" stroke="black" d="M314.396,-726.798C304.983,-680.418 280.047,-557.553 268.77,-501.989"/>
<polygon fill="black" stroke="black" points="272.187,-501.227 266.768,-492.123 265.327,-502.619 272.187,-501.227"/>
</g>
<!-- FactInference&#45;&gt;Hml_List -->
<g id="edge38" class="edge"><title>FactInference&#45;&gt;Hml_List</title>
<path fill="none" stroke="black" d="M309.929,-727.025C293.898,-691.983 256.827,-612.251 222.09,-547 208.8,-522.036 197.455,-519.305 190.09,-492 182.68,-464.53 192.721,-432.939 202.593,-411.05"/>
<polygon fill="black" stroke="black" points="205.756,-412.548 206.907,-402.016 199.44,-409.531 205.756,-412.548"/>
</g>
<!-- FactInference&#45;&gt;Bash -->
<g id="edge36" class="edge"><title>FactInference&#45;&gt;Bash</title>
<path fill="none" stroke="black" d="M290.039,-728.052C270.339,-715.005 244.502,-695.443 227.09,-673 208.136,-648.569 194.864,-615.476 187.152,-592.386"/>
<polygon fill="black" stroke="black" points="190.481,-591.305 184.093,-582.852 183.816,-593.443 190.481,-591.305"/>
</g>
<!-- FactInference&#45;&gt;Hml_String -->
<g id="edge42" class="edge"><title>FactInference&#45;&gt;Hml_String</title>
<path fill="none" stroke="black" d="M284.173,-728.73C259.424,-715.818 225.993,-696.129 201.09,-673 146.799,-622.576 107.825,-542.667 89.984,-501.113"/>
<polygon fill="black" stroke="black" points="93.2089,-499.752 86.1035,-491.893 86.7571,-502.468 93.2089,-499.752"/>
</g>
<!-- FactInference&#45;&gt;Log -->
<g id="edge44" class="edge"><title>FactInference&#45;&gt;Log</title>
<path fill="none" stroke="black" d="M256.823,-734.34C214.738,-724.413 159.71,-705.998 121.09,-673 95.9764,-651.543 79.3649,-616.819 70.1145,-592.554"/>
<polygon fill="black" stroke="black" points="73.2994,-591.07 66.5974,-582.864 66.7195,-593.459 73.2994,-591.07"/>
</g>
<!-- FactInference&#45;&gt;SurfaceSyntax -->
<g id="edge48" class="edge"><title>FactInference&#45;&gt;SurfaceSyntax</title>
<path fill="none" stroke="black" d="M388.96,-738.4C542.226,-722.465 896.192,-676.143 964.09,-583 982.939,-557.142 961.459,-522.715 941.52,-499.528"/>
<polygon fill="black" stroke="black" points="943.888,-496.927 934.6,-491.828 938.681,-501.605 943.888,-496.927"/>
</g>
<!-- FactInference&#45;&gt;Variable -->
<g id="edge50" class="edge"><title>FactInference&#45;&gt;Variable</title>
<path fill="none" stroke="black" d="M333.885,-727.006C354.057,-704.564 390.615,-665.665 426.09,-637 541.346,-543.867 572.795,-520.731 706.09,-456 758.518,-430.54 822.283,-410.035 865.697,-397.516"/>
<polygon fill="black" stroke="black" points="866.798,-400.842 875.457,-394.737 864.881,-394.109 866.798,-400.842"/>
</g>
<!-- WellKindedness -->
<g id="node47" class="node"><title>WellKindedness</title>
<ellipse fill="green" stroke="green" cx="521.09" cy="-655" rx="86.1654" ry="18"/>
<text text-anchor="middle" x="521.09" y="-650.9" font-family="DejaVu Sans, Helvetica, sans" font-size="14.00"><a xlink:href="../doc/WellKindedness.html" target="_parent">WellKindedness</a></text>
</g>
<!-- FactInference&#45;&gt;WellKindedness -->
<g id="edge52" class="edge"><title>FactInference&#45;&gt;WellKindedness</title>
<path fill="none" stroke="black" d="M353.915,-729.117C387.559,-714.201 438.075,-691.805 474.769,-675.536"/>
<polygon fill="black" stroke="black" points="476.53,-678.584 484.253,-671.332 473.692,-672.185 476.53,-678.584"/>
</g>
<!-- Types -->
<g id="node49" class="node"><title>Types</title>
<ellipse fill="green" stroke="green" cx="916.09" cy="-565" rx="38.9134" ry="18"/>
<text text-anchor="middle" x="916.09" y="-560.9" font-family="DejaVu Sans, Helvetica, sans" font-size="14.00"><a xlink:href="../doc/Types.html" target="_parent">Types</a></text>
</g>
<!-- FactInference&#45;&gt;Types -->
<g id="edge54" class="edge"><title>FactInference&#45;&gt;Types</title>
<path fill="none" stroke="black" d="M375.433,-733.083C435.802,-720.087 533.371,-697.803 616.09,-673 711.325,-644.445 820.599,-602.796 877.333,-580.483"/>
<polygon fill="black" stroke="black" points="878.622,-583.737 886.64,-576.811 876.053,-577.225 878.622,-583.737"/>
</g>
<!-- WellKindedness&#45;&gt;Hml_Pprint -->
<g id="edge84" class="edge"><title>WellKindedness&#45;&gt;Hml_Pprint</title>
<path fill="none" stroke="black" d="M464.499,-641.359C426.73,-630.211 377.505,-611.56 341.09,-583 312.641,-560.687 289.992,-525.307 276.583,-500.941"/>
<polygon fill="black" stroke="black" points="279.539,-499.047 271.74,-491.876 273.365,-502.346 279.539,-499.047"/>
</g>
<!-- WellKindedness&#45;&gt;Hml_List -->
<g id="edge86" class="edge"><title>WellKindedness&#45;&gt;Hml_List</title>
<path fill="none" stroke="black" d="M505.637,-637.147C468.262,-594.172 373.321,-486.291 336.09,-456 311.177,-435.731 280.028,-417.088 255.848,-403.853"/>
<polygon fill="black" stroke="black" points="257.413,-400.72 246.95,-399.053 254.09,-406.881 257.413,-400.72"/>
</g>
<!-- WellKindedness&#45;&gt;Bash -->
<g id="edge88" class="edge"><title>WellKindedness&#45;&gt;Bash</title>
<path fill="none" stroke="black" d="M467.276,-640.838C398.495,-622.738 280.976,-591.812 219.411,-575.611"/>
<polygon fill="black" stroke="black" points="220.228,-572.207 209.667,-573.047 218.447,-578.976 220.228,-572.207"/>
</g>
<!-- WellKindedness&#45;&gt;Log -->
<g id="edge82" class="edge"><title>WellKindedness&#45;&gt;Log</title>
<path fill="none" stroke="black" d="M454.461,-643.596C377.537,-630.186 247.315,-606.731 136.09,-583 123.403,-580.293 109.578,-577.057 97.2934,-574.081"/>
<polygon fill="black" stroke="black" points="97.9403,-570.636 87.395,-571.658 96.2763,-577.435 97.9403,-570.636"/>
</g>
<!-- WellKindedness&#45;&gt;SurfaceSyntax -->
<g id="edge80" class="edge"><title>WellKindedness&#45;&gt;SurfaceSyntax</title>
<path fill="none" stroke="black" d="M590.631,-644.294C669.082,-631.27 790.858,-607.918 830.09,-583 847.054,-572.225 878.407,-529.241 898.206,-500.579"/>
<polygon fill="black" stroke="black" points="901.185,-502.422 903.95,-492.195 895.411,-498.466 901.185,-502.422"/>
</g>
<!-- WellKindedness&#45;&gt;Variable -->
<g id="edge76" class="edge"><title>WellKindedness&#45;&gt;Variable</title>
<path fill="none" stroke="black" d="M580.836,-642.042C616.078,-631.56 659.114,-613.393 687.09,-583 727.448,-539.155 688.865,-499.031 730.09,-456 764.391,-420.196 818.514,-401.919 859.552,-392.764"/>
<polygon fill="black" stroke="black" points="860.356,-396.171 869.417,-390.681 858.91,-389.322 860.356,-396.171"/>
</g>
<!-- WellKindedness&#45;&gt;Types -->
<g id="edge78" class="edge"><title>WellKindedness&#45;&gt;Types</title>
<path fill="none" stroke="black" d="M587.535,-643.455C656.861,-630.842 768.435,-608.937 863.09,-583 867.149,-581.888 871.352,-580.637 875.534,-579.325"/>
<polygon fill="black" stroke="black" points="876.745,-582.612 885.175,-576.194 874.583,-575.954 876.745,-582.612"/>
</g>
<!-- Types&#45;&gt;Hml_Pprint -->
<g id="edge60" class="edge"><title>Types&#45;&gt;Hml_Pprint</title>
<path fill="none" stroke="black" d="M881.071,-556.956C865.516,-553.568 846.948,-549.775 830.09,-547 628.666,-513.837 576.217,-520.566 374.09,-492 359.248,-489.902 343.324,-487.444 328.302,-485.03"/>
<polygon fill="black" stroke="black" points="328.502,-481.516 318.07,-483.37 327.381,-488.426 328.502,-481.516"/>
</g>
<!-- Types&#45;&gt;Hml_Map -->
<g id="edge62" class="edge"><title>Types&#45;&gt;Hml_Map</title>
<path fill="none" stroke="black" d="M943.599,-551.962C976.099,-536.558 1030.45,-510.796 1067.72,-493.132"/>
<polygon fill="black" stroke="black" points="1069.27,-496.272 1076.81,-488.826 1066.27,-489.947 1069.27,-496.272"/>
</g>
<!-- Types&#45;&gt;Datacon -->
<g id="edge64" class="edge"><title>Types&#45;&gt;Datacon</title>
<path fill="none" stroke="black" d="M952.547,-558.27C1014.8,-546.19 1138.17,-519.512 1172.09,-492 1197.45,-471.432 1212.92,-436.528 1221.23,-411.978"/>
<polygon fill="black" stroke="black" points="1224.66,-412.753 1224.36,-402.162 1217.99,-410.627 1224.66,-412.753"/>
</g>
<!-- Types&#45;&gt;SurfaceSyntax -->
<g id="edge58" class="edge"><title>Types&#45;&gt;SurfaceSyntax</title>
<path fill="none" stroke="black" d="M916.09,-546.585C916.09,-533.921 916.09,-516.856 916.09,-502.454"/>
<polygon fill="black" stroke="black" points="919.59,-502.077 916.09,-492.077 912.59,-502.077 919.59,-502.077"/>
</g>
<!-- Types&#45;&gt;Variable -->
<g id="edge56" class="edge"><title>Types&#45;&gt;Variable</title>
<path fill="none" stroke="black" d="M942.926,-551.83C964.441,-539.624 993.109,-519.243 1006.09,-492 1012.97,-477.556 1013.02,-470.421 1006.09,-456 995.341,-433.635 973.887,-416.043 954.622,-403.848"/>
<polygon fill="black" stroke="black" points="956.341,-400.797 945.971,-398.626 952.724,-406.79 956.341,-400.797"/>
</g>
<!-- Mode -->
<g id="node50" class="node"><title>Mode</title>
<ellipse fill="green" stroke="green" cx="707.09" cy="-926" rx="36.8288" ry="18"/>
<text text-anchor="middle" x="707.09" y="-921.9" font-family="DejaVu Sans, Helvetica, sans" font-size="14.00"><a xlink:href="../doc/Mode.html" target="_parent">Mode</a></text>
</g>
<!-- PersistentRef -->
<g id="node56" class="node"><title>PersistentRef</title>
<ellipse fill="green" stroke="green" cx="720.09" cy="-294" rx="73.8534" ry="18"/>
<text text-anchor="middle" x="720.09" y="-289.9" font-family="DejaVu Sans, Helvetica, sans" font-size="14.00"><a xlink:href="../doc/PersistentRef.html" target="_parent">PersistentRef</a></text>
</g>
<!-- PersistentRef&#45;&gt;Patricia -->
<g id="edge66" class="edge"><title>PersistentRef&#45;&gt;Patricia</title>
<path fill="none" stroke="black" d="M720.899,-275.585C721.456,-262.921 722.206,-245.856 722.839,-231.454"/>
<polygon fill="black" stroke="black" points="726.353,-231.221 723.295,-221.077 719.359,-230.914 726.353,-231.221"/>
</g>
<!-- PersistentUnionFind -->
<g id="node58" class="node"><title>PersistentUnionFind</title>
<ellipse fill="green" stroke="green" cx="685.09" cy="-384" rx="107.206" ry="18"/>
<text text-anchor="middle" x="685.09" y="-379.9" font-family="DejaVu Sans, Helvetica, sans" font-size="14.00"><a xlink:href="../doc/PersistentUnionFind.html" target="_parent">PersistentUnionFind</a></text>
</g>
<!-- PersistentUnionFind&#45;&gt;PersistentRef -->
<g id="edge68" class="edge"><title>PersistentUnionFind&#45;&gt;PersistentRef</title>
<path fill="none" stroke="black" d="M692.173,-365.787C697.106,-353.1 703.777,-335.947 709.361,-321.59"/>
<polygon fill="black" stroke="black" points="712.655,-322.774 713.018,-312.186 706.131,-320.237 712.655,-322.774"/>
</g>
<!-- PermissionDeduction -->
<g id="node60" class="node"><title>PermissionDeduction</title>
<ellipse fill="green" stroke="green" cx="495.09" cy="-474" rx="111.876" ry="18"/>
<text text-anchor="middle" x="495.09" y="-469.9" font-family="DejaVu Sans, Helvetica, sans" font-size="14.00"><a xlink:href="../doc/PermissionDeduction.html" target="_parent">PermissionDeduction</a></text>
</g>
<!-- PermissionDeduction&#45;&gt;Patricia -->
<g id="edge70" class="edge"><title>PermissionDeduction&#45;&gt;Patricia</title>
<path fill="none" stroke="black" d="M487.147,-456.004C478.522,-433.561 467.874,-394.66 483.09,-366 524.4,-288.189 621.283,-240.744 678.843,-218.406"/>
<polygon fill="black" stroke="black" points="680.306,-221.594 688.419,-214.78 677.828,-215.048 680.306,-221.594"/>
</g>
<!-- PermissionDeduction&#45;&gt;PersistentUnionFind -->
<g id="edge72" class="edge"><title>PermissionDeduction&#45;&gt;PersistentUnionFind</title>
<path fill="none" stroke="black" d="M531.275,-456.86C562.177,-442.222 606.769,-421.099 639.992,-405.362"/>
<polygon fill="black" stroke="black" points="641.501,-408.52 649.04,-401.076 638.504,-402.194 641.501,-408.52"/>
</g>
<!-- Data -->
<g id="node64" class="node"><title>Data</title>
<ellipse fill="green" stroke="green" cx="526.09" cy="-384" rx="34.2406" ry="18"/>
<text text-anchor="middle" x="526.09" y="-379.9" font-family="DejaVu Sans, Helvetica, sans" font-size="14.00"><a xlink:href="../doc/Data.html" target="_parent">Data</a></text>
</g>
<!-- PermissionDeduction&#45;&gt;Data -->
<g id="edge74" class="edge"><title>PermissionDeduction&#45;&gt;Data</title>
<path fill="none" stroke="black" d="M501.363,-455.787C505.72,-443.14 511.605,-426.053 516.541,-411.723"/>
<polygon fill="black" stroke="black" points="519.984,-412.473 519.932,-401.879 513.366,-410.194 519.984,-412.473"/>
</g>
<!-- Expressions -->
<g id="node72" class="node"><title>Expressions</title>
<ellipse fill="green" stroke="green" cx="1191.09" cy="-655" rx="68.0985" ry="18"/>
<text text-anchor="middle" x="1191.09" y="-650.9" font-family="DejaVu Sans, Helvetica, sans" font-size="14.00"><a xlink:href="../doc/Expressions.html" target="_parent">Expressions</a></text>
</g>
<!-- Expressions&#45;&gt;Datacon -->
<g id="edge94" class="edge"><title>Expressions&#45;&gt;Datacon</title>
<path fill="none" stroke="black" d="M1194.96,-637.014C1198,-622.487 1202.18,-601.492 1205.09,-583 1214.63,-522.356 1222.42,-450.792 1226.34,-412.157"/>
<polygon fill="black" stroke="black" points="1229.83,-412.469 1227.34,-402.17 1222.86,-411.77 1229.83,-412.469"/>
</g>
<!-- Expressions&#45;&gt;Variable -->
<g id="edge90" class="edge"><title>Expressions&#45;&gt;Variable</title>
<path fill="none" stroke="black" d="M1195.45,-636.815C1203.48,-598.485 1216.03,-508.605 1172.09,-456 1146.65,-425.541 1039.92,-403.52 972.557,-392.341"/>
<polygon fill="black" stroke="black" points="972.943,-388.858 962.511,-390.705 971.818,-395.767 972.943,-388.858"/>
</g>
<!-- Expressions&#45;&gt;Types -->
<g id="edge92" class="edge"><title>Expressions&#45;&gt;Types</title>
<path fill="none" stroke="black" d="M1148.12,-640.938C1096.15,-623.928 1009.24,-595.487 957.828,-578.66"/>
<polygon fill="black" stroke="black" points="958.632,-575.24 948.039,-575.456 956.455,-581.893 958.632,-575.24"/>
</g>
<!-- Env -->
<g id="node76" class="node"><title>Env</title>
<ellipse fill="green" stroke="green" cx="597.09" cy="-836" rx="29.8799" ry="18"/>
<text text-anchor="middle" x="597.09" y="-831.9" font-family="DejaVu Sans, Helvetica, sans" font-size="14.00"><a xlink:href="../doc/Env.html" target="_parent">Env</a></text>
</g>
<!-- Env&#45;&gt;Log -->
<g id="edge104" class="edge"><title>Env&#45;&gt;Log</title>
<path fill="none" stroke="black" d="M567.285,-833.671C503.803,-827.934 351.385,-810.01 233.09,-763 162.953,-735.128 133.733,-733.853 89.0899,-673 71.9009,-649.57 65.2423,-616.511 62.6752,-593.155"/>
<polygon fill="black" stroke="black" points="66.1588,-592.815 61.7604,-583.176 59.188,-593.454 66.1588,-592.815"/>
</g>
<!-- Env&#45;&gt;Datacon -->
<g id="edge108" class="edge"><title>Env&#45;&gt;Datacon</title>
<path fill="none" stroke="black" d="M627.081,-834.86C736.371,-830.346 1112.56,-811.536 1221.09,-763 1287.2,-733.437 1343.09,-727.416 1343.09,-655 1343.09,-655 1343.09,-655 1343.09,-565 1343.09,-500.364 1290.4,-439.954 1256.66,-407.9"/>
<polygon fill="black" stroke="black" points="1258.66,-404.982 1248.95,-400.75 1253.9,-410.115 1258.66,-404.982"/>
</g>
<!-- Env&#45;&gt;Variable -->
<g id="edge98" class="edge"><title>Env&#45;&gt;Variable</title>
<path fill="none" stroke="black" d="M627.06,-834.903C761.817,-829.173 1305.09,-797.253 1305.09,-655 1305.09,-655 1305.09,-655 1305.09,-565 1305.09,-496.174 1254.93,-490 1195.09,-456 1125.34,-416.368 1033.49,-398.136 974.599,-390.044"/>
<polygon fill="black" stroke="black" points="974.732,-386.531 964.361,-388.694 973.817,-393.471 974.732,-386.531"/>
</g>
<!-- Env&#45;&gt;FactInference -->
<g id="edge106" class="edge"><title>Env&#45;&gt;FactInference</title>
<path fill="none" stroke="black" d="M570.591,-827.357C525.3,-812.585 432.13,-782.196 372.508,-762.749"/>
<polygon fill="black" stroke="black" points="373.469,-759.381 362.876,-759.608 371.298,-766.036 373.469,-759.381"/>
</g>
<!-- Env&#45;&gt;WellKindedness -->
<g id="edge96" class="edge"><title>Env&#45;&gt;WellKindedness</title>
<path fill="none" stroke="black" d="M589.664,-818.315C576.361,-786.633 548.382,-719.997 532.583,-682.371"/>
<polygon fill="black" stroke="black" points="535.757,-680.89 528.658,-673.025 529.303,-683.6 535.757,-680.89"/>
</g>
<!-- Env&#45;&gt;Types -->
<g id="edge100" class="edge"><title>Env&#45;&gt;Types</title>
<path fill="none" stroke="black" d="M614.695,-821.044C667.696,-776.018 825.999,-641.535 889.4,-587.674"/>
<polygon fill="black" stroke="black" points="891.993,-590.064 897.348,-580.922 887.461,-584.729 891.993,-590.064"/>
</g>
<!-- Env&#45;&gt;PersistentUnionFind -->
<g id="edge102" class="edge"><title>Env&#45;&gt;PersistentUnionFind</title>
<path fill="none" stroke="black" d="M603.365,-818.276C614.158,-786.159 635.09,-716.006 635.09,-655 635.09,-655 635.09,-655 635.09,-565 635.09,-508.921 657.666,-446.482 672.478,-411.551"/>
<polygon fill="black" stroke="black" points="675.834,-412.609 676.608,-402.043 669.413,-409.82 675.834,-412.609"/>
</g>
<!-- Hamlet -->
<g id="node84" class="node"><title>Hamlet</title>
<ellipse fill="magenta" stroke="magenta" cx="416.09" cy="-926" rx="45.8622" ry="18"/>
<text text-anchor="middle" x="416.09" y="-921.9" font-family="DejaVu Sans, Helvetica, sans" font-size="14.00"><a xlink:href="../doc/Hamlet.html" target="_parent">Hamlet</a></text>
</g>
<!-- Hamlet&#45;&gt;Bash -->
<g id="edge120" class="edge"><title>Hamlet&#45;&gt;Bash</title>
<path fill="none" stroke="black" d="M392.124,-910.62C353.446,-884.648 277.156,-828.476 233.09,-763 197.388,-709.951 185.204,-633.975 181.11,-593.287"/>
<polygon fill="black" stroke="black" points="184.59,-592.906 180.196,-583.266 177.619,-593.543 184.59,-592.906"/>
</g>
<!-- Hamlet&#45;&gt;Log -->
<g id="edge112" class="edge"><title>Hamlet&#45;&gt;Log</title>
<path fill="none" stroke="black" d="M382.123,-913.662C352.053,-901.609 308.094,-881.127 276.09,-854 182.035,-774.279 105.327,-645.933 75.0358,-591.148"/>
<polygon fill="black" stroke="black" points="77.9573,-589.195 70.0878,-582.101 71.8159,-592.554 77.9573,-589.195"/>
</g>
<!-- Hamlet&#45;&gt;Driver -->
<g id="edge118" class="edge"><title>Hamlet&#45;&gt;Driver</title>
<path fill="none" stroke="black" d="M451.437,-914.432C513.626,-894.079 636.09,-854 636.09,-854 719.36,-782.077 759.593,-650.549 773.832,-593.1"/>
<polygon fill="black" stroke="black" points="777.261,-593.807 776.193,-583.266 770.455,-592.173 777.261,-593.807"/>
</g>
<!-- Hamlet&#45;&gt;FactInference -->
<g id="edge114" class="edge"><title>Hamlet&#45;&gt;FactInference</title>
<path fill="none" stroke="black" d="M406.515,-908.315C389.288,-876.498 352.974,-809.43 332.65,-771.892"/>
<polygon fill="black" stroke="black" points="335.688,-770.152 327.849,-763.025 329.533,-773.485 335.688,-770.152"/>
</g>
<!-- Hamlet&#45;&gt;WellKindedness -->
<g id="edge110" class="edge"><title>Hamlet&#45;&gt;WellKindedness</title>
<path fill="none" stroke="black" d="M423.142,-907.798C441.15,-861.322 488.915,-738.042 510.379,-682.643"/>
<polygon fill="black" stroke="black" points="513.719,-683.712 514.068,-673.123 507.192,-681.183 513.719,-683.712"/>
</g>
<!-- Hamlet&#45;&gt;Env -->
<g id="edge116" class="edge"><title>Hamlet&#45;&gt;Env</title>
<path fill="none" stroke="black" d="M444.77,-911.739C477.389,-895.52 530.533,-869.094 564.642,-852.135"/>
<polygon fill="black" stroke="black" points="566.328,-855.205 573.724,-847.618 563.212,-848.937 566.328,-855.205"/>
</g>
</g>
</svg>
