<?xml version="1.0" encoding="UTF-8" standalone="no"?>
<!DOCTYPE svg PUBLIC "-//W3C//DTD SVG 1.1//EN"
 "http://www.w3.org/Graphics/SVG/1.1/DTD/svg11.dtd">
<!-- Generated by graphviz version 2.26.3 (20100126.1600)
 -->
<!-- Title: G Pages: 1 -->
<svg width="718pt" height="540pt"
 viewBox="0.00 0.00 718.24 540.00" xmlns="http://www.w3.org/2000/svg" xmlns:xlink="http://www.w3.org/1999/xlink">
<g id="graph1" class="graph" transform="scale(0.661359 0.661359) rotate(0) translate(4 812.5)">
<title>G</title>
<polygon fill="white" stroke="white" points="-4,5 -4,-812.5 1083,-812.5 1083,5 -4,5"/>
<!-- Log -->
<g id="node1" class="node"><title>Log</title>
<ellipse fill="darkturquoise" stroke="darkturquoise" cx="90" cy="-690" rx="27.9903" ry="18"/>
<text text-anchor="middle" x="90" y="-685.9" font-family="Times Roman,serif" font-size="14.00">Log</text>
</g>
<!-- Hml_String -->
<g id="node3" class="node"><title>Hml_String</title>
<ellipse fill="darkturquoise" stroke="darkturquoise" cx="64" cy="-594" rx="64.1231" ry="18"/>
<text text-anchor="middle" x="64" y="-589.9" font-family="Times Roman,serif" font-size="14.00">Hml_String</text>
</g>
<!-- Log&#45;&gt;Hml_String -->
<g id="edge2" class="edge"><title>Log&#45;&gt;Hml_String</title>
<path fill="none" stroke="black" d="M85.1096,-671.943C81.2965,-657.864 75.9335,-638.062 71.5674,-621.941"/>
<polygon fill="black" stroke="black" points="74.861,-620.713 68.8685,-611.976 68.1044,-622.543 74.861,-620.713"/>
</g>
<!-- Option -->
<g id="node5" class="node"><title>Option</title>
<ellipse fill="darkturquoise" stroke="darkturquoise" cx="337" cy="-499" rx="43.7776" ry="18"/>
<text text-anchor="middle" x="337" y="-494.9" font-family="Times Roman,serif" font-size="14.00">Option</text>
</g>
<!-- Hml_String&#45;&gt;Option -->
<g id="edge4" class="edge"><title>Hml_String&#45;&gt;Option</title>
<path fill="none" stroke="black" d="M104.282,-579.982C155.002,-562.333 241.782,-532.135 293.828,-514.023"/>
<polygon fill="black" stroke="black" points="295.145,-517.271 303.439,-510.679 292.845,-510.66 295.145,-517.271"/>
</g>
<!-- Bash -->
<g id="node4" class="node"><title>Bash</title>
<ellipse fill="darkturquoise" stroke="darkturquoise" cx="552" cy="-594" rx="34.2406" ry="18"/>
<text text-anchor="middle" x="552" y="-589.9" font-family="Times Roman,serif" font-size="14.00">Bash</text>
</g>
<!-- Hml_Map -->
<g id="node7" class="node"><title>Hml_Map</title>
<ellipse fill="darkturquoise" stroke="darkturquoise" cx="575" cy="-785" rx="55.0898" ry="18"/>
<text text-anchor="middle" x="575" y="-780.9" font-family="Times Roman,serif" font-size="14.00">Hml_Map</text>
</g>
<!-- Hml_List -->
<g id="node8" class="node"><title>Hml_List</title>
<ellipse fill="darkturquoise" stroke="darkturquoise" cx="333" cy="-594" rx="52.8111" ry="18"/>
<text text-anchor="middle" x="333" y="-589.9" font-family="Times Roman,serif" font-size="14.00">Hml_List</text>
</g>
<!-- Hml_List&#45;&gt;Option -->
<g id="edge6" class="edge"><title>Hml_List&#45;&gt;Option</title>
<path fill="none" stroke="black" d="M333.771,-575.683C334.347,-562.015 335.144,-543.083 335.802,-527.451"/>
<polygon fill="black" stroke="black" points="339.307,-527.399 336.231,-517.261 332.313,-527.105 339.307,-527.399"/>
</g>
<!-- InfiniteArray -->
<g id="node10" class="node"><title>InfiniteArray</title>
<ellipse fill="darkturquoise" stroke="darkturquoise" cx="507" cy="-119" rx="71.7694" ry="18"/>
<text text-anchor="middle" x="507" y="-114.9" font-family="Times Roman,serif" font-size="14.00">InfiniteArray</text>
</g>
<!-- Driver -->
<g id="node11" class="node"><title>Driver</title>
<ellipse fill="#eead0e" stroke="#eead0e" cx="227" cy="-690" rx="41.1906" ry="18"/>
<text text-anchor="middle" x="227" y="-685.9" font-family="Times Roman,serif" font-size="14.00">Driver</text>
</g>
<!-- Driver&#45;&gt;Hml_String -->
<g id="edge8" class="edge"><title>Driver&#45;&gt;Hml_String</title>
<path fill="none" stroke="black" d="M202.244,-675.42C175.17,-659.475 131.512,-633.762 100.507,-615.501"/>
<polygon fill="black" stroke="black" points="102.116,-612.387 91.7228,-610.328 98.5633,-618.418 102.116,-612.387"/>
</g>
<!-- Lexer -->
<g id="node14" class="node"><title>Lexer</title>
<ellipse fill="#eead0e" stroke="#eead0e" cx="185" cy="-594" rx="38.9134" ry="18"/>
<text text-anchor="middle" x="185" y="-589.9" font-family="Times Roman,serif" font-size="14.00">Lexer</text>
</g>
<!-- Driver&#45;&gt;Lexer -->
<g id="edge10" class="edge"><title>Driver&#45;&gt;Lexer</title>
<path fill="none" stroke="black" d="M219.1,-671.943C212.842,-657.64 204.001,-637.43 196.889,-621.174"/>
<polygon fill="black" stroke="black" points="199.937,-619.41 192.723,-611.652 193.524,-622.216 199.937,-619.41"/>
</g>
<!-- SurfaceSyntax -->
<g id="node16" class="node"><title>SurfaceSyntax</title>
<ellipse fill="#eead0e" stroke="#eead0e" cx="561" cy="-499" rx="80.8024" ry="18"/>
<text text-anchor="middle" x="561" y="-494.9" font-family="Times Roman,serif" font-size="14.00">SurfaceSyntax</text>
</g>
<!-- Driver&#45;&gt;SurfaceSyntax -->
<g id="edge12" class="edge"><title>Driver&#45;&gt;SurfaceSyntax</title>
<path fill="none" stroke="black" d="M228.935,-671.721C232.596,-646.477 242.886,-601.21 271,-576 302.364,-547.876 409.853,-524.554 484.758,-511.192"/>
<polygon fill="black" stroke="black" points="485.398,-514.633 494.64,-509.453 484.185,-507.739 485.398,-514.633"/>
</g>
<!-- Variable -->
<g id="node19" class="node"><title>Variable</title>
<ellipse fill="#eead0e" stroke="#eead0e" cx="672" cy="-404" rx="50.0315" ry="18"/>
<text text-anchor="middle" x="672" y="-399.9" font-family="Times Roman,serif" font-size="14.00">Variable</text>
</g>
<!-- SurfaceSyntax&#45;&gt;Variable -->
<g id="edge26" class="edge"><title>SurfaceSyntax&#45;&gt;Variable</title>
<path fill="none" stroke="black" d="M581.359,-481.576C599.182,-466.322 625.218,-444.039 644.818,-427.264"/>
<polygon fill="black" stroke="black" points="647.193,-429.838 652.514,-420.677 642.641,-424.52 647.193,-429.838"/>
</g>
<!-- Datacon -->
<g id="node27" class="node"><title>Datacon</title>
<ellipse fill="#eead0e" stroke="#eead0e" cx="514" cy="-404" rx="50.9221" ry="18"/>
<text text-anchor="middle" x="514" y="-399.9" font-family="Times Roman,serif" font-size="14.00">Datacon</text>
</g>
<!-- SurfaceSyntax&#45;&gt;Datacon -->
<g id="edge28" class="edge"><title>SurfaceSyntax&#45;&gt;Datacon</title>
<path fill="none" stroke="black" d="M551.938,-480.683C545.002,-466.663 535.325,-447.104 527.481,-431.249"/>
<polygon fill="black" stroke="black" points="530.446,-429.35 522.875,-421.939 524.172,-432.454 530.446,-429.35"/>
</g>
<!-- Hashcons -->
<g id="node17" class="node"><title>Hashcons</title>
<ellipse fill="#eead0e" stroke="#eead0e" cx="507" cy="-214" rx="56.9803" ry="18"/>
<text text-anchor="middle" x="507" y="-209.9" font-family="Times Roman,serif" font-size="14.00">Hashcons</text>
</g>
<!-- Hashcons&#45;&gt;InfiniteArray -->
<g id="edge14" class="edge"><title>Hashcons&#45;&gt;InfiniteArray</title>
<path fill="none" stroke="black" d="M507,-195.683C507,-182.015 507,-163.083 507,-147.451"/>
<polygon fill="black" stroke="black" points="510.5,-147.261 507,-137.261 503.5,-147.261 510.5,-147.261"/>
</g>
<!-- Identifier -->
<g id="node21" class="node"><title>Identifier</title>
<ellipse fill="#eead0e" stroke="#eead0e" cx="507" cy="-309" rx="54.8957" ry="18"/>
<text text-anchor="middle" x="507" y="-304.9" font-family="Times Roman,serif" font-size="14.00">Identifier</text>
</g>
<!-- Variable&#45;&gt;Identifier -->
<g id="edge16" class="edge"><title>Variable&#45;&gt;Identifier</title>
<path fill="none" stroke="black" d="M645.49,-388.737C617.714,-372.745 573.907,-347.522 543.012,-329.734"/>
<polygon fill="black" stroke="black" points="544.681,-326.656 534.268,-324.7 541.188,-332.723 544.681,-326.656"/>
</g>
<!-- Identifier&#45;&gt;Hashcons -->
<g id="edge18" class="edge"><title>Identifier&#45;&gt;Hashcons</title>
<path fill="none" stroke="black" d="M507,-290.683C507,-277.015 507,-258.083 507,-242.451"/>
<polygon fill="black" stroke="black" points="510.5,-242.261 507,-232.261 503.5,-242.261 510.5,-242.261"/>
</g>
<!-- Patricia -->
<g id="node24" class="node"><title>Patricia</title>
<ellipse fill="cyan" stroke="cyan" cx="305" cy="-214" rx="46.7546" ry="18"/>
<text text-anchor="middle" x="305" y="-209.9" font-family="Times Roman,serif" font-size="14.00">Patricia</text>
</g>
<!-- Identifier&#45;&gt;Patricia -->
<g id="edge20" class="edge"><title>Identifier&#45;&gt;Patricia</title>
<path fill="none" stroke="black" d="M475.438,-294.156C439.942,-277.463 382.269,-250.339 343.987,-232.335"/>
<polygon fill="black" stroke="black" points="345.236,-229.055 334.697,-227.967 342.257,-235.39 345.236,-229.055"/>
</g>
<!-- GMap -->
<g id="node26" class="node"><title>GMap</title>
<ellipse fill="cyan" stroke="cyan" cx="342" cy="-119" rx="38.9134" ry="18"/>
<text text-anchor="middle" x="342" y="-114.9" font-family="Times Roman,serif" font-size="14.00">GMap</text>
</g>
<!-- Identifier&#45;&gt;GMap -->
<g id="edge22" class="edge"><title>Identifier&#45;&gt;GMap</title>
<path fill="none" stroke="black" d="M491.773,-291.466C462.278,-257.502 397.288,-182.664 363.441,-143.69"/>
<polygon fill="black" stroke="black" points="365.915,-141.2 356.715,-135.945 360.629,-145.79 365.915,-141.2"/>
</g>
<!-- Patricia&#45;&gt;GMap -->
<g id="edge30" class="edge"><title>Patricia&#45;&gt;GMap</title>
<path fill="none" stroke="black" d="M311.959,-196.131C317.437,-182.066 325.163,-162.229 331.408,-146.195"/>
<polygon fill="black" stroke="black" points="334.704,-147.377 335.072,-136.789 328.181,-144.837 334.704,-147.377"/>
</g>
<!-- GSet -->
<g id="node32" class="node"><title>GSet</title>
<ellipse fill="cyan" stroke="cyan" cx="342" cy="-24" rx="34.9399" ry="18"/>
<text text-anchor="middle" x="342" y="-19.9" font-family="Times Roman,serif" font-size="14.00">GSet</text>
</g>
<!-- GMap&#45;&gt;GSet -->
<g id="edge32" class="edge"><title>GMap&#45;&gt;GSet</title>
<path fill="none" stroke="black" d="M342,-100.683C342,-87.0149 342,-68.0833 342,-52.4508"/>
<polygon fill="black" stroke="black" points="345.5,-52.2607 342,-42.2607 338.5,-52.2608 345.5,-52.2607"/>
</g>
<!-- Datacon&#45;&gt;Identifier -->
<g id="edge24" class="edge"><title>Datacon&#45;&gt;Identifier</title>
<path fill="none" stroke="black" d="M512.65,-385.683C511.643,-372.015 510.248,-353.083 509.096,-337.451"/>
<polygon fill="black" stroke="black" points="512.571,-336.976 508.346,-327.261 505.59,-337.491 512.571,-336.976"/>
</g>
<!-- PersistentRef -->
<g id="node34" class="node"><title>PersistentRef</title>
<ellipse fill="green" stroke="green" cx="180" cy="-309" rx="73.8534" ry="18"/>
<text text-anchor="middle" x="180" y="-304.9" font-family="Times Roman,serif" font-size="14.00">PersistentRef</text>
</g>
<!-- PersistentRef&#45;&gt;Patricia -->
<g id="edge34" class="edge"><title>PersistentRef&#45;&gt;Patricia</title>
<path fill="none" stroke="black" d="M202.637,-291.796C223.099,-276.245 253.345,-253.258 275.656,-236.301"/>
<polygon fill="black" stroke="black" points="277.938,-238.963 283.782,-230.126 273.703,-233.39 277.938,-238.963"/>
</g>
<!-- WellKindedness -->
<g id="node36" class="node"><title>WellKindedness</title>
<ellipse fill="green" stroke="green" cx="614" cy="-690" rx="86.1654" ry="18"/>
<text text-anchor="middle" x="614" y="-685.9" font-family="Times Roman,serif" font-size="14.00">WellKindedness</text>
</g>
<!-- WellKindedness&#45;&gt;SurfaceSyntax -->
<g id="edge40" class="edge"><title>WellKindedness&#45;&gt;SurfaceSyntax</title>
<path fill="none" stroke="black" d="M612.398,-671.913C610.064,-649.161 604.884,-609.065 595,-576 589.933,-559.05 582.055,-540.911 575.157,-526.499"/>
<polygon fill="black" stroke="black" points="578.131,-524.614 570.586,-517.177 571.846,-527.697 578.131,-524.614"/>
</g>
<!-- WellKindedness&#45;&gt;Variable -->
<g id="edge36" class="edge"><title>WellKindedness&#45;&gt;Variable</title>
<path fill="none" stroke="black" d="M655.124,-674.173C681.442,-661.635 713.465,-641.308 729,-612 761.265,-551.129 717.704,-470.307 690.647,-429.66"/>
<polygon fill="black" stroke="black" points="693.525,-427.668 684.995,-421.385 687.745,-431.617 693.525,-427.668"/>
</g>
<!-- Types -->
<g id="node39" class="node"><title>Types</title>
<ellipse fill="green" stroke="green" cx="681" cy="-594" rx="38.9134" ry="18"/>
<text text-anchor="middle" x="681" y="-589.9" font-family="Times Roman,serif" font-size="14.00">Types</text>
</g>
<!-- WellKindedness&#45;&gt;Types -->
<g id="edge38" class="edge"><title>WellKindedness&#45;&gt;Types</title>
<path fill="none" stroke="black" d="M626.602,-671.943C636.837,-657.278 651.405,-636.405 662.89,-619.949"/>
<polygon fill="black" stroke="black" points="666.053,-621.533 668.906,-611.329 660.312,-617.527 666.053,-621.533"/>
</g>
<!-- Types&#45;&gt;SurfaceSyntax -->
<g id="edge44" class="edge"><title>Types&#45;&gt;SurfaceSyntax</title>
<path fill="none" stroke="black" d="M661.184,-578.313C642.177,-563.265 613.213,-540.335 591.308,-522.994"/>
<polygon fill="black" stroke="black" points="593.307,-520.113 583.294,-516.65 588.962,-525.601 593.307,-520.113"/>
</g>
<!-- Types&#45;&gt;Variable -->
<g id="edge42" class="edge"><title>Types&#45;&gt;Variable</title>
<path fill="none" stroke="black" d="M682.63,-575.966C684.382,-553.637 686.592,-514.458 684,-481 682.731,-464.61 679.963,-446.432 677.405,-431.855"/>
<polygon fill="black" stroke="black" points="680.837,-431.167 675.604,-421.955 673.95,-432.42 680.837,-431.167"/>
</g>
<!-- Types&#45;&gt;Datacon -->
<g id="edge46" class="edge"><title>Types&#45;&gt;Datacon</title>
<path fill="none" stroke="black" d="M680.424,-575.654C678.785,-551.574 672.754,-509.08 651,-481 628.383,-451.806 591.385,-431.958 561.535,-419.734"/>
<polygon fill="black" stroke="black" points="562.709,-416.435 552.122,-416.031 560.147,-422.949 562.709,-416.435"/>
</g>
<!-- Data -->
<g id="node41" class="node"><title>Data</title>
<ellipse fill="green" stroke="green" cx="360" cy="-404" rx="34.2406" ry="18"/>
<text text-anchor="middle" x="360" y="-399.9" font-family="Times Roman,serif" font-size="14.00">Data</text>
</g>
<!-- Mode -->
<g id="node42" class="node"><title>Mode</title>
<ellipse fill="green" stroke="green" cx="1041" cy="-594" rx="36.8288" ry="18"/>
<text text-anchor="middle" x="1041" y="-589.9" font-family="Times Roman,serif" font-size="14.00">Mode</text>
</g>
<!-- ModeDeduction -->
<g id="node43" class="node"><title>ModeDeduction</title>
<ellipse fill="green" stroke="green" cx="900" cy="-594" rx="86.1654" ry="18"/>
<text text-anchor="middle" x="900" y="-589.9" font-family="Times Roman,serif" font-size="14.00">ModeDeduction</text>
</g>
<!-- Printers -->
<g id="node47" class="node"><title>Printers</title>
<ellipse fill="green" stroke="green" cx="456" cy="-690" rx="48.8383" ry="18"/>
<text text-anchor="middle" x="456" y="-685.9" font-family="Times Roman,serif" font-size="14.00">Printers</text>
</g>
<!-- Printers&#45;&gt;Bash -->
<g id="edge58" class="edge"><title>Printers&#45;&gt;Bash</title>
<path fill="none" stroke="black" d="M473.163,-672.837C488.597,-657.403 511.406,-634.594 528.525,-617.475"/>
<polygon fill="black" stroke="black" points="531.347,-619.602 535.944,-610.056 526.398,-614.653 531.347,-619.602"/>
</g>
<!-- Printers&#45;&gt;Hml_List -->
<g id="edge54" class="edge"><title>Printers&#45;&gt;Hml_List</title>
<path fill="none" stroke="black" d="M434.856,-673.497C414.878,-657.905 384.73,-634.375 362.413,-616.956"/>
<polygon fill="black" stroke="black" points="364.317,-614.003 354.28,-610.609 360.01,-619.521 364.317,-614.003"/>
</g>
<!-- Printers&#45;&gt;SurfaceSyntax -->
<g id="edge52" class="edge"><title>Printers&#45;&gt;SurfaceSyntax</title>
<path fill="none" stroke="black" d="M463.241,-672.186C472.746,-649.375 490.416,-608.869 509,-576 518.862,-558.557 531.396,-539.913 541.688,-525.339"/>
<polygon fill="black" stroke="black" points="544.796,-527.01 547.762,-516.838 539.101,-522.94 544.796,-527.01"/>
</g>
<!-- Printers&#45;&gt;Variable -->
<g id="edge48" class="edge"><title>Printers&#45;&gt;Variable</title>
<path fill="none" stroke="black" d="M451.418,-671.882C442.654,-632.709 427.975,-538.993 471,-481 489.355,-456.26 567.439,-431.448 620.704,-416.919"/>
<polygon fill="black" stroke="black" points="621.921,-420.216 630.67,-414.241 620.105,-413.456 621.921,-420.216"/>
</g>
<!-- Printers&#45;&gt;Datacon -->
<g id="edge56" class="edge"><title>Printers&#45;&gt;Datacon</title>
<path fill="none" stroke="black" d="M449.132,-672.107C435.975,-634.913 410.83,-547.205 438,-481 447.009,-459.049 465.633,-440.011 482.19,-426.358"/>
<polygon fill="black" stroke="black" points="484.43,-429.048 490.1,-420.098 480.086,-423.559 484.43,-429.048"/>
</g>
<!-- Printers&#45;&gt;Types -->
<g id="edge50" class="edge"><title>Printers&#45;&gt;Types</title>
<path fill="none" stroke="black" d="M488.237,-676.246C529.019,-658.845 599.162,-628.917 642.651,-610.362"/>
<polygon fill="black" stroke="black" points="644.213,-613.501 652.037,-606.358 641.465,-607.063 644.213,-613.501"/>
</g>
<!-- PermissionDeduction -->
<g id="node54" class="node"><title>PermissionDeduction</title>
<ellipse fill="green" stroke="green" cx="163" cy="-499" rx="111.876" ry="18"/>
<text text-anchor="middle" x="163" y="-494.9" font-family="Times Roman,serif" font-size="14.00">PermissionDeduction</text>
</g>
<!-- PermissionDeduction&#45;&gt;Patricia -->
<g id="edge60" class="edge"><title>PermissionDeduction&#45;&gt;Patricia</title>
<path fill="none" stroke="black" d="M204.73,-482.248C230.498,-469.637 261.817,-449.741 279,-422 313.817,-365.791 312.31,-284.6 308.501,-242.198"/>
<polygon fill="black" stroke="black" points="311.963,-241.646 307.477,-232.049 304.999,-242.35 311.963,-241.646"/>
</g>
<!-- PermissionDeduction&#45;&gt;Data -->
<g id="edge64" class="edge"><title>PermissionDeduction&#45;&gt;Data</title>
<path fill="none" stroke="black" d="M198.675,-481.796C234.707,-464.421 289.987,-437.763 325.568,-420.604"/>
<polygon fill="black" stroke="black" points="327.119,-423.742 334.607,-416.246 324.079,-417.437 327.119,-423.742"/>
</g>
<!-- PersistentUnionFind -->
<g id="node57" class="node"><title>PersistentUnionFind</title>
<ellipse fill="green" stroke="green" cx="163" cy="-404" rx="107.206" ry="18"/>
<text text-anchor="middle" x="163" y="-399.9" font-family="Times Roman,serif" font-size="14.00">PersistentUnionFind</text>
</g>
<!-- PermissionDeduction&#45;&gt;PersistentUnionFind -->
<g id="edge62" class="edge"><title>PermissionDeduction&#45;&gt;PersistentUnionFind</title>
<path fill="none" stroke="black" d="M163,-480.683C163,-467.015 163,-448.083 163,-432.451"/>
<polygon fill="black" stroke="black" points="166.5,-432.261 163,-422.261 159.5,-432.261 166.5,-432.261"/>
</g>
<!-- PersistentUnionFind&#45;&gt;PersistentRef -->
<g id="edge66" class="edge"><title>PersistentUnionFind&#45;&gt;PersistentRef</title>
<path fill="none" stroke="black" d="M166.278,-385.683C168.724,-372.015 172.111,-353.083 174.909,-337.451"/>
<polygon fill="black" stroke="black" points="178.416,-337.721 176.732,-327.261 171.525,-336.488 178.416,-337.721"/>
</g>
<!-- FactInference -->
<g id="node60" class="node"><title>FactInference</title>
<ellipse fill="green" stroke="green" cx="794" cy="-690" rx="75.9375" ry="18"/>
<text text-anchor="middle" x="794" y="-685.9" font-family="Times Roman,serif" font-size="14.00">FactInference</text>
</g>
<!-- FactInference&#45;&gt;Variable -->
<g id="edge68" class="edge"><title>FactInference&#45;&gt;Variable</title>
<path fill="none" stroke="black" d="M792.202,-671.918C787.869,-634.372 774.535,-546.041 740,-481 729.485,-461.197 712.898,-442.274 698.739,-428.143"/>
<polygon fill="black" stroke="black" points="700.792,-425.258 691.176,-420.81 695.919,-430.284 700.792,-425.258"/>
</g>
<!-- FactInference&#45;&gt;Types -->
<g id="edge70" class="edge"><title>FactInference&#45;&gt;Types</title>
<path fill="none" stroke="black" d="M773.537,-672.615C755.09,-656.944 727.847,-633.8 707.694,-616.678"/>
<polygon fill="black" stroke="black" points="709.697,-613.787 699.809,-609.98 705.164,-619.122 709.697,-613.787"/>
</g>
<!-- FactInference&#45;&gt;Mode -->
<g id="edge74" class="edge"><title>FactInference&#45;&gt;Mode</title>
<path fill="none" stroke="black" d="M833.676,-674.641C874.229,-658.934 939.023,-633.813 995,-612 997.377,-611.074 999.823,-610.12 1002.29,-609.157"/>
<polygon fill="black" stroke="black" points="1003.76,-612.339 1011.8,-605.439 1001.22,-605.819 1003.76,-612.339"/>
</g>
<!-- FactInference&#45;&gt;ModeDeduction -->
<g id="edge72" class="edge"><title>FactInference&#45;&gt;ModeDeduction</title>
<path fill="none" stroke="black" d="M813.442,-672.392C830.073,-657.331 854.192,-635.487 872.748,-618.681"/>
<polygon fill="black" stroke="black" points="875.26,-621.128 880.322,-611.821 870.561,-615.94 875.26,-621.128"/>
</g>
<!-- Hamlet -->
<g id="node65" class="node"><title>Hamlet</title>
<ellipse fill="magenta" stroke="magenta" cx="456" cy="-785" rx="45.8622" ry="18"/>
<text text-anchor="middle" x="456" y="-780.9" font-family="Times Roman,serif" font-size="14.00">Hamlet</text>
</g>
<!-- Hamlet&#45;&gt;Log -->
<g id="edge80" class="edge"><title>Hamlet&#45;&gt;Log</title>
<path fill="none" stroke="black" d="M417.523,-775.013C346.473,-756.571 195.621,-717.415 126.265,-699.413"/>
<polygon fill="black" stroke="black" points="126.808,-695.938 116.249,-696.813 125.049,-702.714 126.808,-695.938"/>
</g>
<!-- Hamlet&#45;&gt;Driver -->
<g id="edge84" class="edge"><title>Hamlet&#45;&gt;Driver</title>
<path fill="none" stroke="black" d="M424.159,-771.791C382.94,-754.691 311.121,-724.898 266.479,-706.378"/>
<polygon fill="black" stroke="black" points="267.692,-703.092 257.114,-702.493 265.01,-709.558 267.692,-703.092"/>
</g>
<!-- Hamlet&#45;&gt;WellKindedness -->
<g id="edge76" class="edge"><title>Hamlet&#45;&gt;WellKindedness</title>
<path fill="none" stroke="black" d="M481.385,-769.737C507.157,-754.241 547.342,-730.079 576.726,-712.412"/>
<polygon fill="black" stroke="black" points="578.704,-715.306 585.47,-707.154 575.097,-709.307 578.704,-715.306"/>
</g>
<!-- Hamlet&#45;&gt;Printers -->
<g id="edge78" class="edge"><title>Hamlet&#45;&gt;Printers</title>
<path fill="none" stroke="black" d="M456,-766.683C456,-753.015 456,-734.083 456,-718.451"/>
<polygon fill="black" stroke="black" points="459.5,-718.261 456,-708.261 452.5,-718.261 459.5,-718.261"/>
</g>
<!-- Hamlet&#45;&gt;FactInference -->
<g id="edge82" class="edge"><title>Hamlet&#45;&gt;FactInference</title>
<path fill="none" stroke="black" d="M491.126,-773.211C497.711,-771.084 504.551,-768.931 511,-767 586.695,-744.332 674.61,-720.852 732.116,-705.873"/>
<polygon fill="black" stroke="black" points="733.338,-709.172 742.136,-703.269 731.577,-702.397 733.338,-709.172"/>
</g>
</g>
</svg>
