<?xml version="1.0" encoding="UTF-8" standalone="no"?>
<!DOCTYPE svg PUBLIC "-//W3C//DTD SVG 1.1//EN"
 "http://www.w3.org/Graphics/SVG/1.1/DTD/svg11.dtd">
<!-- Generated by graphviz version 2.26.3 (20100126.1600)
 -->
<!-- Title: G Pages: 1 -->
<svg width="720pt" height="537pt"
 viewBox="0.00 0.00 720.00 537.15" xmlns="http://www.w3.org/2000/svg" xmlns:xlink="http://www.w3.org/1999/xlink">
<g id="graph1" class="graph" transform="scale(0.66893 0.66893) rotate(0) translate(4 799)">
<title>G</title>
<polygon fill="white" stroke="white" points="-4,5 -4,-799 1073.35,-799 1073.35,5 -4,5"/>
<!-- Option -->
<g id="node1" class="node"><title>Option</title>
<ellipse fill="darkturquoise" stroke="darkturquoise" cx="122" cy="-491" rx="43.7776" ry="18"/>
<text text-anchor="middle" x="122" y="-486.9" font-family="Times Roman,serif" font-size="14.00">Option</text>
</g>
<!-- InfiniteArray -->
<g id="node2" class="node"><title>InfiniteArray</title>
<ellipse fill="darkturquoise" stroke="darkturquoise" cx="711" cy="-117" rx="71.7694" ry="18"/>
<text text-anchor="middle" x="711" y="-112.9" font-family="Times Roman,serif" font-size="14.00">InfiniteArray</text>
</g>
<!-- Hml_Map -->
<g id="node3" class="node"><title>Hml_Map</title>
<ellipse fill="darkturquoise" stroke="darkturquoise" cx="523" cy="-772" rx="55.0898" ry="18"/>
<text text-anchor="middle" x="523" y="-767.9" font-family="Times Roman,serif" font-size="14.00">Hml_Map</text>
</g>
<!-- Hml_List -->
<g id="node4" class="node"><title>Hml_List</title>
<ellipse fill="darkturquoise" stroke="darkturquoise" cx="371" cy="-585" rx="52.8111" ry="18"/>
<text text-anchor="middle" x="371" y="-580.9" font-family="Times Roman,serif" font-size="14.00">Hml_List</text>
</g>
<!-- Hml_List&#45;&gt;Option -->
<g id="edge2" class="edge"><title>Hml_List&#45;&gt;Option</title>
<path fill="none" stroke="black" d="M335.324,-571.532C290.034,-554.434 212.021,-524.984 163.933,-506.83"/>
<polygon fill="black" stroke="black" points="165.032,-503.504 154.441,-503.247 162.56,-510.053 165.032,-503.504"/>
</g>
<!-- Bash -->
<g id="node6" class="node"><title>Bash</title>
<ellipse fill="darkturquoise" stroke="darkturquoise" cx="648" cy="-585" rx="34.2406" ry="18"/>
<text text-anchor="middle" x="648" y="-580.9" font-family="Times Roman,serif" font-size="14.00">Bash</text>
</g>
<!-- Hml_String -->
<g id="node7" class="node"><title>Hml_String</title>
<ellipse fill="darkturquoise" stroke="darkturquoise" cx="64" cy="-585" rx="64.1231" ry="18"/>
<text text-anchor="middle" x="64" y="-580.9" font-family="Times Roman,serif" font-size="14.00">Hml_String</text>
</g>
<!-- Hml_String&#45;&gt;Option -->
<g id="edge4" class="edge"><title>Hml_String&#45;&gt;Option</title>
<path fill="none" stroke="black" d="M75.183,-566.876C83.8235,-552.872 95.9093,-533.285 105.637,-517.519"/>
<polygon fill="black" stroke="black" points="108.776,-519.098 111.048,-508.75 102.818,-515.422 108.776,-519.098"/>
</g>
<!-- Log -->
<g id="node9" class="node"><title>Log</title>
<ellipse fill="darkturquoise" stroke="darkturquoise" cx="91" cy="-678" rx="27.9903" ry="18"/>
<text text-anchor="middle" x="91" y="-673.9" font-family="Times Roman,serif" font-size="14.00">Log</text>
</g>
<!-- Log&#45;&gt;Hml_String -->
<g id="edge6" class="edge"><title>Log&#45;&gt;Hml_String</title>
<path fill="none" stroke="black" d="M85.7941,-660.069C81.9344,-646.774 76.5978,-628.393 72.1716,-613.147"/>
<polygon fill="black" stroke="black" points="75.4314,-611.821 69.282,-603.194 68.709,-613.773 75.4314,-611.821"/>
</g>
<!-- Datacon -->
<g id="node11" class="node"><title>Datacon</title>
<ellipse fill="#eead0e" stroke="#eead0e" cx="686" cy="-398" rx="50.9221" ry="18"/>
<text text-anchor="middle" x="686" y="-393.9" font-family="Times Roman,serif" font-size="14.00">Datacon</text>
</g>
<!-- Identifier -->
<g id="node13" class="node"><title>Identifier</title>
<ellipse fill="#eead0e" stroke="#eead0e" cx="711" cy="-304" rx="54.8957" ry="18"/>
<text text-anchor="middle" x="711" y="-299.9" font-family="Times Roman,serif" font-size="14.00">Identifier</text>
</g>
<!-- Datacon&#45;&gt;Identifier -->
<g id="edge8" class="edge"><title>Datacon&#45;&gt;Identifier</title>
<path fill="none" stroke="black" d="M690.82,-379.876C694.417,-366.352 699.399,-347.619 703.513,-332.151"/>
<polygon fill="black" stroke="black" points="707.007,-332.632 706.195,-322.069 700.242,-330.833 707.007,-332.632"/>
</g>
<!-- Hashcons -->
<g id="node23" class="node"><title>Hashcons</title>
<ellipse fill="#eead0e" stroke="#eead0e" cx="711" cy="-210" rx="56.9803" ry="18"/>
<text text-anchor="middle" x="711" y="-205.9" font-family="Times Roman,serif" font-size="14.00">Hashcons</text>
</g>
<!-- Identifier&#45;&gt;Hashcons -->
<g id="edge22" class="edge"><title>Identifier&#45;&gt;Hashcons</title>
<path fill="none" stroke="black" d="M711,-285.876C711,-272.352 711,-253.619 711,-238.151"/>
<polygon fill="black" stroke="black" points="714.5,-238.068 711,-228.069 707.5,-238.069 714.5,-238.068"/>
</g>
<!-- Patricia -->
<g id="node27" class="node"><title>Patricia</title>
<ellipse fill="cyan" stroke="cyan" cx="890" cy="-210" rx="46.7546" ry="18"/>
<text text-anchor="middle" x="890" y="-205.9" font-family="Times Roman,serif" font-size="14.00">Patricia</text>
</g>
<!-- Identifier&#45;&gt;Patricia -->
<g id="edge24" class="edge"><title>Identifier&#45;&gt;Patricia</title>
<path fill="none" stroke="black" d="M740.158,-288.688C770.946,-272.52 819.566,-246.988 853.026,-229.416"/>
<polygon fill="black" stroke="black" points="854.808,-232.434 862.034,-224.686 851.554,-226.237 854.808,-232.434"/>
</g>
<!-- GMap -->
<g id="node29" class="node"><title>GMap</title>
<ellipse fill="cyan" stroke="cyan" cx="865" cy="-117" rx="38.9134" ry="18"/>
<text text-anchor="middle" x="865" y="-112.9" font-family="Times Roman,serif" font-size="14.00">GMap</text>
</g>
<!-- Identifier&#45;&gt;GMap -->
<g id="edge26" class="edge"><title>Identifier&#45;&gt;GMap</title>
<path fill="none" stroke="black" d="M726.429,-286.683C739.95,-271.401 760.037,-248.44 777,-228 801.092,-198.97 827.909,-164.874 845.535,-142.207"/>
<polygon fill="black" stroke="black" points="848.45,-144.16 851.815,-134.114 842.92,-139.869 848.45,-144.16"/>
</g>
<!-- Driver -->
<g id="node14" class="node"><title>Driver</title>
<ellipse fill="#eead0e" stroke="#eead0e" cx="232" cy="-678" rx="41.1906" ry="18"/>
<text text-anchor="middle" x="232" y="-673.9" font-family="Times Roman,serif" font-size="14.00">Driver</text>
</g>
<!-- Driver&#45;&gt;Hml_String -->
<g id="edge10" class="edge"><title>Driver&#45;&gt;Hml_String</title>
<path fill="none" stroke="black" d="M206.484,-663.875C178.747,-648.521 134.121,-623.817 102.202,-606.148"/>
<polygon fill="black" stroke="black" points="103.594,-602.917 93.1494,-601.136 100.203,-609.042 103.594,-602.917"/>
</g>
<!-- Lexer -->
<g id="node17" class="node"><title>Lexer</title>
<ellipse fill="#eead0e" stroke="#eead0e" cx="185" cy="-585" rx="38.9134" ry="18"/>
<text text-anchor="middle" x="185" y="-580.9" font-family="Times Roman,serif" font-size="14.00">Lexer</text>
</g>
<!-- Driver&#45;&gt;Lexer -->
<g id="edge12" class="edge"><title>Driver&#45;&gt;Lexer</title>
<path fill="none" stroke="black" d="M222.938,-660.069C216.002,-646.344 206.325,-627.197 198.481,-611.676"/>
<polygon fill="black" stroke="black" points="201.509,-609.907 193.875,-602.561 195.262,-613.065 201.509,-609.907"/>
</g>
<!-- SurfaceSyntax -->
<g id="node19" class="node"><title>SurfaceSyntax</title>
<ellipse fill="#eead0e" stroke="#eead0e" cx="619" cy="-491" rx="80.8024" ry="18"/>
<text text-anchor="middle" x="619" y="-486.9" font-family="Times Roman,serif" font-size="14.00">SurfaceSyntax</text>
</g>
<!-- Driver&#45;&gt;SurfaceSyntax -->
<g id="edge14" class="edge"><title>Driver&#45;&gt;SurfaceSyntax</title>
<path fill="none" stroke="black" d="M239.508,-659.953C250.811,-635.078 274.6,-590.654 309,-567 346.603,-541.144 464.141,-517.099 543.191,-503.238"/>
<polygon fill="black" stroke="black" points="543.859,-506.674 553.114,-501.516 542.662,-499.777 543.859,-506.674"/>
</g>
<!-- SurfaceSyntax&#45;&gt;Datacon -->
<g id="edge18" class="edge"><title>SurfaceSyntax&#45;&gt;Datacon</title>
<path fill="none" stroke="black" d="M631.918,-473.069C641.993,-459.085 656.122,-439.472 667.412,-423.801"/>
<polygon fill="black" stroke="black" points="670.343,-425.72 673.349,-415.561 664.663,-421.629 670.343,-425.72"/>
</g>
<!-- Variable -->
<g id="node21" class="node"><title>Variable</title>
<ellipse fill="#eead0e" stroke="#eead0e" cx="510" cy="-398" rx="50.0315" ry="18"/>
<text text-anchor="middle" x="510" y="-393.9" font-family="Times Roman,serif" font-size="14.00">Variable</text>
</g>
<!-- SurfaceSyntax&#45;&gt;Variable -->
<g id="edge16" class="edge"><title>SurfaceSyntax&#45;&gt;Variable</title>
<path fill="none" stroke="black" d="M598.498,-473.507C581.231,-458.775 556.382,-437.574 537.409,-421.385"/>
<polygon fill="black" stroke="black" points="539.555,-418.616 529.676,-414.788 535.012,-423.941 539.555,-418.616"/>
</g>
<!-- Variable&#45;&gt;Identifier -->
<g id="edge28" class="edge"><title>Variable&#45;&gt;Identifier</title>
<path fill="none" stroke="black" d="M540.528,-383.723C575.051,-367.578 631.445,-341.205 669.838,-323.25"/>
<polygon fill="black" stroke="black" points="671.612,-326.284 679.187,-318.878 668.646,-319.943 671.612,-326.284"/>
</g>
<!-- Hashcons&#45;&gt;InfiniteArray -->
<g id="edge20" class="edge"><title>Hashcons&#45;&gt;InfiniteArray</title>
<path fill="none" stroke="black" d="M711,-191.626C711,-178.421 711,-160.369 711,-145.327"/>
<polygon fill="black" stroke="black" points="714.5,-145.019 711,-135.019 707.5,-145.019 714.5,-145.019"/>
</g>
<!-- Patricia&#45;&gt;GMap -->
<g id="edge30" class="edge"><title>Patricia&#45;&gt;GMap</title>
<path fill="none" stroke="black" d="M885.18,-192.069C881.583,-178.688 876.601,-160.155 872.487,-144.852"/>
<polygon fill="black" stroke="black" points="875.782,-143.625 869.805,-134.876 869.022,-145.442 875.782,-143.625"/>
</g>
<!-- GSet -->
<g id="node32" class="node"><title>GSet</title>
<ellipse fill="cyan" stroke="cyan" cx="865" cy="-23" rx="34.9399" ry="18"/>
<text text-anchor="middle" x="865" y="-18.9" font-family="Times Roman,serif" font-size="14.00">GSet</text>
</g>
<!-- GMap&#45;&gt;GSet -->
<g id="edge32" class="edge"><title>GMap&#45;&gt;GSet</title>
<path fill="none" stroke="black" d="M865,-98.8759C865,-85.3516 865,-66.6192 865,-51.1514"/>
<polygon fill="black" stroke="black" points="868.5,-51.0685 865,-41.0685 861.5,-51.0685 868.5,-51.0685"/>
</g>
<!-- ModeDeduction -->
<g id="node34" class="node"><title>ModeDeduction</title>
<ellipse fill="green" stroke="green" cx="682" cy="-772" rx="86.1654" ry="18"/>
<text text-anchor="middle" x="682" y="-767.9" font-family="Times Roman,serif" font-size="14.00">ModeDeduction</text>
</g>
<!-- Mode -->
<g id="node35" class="node"><title>Mode</title>
<ellipse fill="green" stroke="green" cx="823" cy="-772" rx="36.8288" ry="18"/>
<text text-anchor="middle" x="823" y="-767.9" font-family="Times Roman,serif" font-size="14.00">Mode</text>
</g>
<!-- Types -->
<g id="node36" class="node"><title>Types</title>
<ellipse fill="green" stroke="green" cx="557" cy="-585" rx="38.9134" ry="18"/>
<text text-anchor="middle" x="557" y="-580.9" font-family="Times Roman,serif" font-size="14.00">Types</text>
</g>
<!-- Types&#45;&gt;Datacon -->
<g id="edge38" class="edge"><title>Types&#45;&gt;Datacon</title>
<path fill="none" stroke="black" d="M585.644,-572.635C627.688,-554.199 701.923,-520.451 709,-509 724.823,-483.398 713.533,-448.772 701.878,-425.041"/>
<polygon fill="black" stroke="black" points="704.839,-423.15 697.109,-415.904 698.633,-426.389 704.839,-423.15"/>
</g>
<!-- Types&#45;&gt;SurfaceSyntax -->
<g id="edge36" class="edge"><title>Types&#45;&gt;SurfaceSyntax</title>
<path fill="none" stroke="black" d="M568.372,-567.759C577.634,-553.717 590.867,-533.654 601.481,-517.561"/>
<polygon fill="black" stroke="black" points="604.482,-519.368 607.066,-509.093 598.639,-515.513 604.482,-519.368"/>
</g>
<!-- Types&#45;&gt;Variable -->
<g id="edge34" class="edge"><title>Types&#45;&gt;Variable</title>
<path fill="none" stroke="black" d="M549.376,-567.181C543.125,-551.967 534.448,-529.376 529,-509 521.589,-481.281 516.431,-448.864 513.378,-426.245"/>
<polygon fill="black" stroke="black" points="516.844,-425.759 512.085,-416.293 509.903,-426.661 516.844,-425.759"/>
</g>
<!-- PersistentRef -->
<g id="node40" class="node"><title>PersistentRef</title>
<ellipse fill="green" stroke="green" cx="941" cy="-304" rx="73.8534" ry="18"/>
<text text-anchor="middle" x="941" y="-299.9" font-family="Times Roman,serif" font-size="14.00">PersistentRef</text>
</g>
<!-- PersistentRef&#45;&gt;Patricia -->
<g id="edge40" class="edge"><title>PersistentRef&#45;&gt;Patricia</title>
<path fill="none" stroke="black" d="M931.167,-285.876C923.64,-272.003 913.14,-252.651 904.629,-236.962"/>
<polygon fill="black" stroke="black" points="907.475,-234.87 899.63,-227.75 901.323,-238.209 907.475,-234.87"/>
</g>
<!-- PersistentUnionFind -->
<g id="node42" class="node"><title>PersistentUnionFind</title>
<ellipse fill="green" stroke="green" cx="948" cy="-398" rx="107.206" ry="18"/>
<text text-anchor="middle" x="948" y="-393.9" font-family="Times Roman,serif" font-size="14.00">PersistentUnionFind</text>
</g>
<!-- PersistentUnionFind&#45;&gt;PersistentRef -->
<g id="edge42" class="edge"><title>PersistentUnionFind&#45;&gt;PersistentRef</title>
<path fill="none" stroke="black" d="M946.65,-379.876C945.643,-366.352 944.248,-347.619 943.096,-332.151"/>
<polygon fill="black" stroke="black" points="946.579,-331.781 942.346,-322.069 939.598,-332.301 946.579,-331.781"/>
</g>
<!-- PermissionDeduction -->
<g id="node44" class="node"><title>PermissionDeduction</title>
<ellipse fill="green" stroke="green" cx="948" cy="-491" rx="111.876" ry="18"/>
<text text-anchor="middle" x="948" y="-486.9" font-family="Times Roman,serif" font-size="14.00">PermissionDeduction</text>
</g>
<!-- PermissionDeduction&#45;&gt;Patricia -->
<g id="edge44" class="edge"><title>PermissionDeduction&#45;&gt;Patricia</title>
<path fill="none" stroke="black" d="M993.514,-474.417C1019.19,-462.441 1049.04,-443.488 1064,-416 1071.65,-401.947 1067.2,-395.677 1064,-380 1054.93,-335.513 1054.23,-319.876 1024,-286 999.602,-258.66 962.936,-238.815 934.123,-226.274"/>
<polygon fill="black" stroke="black" points="935.257,-222.954 924.682,-222.301 932.541,-229.406 935.257,-222.954"/>
</g>
<!-- PermissionDeduction&#45;&gt;PersistentUnionFind -->
<g id="edge46" class="edge"><title>PermissionDeduction&#45;&gt;PersistentUnionFind</title>
<path fill="none" stroke="black" d="M948,-472.626C948,-459.421 948,-441.369 948,-426.327"/>
<polygon fill="black" stroke="black" points="951.5,-426.019 948,-416.019 944.5,-426.019 951.5,-426.019"/>
</g>
<!-- Data -->
<g id="node48" class="node"><title>Data</title>
<ellipse fill="green" stroke="green" cx="789" cy="-398" rx="34.2406" ry="18"/>
<text text-anchor="middle" x="789" y="-393.9" font-family="Times Roman,serif" font-size="14.00">Data</text>
</g>
<!-- PermissionDeduction&#45;&gt;Data -->
<g id="edge48" class="edge"><title>PermissionDeduction&#45;&gt;Data</title>
<path fill="none" stroke="black" d="M918.093,-473.507C890.332,-457.27 849.138,-433.175 820.789,-416.594"/>
<polygon fill="black" stroke="black" points="822.469,-413.521 812.07,-411.493 818.934,-419.564 822.469,-413.521"/>
</g>
<!-- WellKindedness -->
<g id="node49" class="node"><title>WellKindedness</title>
<ellipse fill="green" stroke="green" cx="404" cy="-678" rx="86.1654" ry="18"/>
<text text-anchor="middle" x="404" y="-673.9" font-family="Times Roman,serif" font-size="14.00">WellKindedness</text>
</g>
<!-- WellKindedness&#45;&gt;SurfaceSyntax -->
<g id="edge54" class="edge"><title>WellKindedness&#45;&gt;SurfaceSyntax</title>
<path fill="none" stroke="black" d="M418.97,-659.983C438.46,-637.063 474.164,-596.875 509,-567 532.177,-547.124 560.578,-527.608 582.715,-513.33"/>
<polygon fill="black" stroke="black" points="584.626,-516.262 591.173,-507.932 580.861,-510.362 584.626,-516.262"/>
</g>
<!-- WellKindedness&#45;&gt;Variable -->
<g id="edge50" class="edge"><title>WellKindedness&#45;&gt;Variable</title>
<path fill="none" stroke="black" d="M369.64,-661.242C347.879,-648.565 321.554,-628.907 309,-603 302.022,-588.602 302.245,-581.504 309,-567 342.271,-495.558 422.254,-443.542 470.697,-417.292"/>
<polygon fill="black" stroke="black" points="472.458,-420.319 479.649,-412.539 469.176,-414.137 472.458,-420.319"/>
</g>
<!-- WellKindedness&#45;&gt;Types -->
<g id="edge52" class="edge"><title>WellKindedness&#45;&gt;Types</title>
<path fill="none" stroke="black" d="M432.063,-660.942C458.105,-645.113 496.87,-621.55 524.302,-604.875"/>
<polygon fill="black" stroke="black" points="526.408,-607.691 533.136,-599.506 522.773,-601.709 526.408,-607.691"/>
</g>
<!-- FactInference -->
<g id="node53" class="node"><title>FactInference</title>
<ellipse fill="green" stroke="green" cx="700" cy="-678" rx="75.9375" ry="18"/>
<text text-anchor="middle" x="700" y="-673.9" font-family="Times Roman,serif" font-size="14.00">FactInference</text>
</g>
<!-- Printers -->
<g id="node54" class="node"><title>Printers</title>
<ellipse fill="green" stroke="green" cx="557" cy="-678" rx="48.8383" ry="18"/>
<text text-anchor="middle" x="557" y="-673.9" font-family="Times Roman,serif" font-size="14.00">Printers</text>
</g>
<!-- Printers&#45;&gt;Hml_List -->
<g id="edge62" class="edge"><title>Printers&#45;&gt;Hml_List</title>
<path fill="none" stroke="black" d="M527.938,-663.469C496.142,-647.571 445.022,-622.011 409.813,-604.407"/>
<polygon fill="black" stroke="black" points="411.291,-601.232 400.781,-599.89 408.16,-607.493 411.291,-601.232"/>
</g>
<!-- Printers&#45;&gt;Bash -->
<g id="edge66" class="edge"><title>Printers&#45;&gt;Bash</title>
<path fill="none" stroke="black" d="M573.691,-660.942C588.066,-646.252 608.958,-624.9 624.931,-608.576"/>
<polygon fill="black" stroke="black" points="627.835,-610.612 632.327,-601.017 622.832,-605.717 627.835,-610.612"/>
</g>
<!-- Printers&#45;&gt;Datacon -->
<g id="edge64" class="edge"><title>Printers&#45;&gt;Datacon</title>
<path fill="none" stroke="black" d="M591.318,-664.948C630.747,-649.277 691.958,-622.652 707,-603 742.491,-556.632 740.162,-529.648 726,-473 721.655,-455.619 712.435,-437.856 703.941,-423.982"/>
<polygon fill="black" stroke="black" points="706.845,-422.026 698.522,-415.469 700.94,-425.785 706.845,-422.026"/>
</g>
<!-- Printers&#45;&gt;SurfaceSyntax -->
<g id="edge60" class="edge"><title>Printers&#45;&gt;SurfaceSyntax</title>
<path fill="none" stroke="black" d="M589.601,-664.354C625.504,-648.582 679.674,-622.319 691,-603 709.224,-571.917 678.561,-537.162 651.789,-514.732"/>
<polygon fill="black" stroke="black" points="653.646,-511.733 643.664,-508.184 649.254,-517.184 653.646,-511.733"/>
</g>
<!-- Printers&#45;&gt;Variable -->
<g id="edge56" class="edge"><title>Printers&#45;&gt;Variable</title>
<path fill="none" stroke="black" d="M541.775,-660.65C530.261,-646.303 515.382,-624.811 509,-603 491.147,-541.985 498.695,-466.312 504.888,-426.141"/>
<polygon fill="black" stroke="black" points="508.382,-426.459 506.537,-416.026 501.474,-425.332 508.382,-426.459"/>
</g>
<!-- Printers&#45;&gt;Types -->
<g id="edge58" class="edge"><title>Printers&#45;&gt;Types</title>
<path fill="none" stroke="black" d="M557,-659.626C557,-646.421 557,-628.369 557,-613.327"/>
<polygon fill="black" stroke="black" points="560.5,-613.019 557,-603.019 553.5,-613.019 560.5,-613.019"/>
</g>
<!-- Hamlet -->
<g id="node61" class="node"><title>Hamlet</title>
<ellipse fill="magenta" stroke="magenta" cx="404" cy="-772" rx="45.8622" ry="18"/>
<text text-anchor="middle" x="404" y="-767.9" font-family="Times Roman,serif" font-size="14.00">Hamlet</text>
</g>
<!-- Hamlet&#45;&gt;Log -->
<g id="edge72" class="edge"><title>Hamlet&#45;&gt;Log</title>
<path fill="none" stroke="black" d="M367.482,-761.033C306.81,-742.812 186.011,-706.534 126.213,-688.575"/>
<polygon fill="black" stroke="black" points="127.055,-685.174 116.471,-685.649 125.042,-691.878 127.055,-685.174"/>
</g>
<!-- Hamlet&#45;&gt;Driver -->
<g id="edge76" class="edge"><title>Hamlet&#45;&gt;Driver</title>
<path fill="none" stroke="black" d="M377.125,-757.312C347.457,-741.099 299.594,-714.941 267.013,-697.135"/>
<polygon fill="black" stroke="black" points="268.297,-693.848 257.843,-692.124 264.94,-699.991 268.297,-693.848"/>
</g>
<!-- Hamlet&#45;&gt;WellKindedness -->
<g id="edge68" class="edge"><title>Hamlet&#45;&gt;WellKindedness</title>
<path fill="none" stroke="black" d="M404,-753.876C404,-740.352 404,-721.619 404,-706.151"/>
<polygon fill="black" stroke="black" points="407.5,-706.068 404,-696.069 400.5,-706.069 407.5,-706.068"/>
</g>
<!-- Hamlet&#45;&gt;FactInference -->
<g id="edge74" class="edge"><title>Hamlet&#45;&gt;FactInference</title>
<path fill="none" stroke="black" d="M439.485,-760.324C445.973,-758.207 452.687,-756.028 459,-754 522.304,-733.66 595.122,-710.766 644.001,-695.471"/>
<polygon fill="black" stroke="black" points="645.252,-698.747 653.752,-692.422 643.163,-692.066 645.252,-698.747"/>
</g>
<!-- Hamlet&#45;&gt;Printers -->
<g id="edge70" class="edge"><title>Hamlet&#45;&gt;Printers</title>
<path fill="none" stroke="black" d="M428.923,-756.688C454.519,-740.962 494.536,-716.377 523.023,-698.875"/>
<polygon fill="black" stroke="black" points="525.145,-701.679 531.834,-693.462 521.481,-695.714 525.145,-701.679"/>
</g>
</g>
</svg>
