<?xml version="1.0" encoding="UTF-8" standalone="no"?>
<!DOCTYPE svg PUBLIC "-//W3C//DTD SVG 1.1//EN"
 "http://www.w3.org/Graphics/SVG/1.1/DTD/svg11.dtd">
<!-- Generated by graphviz version 2.26.3 (20100126.1600)
 -->
<!-- Title: G Pages: 1 -->
<svg width="720pt" height="493pt"
 viewBox="0.00 0.00 720.00 493.39" xmlns="http://www.w3.org/2000/svg" xmlns:xlink="http://www.w3.org/1999/xlink">
<g id="graph1" class="graph" transform="scale(0.23607 0.23607) rotate(0) translate(4 2086)">
<title>G</title>
<polygon fill="white" stroke="white" points="-4,5 -4,-2086 3046.95,-2086 3046.95,5 -4,5"/>
<!-- Option -->
<g id="node1" class="node"><title>Option</title>
<ellipse fill="darkturquoise" stroke="darkturquoise" cx="2572" cy="-347" rx="43.7776" ry="18"/>
<text text-anchor="middle" x="2572" y="-342.9" font-family="DejaVu Sans, Helvetica, sans" font-size="14.00"><a xlink:href="../doc/Option.html" target="_parent">Option</a></text>
</g>
<!-- InfiniteArray -->
<g id="node2" class="node"><title>InfiniteArray</title>
<ellipse fill="darkturquoise" stroke="darkturquoise" cx="353" cy="-193" rx="71.7694" ry="18"/>
<text text-anchor="middle" x="353" y="-188.9" font-family="DejaVu Sans, Helvetica, sans" font-size="14.00"><a xlink:href="../doc/InfiniteArray.html" target="_parent">InfiniteArray</a></text>
</g>
<!-- Hml_Pprint -->
<g id="node3" class="node"><title>Hml_Pprint</title>
<ellipse fill="darkturquoise" stroke="darkturquoise" cx="1784" cy="-810" rx="64.1231" ry="18"/>
<text text-anchor="middle" x="1784" y="-805.9" font-family="DejaVu Sans, Helvetica, sans" font-size="14.00"><a xlink:href="../doc/Hml_Pprint.html" target="_parent">Hml_Pprint</a></text>
</g>
<!-- Hml_List -->
<g id="node5" class="node"><title>Hml_List</title>
<ellipse fill="darkturquoise" stroke="darkturquoise" cx="1535" cy="-655" rx="52.8111" ry="18"/>
<text text-anchor="middle" x="1535" y="-650.9" font-family="DejaVu Sans, Helvetica, sans" font-size="14.00"><a xlink:href="../doc/Hml_List.html" target="_parent">Hml_List</a></text>
</g>
<!-- Hml_Pprint&#45;&gt;Hml_List -->
<g id="edge2" class="edge"><title>Hml_Pprint&#45;&gt;Hml_List</title>
<path fill="none" stroke="black" d="M1757.35,-793.412C1711.9,-765.122 1619.46,-707.576 1569.27,-676.335"/>
<polygon fill="black" stroke="black" points="1571.05,-673.317 1560.71,-671.004 1567.35,-679.26 1571.05,-673.317"/>
</g>
<!-- Bash -->
<g id="node7" class="node"><title>Bash</title>
<ellipse fill="darkturquoise" stroke="darkturquoise" cx="2028" cy="-501" rx="34.2406" ry="18"/>
<text text-anchor="middle" x="2028" y="-496.9" font-family="DejaVu Sans, Helvetica, sans" font-size="14.00"><a xlink:href="../doc/Bash.html" target="_parent">Bash</a></text>
</g>
<!-- Hml_Pprint&#45;&gt;Bash -->
<g id="edge4" class="edge"><title>Hml_Pprint&#45;&gt;Bash</title>
<path fill="none" stroke="black" d="M1797.72,-792.258C1822.04,-760.857 1874.34,-693.477 1919,-637 1949.96,-597.854 1986.27,-552.696 2008.19,-525.523"/>
<polygon fill="black" stroke="black" points="2010.95,-527.674 2014.51,-517.694 2005.5,-523.278 2010.95,-527.674"/>
</g>
<!-- Hml_List&#45;&gt;Option -->
<g id="edge6" class="edge"><title>Hml_List&#45;&gt;Option</title>
<path fill="none" stroke="black" d="M1567.76,-640.685C1641.27,-608.967 1825.42,-531.732 1985,-483 2180.39,-423.334 2419.28,-375.555 2521.59,-356.251"/>
<polygon fill="black" stroke="black" points="2522.46,-359.649 2531.64,-354.363 2521.17,-352.769 2522.46,-359.649"/>
</g>
<!-- Hml_Map -->
<g id="node8" class="node"><title>Hml_Map</title>
<ellipse fill="darkturquoise" stroke="darkturquoise" cx="1331" cy="-810" rx="55.0898" ry="18"/>
<text text-anchor="middle" x="1331" y="-805.9" font-family="DejaVu Sans, Helvetica, sans" font-size="14.00"><a xlink:href="../doc/Hml_Map.html" target="_parent">Hml_Map</a></text>
</g>
<!-- Hml_String -->
<g id="node10" class="node"><title>Hml_String</title>
<ellipse fill="darkturquoise" stroke="darkturquoise" cx="2890" cy="-501" rx="64.1231" ry="18"/>
<text text-anchor="middle" x="2890" y="-496.9" font-family="DejaVu Sans, Helvetica, sans" font-size="14.00"><a xlink:href="../doc/Hml_String.html" target="_parent">Hml_String</a></text>
</g>
<!-- Hml_String&#45;&gt;Option -->
<g id="edge8" class="edge"><title>Hml_String&#45;&gt;Option</title>
<path fill="none" stroke="black" d="M2857.76,-485.386C2798.58,-456.729 2672.94,-395.882 2609.83,-365.321"/>
<polygon fill="black" stroke="black" points="2611.15,-362.071 2600.63,-360.863 2608.1,-368.371 2611.15,-362.071"/>
</g>
<!-- Log -->
<g id="node12" class="node"><title>Log</title>
<ellipse fill="darkturquoise" stroke="darkturquoise" cx="2389" cy="-655" rx="27.9903" ry="18"/>
<text text-anchor="middle" x="2389" y="-650.9" font-family="DejaVu Sans, Helvetica, sans" font-size="14.00"><a xlink:href="../doc/Log.html" target="_parent">Log</a></text>
</g>
<!-- Log&#45;&gt;Option -->
<g id="edge14" class="edge"><title>Log&#45;&gt;Option</title>
<path fill="none" stroke="black" d="M2399.1,-638.002C2429.39,-587.022 2519.63,-435.138 2556.27,-373.467"/>
<polygon fill="black" stroke="black" points="2559.38,-375.093 2561.48,-364.709 2553.36,-371.518 2559.38,-375.093"/>
</g>
<!-- Log&#45;&gt;Bash -->
<g id="edge10" class="edge"><title>Log&#45;&gt;Bash</title>
<path fill="none" stroke="black" d="M2365.59,-645.014C2304.14,-618.798 2137.86,-547.866 2064.09,-516.396"/>
<polygon fill="black" stroke="black" points="2065.3,-513.108 2054.73,-512.403 2062.56,-519.547 2065.3,-513.108"/>
</g>
<!-- Log&#45;&gt;Hml_String -->
<g id="edge12" class="edge"><title>Log&#45;&gt;Hml_String</title>
<path fill="none" stroke="black" d="M2414.53,-647.151C2492.75,-623.109 2730.19,-550.123 2836.98,-517.298"/>
<polygon fill="black" stroke="black" points="2838.06,-520.628 2846.59,-514.344 2836,-513.937 2838.06,-520.628"/>
</g>
<!-- Datacon -->
<g id="node16" class="node"><title>Datacon</title>
<ellipse fill="#eead0e" stroke="#eead0e" cx="399" cy="-655" rx="50.9221" ry="18"/>
<text text-anchor="middle" x="399" y="-650.9" font-family="DejaVu Sans, Helvetica, sans" font-size="14.00"><a xlink:href="../doc/Datacon.html" target="_parent">Datacon</a></text>
</g>
<!-- Identifier -->
<g id="node18" class="node"><title>Identifier</title>
<ellipse fill="#eead0e" stroke="#eead0e" cx="395" cy="-501" rx="54.8957" ry="18"/>
<text text-anchor="middle" x="395" y="-496.9" font-family="DejaVu Sans, Helvetica, sans" font-size="14.00"><a xlink:href="../doc/Identifier.html" target="_parent">Identifier</a></text>
</g>
<!-- Datacon&#45;&gt;Identifier -->
<g id="edge16" class="edge"><title>Datacon&#45;&gt;Identifier</title>
<path fill="none" stroke="black" d="M398.525,-636.729C397.837,-610.217 396.554,-560.833 395.74,-529.507"/>
<polygon fill="black" stroke="black" points="399.233,-529.153 395.474,-519.247 392.235,-529.334 399.233,-529.153"/>
</g>
<!-- Hashcons -->
<g id="node52" class="node"><title>Hashcons</title>
<ellipse fill="#eead0e" stroke="#eead0e" cx="353" cy="-347" rx="56.9803" ry="18"/>
<text text-anchor="middle" x="353" y="-342.9" font-family="DejaVu Sans, Helvetica, sans" font-size="14.00"><a xlink:href="../doc/Hashcons.html" target="_parent">Hashcons</a></text>
</g>
<!-- Identifier&#45;&gt;Hashcons -->
<g id="edge58" class="edge"><title>Identifier&#45;&gt;Hashcons</title>
<path fill="none" stroke="black" d="M390.1,-483.033C382.868,-456.515 369.269,-406.652 360.697,-375.222"/>
<polygon fill="black" stroke="black" points="364.007,-374.057 357.999,-365.33 357.254,-375.899 364.007,-374.057"/>
</g>
<!-- Patricia -->
<g id="node57" class="node"><title>Patricia</title>
<ellipse fill="cyan" stroke="cyan" cx="513" cy="-347" rx="46.7546" ry="18"/>
<text text-anchor="middle" x="513" y="-342.9" font-family="DejaVu Sans, Helvetica, sans" font-size="14.00"><a xlink:href="../doc/Patricia.html" target="_parent">Patricia</a></text>
</g>
<!-- Identifier&#45;&gt;Patricia -->
<g id="edge60" class="edge"><title>Identifier&#45;&gt;Patricia</title>
<path fill="none" stroke="black" d="M408.536,-483.334C429.342,-456.181 469.286,-404.05 493.3,-372.71"/>
<polygon fill="black" stroke="black" points="496.318,-374.526 499.622,-364.46 490.761,-370.269 496.318,-374.526"/>
</g>
<!-- GMap -->
<g id="node59" class="node"><title>GMap</title>
<ellipse fill="cyan" stroke="cyan" cx="497" cy="-193" rx="38.9134" ry="18"/>
<text text-anchor="middle" x="497" y="-188.9" font-family="DejaVu Sans, Helvetica, sans" font-size="14.00"><a xlink:href="../doc/GMap.html" target="_parent">GMap</a></text>
</g>
<!-- Identifier&#45;&gt;GMap -->
<g id="edge62" class="edge"><title>Identifier&#45;&gt;GMap</title>
<path fill="none" stroke="black" d="M401.075,-482.656C418.265,-430.748 467.327,-282.6 487.825,-220.704"/>
<polygon fill="black" stroke="black" points="491.263,-221.456 491.085,-210.862 484.618,-219.255 491.263,-221.456"/>
</g>
<!-- Driver -->
<g id="node19" class="node"><title>Driver</title>
<ellipse fill="#eead0e" stroke="#eead0e" cx="1410" cy="-1889" rx="41.1906" ry="18"/>
<text text-anchor="middle" x="1410" y="-1884.9" font-family="DejaVu Sans, Helvetica, sans" font-size="14.00"><a xlink:href="../doc/Driver.html" target="_parent">Driver</a></text>
</g>
<!-- Driver&#45;&gt;Hml_Pprint -->
<g id="edge24" class="edge"><title>Driver&#45;&gt;Hml_Pprint</title>
<path fill="none" stroke="black" d="M1451.3,-1888.09C1670.12,-1882.19 2684,-1840.84 2684,-1581 2684,-1581 2684,-1581 2684,-1427 2684,-1217.16 2010.01,-908.445 1828.54,-829.127"/>
<polygon fill="black" stroke="black" points="1829.85,-825.877 1819.28,-825.091 1827.05,-832.295 1829.85,-825.877"/>
</g>
<!-- Driver&#45;&gt;Hml_String -->
<g id="edge26" class="edge"><title>Driver&#45;&gt;Hml_String</title>
<path fill="none" stroke="black" d="M1451,-1887.11C1665.29,-1876.93 2651.08,-1826.37 2764,-1753 2903.88,-1662.11 2950,-1593.81 2950,-1427 2950,-1427 2950,-1427 2950,-1272 2950,-980.861 2906.95,-629.742 2893.78,-529.155"/>
<polygon fill="black" stroke="black" points="2897.24,-528.629 2892.46,-519.172 2890.3,-529.544 2897.24,-528.629"/>
</g>
<!-- Driver&#45;&gt;Log -->
<g id="edge32" class="edge"><title>Driver&#45;&gt;Log</title>
<path fill="none" stroke="black" d="M1450.75,-1886.87C1660.45,-1875.6 2612.63,-1821.03 2724,-1753 2801.85,-1705.45 2836,-1672.22 2836,-1581 2836,-1581 2836,-1581 2836,-1118 2836,-879.334 2524.78,-716.599 2421.71,-669.249"/>
<polygon fill="black" stroke="black" points="2422.96,-665.971 2412.4,-665.028 2420.07,-672.346 2422.96,-665.971"/>
</g>
<!-- Expressions -->
<g id="node21" class="node"><title>Expressions</title>
<ellipse fill="green" stroke="green" cx="1116" cy="-1272" rx="68.0985" ry="18"/>
<text text-anchor="middle" x="1116" y="-1267.9" font-family="DejaVu Sans, Helvetica, sans" font-size="14.00"><a xlink:href="../doc/Expressions.html" target="_parent">Expressions</a></text>
</g>
<!-- Driver&#45;&gt;Expressions -->
<g id="edge18" class="edge"><title>Driver&#45;&gt;Expressions</title>
<path fill="none" stroke="black" d="M1370.69,-1883.65C1305.8,-1872.46 1177.89,-1839.99 1122,-1753 1073.63,-1677.72 1102.04,-1391.44 1112.57,-1300.15"/>
<polygon fill="black" stroke="black" points="1116.07,-1300.35 1113.76,-1290.01 1109.12,-1299.54 1116.07,-1300.35"/>
</g>
<!-- ExtraChecks -->
<g id="node23" class="node"><title>ExtraChecks</title>
<ellipse fill="green" stroke="green" cx="1410" cy="-1581" rx="71.0724" ry="18"/>
<text text-anchor="middle" x="1410" y="-1576.9" font-family="DejaVu Sans, Helvetica, sans" font-size="14.00"><a xlink:href="../doc/ExtraChecks.html" target="_parent">ExtraChecks</a></text>
</g>
<!-- Driver&#45;&gt;ExtraChecks -->
<g id="edge20" class="edge"><title>Driver&#45;&gt;ExtraChecks</title>
<path fill="none" stroke="black" d="M1410,-1870.66C1410,-1818.98 1410,-1671.91 1410,-1609.53"/>
<polygon fill="black" stroke="black" points="1413.5,-1609.25 1410,-1599.25 1406.5,-1609.25 1413.5,-1609.25"/>
</g>
<!-- FactInference -->
<g id="node25" class="node"><title>FactInference</title>
<ellipse fill="green" stroke="green" cx="1962" cy="-1118" rx="75.9375" ry="18"/>
<text text-anchor="middle" x="1962" y="-1113.9" font-family="DejaVu Sans, Helvetica, sans" font-size="14.00"><a xlink:href="../doc/FactInference.html" target="_parent">FactInference</a></text>
</g>
<!-- Driver&#45;&gt;FactInference -->
<g id="edge22" class="edge"><title>Driver&#45;&gt;FactInference</title>
<path fill="none" stroke="black" d="M1449.73,-1884.24C1575.22,-1867.36 1969.18,-1800.24 2212,-1599 2284.09,-1539.25 2353.35,-1487.94 2303,-1409 2235.52,-1303.22 2136.77,-1377.66 2047,-1290 2005.07,-1249.05 1980.62,-1183.14 1969.43,-1145.92"/>
<polygon fill="black" stroke="black" points="1972.77,-1144.86 1966.63,-1136.23 1966.05,-1146.81 1972.77,-1144.86"/>
</g>
<!-- KindCheck -->
<g id="node29" class="node"><title>KindCheck</title>
<ellipse fill="green" stroke="green" cx="644" cy="-1427" rx="61.8445" ry="18"/>
<text text-anchor="middle" x="644" y="-1422.9" font-family="DejaVu Sans, Helvetica, sans" font-size="14.00"><a xlink:href="../doc/KindCheck.html" target="_parent">KindCheck</a></text>
</g>
<!-- Driver&#45;&gt;KindCheck -->
<g id="edge28" class="edge"><title>Driver&#45;&gt;KindCheck</title>
<path fill="none" stroke="black" d="M1369.51,-1886.12C1276.65,-1877.99 1043.66,-1848.82 878,-1753 795.294,-1705.16 782.991,-1677.13 728,-1599 694.925,-1552 668.205,-1490.02 654.346,-1454.73"/>
<polygon fill="black" stroke="black" points="657.495,-1453.17 650.625,-1445.11 650.966,-1455.7 657.495,-1453.17"/>
</g>
<!-- Lexer -->
<g id="node31" class="node"><title>Lexer</title>
<ellipse fill="#eead0e" stroke="#eead0e" cx="877" cy="-1272" rx="38.9134" ry="18"/>
<text text-anchor="middle" x="877" y="-1267.9" font-family="DejaVu Sans, Helvetica, sans" font-size="14.00"><a xlink:href="../doc/Lexer.html" target="_parent">Lexer</a></text>
</g>
<!-- Driver&#45;&gt;Lexer -->
<g id="edge30" class="edge"><title>Driver&#45;&gt;Lexer</title>
<path fill="none" stroke="black" d="M1369.84,-1885.05C1295.68,-1875.66 1136.56,-1845.37 1046,-1753 915.825,-1620.24 885.492,-1381.48 878.797,-1300.07"/>
<polygon fill="black" stroke="black" points="882.286,-1299.79 878.032,-1290.09 875.306,-1300.32 882.286,-1299.79"/>
</g>
<!-- TransSurface -->
<g id="node34" class="node"><title>TransSurface</title>
<ellipse fill="green" stroke="green" cx="810" cy="-1581" rx="73.1565" ry="18"/>
<text text-anchor="middle" x="810" y="-1576.9" font-family="DejaVu Sans, Helvetica, sans" font-size="14.00"><a xlink:href="../doc/TransSurface.html" target="_parent">TransSurface</a></text>
</g>
<!-- Driver&#45;&gt;TransSurface -->
<g id="edge34" class="edge"><title>Driver&#45;&gt;TransSurface</title>
<path fill="none" stroke="black" d="M1371.94,-1882.21C1269.52,-1863.38 990.88,-1808.21 917,-1753 866.83,-1715.51 834.682,-1646.95 819.76,-1608.68"/>
<polygon fill="black" stroke="black" points="822.982,-1607.31 816.171,-1599.19 816.435,-1609.78 822.982,-1607.31"/>
</g>
<!-- TypeChecker -->
<g id="node36" class="node"><title>TypeChecker</title>
<ellipse fill="green" stroke="green" cx="1622" cy="-1735" rx="71.7694" ry="18"/>
<text text-anchor="middle" x="1622" y="-1730.9" font-family="DejaVu Sans, Helvetica, sans" font-size="14.00"><a xlink:href="../doc/TypeChecker.html" target="_parent">TypeChecker</a></text>
</g>
<!-- Driver&#45;&gt;TypeChecker -->
<g id="edge36" class="edge"><title>Driver&#45;&gt;TypeChecker</title>
<path fill="none" stroke="black" d="M1431.49,-1873.39C1469,-1846.14 1546.54,-1789.81 1590.25,-1758.06"/>
<polygon fill="black" stroke="black" points="1592.48,-1760.77 1598.52,-1752.06 1588.37,-1755.1 1592.48,-1760.77"/>
</g>
<!-- TypeErrors -->
<g id="node38" class="node"><title>TypeErrors</title>
<ellipse fill="green" stroke="green" cx="1341" cy="-1427" rx="63.2343" ry="18"/>
<text text-anchor="middle" x="1341" y="-1422.9" font-family="DejaVu Sans, Helvetica, sans" font-size="14.00"><a xlink:href="../doc/TypeErrors.html" target="_parent">TypeErrors</a></text>
</g>
<!-- Driver&#45;&gt;TypeErrors -->
<g id="edge38" class="edge"><title>Driver&#45;&gt;TypeErrors</title>
<path fill="none" stroke="black" d="M1399.54,-1871.46C1372.02,-1823.36 1300.58,-1684.9 1313,-1563 1316.84,-1525.31 1326.52,-1482.65 1333.42,-1455.32"/>
<polygon fill="black" stroke="black" points="1336.89,-1455.85 1336,-1445.29 1330.11,-1454.11 1336.89,-1455.85"/>
</g>
<!-- Variance -->
<g id="node40" class="node"><title>Variance</title>
<ellipse fill="green" stroke="green" cx="2565" cy="-1118" rx="52.8111" ry="18"/>
<text text-anchor="middle" x="2565" y="-1113.9" font-family="DejaVu Sans, Helvetica, sans" font-size="14.00"><a xlink:href="../doc/Variance.html" target="_parent">Variance</a></text>
</g>
<!-- Driver&#45;&gt;Variance -->
<g id="edge40" class="edge"><title>Driver&#45;&gt;Variance</title>
<path fill="none" stroke="black" d="M1450.92,-1887.62C1660.35,-1880.2 2606.07,-1841.9 2698,-1753 2753.48,-1699.34 2722,-1658.19 2722,-1581 2722,-1581 2722,-1581 2722,-1427 2722,-1349.37 2732.19,-1323.69 2698,-1254 2674.5,-1206.1 2627.69,-1164.49 2596.35,-1140.31"/>
<polygon fill="black" stroke="black" points="2598.43,-1137.5 2588.35,-1134.25 2594.21,-1143.08 2598.43,-1137.5"/>
</g>
<!-- Types -->
<g id="node42" class="node"><title>Types</title>
<ellipse fill="green" stroke="green" cx="1328" cy="-964" rx="38.9134" ry="18"/>
<text text-anchor="middle" x="1328" y="-959.9" font-family="DejaVu Sans, Helvetica, sans" font-size="14.00"><a xlink:href="../doc/Types.html" target="_parent">Types</a></text>
</g>
<!-- Driver&#45;&gt;Types -->
<g id="edge42" class="edge"><title>Driver&#45;&gt;Types</title>
<path fill="none" stroke="black" d="M1396.88,-1871.54C1378.79,-1846.6 1346.45,-1798.7 1329,-1753 1225.41,-1481.72 1267.12,-1387.63 1307,-1100 1312.19,-1062.6 1318.97,-1019.56 1323.41,-992.081"/>
<polygon fill="black" stroke="black" points="1326.89,-992.445 1325.04,-982.013 1319.98,-991.324 1326.89,-992.445"/>
</g>
<!-- SurfaceSyntax -->
<g id="node44" class="node"><title>SurfaceSyntax</title>
<ellipse fill="#eead0e" stroke="#eead0e" cx="1063" cy="-810" rx="80.8024" ry="18"/>
<text text-anchor="middle" x="1063" y="-805.9" font-family="DejaVu Sans, Helvetica, sans" font-size="14.00"><a xlink:href="../doc/SurfaceSyntax.html" target="_parent">SurfaceSyntax</a></text>
</g>
<!-- Driver&#45;&gt;SurfaceSyntax -->
<g id="edge44" class="edge"><title>Driver&#45;&gt;SurfaceSyntax</title>
<path fill="none" stroke="black" d="M1370.63,-1883.78C1303.98,-1872.71 1169.8,-1840.27 1104,-1753 992.108,-1604.59 1046.32,-978.781 1060.12,-838.141"/>
<polygon fill="black" stroke="black" points="1063.61,-838.451 1061.11,-828.154 1056.64,-837.758 1063.61,-838.451"/>
</g>
<!-- Expressions&#45;&gt;Hml_Pprint -->
<g id="edge178" class="edge"><title>Expressions&#45;&gt;Hml_Pprint</title>
<path fill="none" stroke="black" d="M1140.57,-1255.01C1242.77,-1184.33 1634.35,-913.499 1751.02,-832.813"/>
<polygon fill="black" stroke="black" points="1753.33,-835.468 1759.56,-826.901 1749.35,-829.711 1753.33,-835.468"/>
</g>
<!-- Expressions&#45;&gt;Hml_List -->
<g id="edge180" class="edge"><title>Expressions&#45;&gt;Hml_List</title>
<path fill="none" stroke="black" d="M1063.18,-1260.62C1002.65,-1244.44 906.241,-1208.34 863,-1136 780.641,-998.224 846.475,-890.775 973,-792 1051.81,-730.477 1347.99,-681.781 1475.74,-663.176"/>
<polygon fill="black" stroke="black" points="1476.35,-666.625 1485.75,-661.731 1475.35,-659.697 1476.35,-666.625"/>
</g>
<!-- Expressions&#45;&gt;Log -->
<g id="edge176" class="edge"><title>Expressions&#45;&gt;Log</title>
<path fill="none" stroke="black" d="M1172.7,-1261.91C1266.59,-1244.01 1459.03,-1202.22 1611,-1136 1927.22,-998.208 2266.95,-747.946 2362.62,-675.284"/>
<polygon fill="black" stroke="black" points="2365.02,-677.852 2370.86,-669.007 2360.78,-672.284 2365.02,-677.852"/>
</g>
<!-- Expressions&#45;&gt;Datacon -->
<g id="edge184" class="edge"><title>Expressions&#45;&gt;Datacon</title>
<path fill="none" stroke="black" d="M1073.59,-1257.91C977.411,-1224.13 739.786,-1130.16 594,-982 501.75,-888.246 435.094,-742.671 409.98,-682.481"/>
<polygon fill="black" stroke="black" points="413.087,-680.832 406.042,-672.918 406.614,-683.498 413.087,-680.832"/>
</g>
<!-- Expressions&#45;&gt;Types -->
<g id="edge172" class="edge"><title>Expressions&#45;&gt;Types</title>
<path fill="none" stroke="black" d="M1128.31,-1254.11C1164.2,-1201.98 1268.75,-1050.08 1310.49,-989.439"/>
<polygon fill="black" stroke="black" points="1313.39,-991.398 1316.18,-981.176 1307.62,-987.429 1313.39,-991.398"/>
</g>
<!-- Expressions&#45;&gt;SurfaceSyntax -->
<g id="edge174" class="edge"><title>Expressions&#45;&gt;SurfaceSyntax</title>
<path fill="none" stroke="black" d="M1066.41,-1259.59C1009.59,-1242.43 919.178,-1205.38 879,-1136 813.879,-1023.55 962.73,-887.886 1031.03,-833.869"/>
<polygon fill="black" stroke="black" points="1033.6,-836.305 1039.33,-827.394 1029.3,-830.786 1033.6,-836.305"/>
</g>
<!-- Variable -->
<g id="node46" class="node"><title>Variable</title>
<ellipse fill="#eead0e" stroke="#eead0e" cx="228" cy="-655" rx="50.0315" ry="18"/>
<text text-anchor="middle" x="228" y="-650.9" font-family="DejaVu Sans, Helvetica, sans" font-size="14.00"><a xlink:href="../doc/Variable.html" target="_parent">Variable</a></text>
</g>
<!-- Expressions&#45;&gt;Variable -->
<g id="edge170" class="edge"><title>Expressions&#45;&gt;Variable</title>
<path fill="none" stroke="black" d="M1055.75,-1263.6C914.286,-1241.19 555.665,-1168.47 328,-982 262.121,-928.04 240.676,-908.871 214,-828 197.789,-778.856 209.629,-717.793 219.179,-682.919"/>
<polygon fill="black" stroke="black" points="222.637,-683.556 222.036,-672.979 215.91,-681.623 222.637,-683.556"/>
</g>
<!-- Flexible -->
<g id="node117" class="node"><title>Flexible</title>
<ellipse fill="green" stroke="green" cx="1554" cy="-1118" rx="47.9469" ry="18"/>
<text text-anchor="middle" x="1554" y="-1113.9" font-family="DejaVu Sans, Helvetica, sans" font-size="14.00"><a xlink:href="../doc/Flexible.html" target="_parent">Flexible</a></text>
</g>
<!-- Expressions&#45;&gt;Flexible -->
<g id="edge182" class="edge"><title>Expressions&#45;&gt;Flexible</title>
<path fill="none" stroke="black" d="M1157.21,-1257.51C1239.55,-1228.56 1423.85,-1163.76 1509.13,-1133.78"/>
<polygon fill="black" stroke="black" points="1510.51,-1137 1518.78,-1130.38 1508.18,-1130.4 1510.51,-1137"/>
</g>
<!-- ExtraChecks&#45;&gt;FactInference -->
<g id="edge270" class="edge"><title>ExtraChecks&#45;&gt;FactInference</title>
<path fill="none" stroke="black" d="M1430.63,-1563.69C1515.25,-1492.72 1835.86,-1223.81 1933.56,-1141.85"/>
<polygon fill="black" stroke="black" points="1935.85,-1144.5 1941.26,-1135.39 1931.35,-1139.14 1935.85,-1144.5"/>
</g>
<!-- ExtraChecks&#45;&gt;TypeErrors -->
<g id="edge268" class="edge"><title>ExtraChecks&#45;&gt;TypeErrors</title>
<path fill="none" stroke="black" d="M1401.95,-1563.03C1390.02,-1536.4 1367.53,-1486.22 1353.46,-1454.81"/>
<polygon fill="black" stroke="black" points="1356.5,-1453.02 1349.21,-1445.33 1350.11,-1455.89 1356.5,-1453.02"/>
</g>
<!-- ExtraChecks&#45;&gt;Types -->
<g id="edge266" class="edge"><title>ExtraChecks&#45;&gt;Types</title>
<path fill="none" stroke="black" d="M1410.52,-1562.96C1411.25,-1536.92 1412.53,-1487.27 1413,-1445 1413.18,-1429 1414.81,-1424.9 1413,-1409 1405.95,-1347.14 1360.96,-1197.29 1350,-1136 1341.01,-1085.73 1334.27,-1026.55 1330.75,-992.352"/>
<polygon fill="black" stroke="black" points="1334.21,-991.765 1329.72,-982.168 1327.25,-992.469 1334.21,-991.765"/>
</g>
<!-- FactInference&#45;&gt;Bash -->
<g id="edge70" class="edge"><title>FactInference&#45;&gt;Bash</title>
<path fill="none" stroke="black" d="M1963.94,-1099.87C1973.27,-1012.6 2013.6,-635.638 2024.99,-529.127"/>
<polygon fill="black" stroke="black" points="2028.48,-529.448 2026.06,-519.132 2021.52,-528.703 2028.48,-529.448"/>
</g>
<!-- FactInference&#45;&gt;Log -->
<g id="edge72" class="edge"><title>FactInference&#45;&gt;Log</title>
<path fill="none" stroke="black" d="M1983.66,-1100.41C2036.14,-1057.21 2172.93,-941.162 2270,-828 2311.83,-779.233 2352.47,-715.614 2373.73,-680.709"/>
<polygon fill="black" stroke="black" points="2376.77,-682.439 2378.95,-672.07 2370.78,-678.818 2376.77,-682.439"/>
</g>
<!-- FactInference&#45;&gt;Types -->
<g id="edge76" class="edge"><title>FactInference&#45;&gt;Types</title>
<path fill="none" stroke="black" d="M1908.76,-1105.07C1786.23,-1075.3 1486.06,-1002.39 1372.5,-974.81"/>
<polygon fill="black" stroke="black" points="1373.29,-971.398 1362.74,-972.439 1371.63,-978.201 1373.29,-971.398"/>
</g>
<!-- FactInference&#45;&gt;SurfaceSyntax -->
<g id="edge74" class="edge"><title>FactInference&#45;&gt;SurfaceSyntax</title>
<path fill="none" stroke="black" d="M1918.64,-1103.14C1769.97,-1052.21 1281.02,-884.693 1117.11,-828.537"/>
<polygon fill="black" stroke="black" points="1117.84,-825.088 1107.24,-825.158 1115.57,-831.71 1117.84,-825.088"/>
</g>
<!-- KindCheck&#45;&gt;Option -->
<g id="edge84" class="edge"><title>KindCheck&#45;&gt;Option</title>
<path fill="none" stroke="black" d="M641.058,-1408.8C633.624,-1357.84 617.616,-1210.3 661,-1100 690.871,-1024.05 712.238,-1011.44 761,-946 767.711,-936.993 882.762,-798.389 892,-792 1441.02,-412.299 2295.83,-356.529 2517.85,-348.384"/>
<polygon fill="black" stroke="black" points="2518.07,-351.878 2527.94,-348.031 2517.83,-344.883 2518.07,-351.878"/>
</g>
<!-- KindCheck&#45;&gt;Hml_Pprint -->
<g id="edge90" class="edge"><title>KindCheck&#45;&gt;Hml_Pprint</title>
<path fill="none" stroke="black" d="M696.064,-1417.21C875.964,-1382.51 1468.15,-1260.78 1611,-1136 1707.48,-1051.73 1758.78,-900.245 1776.62,-837.934"/>
<polygon fill="black" stroke="black" points="1780.07,-838.619 1779.39,-828.046 1773.33,-836.735 1780.07,-838.619"/>
</g>
<!-- KindCheck&#45;&gt;Hml_List -->
<g id="edge92" class="edge"><title>KindCheck&#45;&gt;Hml_List</title>
<path fill="none" stroke="black" d="M641.788,-1408.85C636.349,-1357.42 626.283,-1207.5 678,-1100 697.17,-1060.15 892.394,-815.258 930,-792 1022.06,-735.067 1342.56,-683.075 1476,-663.367"/>
<polygon fill="black" stroke="black" points="1476.65,-666.808 1486.04,-661.893 1475.63,-659.882 1476.65,-666.808"/>
</g>
<!-- KindCheck&#45;&gt;Log -->
<g id="edge86" class="edge"><title>KindCheck&#45;&gt;Log</title>
<path fill="none" stroke="black" d="M701.111,-1419.91C818.128,-1404.39 1092.66,-1362.85 1313,-1290 1612.33,-1191.03 1678.6,-1138.99 1952,-982 2060.29,-919.82 2087.15,-902.99 2187,-828 2254.45,-777.345 2328.5,-710.888 2365.38,-676.977"/>
<polygon fill="black" stroke="black" points="2368.12,-679.215 2373.09,-669.862 2363.37,-674.071 2368.12,-679.215"/>
</g>
<!-- KindCheck&#45;&gt;Datacon -->
<g id="edge96" class="edge"><title>KindCheck&#45;&gt;Datacon</title>
<path fill="none" stroke="black" d="M622.152,-1409.9C571.956,-1369.06 449.25,-1259.95 404,-1136 344.77,-973.748 377.983,-759.703 392.927,-683.462"/>
<polygon fill="black" stroke="black" points="396.443,-683.73 394.986,-673.236 389.581,-682.348 396.443,-683.73"/>
</g>
<!-- KindCheck&#45;&gt;Expressions -->
<g id="edge94" class="edge"><title>KindCheck&#45;&gt;Expressions</title>
<path fill="none" stroke="black" d="M685.473,-1413.38C771.402,-1385.16 968.747,-1320.36 1063.43,-1289.26"/>
<polygon fill="black" stroke="black" points="1064.68,-1292.54 1073.09,-1286.09 1062.5,-1285.89 1064.68,-1292.54"/>
</g>
<!-- KindCheck&#45;&gt;Lexer -->
<g id="edge88" class="edge"><title>KindCheck&#45;&gt;Lexer</title>
<path fill="none" stroke="black" d="M668.935,-1410.41C711.838,-1381.87 799.496,-1323.56 846.163,-1292.51"/>
<polygon fill="black" stroke="black" points="848.265,-1295.32 854.652,-1286.87 844.388,-1289.49 848.265,-1295.32"/>
</g>
<!-- KindCheck&#45;&gt;Types -->
<g id="edge80" class="edge"><title>KindCheck&#45;&gt;Types</title>
<path fill="none" stroke="black" d="M656.322,-1409.22C680.234,-1375.66 735.891,-1302.06 796,-1254 818.075,-1236.35 1178.17,-1043.87 1293.06,-982.611"/>
<polygon fill="black" stroke="black" points="1294.98,-985.555 1302.16,-977.762 1291.69,-979.378 1294.98,-985.555"/>
</g>
<!-- KindCheck&#45;&gt;SurfaceSyntax -->
<g id="edge82" class="edge"><title>KindCheck&#45;&gt;SurfaceSyntax</title>
<path fill="none" stroke="black" d="M643.453,-1408.68C642.609,-1357.44 644.89,-1209.21 694,-1100 757.388,-959.039 929.435,-867.753 1014.31,-829.919"/>
<polygon fill="black" stroke="black" points="1015.98,-833.01 1023.73,-825.783 1013.16,-826.601 1015.98,-833.01"/>
</g>
<!-- KindCheck&#45;&gt;Variable -->
<g id="edge78" class="edge"><title>KindCheck&#45;&gt;Variable</title>
<path fill="none" stroke="black" d="M617.537,-1410.72C580.982,-1387.3 514.413,-1341.27 469,-1290 311.891,-1112.64 259.218,-1058.17 203,-828 190.667,-777.506 206.029,-717.136 217.546,-682.709"/>
<polygon fill="black" stroke="black" points="220.98,-683.493 220.963,-672.898 214.369,-681.191 220.98,-683.493"/>
</g>
<!-- TransSurface&#45;&gt;Option -->
<g id="edge226" class="edge"><title>TransSurface&#45;&gt;Option</title>
<path fill="none" stroke="black" d="M737.969,-1577.92C574.592,-1566.69 190,-1514.49 190,-1272 190,-1272 190,-1272 190,-1118 190,-886.895 352.282,-877.99 459,-673 501.635,-591.104 467.361,-535.947 543,-483 709.054,-366.762 2210.02,-349.627 2517.22,-347.331"/>
<polygon fill="black" stroke="black" points="2517.67,-350.828 2527.64,-347.256 2517.62,-343.829 2517.67,-350.828"/>
</g>
<!-- TransSurface&#45;&gt;Hml_List -->
<g id="edge234" class="edge"><title>TransSurface&#45;&gt;Hml_List</title>
<path fill="none" stroke="black" d="M757.378,-1568.51C695.824,-1551.19 595.092,-1513.91 538,-1445 351.132,-1219.45 403.598,-981.434 627,-792 755.138,-683.345 1287.75,-660.739 1471.97,-656.143"/>
<polygon fill="black" stroke="black" points="1472.13,-659.641 1482.04,-655.901 1471.96,-652.643 1472.13,-659.641"/>
</g>
<!-- TransSurface&#45;&gt;Log -->
<g id="edge228" class="edge"><title>TransSurface&#45;&gt;Log</title>
<path fill="none" stroke="black" d="M882.593,-1579.05C1066.09,-1572.7 1562.28,-1546.7 1961,-1445 2005.78,-1433.58 2312.11,-1320.31 2347,-1290 2413.59,-1232.16 2446,-1206.2 2446,-1118 2446,-1118 2446,-1118 2446,-964 2446,-858.649 2413.56,-736.395 2397.63,-682.698"/>
<polygon fill="black" stroke="black" points="2400.91,-681.463 2394.67,-672.897 2394.21,-683.482 2400.91,-681.463"/>
</g>
<!-- TransSurface&#45;&gt;Expressions -->
<g id="edge236" class="edge"><title>TransSurface&#45;&gt;Expressions</title>
<path fill="none" stroke="black" d="M827.329,-1563.5C878.858,-1511.47 1031.27,-1357.56 1091.3,-1296.94"/>
<polygon fill="black" stroke="black" points="1093.93,-1299.26 1098.48,-1289.69 1088.96,-1294.33 1093.93,-1299.26"/>
</g>
<!-- TransSurface&#45;&gt;KindCheck -->
<g id="edge232" class="edge"><title>TransSurface&#45;&gt;KindCheck</title>
<path fill="none" stroke="black" d="M790.958,-1563.33C761.235,-1535.76 703.746,-1482.43 670.157,-1451.27"/>
<polygon fill="black" stroke="black" points="672.278,-1448.46 662.567,-1444.22 667.517,-1453.59 672.278,-1448.46"/>
</g>
<!-- TransSurface&#45;&gt;Lexer -->
<g id="edge230" class="edge"><title>TransSurface&#45;&gt;Lexer</title>
<path fill="none" stroke="black" d="M813.991,-1562.6C825.282,-1510.52 857.509,-1361.89 870.974,-1299.79"/>
<polygon fill="black" stroke="black" points="874.416,-1300.44 873.114,-1289.92 867.575,-1298.95 874.416,-1300.44"/>
</g>
<!-- TransSurface&#45;&gt;Types -->
<g id="edge222" class="edge"><title>TransSurface&#45;&gt;Types</title>
<path fill="none" stroke="black" d="M805.306,-1562.81C792.789,-1510 763.815,-1354.06 829,-1254 891.713,-1157.74 959.379,-1193.23 1059,-1136 1147.87,-1084.94 1248.69,-1017.91 1297.84,-984.619"/>
<polygon fill="black" stroke="black" points="1299.81,-987.51 1306.12,-978.997 1295.88,-981.718 1299.81,-987.51"/>
</g>
<!-- TransSurface&#45;&gt;SurfaceSyntax -->
<g id="edge224" class="edge"><title>TransSurface&#45;&gt;SurfaceSyntax</title>
<path fill="none" stroke="black" d="M804.587,-1563.03C795.802,-1531.84 779.822,-1465.62 784,-1409 799.55,-1198.27 775.479,-1122.27 892,-946 925.308,-895.613 983.339,-855.291 1022.45,-832.007"/>
<polygon fill="black" stroke="black" points="1024.6,-834.805 1031.47,-826.739 1021.07,-828.76 1024.6,-834.805"/>
</g>
<!-- TransSurface&#45;&gt;Variable -->
<g id="edge218" class="edge"><title>TransSurface&#45;&gt;Variable</title>
<path fill="none" stroke="black" d="M741.465,-1574.6C595.523,-1559.7 260.468,-1518.24 176,-1445 64.7059,-1348.5 -0.797817,-925.25 62,-792 88.0103,-736.809 148.372,-696.289 188.683,-674.177"/>
<polygon fill="black" stroke="black" points="190.546,-677.149 197.713,-669.346 187.244,-670.977 190.546,-677.149"/>
</g>
<!-- Utils -->
<g id="node48" class="node"><title>Utils</title>
<ellipse fill="magenta" stroke="magenta" cx="1960" cy="-655" rx="32.157" ry="18"/>
<text text-anchor="middle" x="1960" y="-650.9" font-family="DejaVu Sans, Helvetica, sans" font-size="14.00"><a xlink:href="../doc/Utils.html" target="_parent">Utils</a></text>
</g>
<!-- TransSurface&#45;&gt;Utils -->
<g id="edge220" class="edge"><title>TransSurface&#45;&gt;Utils</title>
<path fill="none" stroke="black" d="M851.325,-1566.07C979.316,-1518.41 1376.55,-1359.86 1643,-1136 1776.08,-1024.19 1794.79,-977.176 1884,-828 1913.12,-779.311 1937.57,-717.46 1950.38,-682.446"/>
<polygon fill="black" stroke="black" points="1953.73,-683.495 1953.83,-672.9 1947.14,-681.118 1953.73,-683.495"/>
</g>
<!-- TypeChecker&#45;&gt;Option -->
<g id="edge202" class="edge"><title>TypeChecker&#45;&gt;Option</title>
<path fill="none" stroke="black" d="M1686.22,-1726.71C1836.61,-1706.63 2207.37,-1653.04 2320,-1599 2416.67,-1552.62 2800.03,-1224.73 2850,-1136 2994.53,-879.366 3133.66,-723.053 2963,-483 2922.52,-426.059 2718.02,-377.167 2621.97,-356.939"/>
<polygon fill="black" stroke="black" points="2622.42,-353.457 2611.91,-354.843 2620.99,-360.31 2622.42,-353.457"/>
</g>
<!-- TypeChecker&#45;&gt;Hml_List -->
<g id="edge208" class="edge"><title>TypeChecker&#45;&gt;Hml_List</title>
<path fill="none" stroke="black" d="M1616.7,-1716.59C1596.07,-1643.76 1521,-1368.48 1497,-1136 1495.36,-1120.08 1496.32,-1115.99 1497,-1100 1503.72,-942.27 1523.79,-753.946 1531.72,-683.468"/>
<polygon fill="black" stroke="black" points="1535.24,-683.522 1532.89,-673.191 1528.28,-682.733 1535.24,-683.522"/>
</g>
<!-- TypeChecker&#45;&gt;Log -->
<g id="edge206" class="edge"><title>TypeChecker&#45;&gt;Log</title>
<path fill="none" stroke="black" d="M1687.45,-1727.43C1833.57,-1709.6 2181.28,-1661.68 2280,-1599 2497.09,-1461.16 2545.72,-1379.97 2627,-1136 2689.24,-949.175 2486.48,-742.977 2413.87,-676.739"/>
<polygon fill="black" stroke="black" points="2415.85,-673.81 2406.08,-669.713 2411.16,-679.009 2415.85,-673.81"/>
</g>
<!-- TypeChecker&#45;&gt;Datacon -->
<g id="edge216" class="edge"><title>TypeChecker&#45;&gt;Datacon</title>
<path fill="none" stroke="black" d="M1554.77,-1728.54C1262.13,-1699.53 114,-1576.22 114,-1427 114,-1427 114,-1427 114,-1118 114,-923.047 299.513,-741.292 371.196,-678.338"/>
<polygon fill="black" stroke="black" points="373.705,-680.795 378.959,-671.595 369.114,-675.51 373.705,-680.795"/>
</g>
<!-- TypeChecker&#45;&gt;Expressions -->
<g id="edge214" class="edge"><title>TypeChecker&#45;&gt;Expressions</title>
<path fill="none" stroke="black" d="M1554.54,-1728.66C1469.42,-1717.19 1323.61,-1685.48 1236,-1599 1150.13,-1514.24 1125.22,-1362.97 1118.41,-1300.35"/>
<polygon fill="black" stroke="black" points="1121.85,-1299.66 1117.37,-1290.06 1114.89,-1300.36 1121.85,-1299.66"/>
</g>
<!-- TypeChecker&#45;&gt;FactInference -->
<g id="edge212" class="edge"><title>TypeChecker&#45;&gt;FactInference</title>
<path fill="none" stroke="black" d="M1657.52,-1719.25C1732.73,-1683.54 1905.67,-1588.23 1961,-1445 2001.16,-1341.05 1980.32,-1204.27 1968.42,-1146.11"/>
<polygon fill="black" stroke="black" points="1971.81,-1145.25 1966.32,-1136.19 1964.96,-1146.7 1971.81,-1145.25"/>
</g>
<!-- TypeChecker&#45;&gt;TypeErrors -->
<g id="edge194" class="edge"><title>TypeChecker&#45;&gt;TypeErrors</title>
<path fill="none" stroke="black" d="M1559.8,-1725.86C1490.14,-1711.94 1380.42,-1678.11 1330,-1599 1301.85,-1554.83 1317.34,-1490.65 1329.95,-1454.47"/>
<polygon fill="black" stroke="black" points="1333.25,-1455.65 1333.39,-1445.05 1326.67,-1453.24 1333.25,-1455.65"/>
</g>
<!-- TypeChecker&#45;&gt;Types -->
<g id="edge190" class="edge"><title>TypeChecker&#45;&gt;Types</title>
<path fill="none" stroke="black" d="M1615.1,-1716.96C1605.13,-1690.92 1586.14,-1641.27 1570,-1599 1480.25,-1363.9 1372.05,-1079.73 1338.46,-991.478"/>
<polygon fill="black" stroke="black" points="1341.65,-990.033 1334.83,-981.933 1335.11,-992.524 1341.65,-990.033"/>
</g>
<!-- TypeChecker&#45;&gt;SurfaceSyntax -->
<g id="edge196" class="edge"><title>TypeChecker&#45;&gt;SurfaceSyntax</title>
<path fill="none" stroke="black" d="M1563.65,-1724.44C1494.32,-1708.9 1379.66,-1673.26 1313,-1599 1285.84,-1568.75 1111.26,-975.157 1071.19,-838.077"/>
<polygon fill="black" stroke="black" points="1074.5,-836.928 1068.34,-828.311 1067.78,-838.891 1074.5,-836.928"/>
</g>
<!-- TypeChecker&#45;&gt;Variable -->
<g id="edge186" class="edge"><title>TypeChecker&#45;&gt;Variable</title>
<path fill="none" stroke="black" d="M1549.99,-1733.27C1363.25,-1727.39 849.188,-1702.29 436,-1599 233.908,-1548.48 0,-1635.31 0,-1427 0,-1427 0,-1427 0,-964 0,-884.869 1.7491,-857.602 46,-792 82.3929,-738.048 147.199,-696.85 188.853,-674.301"/>
<polygon fill="black" stroke="black" points="190.693,-677.288 197.885,-669.508 187.411,-671.105 190.693,-677.288"/>
</g>
<!-- TypeChecker&#45;&gt;Utils -->
<g id="edge188" class="edge"><title>TypeChecker&#45;&gt;Utils</title>
<path fill="none" stroke="black" d="M1688.34,-1727.94C1830.98,-1711.62 2160.97,-1667.35 2248,-1599 2307.87,-1551.98 2305.9,-1519.18 2323,-1445 2391.74,-1146.85 2294.74,-1032.03 2105,-792 2068.92,-746.358 2017.76,-701.624 1986.84,-676.26"/>
<polygon fill="black" stroke="black" points="1989.03,-673.53 1979.06,-669.938 1984.61,-678.961 1989.03,-673.53"/>
</g>
<!-- Options -->
<g id="node54" class="node"><title>Options</title>
<ellipse fill="#eead0e" stroke="#eead0e" cx="2246" cy="-1427" rx="48.1403" ry="18"/>
<text text-anchor="middle" x="2246" y="-1422.9" font-family="DejaVu Sans, Helvetica, sans" font-size="14.00"><a xlink:href="../doc/Options.html" target="_parent">Options</a></text>
</g>
<!-- TypeChecker&#45;&gt;Options -->
<g id="edge200" class="edge"><title>TypeChecker&#45;&gt;Options</title>
<path fill="none" stroke="black" d="M1686.82,-1727.08C1818.38,-1709.8 2110.53,-1664.9 2184,-1599 2225.9,-1561.42 2239.5,-1493.37 2243.9,-1455.1"/>
<polygon fill="black" stroke="black" points="2247.39,-1455.45 2244.92,-1445.14 2240.42,-1454.74 2247.39,-1455.45"/>
</g>
<!-- Permissions -->
<g id="node94" class="node"><title>Permissions</title>
<ellipse fill="green" stroke="green" cx="2123" cy="-1272" rx="66.9043" ry="18"/>
<text text-anchor="middle" x="2123" y="-1267.9" font-family="DejaVu Sans, Helvetica, sans" font-size="14.00"><a xlink:href="../doc/Permissions.html" target="_parent">Permissions</a></text>
</g>
<!-- TypeChecker&#45;&gt;Permissions -->
<g id="edge198" class="edge"><title>TypeChecker&#45;&gt;Permissions</title>
<path fill="none" stroke="black" d="M1685.95,-1726.72C1820.62,-1708.27 2127.97,-1660.5 2212,-1599 2287.56,-1543.7 2344.58,-1492.89 2303,-1409 2275.14,-1352.78 2211.94,-1313.37 2168.36,-1291.69"/>
<polygon fill="black" stroke="black" points="2169.64,-1288.41 2159.11,-1287.2 2166.58,-1294.71 2169.64,-1288.41"/>
</g>
<!-- TypeOps -->
<g id="node111" class="node"><title>TypeOps</title>
<ellipse fill="green" stroke="green" cx="1900" cy="-1427" rx="52.1162" ry="18"/>
<text text-anchor="middle" x="1900" y="-1422.9" font-family="DejaVu Sans, Helvetica, sans" font-size="14.00"><a xlink:href="../doc/TypeOps.html" target="_parent">TypeOps</a></text>
</g>
<!-- TypeChecker&#45;&gt;TypeOps -->
<g id="edge192" class="edge"><title>TypeChecker&#45;&gt;TypeOps</title>
<path fill="none" stroke="black" d="M1648.85,-1718.12C1684.87,-1694.57 1749.47,-1649.06 1794,-1599 1834.7,-1553.25 1869.19,-1489.9 1887.01,-1454.24"/>
<polygon fill="black" stroke="black" points="1890.3,-1455.47 1891.58,-1444.95 1884.02,-1452.38 1890.3,-1455.47"/>
</g>
<!-- TypeChecker&#45;&gt;Flexible -->
<g id="edge210" class="edge"><title>TypeChecker&#45;&gt;Flexible</title>
<path fill="none" stroke="black" d="M1621.16,-1716.93C1618.74,-1667.52 1611.14,-1526.02 1598,-1409 1587.12,-1312.06 1568,-1197.86 1558.98,-1146.06"/>
<polygon fill="black" stroke="black" points="1562.38,-1145.23 1557.21,-1135.99 1555.49,-1146.44 1562.38,-1145.23"/>
</g>
<!-- Merge -->
<g id="node138" class="node"><title>Merge</title>
<ellipse fill="green" stroke="green" cx="1744" cy="-1581" rx="40.9981" ry="18"/>
<text text-anchor="middle" x="1744" y="-1576.9" font-family="DejaVu Sans, Helvetica, sans" font-size="14.00"><a xlink:href="../doc/Merge.html" target="_parent">Merge</a></text>
</g>
<!-- TypeChecker&#45;&gt;Merge -->
<g id="edge204" class="edge"><title>TypeChecker&#45;&gt;Merge</title>
<path fill="none" stroke="black" d="M1635.99,-1717.33C1657.6,-1690.06 1699.16,-1637.6 1723.95,-1606.31"/>
<polygon fill="black" stroke="black" points="1726.7,-1608.47 1730.17,-1598.46 1721.22,-1604.12 1726.7,-1608.47"/>
</g>
<!-- TypeErrors&#45;&gt;Log -->
<g id="edge148" class="edge"><title>TypeErrors&#45;&gt;Log</title>
<path fill="none" stroke="black" d="M1403.8,-1425.29C1580.91,-1419.23 2079.33,-1393.18 2199,-1290 2388.2,-1126.88 2393.15,-783.774 2390.28,-683.244"/>
<polygon fill="black" stroke="black" points="2393.78,-683.119 2389.94,-673.242 2386.78,-683.354 2393.78,-683.119"/>
</g>
<!-- TypeErrors&#45;&gt;Datacon -->
<g id="edge154" class="edge"><title>TypeErrors&#45;&gt;Datacon</title>
<path fill="none" stroke="black" d="M1305.81,-1411.85C1249.15,-1387.27 1134.39,-1336.74 1039,-1290 811.716,-1178.63 728.577,-1170.79 560,-982 505.645,-921.127 496.044,-901.218 460,-828 435.844,-778.931 416.646,-717.843 406.625,-682.943"/>
<polygon fill="black" stroke="black" points="409.901,-681.667 403.814,-672.995 403.165,-683.57 409.901,-681.667"/>
</g>
<!-- TypeErrors&#45;&gt;Expressions -->
<g id="edge152" class="edge"><title>TypeErrors&#45;&gt;Expressions</title>
<path fill="none" stroke="black" d="M1316.49,-1410.12C1275.83,-1382.11 1194.4,-1326.01 1148.82,-1294.61"/>
<polygon fill="black" stroke="black" points="1150.7,-1291.65 1140.48,-1288.86 1146.73,-1297.42 1150.7,-1291.65"/>
</g>
<!-- TypeErrors&#45;&gt;Lexer -->
<g id="edge150" class="edge"><title>TypeErrors&#45;&gt;Lexer</title>
<path fill="none" stroke="black" d="M1299.82,-1413.24C1211.84,-1383.85 1006.35,-1315.21 918.277,-1285.79"/>
<polygon fill="black" stroke="black" points="919.224,-1282.41 908.63,-1282.57 917.006,-1289.05 919.224,-1282.41"/>
</g>
<!-- TypeErrors&#45;&gt;Types -->
<g id="edge144" class="edge"><title>TypeErrors&#45;&gt;Types</title>
<path fill="none" stroke="black" d="M1337.53,-1408.95C1328.43,-1359.57 1305.08,-1218.06 1312,-1100 1314.2,-1062.5 1319.78,-1019.47 1323.73,-992.034"/>
<polygon fill="black" stroke="black" points="1327.22,-992.382 1325.2,-981.98 1320.29,-991.366 1327.22,-992.382"/>
</g>
<!-- TypeErrors&#45;&gt;Permissions -->
<g id="edge146" class="edge"><title>TypeErrors&#45;&gt;Permissions</title>
<path fill="none" stroke="black" d="M1392.91,-1416.71C1531.14,-1389.31 1907.83,-1314.65 2058.98,-1284.69"/>
<polygon fill="black" stroke="black" points="2059.91,-1288.07 2069.04,-1282.7 2058.55,-1281.21 2059.91,-1288.07"/>
</g>
<!-- Variance&#45;&gt;Log -->
<g id="edge282" class="edge"><title>Variance&#45;&gt;Log</title>
<path fill="none" stroke="black" d="M2564.21,-1099.77C2561.38,-1048.74 2549.03,-901.131 2498,-792 2476.77,-746.588 2437.65,-702.823 2412.5,-677.434"/>
<polygon fill="black" stroke="black" points="2414.75,-674.727 2405.18,-670.163 2409.81,-679.694 2414.75,-674.727"/>
</g>
<!-- Variance&#45;&gt;Types -->
<g id="edge280" class="edge"><title>Variance&#45;&gt;Types</title>
<path fill="none" stroke="black" d="M2514.98,-1111.77C2314.71,-1086.84 1572.16,-994.396 1375.86,-969.958"/>
<polygon fill="black" stroke="black" points="1376.21,-966.474 1365.85,-968.712 1375.34,-973.421 1376.21,-966.474"/>
</g>
<!-- Types&#45;&gt;Option -->
<g id="edge104" class="edge"><title>Types&#45;&gt;Option</title>
<path fill="none" stroke="black" d="M1312.97,-946.838C1287.23,-915.242 1239.98,-846.148 1267,-792 1318.16,-689.479 1372.61,-692.232 1473,-637 1839.69,-435.254 2353.13,-368.742 2518.46,-351.862"/>
<polygon fill="black" stroke="black" points="2519.25,-355.301 2528.85,-350.821 2518.55,-348.336 2519.25,-355.301"/>
</g>
<!-- Types&#45;&gt;Hml_Pprint -->
<g id="edge110" class="edge"><title>Types&#45;&gt;Hml_Pprint</title>
<path fill="none" stroke="black" d="M1359.7,-953.293C1437.54,-927.008 1638.57,-859.115 1733.25,-827.138"/>
<polygon fill="black" stroke="black" points="1734.54,-830.397 1742.9,-823.881 1732.3,-823.765 1734.54,-830.397"/>
</g>
<!-- Types&#45;&gt;Hml_List -->
<g id="edge114" class="edge"><title>Types&#45;&gt;Hml_List</title>
<path fill="none" stroke="black" d="M1351.66,-949.49C1385.68,-927.422 1448.16,-882.207 1483,-828 1512.35,-782.335 1525.79,-719.331 1531.41,-683.313"/>
<polygon fill="black" stroke="black" points="1534.92,-683.451 1532.91,-673.05 1528,-682.437 1534.92,-683.451"/>
</g>
<!-- Types&#45;&gt;Bash -->
<g id="edge118" class="edge"><title>Types&#45;&gt;Bash</title>
<path fill="none" stroke="black" d="M1350.5,-949.12C1453.59,-880.934 1880.82,-598.346 1998.1,-520.775"/>
<polygon fill="black" stroke="black" points="2000.22,-523.573 2006.63,-515.137 1996.35,-517.735 2000.22,-523.573"/>
</g>
<!-- Types&#45;&gt;Hml_Map -->
<g id="edge112" class="edge"><title>Types&#45;&gt;Hml_Map</title>
<path fill="none" stroke="black" d="M1328.36,-945.729C1328.87,-919.217 1329.83,-869.833 1330.44,-838.507"/>
<polygon fill="black" stroke="black" points="1333.95,-838.313 1330.64,-828.247 1326.95,-838.177 1333.95,-838.313"/>
</g>
<!-- Types&#45;&gt;Log -->
<g id="edge108" class="edge"><title>Types&#45;&gt;Log</title>
<path fill="none" stroke="black" d="M1356.09,-951.337C1443.69,-911.847 1706.38,-793.485 1711,-792 1948.66,-715.678 2247.37,-672.976 2351.31,-659.615"/>
<polygon fill="black" stroke="black" points="2351.84,-663.076 2361.31,-658.342 2350.95,-656.132 2351.84,-663.076"/>
</g>
<!-- Types&#45;&gt;Datacon -->
<g id="edge116" class="edge"><title>Types&#45;&gt;Datacon</title>
<path fill="none" stroke="black" d="M1319.07,-946.369C1300,-910.701 1251.62,-830.139 1186,-792 1061.41,-719.586 620.491,-674.46 458.914,-660.038"/>
<polygon fill="black" stroke="black" points="458.951,-656.527 448.681,-659.132 458.334,-663.5 458.951,-656.527"/>
</g>
<!-- Types&#45;&gt;SurfaceSyntax -->
<g id="edge100" class="edge"><title>Types&#45;&gt;SurfaceSyntax</title>
<path fill="none" stroke="black" d="M1303.54,-949.788C1257.18,-922.844 1156.2,-864.162 1100.96,-832.062"/>
<polygon fill="black" stroke="black" points="1102.59,-828.957 1092.18,-826.958 1099.07,-835.009 1102.59,-828.957"/>
</g>
<!-- Types&#45;&gt;Variable -->
<g id="edge98" class="edge"><title>Types&#45;&gt;Variable</title>
<path fill="none" stroke="black" d="M1310.16,-947.61C1282.89,-922.412 1229.45,-872.408 1186,-828 1170.82,-812.485 1172.18,-802.158 1153,-792 829.885,-620.895 700.354,-728.709 339,-673 321.016,-670.227 301.413,-667.088 283.755,-664.216"/>
<polygon fill="black" stroke="black" points="284.042,-660.716 273.609,-662.56 282.915,-667.625 284.042,-660.716"/>
</g>
<!-- PersistentUnionFind -->
<g id="node81" class="node"><title>PersistentUnionFind</title>
<ellipse fill="green" stroke="green" cx="743" cy="-810" rx="107.206" ry="18"/>
<text text-anchor="middle" x="743" y="-805.9" font-family="DejaVu Sans, Helvetica, sans" font-size="14.00"><a xlink:href="../doc/PersistentUnionFind.html" target="_parent">PersistentUnionFind</a></text>
</g>
<!-- Types&#45;&gt;PersistentUnionFind -->
<g id="edge102" class="edge"><title>Types&#45;&gt;PersistentUnionFind</title>
<path fill="none" stroke="black" d="M1294.02,-955.055C1200.12,-930.335 935.781,-860.749 810.49,-827.767"/>
<polygon fill="black" stroke="black" points="811.184,-824.33 800.623,-825.169 809.402,-831.1 811.184,-824.33"/>
</g>
<!-- Mark -->
<g id="node84" class="node"><title>Mark</title>
<ellipse fill="green" stroke="green" cx="1439" cy="-810" rx="34.9399" ry="18"/>
<text text-anchor="middle" x="1439" y="-805.9" font-family="DejaVu Sans, Helvetica, sans" font-size="14.00"><a xlink:href="../doc/Mark.html" target="_parent">Mark</a></text>
</g>
<!-- Types&#45;&gt;Mark -->
<g id="edge106" class="edge"><title>Types&#45;&gt;Mark</title>
<path fill="none" stroke="black" d="M1340.52,-946.634C1360.11,-919.455 1398.11,-866.735 1420.75,-835.324"/>
<polygon fill="black" stroke="black" points="1423.69,-837.227 1426.7,-827.068 1418.01,-833.134 1423.69,-837.227"/>
</g>
<!-- SurfaceSyntax&#45;&gt;Hml_List -->
<g id="edge52" class="edge"><title>SurfaceSyntax&#45;&gt;Hml_List</title>
<path fill="none" stroke="black" d="M1108.69,-794.997C1198.2,-765.602 1395.87,-700.69 1487.12,-670.724"/>
<polygon fill="black" stroke="black" points="1488.25,-674.036 1496.66,-667.591 1486.07,-667.386 1488.25,-674.036"/>
</g>
<!-- SurfaceSyntax&#45;&gt;Log -->
<g id="edge50" class="edge"><title>SurfaceSyntax&#45;&gt;Log</title>
<path fill="none" stroke="black" d="M1134.76,-801.612C1378.34,-773.139 2168.51,-680.774 2351.1,-659.43"/>
<polygon fill="black" stroke="black" points="2351.76,-662.877 2361.28,-658.24 2350.94,-655.925 2351.76,-662.877"/>
</g>
<!-- SurfaceSyntax&#45;&gt;Datacon -->
<g id="edge54" class="edge"><title>SurfaceSyntax&#45;&gt;Datacon</title>
<path fill="none" stroke="black" d="M1006.96,-796.918C880.602,-767.422 574.934,-696.069 451.753,-667.314"/>
<polygon fill="black" stroke="black" points="452.339,-663.857 441.805,-664.992 450.747,-670.674 452.339,-663.857"/>
</g>
<!-- SurfaceSyntax&#45;&gt;Variable -->
<g id="edge46" class="edge"><title>SurfaceSyntax&#45;&gt;Variable</title>
<path fill="none" stroke="black" d="M1000.58,-798.413C843.098,-769.18 431.606,-692.795 282.747,-665.163"/>
<polygon fill="black" stroke="black" points="283.379,-661.72 272.909,-663.336 282.102,-668.603 283.379,-661.72"/>
</g>
<!-- SurfaceSyntax&#45;&gt;Utils -->
<g id="edge48" class="edge"><title>SurfaceSyntax&#45;&gt;Utils</title>
<path fill="none" stroke="black" d="M1127.15,-798.915C1300.84,-768.902 1776.75,-686.666 1919.19,-662.051"/>
<polygon fill="black" stroke="black" points="1919.99,-665.465 1929.25,-660.313 1918.8,-658.567 1919.99,-665.465"/>
</g>
<!-- Variable&#45;&gt;Identifier -->
<g id="edge64" class="edge"><title>Variable&#45;&gt;Identifier</title>
<path fill="none" stroke="black" d="M246.19,-638.226C275.851,-610.874 334.745,-556.565 368.875,-525.091"/>
<polygon fill="black" stroke="black" points="371.6,-527.34 376.578,-517.988 366.854,-522.194 371.6,-527.34"/>
</g>
<!-- Hashcons&#45;&gt;InfiniteArray -->
<g id="edge56" class="edge"><title>Hashcons&#45;&gt;InfiniteArray</title>
<path fill="none" stroke="black" d="M353,-328.729C353,-302.217 353,-252.833 353,-221.507"/>
<polygon fill="black" stroke="black" points="356.5,-221.247 353,-211.247 349.5,-221.247 356.5,-221.247"/>
</g>
<!-- Patricia&#45;&gt;GMap -->
<g id="edge66" class="edge"><title>Patricia&#45;&gt;GMap</title>
<path fill="none" stroke="black" d="M511.102,-328.729C508.347,-302.217 503.216,-252.833 499.962,-221.507"/>
<polygon fill="black" stroke="black" points="503.411,-220.832 498.896,-211.247 496.448,-221.555 503.411,-220.832"/>
</g>
<!-- GSet -->
<g id="node62" class="node"><title>GSet</title>
<ellipse fill="cyan" stroke="cyan" cx="497" cy="-39" rx="34.9399" ry="18"/>
<text text-anchor="middle" x="497" y="-34.9" font-family="DejaVu Sans, Helvetica, sans" font-size="14.00"><a xlink:href="../doc/GSet.html" target="_parent">GSet</a></text>
</g>
<!-- GMap&#45;&gt;GSet -->
<g id="edge68" class="edge"><title>GMap&#45;&gt;GSet</title>
<path fill="none" stroke="black" d="M497,-174.729C497,-148.217 497,-98.8331 497,-67.507"/>
<polygon fill="black" stroke="black" points="500.5,-67.2468 497,-57.2468 493.5,-67.2468 500.5,-67.2468"/>
</g>
<!-- PersistentRef -->
<g id="node91" class="node"><title>PersistentRef</title>
<ellipse fill="green" stroke="green" cx="626" cy="-501" rx="73.8534" ry="18"/>
<text text-anchor="middle" x="626" y="-496.9" font-family="DejaVu Sans, Helvetica, sans" font-size="14.00"><a xlink:href="../doc/PersistentRef.html" target="_parent">PersistentRef</a></text>
</g>
<!-- PersistentUnionFind&#45;&gt;PersistentRef -->
<g id="edge122" class="edge"><title>PersistentUnionFind&#45;&gt;PersistentRef</title>
<path fill="none" stroke="black" d="M736.032,-791.596C716.319,-739.536 660.07,-590.979 636.545,-528.849"/>
<polygon fill="black" stroke="black" points="639.746,-527.42 632.932,-519.308 633.2,-529.899 639.746,-527.42"/>
</g>
<!-- PersistentRef&#45;&gt;Patricia -->
<g id="edge120" class="edge"><title>PersistentRef&#45;&gt;Patricia</title>
<path fill="none" stroke="black" d="M612.816,-483.033C592.807,-455.764 554.684,-403.808 531.782,-372.596"/>
<polygon fill="black" stroke="black" points="534.491,-370.372 525.753,-364.38 528.847,-374.513 534.491,-370.372"/>
</g>
<!-- Permissions&#45;&gt;Option -->
<g id="edge136" class="edge"><title>Permissions&#45;&gt;Option</title>
<path fill="none" stroke="black" d="M2183.55,-1264.2C2304.47,-1247.33 2569.2,-1203.43 2627,-1136 2677.05,-1077.61 2646,-1040.91 2646,-964 2646,-964 2646,-964 2646,-655 2646,-548.83 2603.92,-427.628 2583.22,-374.447"/>
<polygon fill="black" stroke="black" points="2586.43,-373.049 2579.5,-365.034 2579.92,-375.621 2586.43,-373.049"/>
</g>
<!-- Permissions&#45;&gt;Hml_List -->
<g id="edge130" class="edge"><title>Permissions&#45;&gt;Hml_List</title>
<path fill="none" stroke="black" d="M2120.36,-1253.94C2115.19,-1221.77 2101.99,-1152.98 2077,-1100 2005.23,-947.856 1988.19,-897.307 1857,-792 1774.99,-726.164 1656.65,-686.721 1588.62,-668.081"/>
<polygon fill="black" stroke="black" points="1589.11,-664.59 1578.55,-665.374 1587.3,-671.35 1589.11,-664.59"/>
</g>
<!-- Permissions&#45;&gt;Bash -->
<g id="edge124" class="edge"><title>Permissions&#45;&gt;Bash</title>
<path fill="none" stroke="black" d="M2127.82,-1253.69C2134.39,-1227.74 2145.81,-1178.64 2150,-1136 2151.57,-1120.08 2150.73,-1115.98 2150,-1100 2146.89,-1031.34 2147.25,-1013.8 2136,-946 2109.46,-785.986 2056.62,-598.375 2036.27,-528.792"/>
<polygon fill="black" stroke="black" points="2039.57,-527.635 2033.39,-519.029 2032.86,-529.61 2039.57,-527.635"/>
</g>
<!-- Permissions&#45;&gt;Hml_String -->
<g id="edge132" class="edge"><title>Permissions&#45;&gt;Hml_String</title>
<path fill="none" stroke="black" d="M2183.28,-1263.92C2308.2,-1246.07 2589.59,-1199.73 2660,-1136 2848.31,-965.544 2882.62,-628.868 2888.72,-529.343"/>
<polygon fill="black" stroke="black" points="2892.22,-529.352 2889.29,-519.171 2885.23,-528.958 2892.22,-529.352"/>
</g>
<!-- Permissions&#45;&gt;Log -->
<g id="edge134" class="edge"><title>Permissions&#45;&gt;Log</title>
<path fill="none" stroke="black" d="M2133.22,-1253.8C2147.55,-1227.97 2174.1,-1179.03 2194,-1136 2272.39,-966.495 2351.66,-756.19 2379.01,-682.243"/>
<polygon fill="black" stroke="black" points="2382.34,-683.325 2382.52,-672.732 2375.77,-680.902 2382.34,-683.325"/>
</g>
<!-- Permissions&#45;&gt;Datacon -->
<g id="edge126" class="edge"><title>Permissions&#45;&gt;Datacon</title>
<path fill="none" stroke="black" d="M2056.08,-1270.49C1829.01,-1264.5 1090.27,-1237.45 879,-1136 651.949,-1026.97 469.762,-765.258 415.524,-681.358"/>
<polygon fill="black" stroke="black" points="418.311,-679.22 409.969,-672.69 412.418,-682.998 418.311,-679.22"/>
</g>
<!-- Permissions&#45;&gt;FactInference -->
<g id="edge128" class="edge"><title>Permissions&#45;&gt;FactInference</title>
<path fill="none" stroke="black" d="M2104.84,-1254.63C2076.22,-1227.25 2020.49,-1173.95 1987.74,-1142.62"/>
<polygon fill="black" stroke="black" points="1989.98,-1139.92 1980.34,-1135.54 1985.14,-1144.98 1989.98,-1139.92"/>
</g>
<!-- Permissions&#45;&gt;Types -->
<g id="edge142" class="edge"><title>Permissions&#45;&gt;Types</title>
<path fill="none" stroke="black" d="M2120.56,-1253.82C2114.77,-1218.25 2096.74,-1139.47 2047,-1100 1942.03,-1016.69 1521.77,-978.33 1377.17,-967.411"/>
<polygon fill="black" stroke="black" points="1377.07,-963.894 1366.84,-966.642 1376.55,-970.875 1377.07,-963.894"/>
</g>
<!-- Permissions&#45;&gt;Variable -->
<g id="edge140" class="edge"><title>Permissions&#45;&gt;Variable</title>
<path fill="none" stroke="black" d="M2055.91,-1270.97C1861.17,-1266.7 1280.04,-1245.05 813,-1136 621.419,-1091.27 555.276,-1100.19 398,-982 295.036,-904.625 248.887,-746.755 233.866,-682.816"/>
<polygon fill="black" stroke="black" points="237.273,-682.015 231.642,-673.041 230.448,-683.568 237.273,-682.015"/>
</g>
<!-- Permissions&#45;&gt;Utils -->
<g id="edge138" class="edge"><title>Permissions&#45;&gt;Utils</title>
<path fill="none" stroke="black" d="M2125.69,-1253.93C2132.5,-1203.92 2147.86,-1059.89 2118,-946 2089.94,-838.944 2014.73,-728.334 1979.15,-680.059"/>
<polygon fill="black" stroke="black" points="1981.77,-677.716 1972.99,-671.785 1976.16,-681.896 1981.77,-677.716"/>
</g>
<!-- TypeOps&#45;&gt;Option -->
<g id="edge160" class="edge"><title>TypeOps&#45;&gt;Option</title>
<path fill="none" stroke="black" d="M1943.47,-1417.1C2091.04,-1382.5 2568.27,-1262.23 2651,-1136 2810.11,-893.214 2722.91,-760.583 2638,-483 2625.78,-443.039 2603.23,-400.175 2587.92,-373.479"/>
<polygon fill="black" stroke="black" points="2590.89,-371.626 2582.84,-364.741 2584.84,-375.145 2590.89,-371.626"/>
</g>
<!-- TypeOps&#45;&gt;Log -->
<g id="edge162" class="edge"><title>TypeOps&#45;&gt;Log</title>
<path fill="none" stroke="black" d="M1949.17,-1420.79C2076.66,-1401.66 2408,-1331.43 2408,-1118 2408,-1118 2408,-1118 2408,-964 2408,-860.417 2397.23,-737.67 2391.91,-683.318"/>
<polygon fill="black" stroke="black" points="2395.36,-682.692 2390.89,-673.087 2388.4,-683.384 2395.36,-682.692"/>
</g>
<!-- TypeOps&#45;&gt;Expressions -->
<g id="edge168" class="edge"><title>TypeOps&#45;&gt;Expressions</title>
<path fill="none" stroke="black" d="M1854.75,-1418.05C1722.25,-1391.86 1334.78,-1315.25 1180.48,-1284.75"/>
<polygon fill="black" stroke="black" points="1181.15,-1281.31 1170.66,-1282.81 1179.79,-1288.18 1181.15,-1281.31"/>
</g>
<!-- TypeOps&#45;&gt;FactInference -->
<g id="edge166" class="edge"><title>TypeOps&#45;&gt;FactInference</title>
<path fill="none" stroke="black" d="M1903.69,-1408.6C1914.12,-1356.64 1943.82,-1208.59 1956.33,-1146.23"/>
<polygon fill="black" stroke="black" points="1959.79,-1146.8 1958.33,-1136.31 1952.93,-1145.42 1959.79,-1146.8"/>
</g>
<!-- TypeOps&#45;&gt;Types -->
<g id="edge156" class="edge"><title>TypeOps&#45;&gt;Types</title>
<path fill="none" stroke="black" d="M1888.17,-1409.18C1852.15,-1356.04 1738.51,-1196.43 1611,-1100 1533.73,-1041.57 1427.36,-998.72 1369.53,-977.981"/>
<polygon fill="black" stroke="black" points="1370.59,-974.644 1359.99,-974.605 1368.25,-981.242 1370.59,-974.644"/>
</g>
<!-- TypeOps&#45;&gt;Permissions -->
<g id="edge158" class="edge"><title>TypeOps&#45;&gt;Permissions</title>
<path fill="none" stroke="black" d="M1923.44,-1410.71C1963.36,-1382.96 2044.63,-1326.47 2090.18,-1294.81"/>
<polygon fill="black" stroke="black" points="2092.31,-1297.6 2098.52,-1289.01 2088.31,-1291.85 2092.31,-1297.6"/>
</g>
<!-- TypeOps&#45;&gt;Flexible -->
<g id="edge164" class="edge"><title>TypeOps&#45;&gt;Flexible</title>
<path fill="none" stroke="black" d="M1880.9,-1409.95C1822.64,-1357.91 1647.04,-1201.09 1580.21,-1141.41"/>
<polygon fill="black" stroke="black" points="1582.4,-1138.67 1572.61,-1134.62 1577.74,-1143.9 1582.4,-1138.67"/>
</g>
<!-- Flexible&#45;&gt;Hml_List -->
<g id="edge278" class="edge"><title>Flexible&#45;&gt;Hml_List</title>
<path fill="none" stroke="black" d="M1554.87,-1099.95C1557.06,-1050.57 1562.09,-909.161 1554,-792 1551.39,-754.145 1544.76,-710.823 1540.07,-683.207"/>
<polygon fill="black" stroke="black" points="1543.47,-682.345 1538.32,-673.089 1536.58,-683.539 1543.47,-682.345"/>
</g>
<!-- Flexible&#45;&gt;Types -->
<g id="edge276" class="edge"><title>Flexible&#45;&gt;Types</title>
<path fill="none" stroke="black" d="M1530.67,-1102.1C1489.45,-1074.02 1403.82,-1015.67 1358.18,-984.564"/>
<polygon fill="black" stroke="black" points="1360.11,-981.644 1349.87,-978.905 1356.17,-987.428 1360.11,-981.644"/>
</g>
<!-- Flexible&#45;&gt;Variable -->
<g id="edge272" class="edge"><title>Flexible&#45;&gt;Variable</title>
<path fill="none" stroke="black" d="M1515.09,-1107.43C1386.74,-1072.21 965.615,-953.971 627,-828 492.908,-778.115 338.714,-707.293 267.647,-673.862"/>
<polygon fill="black" stroke="black" points="269.124,-670.689 258.586,-669.59 266.139,-677.02 269.124,-670.689"/>
</g>
<!-- Flexible&#45;&gt;Utils -->
<g id="edge274" class="edge"><title>Flexible&#45;&gt;Utils</title>
<path fill="none" stroke="black" d="M1574.6,-1101.66C1626.34,-1059.94 1764.28,-944.516 1857,-828 1895.1,-780.123 1929.25,-716.836 1947.04,-681.597"/>
<polygon fill="black" stroke="black" points="1950.28,-682.948 1951.62,-672.437 1944.02,-679.82 1950.28,-682.948"/>
</g>
<!-- Merge&#45;&gt;Option -->
<g id="edge252" class="edge"><title>Merge&#45;&gt;Option</title>
<path fill="none" stroke="black" d="M1776.46,-1569.82C1840.48,-1547.56 1987.25,-1495.49 2108,-1445 2145.75,-1429.22 2406.28,-1309.95 2442,-1290 2550.38,-1229.48 2594.91,-1230.84 2675,-1136 2774.92,-1017.69 2798,-964.859 2798,-810 2798,-810 2798,-810 2798,-655 2798,-525.145 2665.81,-413.759 2603.62,-368.548"/>
<polygon fill="black" stroke="black" points="2605.5,-365.59 2595.33,-362.613 2601.43,-371.281 2605.5,-365.59"/>
</g>
<!-- Merge&#45;&gt;Hml_Pprint -->
<g id="edge256" class="edge"><title>Merge&#45;&gt;Hml_Pprint</title>
<path fill="none" stroke="black" d="M1746.21,-1562.99C1749.32,-1536.98 1754.95,-1487.38 1758,-1445 1774.82,-1211 1781.64,-927.64 1783.46,-838.35"/>
<polygon fill="black" stroke="black" points="1786.96,-838.276 1783.67,-828.208 1779.97,-838.136 1786.96,-838.276"/>
</g>
<!-- Merge&#45;&gt;Hml_List -->
<g id="edge258" class="edge"><title>Merge&#45;&gt;Hml_List</title>
<path fill="none" stroke="black" d="M1740.16,-1562.9C1721.85,-1476.75 1641.29,-1099.67 1569,-792 1560.1,-754.134 1549.17,-710.558 1542.14,-682.909"/>
<polygon fill="black" stroke="black" points="1545.51,-681.964 1539.65,-673.137 1538.73,-683.691 1545.51,-681.964"/>
</g>
<!-- Merge&#45;&gt;Log -->
<g id="edge254" class="edge"><title>Merge&#45;&gt;Log</title>
<path fill="none" stroke="black" d="M1777.19,-1570.23C1837.58,-1549.98 1968.58,-1502.98 2070,-1445 2093.15,-1431.76 2094.46,-1421.53 2118,-1409 2260.06,-1333.38 2357.89,-1414.4 2460,-1290 2508.97,-1230.34 2484,-1195.19 2484,-1118 2484,-1118 2484,-1118 2484,-964 2484,-886.815 2483.43,-865.544 2460,-792 2446.91,-750.9 2422.2,-707.304 2405.66,-680.611"/>
<polygon fill="black" stroke="black" points="2408.47,-678.508 2400.19,-671.906 2402.55,-682.234 2408.47,-678.508"/>
</g>
<!-- Merge&#45;&gt;Datacon -->
<g id="edge264" class="edge"><title>Merge&#45;&gt;Datacon</title>
<path fill="none" stroke="black" d="M1703.63,-1577.55C1499.29,-1559.96 586.775,-1479.69 538,-1445 346.952,-1309.13 364.717,-1180.43 367,-946 367.667,-877.546 362.21,-860.013 370,-792 374.391,-753.662 384.485,-710.2 391.522,-682.705"/>
<polygon fill="black" stroke="black" points="394.918,-683.552 394.051,-672.993 388.144,-681.788 394.918,-683.552"/>
</g>
<!-- Merge&#45;&gt;FactInference -->
<g id="edge262" class="edge"><title>Merge&#45;&gt;FactInference</title>
<path fill="none" stroke="black" d="M1752.41,-1563.13C1785.79,-1492.24 1909.03,-1230.51 1949.23,-1145.13"/>
<polygon fill="black" stroke="black" points="1952.4,-1146.6 1953.5,-1136.06 1946.07,-1143.62 1952.4,-1146.6"/>
</g>
<!-- Merge&#45;&gt;TypeErrors -->
<g id="edge244" class="edge"><title>Merge&#45;&gt;TypeErrors</title>
<path fill="none" stroke="black" d="M1713.05,-1569.17C1643.02,-1542.41 1472.03,-1477.07 1388.5,-1445.15"/>
<polygon fill="black" stroke="black" points="1389.59,-1441.82 1379,-1441.52 1387.09,-1448.36 1389.59,-1441.82"/>
</g>
<!-- Merge&#45;&gt;Types -->
<g id="edge242" class="edge"><title>Merge&#45;&gt;Types</title>
<path fill="none" stroke="black" d="M1730.61,-1563.65C1685.54,-1504.96 1536.03,-1307.97 1426,-1136 1394,-1085.99 1360.56,-1025.15 1342.2,-990.867"/>
<polygon fill="black" stroke="black" points="1345.23,-989.109 1337.43,-981.934 1339.05,-992.404 1345.23,-989.109"/>
</g>
<!-- Merge&#45;&gt;Variable -->
<g id="edge238" class="edge"><title>Merge&#45;&gt;Variable</title>
<path fill="none" stroke="black" d="M1703.51,-1577.57C1494.31,-1559.71 543.487,-1477.03 490,-1445 229.219,-1288.86 232.599,-1129.62 195,-828 188.556,-776.306 205.306,-716.793 217.232,-682.765"/>
<polygon fill="black" stroke="black" points="220.632,-683.654 220.747,-673.06 214.05,-681.271 220.632,-683.654"/>
</g>
<!-- Merge&#45;&gt;Utils -->
<g id="edge240" class="edge"><title>Merge&#45;&gt;Utils</title>
<path fill="none" stroke="black" d="M1772.15,-1567.79C1864.4,-1523.84 2154.25,-1380.19 2199,-1290 2312.71,-1060.79 2061.38,-763.372 1982.62,-678.522"/>
<polygon fill="black" stroke="black" points="1985.16,-676.11 1975.77,-671.205 1980.05,-680.896 1985.16,-676.11"/>
</g>
<!-- Merge&#45;&gt;Options -->
<g id="edge250" class="edge"><title>Merge&#45;&gt;Options</title>
<path fill="none" stroke="black" d="M1777.72,-1570.66C1865.05,-1543.86 2098.79,-1472.16 2199.15,-1441.37"/>
<polygon fill="black" stroke="black" points="2200.19,-1444.71 2208.73,-1438.43 2198.14,-1438.02 2200.19,-1444.71"/>
</g>
<!-- Merge&#45;&gt;PersistentUnionFind -->
<g id="edge246" class="edge"><title>Merge&#45;&gt;PersistentUnionFind</title>
<path fill="none" stroke="black" d="M1703.64,-1577.65C1502.42,-1560.76 615.685,-1484.33 573,-1445 459.781,-1340.68 496.057,-1246.94 542,-1100 576.894,-988.402 671.494,-882.002 717.368,-835.088"/>
<polygon fill="black" stroke="black" points="720.016,-837.388 724.558,-827.816 715.038,-832.467 720.016,-837.388"/>
</g>
<!-- Merge&#45;&gt;Permissions -->
<g id="edge248" class="edge"><title>Merge&#45;&gt;Permissions</title>
<path fill="none" stroke="black" d="M1770.86,-1567.12C1813.38,-1544.52 1897.86,-1497.01 1961,-1445 2017.45,-1398.5 2073.61,-1333.17 2102.67,-1297.58"/>
<polygon fill="black" stroke="black" points="2105.54,-1299.59 2109.12,-1289.61 2100.11,-1295.18 2105.54,-1299.59"/>
</g>
<!-- Merge&#45;&gt;Flexible -->
<g id="edge260" class="edge"><title>Merge&#45;&gt;Flexible</title>
<path fill="none" stroke="black" d="M1736.67,-1563.13C1707.57,-1492.24 1600.15,-1230.45 1565.12,-1145.1"/>
<polygon fill="black" stroke="black" points="1568.34,-1143.74 1561.31,-1135.81 1561.87,-1146.39 1568.34,-1143.74"/>
</g>
<!-- TestUtils -->
<g id="node178" class="node"><title>TestUtils</title>
<ellipse fill="magenta" stroke="magenta" cx="941" cy="-1118" rx="52.8111" ry="18"/>
<text text-anchor="middle" x="941" y="-1113.9" font-family="DejaVu Sans, Helvetica, sans" font-size="14.00"><a xlink:href="../doc/TestUtils.html" target="_parent">TestUtils</a></text>
</g>
<!-- TestUtils&#45;&gt;Log -->
<g id="edge290" class="edge"><title>TestUtils&#45;&gt;Log</title>
<path fill="none" stroke="black" d="M980.317,-1105.81C1056.65,-1082.11 1230.21,-1028.13 1376,-982 1760.27,-860.417 2225.02,-708.663 2354.22,-666.388"/>
<polygon fill="black" stroke="black" points="2355.56,-669.634 2363.97,-663.197 2353.38,-662.981 2355.56,-669.634"/>
</g>
<!-- TestUtils&#45;&gt;Datacon -->
<g id="edge292" class="edge"><title>TestUtils&#45;&gt;Datacon</title>
<path fill="none" stroke="black" d="M923.38,-1100.7C872.405,-1050.92 719.757,-903.756 584,-792 532.01,-749.202 468.317,-703.394 430.847,-677.077"/>
<polygon fill="black" stroke="black" points="432.56,-674.004 422.36,-671.136 428.545,-679.738 432.56,-674.004"/>
</g>
<!-- TestUtils&#45;&gt;Types -->
<g id="edge286" class="edge"><title>TestUtils&#45;&gt;Types</title>
<path fill="none" stroke="black" d="M975.684,-1104.2C1047.68,-1075.55 1212.94,-1009.78 1288.73,-979.628"/>
<polygon fill="black" stroke="black" points="1290.38,-982.738 1298.38,-975.789 1287.79,-976.234 1290.38,-982.738"/>
</g>
<!-- TestUtils&#45;&gt;SurfaceSyntax -->
<g id="edge288" class="edge"><title>TestUtils&#45;&gt;SurfaceSyntax</title>
<path fill="none" stroke="black" d="M947.965,-1099.89C960.058,-1068.51 985.772,-1002 1008,-946 1022.98,-908.262 1040.63,-864.784 1051.82,-837.35"/>
<polygon fill="black" stroke="black" points="1055.09,-838.591 1055.63,-828.01 1048.61,-835.946 1055.09,-838.591"/>
</g>
<!-- TestUtils&#45;&gt;Variable -->
<g id="edge284" class="edge"><title>TestUtils&#45;&gt;Variable</title>
<path fill="none" stroke="black" d="M888.585,-1114.9C792.204,-1106.94 583.75,-1078.94 442,-982 329.268,-904.906 261.509,-746.875 237.697,-682.854"/>
<polygon fill="black" stroke="black" points="240.842,-681.263 234.128,-673.066 234.265,-683.66 240.842,-681.263"/>
</g>
<!-- Mezzo -->
<g id="node184" class="node"><title>Mezzo</title>
<ellipse fill="yellow" stroke="yellow" cx="2360" cy="-2043" rx="43.0827" ry="18"/>
<text text-anchor="middle" x="2360" y="-2038.9" font-family="DejaVu Sans, Helvetica, sans" font-size="14.00"><a xlink:href="../doc/Mezzo.html" target="_parent">Mezzo</a></text>
</g>
<!-- Mezzo&#45;&gt;Hml_String -->
<g id="edge300" class="edge"><title>Mezzo&#45;&gt;Hml_String</title>
<path fill="none" stroke="black" d="M2402.71,-2040C2492.7,-2031.91 2705.46,-2003.23 2851,-1907 2932.52,-1853.1 2988,-1832.73 2988,-1735 2988,-1735 2988,-1735 2988,-964 2988,-795.63 2925.21,-600.14 2900.15,-528.832"/>
<polygon fill="black" stroke="black" points="2903.38,-527.482 2896.74,-519.231 2896.79,-529.825 2903.38,-527.482"/>
</g>
<!-- Mezzo&#45;&gt;Log -->
<g id="edge298" class="edge"><title>Mezzo&#45;&gt;Log</title>
<path fill="none" stroke="black" d="M2402.4,-2039.54C2531.66,-2026.47 2912,-1968.2 2912,-1735 2912,-1735 2912,-1735 2912,-1581 2912,-1294.87 2946.08,-1195.49 2806,-946 2760.42,-864.82 2738.45,-847.901 2664,-792 2585.5,-733.055 2477.74,-688.055 2423.36,-667.415"/>
<polygon fill="black" stroke="black" points="2424.44,-664.082 2413.85,-663.847 2421.98,-670.636 2424.44,-664.082"/>
</g>
<!-- Mezzo&#45;&gt;Driver -->
<g id="edge302" class="edge"><title>Mezzo&#45;&gt;Driver</title>
<path fill="none" stroke="black" d="M2319.79,-2036.48C2167.24,-2011.75 1624.53,-1923.78 1458.57,-1896.87"/>
<polygon fill="black" stroke="black" points="1459.08,-1893.41 1448.65,-1895.27 1457.96,-1900.32 1459.08,-1893.41"/>
</g>
<!-- Mezzo&#45;&gt;Types -->
<g id="edge294" class="edge"><title>Mezzo&#45;&gt;Types</title>
<path fill="none" stroke="black" d="M2316.67,-2041.63C2175.89,-2036.23 1719.71,-2011.25 1360,-1907 1183.5,-1855.84 984,-1918.77 984,-1735 984,-1735 984,-1735 984,-1581 984,-1433.63 971.58,-1385.05 1039,-1254 1102.38,-1130.8 1236.78,-1027.09 1297.31,-984.612"/>
<polygon fill="black" stroke="black" points="1299.47,-987.373 1305.69,-978.794 1295.48,-981.624 1299.47,-987.373"/>
</g>
<!-- Mezzo&#45;&gt;Options -->
<g id="edge296" class="edge"><title>Mezzo&#45;&gt;Options</title>
<path fill="none" stroke="black" d="M2356.65,-2024.9C2340.53,-1937.77 2270.88,-1561.42 2251.2,-1455.08"/>
<polygon fill="black" stroke="black" points="2254.61,-1454.3 2249.35,-1445.1 2247.73,-1455.57 2254.61,-1454.3"/>
</g>
</g>
</svg>
