<?xml version="1.0" encoding="UTF-8" standalone="no"?>
<!DOCTYPE svg PUBLIC "-//W3C//DTD SVG 1.1//EN"
 "http://www.w3.org/Graphics/SVG/1.1/DTD/svg11.dtd">
<!-- Generated by graphviz version 2.26.3 (20100126.1600)
 -->
<!-- Title: G Pages: 1 -->
<svg width="719pt" height="540pt"
 viewBox="0.00 0.00 718.58 540.00" xmlns="http://www.w3.org/2000/svg" xmlns:xlink="http://www.w3.org/1999/xlink">
<g id="graph1" class="graph" transform="scale(0.531496 0.531496) rotate(0) translate(4 1012)">
<title>G</title>
<polygon fill="white" stroke="white" points="-4,5 -4,-1012 1349,-1012 1349,5 -4,5"/>
<!-- Option -->
<g id="node1" class="node"><title>Option</title>
<ellipse fill="darkturquoise" stroke="darkturquoise" cx="198" cy="-385" rx="43.7776" ry="18"/>
<text text-anchor="middle" x="198" y="-380.9" font-family="DejaVu Sans, Helvetica, sans" font-size="14.00"><a xlink:href="../doc/Option.html" target="_parent">Option</a></text>
</g>
<!-- InfiniteArray -->
<g id="node2" class="node"><title>InfiniteArray</title>
<ellipse fill="darkturquoise" stroke="darkturquoise" cx="909" cy="-148" rx="71.7694" ry="18"/>
<text text-anchor="middle" x="909" y="-143.9" font-family="DejaVu Sans, Helvetica, sans" font-size="14.00"><a xlink:href="../doc/InfiniteArray.html" target="_parent">InfiniteArray</a></text>
</g>
<!-- Hml_Pprint -->
<g id="node3" class="node"><title>Hml_Pprint</title>
<ellipse fill="darkturquoise" stroke="darkturquoise" cx="350" cy="-623" rx="64.1231" ry="18"/>
<text text-anchor="middle" x="350" y="-618.9" font-family="DejaVu Sans, Helvetica, sans" font-size="14.00"><a xlink:href="../doc/Hml_Pprint.html" target="_parent">Hml_Pprint</a></text>
</g>
<!-- Hml_List -->
<g id="node5" class="node"><title>Hml_List</title>
<ellipse fill="darkturquoise" stroke="darkturquoise" cx="365" cy="-504" rx="52.8111" ry="18"/>
<text text-anchor="middle" x="365" y="-499.9" font-family="DejaVu Sans, Helvetica, sans" font-size="14.00"><a xlink:href="../doc/Hml_List.html" target="_parent">Hml_List</a></text>
</g>
<!-- Hml_Pprint&#45;&gt;Hml_List -->
<g id="edge2" class="edge"><title>Hml_Pprint&#45;&gt;Hml_List</title>
<path fill="none" stroke="black" d="M352.278,-604.926C354.712,-585.618 358.602,-554.754 361.441,-532.236"/>
<polygon fill="black" stroke="black" points="364.922,-532.603 362.7,-522.244 357.977,-531.727 364.922,-532.603"/>
</g>
<!-- Bash -->
<g id="node7" class="node"><title>Bash</title>
<ellipse fill="darkturquoise" stroke="darkturquoise" cx="260" cy="-504" rx="34.2406" ry="18"/>
<text text-anchor="middle" x="260" y="-499.9" font-family="DejaVu Sans, Helvetica, sans" font-size="14.00"><a xlink:href="../doc/Bash.html" target="_parent">Bash</a></text>
</g>
<!-- Hml_Pprint&#45;&gt;Bash -->
<g id="edge4" class="edge"><title>Hml_Pprint&#45;&gt;Bash</title>
<path fill="none" stroke="black" d="M336.526,-605.184C321.22,-584.947 296.136,-551.78 278.884,-528.969"/>
<polygon fill="black" stroke="black" points="281.516,-526.646 272.692,-520.782 275.933,-530.869 281.516,-526.646"/>
</g>
<!-- Hml_List&#45;&gt;Option -->
<g id="edge6" class="edge"><title>Hml_List&#45;&gt;Option</title>
<path fill="none" stroke="black" d="M342.13,-487.703C312.609,-466.667 261.152,-430 228.374,-406.644"/>
<polygon fill="black" stroke="black" points="230.238,-403.675 220.063,-400.722 226.176,-409.375 230.238,-403.675"/>
</g>
<!-- Hml_Map -->
<g id="node8" class="node"><title>Hml_Map</title>
<ellipse fill="darkturquoise" stroke="darkturquoise" cx="667" cy="-623" rx="55.0898" ry="18"/>
<text text-anchor="middle" x="667" y="-618.9" font-family="DejaVu Sans, Helvetica, sans" font-size="14.00"><a xlink:href="../doc/Hml_Map.html" target="_parent">Hml_Map</a></text>
</g>
<!-- Hml_String -->
<g id="node10" class="node"><title>Hml_String</title>
<ellipse fill="darkturquoise" stroke="darkturquoise" cx="106" cy="-504" rx="64.1231" ry="18"/>
<text text-anchor="middle" x="106" y="-499.9" font-family="DejaVu Sans, Helvetica, sans" font-size="14.00"><a xlink:href="../doc/Hml_String.html" target="_parent">Hml_String</a></text>
</g>
<!-- Hml_String&#45;&gt;Option -->
<g id="edge8" class="edge"><title>Hml_String&#45;&gt;Option</title>
<path fill="none" stroke="black" d="M119.773,-486.184C135.33,-466.062 160.77,-433.157 178.395,-410.359"/>
<polygon fill="black" stroke="black" points="181.383,-412.216 184.731,-402.164 175.845,-407.934 181.383,-412.216"/>
</g>
<!-- Log -->
<g id="node12" class="node"><title>Log</title>
<ellipse fill="darkturquoise" stroke="darkturquoise" cx="164" cy="-623" rx="27.9903" ry="18"/>
<text text-anchor="middle" x="164" y="-618.9" font-family="DejaVu Sans, Helvetica, sans" font-size="14.00"><a xlink:href="../doc/Log.html" target="_parent">Log</a></text>
</g>
<!-- Log&#45;&gt;Option -->
<g id="edge14" class="edge"><title>Log&#45;&gt;Option</title>
<path fill="none" stroke="black" d="M166.763,-604.762C169.813,-584.541 174.842,-550.953 179,-522 184.393,-484.44 190.368,-441.048 194.151,-413.336"/>
<polygon fill="black" stroke="black" points="197.653,-413.561 195.535,-403.18 190.717,-412.615 197.653,-413.561"/>
</g>
<!-- Log&#45;&gt;Bash -->
<g id="edge10" class="edge"><title>Log&#45;&gt;Bash</title>
<path fill="none" stroke="black" d="M176.947,-606.951C193.245,-586.748 221.399,-551.849 240.355,-528.351"/>
<polygon fill="black" stroke="black" points="243.087,-530.539 246.642,-520.558 237.639,-526.144 243.087,-530.539"/>
</g>
<!-- Log&#45;&gt;Hml_String -->
<g id="edge12" class="edge"><title>Log&#45;&gt;Hml_String</title>
<path fill="none" stroke="black" d="M155.566,-605.696C146.054,-586.181 130.461,-554.187 119.304,-531.295"/>
<polygon fill="black" stroke="black" points="122.352,-529.561 114.824,-522.105 116.059,-532.627 122.352,-529.561"/>
</g>
<!-- Datacon -->
<g id="node16" class="node"><title>Datacon</title>
<ellipse fill="#eead0e" stroke="#eead0e" cx="788" cy="-504" rx="50.9221" ry="18"/>
<text text-anchor="middle" x="788" y="-499.9" font-family="DejaVu Sans, Helvetica, sans" font-size="14.00"><a xlink:href="../doc/Datacon.html" target="_parent">Datacon</a></text>
</g>
<!-- Identifier -->
<g id="node18" class="node"><title>Identifier</title>
<ellipse fill="#eead0e" stroke="#eead0e" cx="909" cy="-385" rx="54.8957" ry="18"/>
<text text-anchor="middle" x="909" y="-380.9" font-family="DejaVu Sans, Helvetica, sans" font-size="14.00"><a xlink:href="../doc/Identifier.html" target="_parent">Identifier</a></text>
</g>
<!-- Datacon&#45;&gt;Identifier -->
<g id="edge16" class="edge"><title>Datacon&#45;&gt;Identifier</title>
<path fill="none" stroke="black" d="M805.336,-486.95C825.974,-466.653 860.594,-432.606 884.095,-409.493"/>
<polygon fill="black" stroke="black" points="886.627,-411.912 891.302,-402.405 881.718,-406.922 886.627,-411.912"/>
</g>
<!-- Hashcons -->
<g id="node28" class="node"><title>Hashcons</title>
<ellipse fill="#eead0e" stroke="#eead0e" cx="909" cy="-267" rx="56.9803" ry="18"/>
<text text-anchor="middle" x="909" y="-262.9" font-family="DejaVu Sans, Helvetica, sans" font-size="14.00"><a xlink:href="../doc/Hashcons.html" target="_parent">Hashcons</a></text>
</g>
<!-- Identifier&#45;&gt;Hashcons -->
<g id="edge30" class="edge"><title>Identifier&#45;&gt;Hashcons</title>
<path fill="none" stroke="black" d="M909,-366.821C909,-347.709 909,-317.389 909,-295.175"/>
<polygon fill="black" stroke="black" points="912.5,-295.006 909,-285.006 905.5,-295.006 912.5,-295.006"/>
</g>
<!-- Patricia -->
<g id="node32" class="node"><title>Patricia</title>
<ellipse fill="cyan" stroke="cyan" cx="1099" cy="-267" rx="46.7546" ry="18"/>
<text text-anchor="middle" x="1099" y="-262.9" font-family="DejaVu Sans, Helvetica, sans" font-size="14.00"><a xlink:href="../doc/Patricia.html" target="_parent">Patricia</a></text>
</g>
<!-- Identifier&#45;&gt;Patricia -->
<g id="edge32" class="edge"><title>Identifier&#45;&gt;Patricia</title>
<path fill="none" stroke="black" d="M935.02,-368.84C968.987,-347.745 1028.48,-310.797 1065.7,-287.681"/>
<polygon fill="black" stroke="black" points="1067.55,-290.652 1074.2,-282.403 1063.86,-284.706 1067.55,-290.652"/>
</g>
<!-- GMap -->
<g id="node34" class="node"><title>GMap</title>
<ellipse fill="cyan" stroke="cyan" cx="1068" cy="-148" rx="38.9134" ry="18"/>
<text text-anchor="middle" x="1068" y="-143.9" font-family="DejaVu Sans, Helvetica, sans" font-size="14.00"><a xlink:href="../doc/GMap.html" target="_parent">GMap</a></text>
</g>
<!-- Identifier&#45;&gt;GMap -->
<g id="edge34" class="edge"><title>Identifier&#45;&gt;GMap</title>
<path fill="none" stroke="black" d="M920.951,-367.186C948.827,-325.636 1018.24,-222.167 1050.73,-173.749"/>
<polygon fill="black" stroke="black" points="1053.68,-175.63 1056.34,-165.376 1047.86,-171.731 1053.68,-175.63"/>
</g>
<!-- Driver -->
<g id="node19" class="node"><title>Driver</title>
<ellipse fill="#eead0e" stroke="#eead0e" cx="75" cy="-741" rx="41.1906" ry="18"/>
<text text-anchor="middle" x="75" y="-736.9" font-family="DejaVu Sans, Helvetica, sans" font-size="14.00"><a xlink:href="../doc/Driver.html" target="_parent">Driver</a></text>
</g>
<!-- Driver&#45;&gt;Hml_String -->
<g id="edge18" class="edge"><title>Driver&#45;&gt;Hml_String</title>
<path fill="none" stroke="black" d="M77.381,-722.797C82.757,-681.697 95.8666,-581.471 102.307,-532.236"/>
<polygon fill="black" stroke="black" points="105.784,-532.635 103.611,-522.265 98.8434,-531.727 105.784,-532.635"/>
</g>
<!-- Lexer -->
<g id="node22" class="node"><title>Lexer</title>
<ellipse fill="#eead0e" stroke="#eead0e" cx="39" cy="-623" rx="38.9134" ry="18"/>
<text text-anchor="middle" x="39" y="-618.9" font-family="DejaVu Sans, Helvetica, sans" font-size="14.00"><a xlink:href="../doc/Lexer.html" target="_parent">Lexer</a></text>
</g>
<!-- Driver&#45;&gt;Lexer -->
<g id="edge20" class="edge"><title>Driver&#45;&gt;Lexer</title>
<path fill="none" stroke="black" d="M69.5324,-723.078C63.6647,-703.845 54.2696,-673.05 47.4495,-650.696"/>
<polygon fill="black" stroke="black" points="50.7849,-649.634 44.5191,-641.09 44.0895,-651.676 50.7849,-649.634"/>
</g>
<!-- SurfaceSyntax -->
<g id="node24" class="node"><title>SurfaceSyntax</title>
<ellipse fill="#eead0e" stroke="#eead0e" cx="513" cy="-623" rx="80.8024" ry="18"/>
<text text-anchor="middle" x="513" y="-618.9" font-family="DejaVu Sans, Helvetica, sans" font-size="14.00"><a xlink:href="../doc/SurfaceSyntax.html" target="_parent">SurfaceSyntax</a></text>
</g>
<!-- Driver&#45;&gt;SurfaceSyntax -->
<g id="edge22" class="edge"><title>Driver&#45;&gt;SurfaceSyntax</title>
<path fill="none" stroke="black" d="M110.103,-731.543C184.335,-711.544 358.049,-664.745 451.277,-639.629"/>
<polygon fill="black" stroke="black" points="452.394,-642.953 461.139,-636.972 450.573,-636.194 452.394,-642.953"/>
</g>
<!-- SurfaceSyntax&#45;&gt;Datacon -->
<g id="edge26" class="edge"><title>SurfaceSyntax&#45;&gt;Datacon</title>
<path fill="none" stroke="black" d="M550.088,-606.951C601.122,-584.867 692.734,-545.224 746.158,-522.106"/>
<polygon fill="black" stroke="black" points="747.563,-525.312 755.351,-518.128 744.783,-518.888 747.563,-525.312"/>
</g>
<!-- Variable -->
<g id="node26" class="node"><title>Variable</title>
<ellipse fill="#eead0e" stroke="#eead0e" cx="907" cy="-504" rx="50.0315" ry="18"/>
<text text-anchor="middle" x="907" y="-499.9" font-family="DejaVu Sans, Helvetica, sans" font-size="14.00"><a xlink:href="../doc/Variable.html" target="_parent">Variable</a></text>
</g>
<!-- SurfaceSyntax&#45;&gt;Variable -->
<g id="edge24" class="edge"><title>SurfaceSyntax&#45;&gt;Variable</title>
<path fill="none" stroke="black" d="M561.279,-608.498C626.398,-588.927 745.98,-552.941 848,-522 851.539,-520.927 855.196,-519.815 858.876,-518.696"/>
<polygon fill="black" stroke="black" points="860.057,-521.995 868.604,-515.734 858.018,-515.299 860.057,-521.995"/>
</g>
<!-- Variable&#45;&gt;Identifier -->
<g id="edge36" class="edge"><title>Variable&#45;&gt;Identifier</title>
<path fill="none" stroke="black" d="M907.304,-485.926C907.627,-466.705 908.142,-436.033 908.52,-413.542"/>
<polygon fill="black" stroke="black" points="912.025,-413.301 908.693,-403.244 905.026,-413.183 912.025,-413.301"/>
</g>
<!-- Hashcons&#45;&gt;InfiniteArray -->
<g id="edge28" class="edge"><title>Hashcons&#45;&gt;InfiniteArray</title>
<path fill="none" stroke="black" d="M909,-248.926C909,-229.705 909,-199.033 909,-176.542"/>
<polygon fill="black" stroke="black" points="912.5,-176.244 909,-166.244 905.5,-176.244 912.5,-176.244"/>
</g>
<!-- Patricia&#45;&gt;GMap -->
<g id="edge38" class="edge"><title>Patricia&#45;&gt;GMap</title>
<path fill="none" stroke="black" d="M1094.29,-248.926C1089.24,-229.53 1081.15,-198.475 1075.28,-175.93"/>
<polygon fill="black" stroke="black" points="1078.66,-175.038 1072.75,-166.244 1071.89,-176.803 1078.66,-175.038"/>
</g>
<!-- GSet -->
<g id="node37" class="node"><title>GSet</title>
<ellipse fill="cyan" stroke="cyan" cx="1068" cy="-30" rx="34.9399" ry="18"/>
<text text-anchor="middle" x="1068" y="-25.9" font-family="DejaVu Sans, Helvetica, sans" font-size="14.00"><a xlink:href="../doc/GSet.html" target="_parent">GSet</a></text>
</g>
<!-- GMap&#45;&gt;GSet -->
<g id="edge40" class="edge"><title>GMap&#45;&gt;GSet</title>
<path fill="none" stroke="black" d="M1068,-129.821C1068,-110.709 1068,-80.3891 1068,-58.1751"/>
<polygon fill="black" stroke="black" points="1071.5,-58.0059 1068,-48.0059 1064.5,-58.006 1071.5,-58.0059"/>
</g>
<!-- ModeDeduction -->
<g id="node39" class="node"><title>ModeDeduction</title>
<ellipse fill="green" stroke="green" cx="838" cy="-978" rx="86.1654" ry="18"/>
<text text-anchor="middle" x="838" y="-973.9" font-family="DejaVu Sans, Helvetica, sans" font-size="14.00"><a xlink:href="../doc/ModeDeduction.html" target="_parent">ModeDeduction</a></text>
</g>
<!-- FactInference -->
<g id="node40" class="node"><title>FactInference</title>
<ellipse fill="green" stroke="green" cx="513" cy="-860" rx="75.9375" ry="18"/>
<text text-anchor="middle" x="513" y="-855.9" font-family="DejaVu Sans, Helvetica, sans" font-size="14.00"><a xlink:href="../doc/FactInference.html" target="_parent">FactInference</a></text>
</g>
<!-- FactInference&#45;&gt;Bash -->
<g id="edge42" class="edge"><title>FactInference&#45;&gt;Bash</title>
<path fill="none" stroke="black" d="M490.564,-842.534C436.758,-800.151 302.914,-691.627 277,-641 259.376,-606.57 257.217,-561.105 258.028,-532.2"/>
<polygon fill="black" stroke="black" points="261.534,-532.129 258.458,-521.991 254.54,-531.834 261.534,-532.129"/>
</g>
<!-- FactInference&#45;&gt;Log -->
<g id="edge44" class="edge"><title>FactInference&#45;&gt;Log</title>
<path fill="none" stroke="black" d="M486.492,-843.114C455.486,-823.274 402.702,-789.221 358,-759 297.903,-718.372 228.537,-669.177 191.195,-642.5"/>
<polygon fill="black" stroke="black" points="193.023,-639.505 182.852,-636.535 188.951,-645.199 193.023,-639.505"/>
</g>
<!-- FactInference&#45;&gt;SurfaceSyntax -->
<g id="edge46" class="edge"><title>FactInference&#45;&gt;SurfaceSyntax</title>
<path fill="none" stroke="black" d="M513,-841.797C513,-800.783 513,-700.891 513,-651.547"/>
<polygon fill="black" stroke="black" points="516.5,-651.265 513,-641.265 509.5,-651.266 516.5,-651.265"/>
</g>
<!-- FactInference&#45;&gt;Variable -->
<g id="edge48" class="edge"><title>FactInference&#45;&gt;Variable</title>
<path fill="none" stroke="black" d="M554.347,-844.852C626.017,-816.413 773.013,-748.071 850,-641 874.377,-607.097 890.736,-561.202 899.458,-532.093"/>
<polygon fill="black" stroke="black" points="902.908,-532.761 902.326,-522.182 896.184,-530.815 902.908,-532.761"/>
</g>
<!-- Types -->
<g id="node46" class="node"><title>Types</title>
<ellipse fill="green" stroke="green" cx="667" cy="-741" rx="38.9134" ry="18"/>
<text text-anchor="middle" x="667" y="-736.9" font-family="DejaVu Sans, Helvetica, sans" font-size="14.00"><a xlink:href="../doc/Types.html" target="_parent">Types</a></text>
</g>
<!-- FactInference&#45;&gt;Types -->
<g id="edge50" class="edge"><title>FactInference&#45;&gt;Types</title>
<path fill="none" stroke="black" d="M535.393,-842.696C562.691,-821.602 608.855,-785.93 638.618,-762.931"/>
<polygon fill="black" stroke="black" points="640.776,-765.687 646.549,-756.803 636.496,-760.148 640.776,-765.687"/>
</g>
<!-- Types&#45;&gt;Hml_Pprint -->
<g id="edge60" class="edge"><title>Types&#45;&gt;Hml_Pprint</title>
<path fill="none" stroke="black" d="M636.605,-729.686C581.364,-709.123 464.117,-665.479 397.981,-640.861"/>
<polygon fill="black" stroke="black" points="399.201,-637.58 388.608,-637.371 396.759,-644.14 399.201,-637.58"/>
</g>
<!-- Types&#45;&gt;Hml_List -->
<g id="edge64" class="edge"><title>Types&#45;&gt;Hml_List</title>
<path fill="none" stroke="black" d="M690.679,-726.618C729.117,-701.485 797.58,-648.139 764,-605 722.786,-552.053 527.314,-522.435 426.09,-510.412"/>
<polygon fill="black" stroke="black" points="426.343,-506.918 416.004,-509.235 425.531,-513.871 426.343,-506.918"/>
</g>
<!-- Types&#45;&gt;Bash -->
<g id="edge68" class="edge"><title>Types&#45;&gt;Bash</title>
<path fill="none" stroke="black" d="M685.208,-724.891C713.587,-697.861 762.047,-642.646 731,-605 607.717,-455.512 488.452,-578.149 303,-522 300.56,-521.261 298.07,-520.432 295.578,-519.545"/>
<polygon fill="black" stroke="black" points="296.657,-516.211 286.066,-515.913 294.159,-522.75 296.657,-516.211"/>
</g>
<!-- Types&#45;&gt;Hml_Map -->
<g id="edge62" class="edge"><title>Types&#45;&gt;Hml_Map</title>
<path fill="none" stroke="black" d="M667,-722.821C667,-703.709 667,-673.389 667,-651.175"/>
<polygon fill="black" stroke="black" points="670.5,-651.006 667,-641.006 663.5,-651.006 670.5,-651.006"/>
</g>
<!-- Types&#45;&gt;Log -->
<g id="edge58" class="edge"><title>Types&#45;&gt;Log</title>
<path fill="none" stroke="black" d="M632.029,-732.796C540.335,-711.285 293.629,-653.41 200.374,-631.533"/>
<polygon fill="black" stroke="black" points="201.085,-628.105 190.549,-629.228 199.486,-634.92 201.085,-628.105"/>
</g>
<!-- Types&#45;&gt;Datacon -->
<g id="edge66" class="edge"><title>Types&#45;&gt;Datacon</title>
<path fill="none" stroke="black" d="M696.367,-729.053C729.01,-713.978 780.021,-684.632 802,-641 819.511,-606.237 809.087,-560.281 799.177,-531.428"/>
<polygon fill="black" stroke="black" points="802.449,-530.183 795.74,-521.982 795.871,-532.577 802.449,-530.183"/>
</g>
<!-- Types&#45;&gt;SurfaceSyntax -->
<g id="edge54" class="edge"><title>Types&#45;&gt;SurfaceSyntax</title>
<path fill="none" stroke="black" d="M646.867,-725.574C620.635,-705.473 574.507,-670.129 543.848,-646.637"/>
<polygon fill="black" stroke="black" points="545.707,-643.652 535.64,-640.348 541.449,-649.208 545.707,-643.652"/>
</g>
<!-- Types&#45;&gt;Variable -->
<g id="edge52" class="edge"><title>Types&#45;&gt;Variable</title>
<path fill="none" stroke="black" d="M694.298,-727.947C727.215,-711.226 782.863,-679.727 821,-641 853.397,-608.102 879.653,-560.952 894.294,-531.426"/>
<polygon fill="black" stroke="black" points="897.586,-532.659 898.805,-522.134 891.289,-529.601 897.586,-532.659"/>
</g>
<!-- PersistentUnionFind -->
<g id="node51" class="node"><title>PersistentUnionFind</title>
<ellipse fill="green" stroke="green" cx="1237" cy="-623" rx="107.206" ry="18"/>
<text text-anchor="middle" x="1237" y="-618.9" font-family="DejaVu Sans, Helvetica, sans" font-size="14.00"><a xlink:href="../doc/PersistentUnionFind.html" target="_parent">PersistentUnionFind</a></text>
</g>
<!-- Types&#45;&gt;PersistentUnionFind -->
<g id="edge56" class="edge"><title>Types&#45;&gt;PersistentUnionFind</title>
<path fill="none" stroke="black" d="M702.656,-733.619C793.304,-714.853 1034.22,-664.979 1159.26,-639.094"/>
<polygon fill="black" stroke="black" points="1160.07,-642.5 1169.15,-637.045 1158.65,-635.645 1160.07,-642.5"/>
</g>
<!-- Mode -->
<g id="node47" class="node"><title>Mode</title>
<ellipse fill="green" stroke="green" cx="979" cy="-978" rx="36.8288" ry="18"/>
<text text-anchor="middle" x="979" y="-973.9" font-family="DejaVu Sans, Helvetica, sans" font-size="14.00"><a xlink:href="../doc/Mode.html" target="_parent">Mode</a></text>
</g>
<!-- PersistentRef -->
<g id="node58" class="node"><title>PersistentRef</title>
<ellipse fill="green" stroke="green" cx="1220" cy="-385" rx="73.8534" ry="18"/>
<text text-anchor="middle" x="1220" y="-380.9" font-family="DejaVu Sans, Helvetica, sans" font-size="14.00"><a xlink:href="../doc/PersistentRef.html" target="_parent">PersistentRef</a></text>
</g>
<!-- PersistentUnionFind&#45;&gt;PersistentRef -->
<g id="edge72" class="edge"><title>PersistentUnionFind&#45;&gt;PersistentRef</title>
<path fill="none" stroke="black" d="M1235.69,-604.72C1232.74,-563.345 1225.52,-462.303 1222,-412.992"/>
<polygon fill="black" stroke="black" points="1225.49,-412.742 1221.29,-403.017 1218.51,-413.241 1225.49,-412.742"/>
</g>
<!-- PersistentRef&#45;&gt;Patricia -->
<g id="edge70" class="edge"><title>PersistentRef&#45;&gt;Patricia</title>
<path fill="none" stroke="black" d="M1201.89,-367.334C1181.15,-347.117 1147.08,-313.887 1123.87,-291.254"/>
<polygon fill="black" stroke="black" points="1126.06,-288.495 1116.45,-284.019 1121.17,-293.507 1126.06,-288.495"/>
</g>
<!-- Permissions -->
<g id="node61" class="node"><title>Permissions</title>
<ellipse fill="green" stroke="green" cx="667" cy="-978" rx="66.9043" ry="18"/>
<text text-anchor="middle" x="667" y="-973.9" font-family="DejaVu Sans, Helvetica, sans" font-size="14.00"><a xlink:href="../doc/Permissions.html" target="_parent">Permissions</a></text>
</g>
<!-- Permissions&#45;&gt;FactInference -->
<g id="edge78" class="edge"><title>Permissions&#45;&gt;FactInference</title>
<path fill="none" stroke="black" d="M644.607,-960.842C617.995,-940.451 573.454,-906.322 543.657,-883.49"/>
<polygon fill="black" stroke="black" points="545.737,-880.675 535.671,-877.371 541.48,-886.232 545.737,-880.675"/>
</g>
<!-- Permissions&#45;&gt;Types -->
<g id="edge74" class="edge"><title>Permissions&#45;&gt;Types</title>
<path fill="none" stroke="black" d="M667,-959.797C667,-918.783 667,-818.891 667,-769.547"/>
<polygon fill="black" stroke="black" points="670.5,-769.265 667,-759.265 663.5,-769.266 670.5,-769.265"/>
</g>
<!-- Permissions&#45;&gt;PersistentUnionFind -->
<g id="edge76" class="edge"><title>Permissions&#45;&gt;PersistentUnionFind</title>
<path fill="none" stroke="black" d="M715.655,-965.477C798.129,-944.019 961.802,-900.379 1017,-878 1120.75,-835.938 1181.5,-855.055 1239,-759 1258.66,-726.158 1252.62,-680.381 1245.55,-651.216"/>
<polygon fill="black" stroke="black" points="1248.86,-650.062 1242.94,-641.278 1242.09,-651.839 1248.86,-650.062"/>
</g>
<!-- PermissionDeduction -->
<g id="node65" class="node"><title>PermissionDeduction</title>
<ellipse fill="green" stroke="green" cx="1118" cy="-741" rx="111.876" ry="18"/>
<text text-anchor="middle" x="1118" y="-736.9" font-family="DejaVu Sans, Helvetica, sans" font-size="14.00"><a xlink:href="../doc/PermissionDeduction.html" target="_parent">PermissionDeduction</a></text>
</g>
<!-- PermissionDeduction&#45;&gt;Patricia -->
<g id="edge80" class="edge"><title>PermissionDeduction&#45;&gt;Patricia</title>
<path fill="none" stroke="black" d="M1117.28,-722.997C1114.39,-650.921 1103.64,-382.841 1100.12,-295.039"/>
<polygon fill="black" stroke="black" points="1103.62,-294.872 1099.72,-285.021 1096.63,-295.153 1103.62,-294.872"/>
</g>
<!-- PermissionDeduction&#45;&gt;PersistentUnionFind -->
<g id="edge82" class="edge"><title>PermissionDeduction&#45;&gt;PersistentUnionFind</title>
<path fill="none" stroke="black" d="M1136.07,-723.078C1156.17,-703.152 1188.78,-670.816 1211.47,-648.313"/>
<polygon fill="black" stroke="black" points="1214.12,-650.617 1218.76,-641.09 1209.19,-645.646 1214.12,-650.617"/>
</g>
<!-- Data -->
<g id="node69" class="node"><title>Data</title>
<ellipse fill="green" stroke="green" cx="1040" cy="-623" rx="34.2406" ry="18"/>
<text text-anchor="middle" x="1040" y="-618.9" font-family="DejaVu Sans, Helvetica, sans" font-size="14.00"><a xlink:href="../doc/Data.html" target="_parent">Data</a></text>
</g>
<!-- PermissionDeduction&#45;&gt;Data -->
<g id="edge84" class="edge"><title>PermissionDeduction&#45;&gt;Data</title>
<path fill="none" stroke="black" d="M1106.15,-723.078C1093.06,-703.271 1071.86,-671.201 1057,-648.717"/>
<polygon fill="black" stroke="black" points="1059.88,-646.732 1051.45,-640.32 1054.04,-650.592 1059.88,-646.732"/>
</g>
<!-- WellKindedness -->
<g id="node70" class="node"><title>WellKindedness</title>
<ellipse fill="green" stroke="green" cx="258" cy="-860" rx="86.1654" ry="18"/>
<text text-anchor="middle" x="258" y="-855.9" font-family="DejaVu Sans, Helvetica, sans" font-size="14.00"><a xlink:href="../doc/WellKindedness.html" target="_parent">WellKindedness</a></text>
</g>
<!-- WellKindedness&#45;&gt;Hml_Pprint -->
<g id="edge94" class="edge"><title>WellKindedness&#45;&gt;Hml_Pprint</title>
<path fill="none" stroke="black" d="M258.771,-841.595C260.436,-814.646 265.664,-763.278 282,-723 293.135,-695.545 312.657,-667.972 327.935,-648.754"/>
<polygon fill="black" stroke="black" points="330.81,-650.767 334.399,-640.798 325.377,-646.353 330.81,-650.767"/>
</g>
<!-- WellKindedness&#45;&gt;Log -->
<g id="edge92" class="edge"><title>WellKindedness&#45;&gt;Log</title>
<path fill="none" stroke="black" d="M247.415,-841.846C236.125,-821.974 218.222,-788.946 206,-759 191.096,-722.483 178.45,-678.635 171.04,-650.792"/>
<polygon fill="black" stroke="black" points="174.383,-649.74 168.463,-640.953 167.611,-651.514 174.383,-649.74"/>
</g>
<!-- WellKindedness&#45;&gt;SurfaceSyntax -->
<g id="edge90" class="edge"><title>WellKindedness&#45;&gt;SurfaceSyntax</title>
<path fill="none" stroke="black" d="M277.166,-842.186C322.226,-800.307 434.965,-695.527 486.52,-647.61"/>
<polygon fill="black" stroke="black" points="489.017,-650.068 493.959,-640.697 484.251,-644.941 489.017,-650.068"/>
</g>
<!-- WellKindedness&#45;&gt;Variable -->
<g id="edge86" class="edge"><title>WellKindedness&#45;&gt;Variable</title>
<path fill="none" stroke="black" d="M252.657,-841.929C240.189,-795.621 214.729,-671.671 277,-605 364.522,-511.294 722.875,-550.011 848,-522 852.056,-521.092 856.238,-520.046 860.416,-518.924"/>
<polygon fill="black" stroke="black" points="861.414,-522.278 870.091,-516.198 859.516,-515.541 861.414,-522.278"/>
</g>
<!-- WellKindedness&#45;&gt;Types -->
<g id="edge88" class="edge"><title>WellKindedness&#45;&gt;Types</title>
<path fill="none" stroke="black" d="M308.562,-845.289C389.868,-821.633 548.231,-775.556 624.258,-753.436"/>
<polygon fill="black" stroke="black" points="625.362,-756.76 633.986,-750.606 623.406,-750.039 625.362,-756.76"/>
</g>
<!-- Expressions -->
<g id="node76" class="node"><title>Expressions</title>
<ellipse fill="green" stroke="green" cx="940" cy="-860" rx="68.0985" ry="18"/>
<text text-anchor="middle" x="940" y="-855.9" font-family="DejaVu Sans, Helvetica, sans" font-size="14.00"><a xlink:href="../doc/Expressions.html" target="_parent">Expressions</a></text>
</g>
<!-- Expressions&#45;&gt;Datacon -->
<g id="edge100" class="edge"><title>Expressions&#45;&gt;Datacon</title>
<path fill="none" stroke="black" d="M932.253,-841.856C907.401,-783.65 829.566,-601.352 799.767,-531.56"/>
<polygon fill="black" stroke="black" points="802.877,-529.929 795.731,-522.107 796.439,-532.678 802.877,-529.929"/>
</g>
<!-- Expressions&#45;&gt;Variable -->
<g id="edge96" class="edge"><title>Expressions&#45;&gt;Variable</title>
<path fill="none" stroke="black" d="M944.327,-841.796C953.643,-799.589 973.254,-692.014 954,-605 948.084,-578.265 934.337,-550.21 923.229,-530.472"/>
<polygon fill="black" stroke="black" points="926.227,-528.664 918.192,-521.758 920.167,-532.167 926.227,-528.664"/>
</g>
<!-- Expressions&#45;&gt;Types -->
<g id="edge98" class="edge"><title>Expressions&#45;&gt;Types</title>
<path fill="none" stroke="black" d="M904.59,-844.565C853.115,-822.127 758.004,-780.669 705.071,-757.595"/>
<polygon fill="black" stroke="black" points="706.264,-754.297 695.698,-753.51 703.467,-760.714 706.264,-754.297"/>
</g>
<!-- Hamlet -->
<g id="node80" class="node"><title>Hamlet</title>
<ellipse fill="magenta" stroke="magenta" cx="258" cy="-978" rx="45.8622" ry="18"/>
<text text-anchor="middle" x="258" y="-973.9" font-family="DejaVu Sans, Helvetica, sans" font-size="14.00"><a xlink:href="../doc/Hamlet.html" target="_parent">Hamlet</a></text>
</g>
<!-- Hamlet&#45;&gt;Log -->
<g id="edge106" class="edge"><title>Hamlet&#45;&gt;Log</title>
<path fill="none" stroke="black" d="M235.227,-962.349C212.03,-944.879 177.474,-914.25 163,-878 132.095,-800.596 147.185,-699.131 157.336,-650.855"/>
<polygon fill="black" stroke="black" points="160.807,-651.365 159.532,-640.847 153.969,-649.865 160.807,-651.365"/>
</g>
<!-- Hamlet&#45;&gt;Driver -->
<g id="edge110" class="edge"><title>Hamlet&#45;&gt;Driver</title>
<path fill="none" stroke="black" d="M231.577,-963.174C203.053,-945.983 157.962,-915.191 130,-878 104.897,-844.611 89.4648,-798.206 81.5644,-768.892"/>
<polygon fill="black" stroke="black" points="84.879,-767.729 78.9905,-758.922 78.1011,-769.479 84.879,-767.729"/>
</g>
<!-- Hamlet&#45;&gt;FactInference -->
<g id="edge108" class="edge"><title>Hamlet&#45;&gt;FactInference</title>
<path fill="none" stroke="black" d="M287.751,-964.233C332.4,-943.572 417.017,-904.416 468.872,-880.42"/>
<polygon fill="black" stroke="black" points="470.551,-883.5 478.156,-876.124 467.611,-877.147 470.551,-883.5"/>
</g>
<!-- Hamlet&#45;&gt;Types -->
<g id="edge104" class="edge"><title>Hamlet&#45;&gt;Types</title>
<path fill="none" stroke="black" d="M299.483,-970.095C379.659,-954.138 552.048,-916.325 598,-878 632.177,-849.496 651.136,-799.828 660.182,-768.773"/>
<polygon fill="black" stroke="black" points="663.589,-769.582 662.877,-759.012 656.841,-767.719 663.589,-769.582"/>
</g>
<!-- Hamlet&#45;&gt;WellKindedness -->
<g id="edge102" class="edge"><title>Hamlet&#45;&gt;WellKindedness</title>
<path fill="none" stroke="black" d="M258,-959.821C258,-940.709 258,-910.389 258,-888.175"/>
<polygon fill="black" stroke="black" points="261.5,-888.006 258,-878.006 254.5,-888.006 261.5,-888.006"/>
</g>
</g>
</svg>
