<?xml version="1.0" encoding="UTF-8" standalone="no"?>
<!DOCTYPE svg PUBLIC "-//W3C//DTD SVG 1.1//EN"
 "http://www.w3.org/Graphics/SVG/1.1/DTD/svg11.dtd">
<!-- Generated by graphviz version 2.26.3 (20100126.1600)
 -->
<!-- Title: G Pages: 1 -->
<svg width="719pt" height="540pt"
 viewBox="0.00 0.00 718.66 540.00" xmlns="http://www.w3.org/2000/svg" xmlns:xlink="http://www.w3.org/1999/xlink">
<g id="graph1" class="graph" transform="scale(0.503614 0.503614) rotate(0) translate(4 1068.25)">
<title>G</title>
<polygon fill="white" stroke="white" points="-4,5 -4,-1068.25 1424,-1068.25 1424,5 -4,5"/>
<!-- Log -->
<g id="node1" class="node"><title>Log</title>
<ellipse fill="darkturquoise" stroke="darkturquoise" cx="1234" cy="-657" rx="27.9903" ry="18"/>
<text text-anchor="middle" x="1234" y="-652.9" font-family="DejaVu Sans, Helvetica, sans" font-size="14.00"><a xlink:href="../doc/Log.html" target="_parent">Log</a></text>
</g>
<!-- Bash -->
<g id="node3" class="node"><title>Bash</title>
<ellipse fill="darkturquoise" stroke="darkturquoise" cx="1153" cy="-532" rx="34.2406" ry="18"/>
<text text-anchor="middle" x="1153" y="-527.9" font-family="DejaVu Sans, Helvetica, sans" font-size="14.00"><a xlink:href="../doc/Bash.html" target="_parent">Bash</a></text>
</g>
<!-- Log&#45;&gt;Bash -->
<g id="edge2" class="edge"><title>Log&#45;&gt;Bash</title>
<path fill="none" stroke="black" d="M1223.08,-640.142C1209.38,-619.013 1185.78,-582.582 1169.79,-557.903"/>
<polygon fill="black" stroke="black" points="1172.65,-555.882 1164.27,-549.393 1166.77,-559.688 1172.65,-555.882"/>
</g>
<!-- Hml_String -->
<g id="node5" class="node"><title>Hml_String</title>
<ellipse fill="darkturquoise" stroke="darkturquoise" cx="1307" cy="-532" rx="64.1231" ry="18"/>
<text text-anchor="middle" x="1307" y="-527.9" font-family="DejaVu Sans, Helvetica, sans" font-size="14.00"><a xlink:href="../doc/Hml_String.html" target="_parent">Hml_String</a></text>
</g>
<!-- Log&#45;&gt;Hml_String -->
<g id="edge4" class="edge"><title>Log&#45;&gt;Hml_String</title>
<path fill="none" stroke="black" d="M1243.85,-640.142C1256.06,-619.224 1277.04,-583.307 1291.44,-558.646"/>
<polygon fill="black" stroke="black" points="1294.58,-560.2 1296.61,-549.799 1288.54,-556.67 1294.58,-560.2"/>
</g>
<!-- Option -->
<g id="node7" class="node"><title>Option</title>
<ellipse fill="darkturquoise" stroke="darkturquoise" cx="1215" cy="-407" rx="43.7776" ry="18"/>
<text text-anchor="middle" x="1215" y="-402.9" font-family="DejaVu Sans, Helvetica, sans" font-size="14.00"><a xlink:href="../doc/Option.html" target="_parent">Option</a></text>
</g>
<!-- Log&#45;&gt;Option -->
<g id="edge6" class="edge"><title>Log&#45;&gt;Option</title>
<path fill="none" stroke="black" d="M1232.63,-639.021C1229.37,-596.061 1221.09,-487.179 1217.15,-435.311"/>
<polygon fill="black" stroke="black" points="1220.63,-434.858 1216.38,-425.152 1213.65,-435.389 1220.63,-434.858"/>
</g>
<!-- Hml_String&#45;&gt;Option -->
<g id="edge8" class="edge"><title>Hml_String&#45;&gt;Option</title>
<path fill="none" stroke="black" d="M1294.01,-514.356C1278.33,-493.045 1251.82,-457.029 1233.88,-432.649"/>
<polygon fill="black" stroke="black" points="1236.67,-430.534 1227.92,-424.555 1231.03,-434.683 1236.67,-430.534"/>
</g>
<!-- Hml_Map -->
<g id="node9" class="node"><title>Hml_Map</title>
<ellipse fill="darkturquoise" stroke="darkturquoise" cx="579" cy="-657" rx="55.0898" ry="18"/>
<text text-anchor="middle" x="579" y="-652.9" font-family="DejaVu Sans, Helvetica, sans" font-size="14.00"><a xlink:href="../doc/Hml_Map.html" target="_parent">Hml_Map</a></text>
</g>
<!-- Hml_List -->
<g id="node10" class="node"><title>Hml_List</title>
<ellipse fill="darkturquoise" stroke="darkturquoise" cx="1048" cy="-532" rx="52.8111" ry="18"/>
<text text-anchor="middle" x="1048" y="-527.9" font-family="DejaVu Sans, Helvetica, sans" font-size="14.00"><a xlink:href="../doc/Hml_List.html" target="_parent">Hml_List</a></text>
</g>
<!-- Hml_List&#45;&gt;Option -->
<g id="edge10" class="edge"><title>Hml_List&#45;&gt;Option</title>
<path fill="none" stroke="black" d="M1070.18,-515.401C1099.82,-493.21 1152.46,-453.815 1185.45,-429.122"/>
<polygon fill="black" stroke="black" points="1187.88,-431.671 1193.79,-422.877 1183.69,-426.067 1187.88,-431.671"/>
</g>
<!-- InfiniteArray -->
<g id="node12" class="node"><title>InfiniteArray</title>
<ellipse fill="darkturquoise" stroke="darkturquoise" cx="413" cy="-157" rx="71.7694" ry="18"/>
<text text-anchor="middle" x="413" y="-152.9" font-family="DejaVu Sans, Helvetica, sans" font-size="14.00"><a xlink:href="../doc/InfiniteArray.html" target="_parent">InfiniteArray</a></text>
</g>
<!-- Hml_Pprint -->
<g id="node13" class="node"><title>Hml_Pprint</title>
<ellipse fill="darkturquoise" stroke="darkturquoise" cx="1048" cy="-657" rx="64.1231" ry="18"/>
<text text-anchor="middle" x="1048" y="-652.9" font-family="DejaVu Sans, Helvetica, sans" font-size="14.00"><a xlink:href="../doc/Hml_Pprint.html" target="_parent">Hml_Pprint</a></text>
</g>
<!-- Hml_Pprint&#45;&gt;Bash -->
<g id="edge14" class="edge"><title>Hml_Pprint&#45;&gt;Bash</title>
<path fill="none" stroke="black" d="M1062.82,-639.356C1081,-617.71 1111.93,-580.893 1132.41,-556.509"/>
<polygon fill="black" stroke="black" points="1135.17,-558.664 1138.93,-548.756 1129.81,-554.162 1135.17,-558.664"/>
</g>
<!-- Hml_Pprint&#45;&gt;Hml_List -->
<g id="edge12" class="edge"><title>Hml_Pprint&#45;&gt;Hml_List</title>
<path fill="none" stroke="black" d="M1048,-638.824C1048,-618.272 1048,-584.547 1048,-560.489"/>
<polygon fill="black" stroke="black" points="1051.5,-560.198 1048,-550.198 1044.5,-560.198 1051.5,-560.198"/>
</g>
<!-- Driver -->
<g id="node16" class="node"><title>Driver</title>
<ellipse fill="#eead0e" stroke="#eead0e" cx="1323" cy="-783" rx="41.1906" ry="18"/>
<text text-anchor="middle" x="1323" y="-778.9" font-family="DejaVu Sans, Helvetica, sans" font-size="14.00"><a xlink:href="../doc/Driver.html" target="_parent">Driver</a></text>
</g>
<!-- Driver&#45;&gt;Hml_String -->
<g id="edge16" class="edge"><title>Driver&#45;&gt;Hml_String</title>
<path fill="none" stroke="black" d="M1321.85,-764.949C1319.1,-721.818 1312.13,-612.5 1308.81,-560.424"/>
<polygon fill="black" stroke="black" points="1312.29,-559.982 1308.16,-550.225 1305.31,-560.427 1312.29,-559.982"/>
</g>
<!-- Lexer -->
<g id="node19" class="node"><title>Lexer</title>
<ellipse fill="#eead0e" stroke="#eead0e" cx="1374" cy="-657" rx="38.9134" ry="18"/>
<text text-anchor="middle" x="1374" y="-652.9" font-family="DejaVu Sans, Helvetica, sans" font-size="14.00"><a xlink:href="../doc/Lexer.html" target="_parent">Lexer</a></text>
</g>
<!-- Driver&#45;&gt;Lexer -->
<g id="edge18" class="edge"><title>Driver&#45;&gt;Lexer</title>
<path fill="none" stroke="black" d="M1330.2,-765.215C1338.74,-744.109 1353.08,-708.693 1363.01,-684.153"/>
<polygon fill="black" stroke="black" points="1366.33,-685.278 1366.84,-674.695 1359.84,-682.651 1366.33,-685.278"/>
</g>
<!-- SurfaceSyntax -->
<g id="node21" class="node"><title>SurfaceSyntax</title>
<ellipse fill="#eead0e" stroke="#eead0e" cx="847" cy="-657" rx="80.8024" ry="18"/>
<text text-anchor="middle" x="847" y="-652.9" font-family="DejaVu Sans, Helvetica, sans" font-size="14.00"><a xlink:href="../doc/SurfaceSyntax.html" target="_parent">SurfaceSyntax</a></text>
</g>
<!-- Driver&#45;&gt;SurfaceSyntax -->
<g id="edge20" class="edge"><title>Driver&#45;&gt;SurfaceSyntax</title>
<path fill="none" stroke="black" d="M1287.61,-773.632C1207.23,-752.355 1010.05,-700.159 908.959,-673.401"/>
<polygon fill="black" stroke="black" points="909.751,-669.99 899.188,-670.815 907.96,-676.757 909.751,-669.99"/>
</g>
<!-- Variable -->
<g id="node24" class="node"><title>Variable</title>
<ellipse fill="#eead0e" stroke="#eead0e" cx="597" cy="-532" rx="50.0315" ry="18"/>
<text text-anchor="middle" x="597" y="-527.9" font-family="DejaVu Sans, Helvetica, sans" font-size="14.00"><a xlink:href="../doc/Variable.html" target="_parent">Variable</a></text>
</g>
<!-- SurfaceSyntax&#45;&gt;Variable -->
<g id="edge34" class="edge"><title>SurfaceSyntax&#45;&gt;Variable</title>
<path fill="none" stroke="black" d="M814.06,-640.53C767.972,-617.486 684.418,-575.709 635.512,-551.256"/>
<polygon fill="black" stroke="black" points="637.016,-548.095 626.507,-546.753 633.886,-554.356 637.016,-548.095"/>
</g>
<!-- Datacon -->
<g id="node32" class="node"><title>Datacon</title>
<ellipse fill="#eead0e" stroke="#eead0e" cx="419" cy="-532" rx="50.9221" ry="18"/>
<text text-anchor="middle" x="419" y="-527.9" font-family="DejaVu Sans, Helvetica, sans" font-size="14.00"><a xlink:href="../doc/Datacon.html" target="_parent">Datacon</a></text>
</g>
<!-- SurfaceSyntax&#45;&gt;Datacon -->
<g id="edge36" class="edge"><title>SurfaceSyntax&#45;&gt;Datacon</title>
<path fill="none" stroke="black" d="M797.903,-642.661C715.509,-618.597 550.362,-570.365 468.02,-546.317"/>
<polygon fill="black" stroke="black" points="468.98,-542.951 458.4,-543.507 467.017,-549.67 468.98,-542.951"/>
</g>
<!-- Hashcons -->
<g id="node22" class="node"><title>Hashcons</title>
<ellipse fill="#eead0e" stroke="#eead0e" cx="413" cy="-282" rx="56.9803" ry="18"/>
<text text-anchor="middle" x="413" y="-277.9" font-family="DejaVu Sans, Helvetica, sans" font-size="14.00"><a xlink:href="../doc/Hashcons.html" target="_parent">Hashcons</a></text>
</g>
<!-- Hashcons&#45;&gt;InfiniteArray -->
<g id="edge22" class="edge"><title>Hashcons&#45;&gt;InfiniteArray</title>
<path fill="none" stroke="black" d="M413,-263.824C413,-243.272 413,-209.547 413,-185.489"/>
<polygon fill="black" stroke="black" points="416.5,-185.198 413,-175.198 409.5,-185.198 416.5,-185.198"/>
</g>
<!-- Identifier -->
<g id="node26" class="node"><title>Identifier</title>
<ellipse fill="#eead0e" stroke="#eead0e" cx="413" cy="-407" rx="54.8957" ry="18"/>
<text text-anchor="middle" x="413" y="-402.9" font-family="DejaVu Sans, Helvetica, sans" font-size="14.00"><a xlink:href="../doc/Identifier.html" target="_parent">Identifier</a></text>
</g>
<!-- Variable&#45;&gt;Identifier -->
<g id="edge24" class="edge"><title>Variable&#45;&gt;Identifier</title>
<path fill="none" stroke="black" d="M573.322,-515.914C540.704,-493.755 481.835,-453.763 445.229,-428.894"/>
<polygon fill="black" stroke="black" points="447.117,-425.946 436.879,-423.222 443.184,-431.736 447.117,-425.946"/>
</g>
<!-- Identifier&#45;&gt;Hashcons -->
<g id="edge26" class="edge"><title>Identifier&#45;&gt;Hashcons</title>
<path fill="none" stroke="black" d="M413,-388.824C413,-368.272 413,-334.547 413,-310.489"/>
<polygon fill="black" stroke="black" points="416.5,-310.198 413,-300.198 409.5,-310.198 416.5,-310.198"/>
</g>
<!-- Patricia -->
<g id="node29" class="node"><title>Patricia</title>
<ellipse fill="cyan" stroke="cyan" cx="252" cy="-282" rx="46.7546" ry="18"/>
<text text-anchor="middle" x="252" y="-277.9" font-family="DejaVu Sans, Helvetica, sans" font-size="14.00"><a xlink:href="../doc/Patricia.html" target="_parent">Patricia</a></text>
</g>
<!-- Identifier&#45;&gt;Patricia -->
<g id="edge28" class="edge"><title>Identifier&#45;&gt;Patricia</title>
<path fill="none" stroke="black" d="M391.62,-390.401C363.196,-368.332 312.854,-329.247 281.019,-304.53"/>
<polygon fill="black" stroke="black" points="283.002,-301.638 272.956,-298.27 278.709,-307.168 283.002,-301.638"/>
</g>
<!-- GMap -->
<g id="node31" class="node"><title>GMap</title>
<ellipse fill="cyan" stroke="cyan" cx="268" cy="-157" rx="38.9134" ry="18"/>
<text text-anchor="middle" x="268" y="-152.9" font-family="DejaVu Sans, Helvetica, sans" font-size="14.00"><a xlink:href="../doc/GMap.html" target="_parent">GMap</a></text>
</g>
<!-- Identifier&#45;&gt;GMap -->
<g id="edge30" class="edge"><title>Identifier&#45;&gt;GMap</title>
<path fill="none" stroke="black" d="M401.76,-389.361C388.409,-368.279 365.606,-331.85 347,-300 323.606,-259.955 297.867,-212.725 282.322,-183.826"/>
<polygon fill="black" stroke="black" points="285.272,-181.921 277.46,-174.765 279.105,-185.232 285.272,-181.921"/>
</g>
<!-- Patricia&#45;&gt;GMap -->
<g id="edge38" class="edge"><title>Patricia&#45;&gt;GMap</title>
<path fill="none" stroke="black" d="M254.327,-263.824C256.969,-243.18 261.313,-209.243 264.395,-185.165"/>
<polygon fill="black" stroke="black" points="267.873,-185.561 265.671,-175.198 260.929,-184.673 267.873,-185.561"/>
</g>
<!-- GSet -->
<g id="node37" class="node"><title>GSet</title>
<ellipse fill="cyan" stroke="cyan" cx="268" cy="-31" rx="34.9399" ry="18"/>
<text text-anchor="middle" x="268" y="-26.9" font-family="DejaVu Sans, Helvetica, sans" font-size="14.00"><a xlink:href="../doc/GSet.html" target="_parent">GSet</a></text>
</g>
<!-- GMap&#45;&gt;GSet -->
<g id="edge40" class="edge"><title>GMap&#45;&gt;GSet</title>
<path fill="none" stroke="black" d="M268,-138.947C268,-118.082 268,-83.4928 268,-59.1006"/>
<polygon fill="black" stroke="black" points="271.5,-59.0192 268,-49.0192 264.5,-59.0193 271.5,-59.0192"/>
</g>
<!-- Datacon&#45;&gt;Identifier -->
<g id="edge32" class="edge"><title>Datacon&#45;&gt;Identifier</title>
<path fill="none" stroke="black" d="M418.128,-513.824C417.141,-493.272 415.522,-459.547 414.367,-435.489"/>
<polygon fill="black" stroke="black" points="417.849,-435.019 413.874,-425.198 410.857,-435.354 417.849,-435.019"/>
</g>
<!-- Permissions -->
<g id="node39" class="node"><title>Permissions</title>
<ellipse fill="green" stroke="green" cx="279" cy="-908" rx="66.9043" ry="18"/>
<text text-anchor="middle" x="279" y="-903.9" font-family="DejaVu Sans, Helvetica, sans" font-size="14.00"><a xlink:href="../doc/Permissions.html" target="_parent">Permissions</a></text>
</g>
<!-- Types -->
<g id="node41" class="node"><title>Types</title>
<ellipse fill="green" stroke="green" cx="703" cy="-783" rx="38.9134" ry="18"/>
<text text-anchor="middle" x="703" y="-778.9" font-family="DejaVu Sans, Helvetica, sans" font-size="14.00"><a xlink:href="../doc/Types.html" target="_parent">Types</a></text>
</g>
<!-- Permissions&#45;&gt;Types -->
<g id="edge42" class="edge"><title>Permissions&#45;&gt;Types</title>
<path fill="none" stroke="black" d="M324.375,-894.623C406.734,-870.343 579.725,-819.343 660.172,-795.626"/>
<polygon fill="black" stroke="black" points="661.37,-798.922 669.972,-792.737 659.391,-792.208 661.37,-798.922"/>
</g>
<!-- PersistentUnionFind -->
<g id="node43" class="node"><title>PersistentUnionFind</title>
<ellipse fill="green" stroke="green" cx="247" cy="-657" rx="107.206" ry="18"/>
<text text-anchor="middle" x="247" y="-652.9" font-family="DejaVu Sans, Helvetica, sans" font-size="14.00"><a xlink:href="../doc/PersistentUnionFind.html" target="_parent">PersistentUnionFind</a></text>
</g>
<!-- Permissions&#45;&gt;PersistentUnionFind -->
<g id="edge44" class="edge"><title>Permissions&#45;&gt;PersistentUnionFind</title>
<path fill="none" stroke="black" d="M276.699,-889.949C271.2,-846.818 257.263,-737.5 250.624,-685.424"/>
<polygon fill="black" stroke="black" points="254.06,-684.702 249.324,-675.225 247.116,-685.587 254.06,-684.702"/>
</g>
<!-- Types&#45;&gt;Log -->
<g id="edge70" class="edge"><title>Types&#45;&gt;Log</title>
<path fill="none" stroke="black" d="M737.84,-774.733C833.566,-752.018 1099.94,-688.811 1197.55,-665.649"/>
<polygon fill="black" stroke="black" points="1198.61,-668.995 1207.53,-663.281 1196.99,-662.184 1198.61,-668.995"/>
</g>
<!-- Types&#45;&gt;Bash -->
<g id="edge80" class="edge"><title>Types&#45;&gt;Bash</title>
<path fill="none" stroke="black" d="M704.485,-764.999C707.997,-734.433 719.579,-672.456 757,-639 877.622,-531.162 956.502,-601.159 1110,-550 1112.42,-549.194 1114.89,-548.314 1117.37,-547.39"/>
<polygon fill="black" stroke="black" points="1118.82,-550.58 1126.86,-543.674 1116.27,-544.063 1118.82,-550.58"/>
</g>
<!-- Types&#45;&gt;Hml_Map -->
<g id="edge74" class="edge"><title>Types&#45;&gt;Hml_Map</title>
<path fill="none" stroke="black" d="M686.789,-766.528C665.491,-744.886 627.903,-706.692 603.223,-681.614"/>
<polygon fill="black" stroke="black" points="605.519,-678.957 596.01,-674.284 600.53,-683.867 605.519,-678.957"/>
</g>
<!-- Types&#45;&gt;Hml_List -->
<g id="edge76" class="edge"><title>Types&#45;&gt;Hml_List</title>
<path fill="none" stroke="black" d="M700.075,-764.661C696.392,-734.7 693.787,-674.992 724,-639 758.814,-597.526 909.14,-560.719 992.242,-543.065"/>
<polygon fill="black" stroke="black" points="992.964,-546.49 1002.03,-541.008 991.524,-539.639 992.964,-546.49"/>
</g>
<!-- Types&#45;&gt;Hml_Pprint -->
<g id="edge72" class="edge"><title>Types&#45;&gt;Hml_Pprint</title>
<path fill="none" stroke="black" d="M733.616,-771.818C793.546,-749.931 926.785,-701.27 999.074,-674.869"/>
<polygon fill="black" stroke="black" points="1000.66,-678.014 1008.86,-671.296 998.262,-671.439 1000.66,-678.014"/>
</g>
<!-- Types&#45;&gt;SurfaceSyntax -->
<g id="edge66" class="edge"><title>Types&#45;&gt;SurfaceSyntax</title>
<path fill="none" stroke="black" d="M721.238,-767.042C745.865,-745.493 789.988,-706.886 818.877,-681.607"/>
<polygon fill="black" stroke="black" points="821.372,-684.075 826.593,-674.856 816.762,-678.807 821.372,-684.075"/>
</g>
<!-- Types&#45;&gt;Variable -->
<g id="edge64" class="edge"><title>Types&#45;&gt;Variable</title>
<path fill="none" stroke="black" d="M695.674,-765.238C684.434,-738.025 662.213,-684.393 643,-639 631.517,-611.872 618.206,-580.967 608.867,-559.37"/>
<polygon fill="black" stroke="black" points="612.06,-557.936 604.876,-550.149 605.636,-560.716 612.06,-557.936"/>
</g>
<!-- Types&#45;&gt;Datacon -->
<g id="edge78" class="edge"><title>Types&#45;&gt;Datacon</title>
<path fill="none" stroke="black" d="M673.254,-771.044C633.739,-754.092 563.313,-720.054 515,-675 478.336,-640.809 448.52,-590.069 432.308,-559.12"/>
<polygon fill="black" stroke="black" points="435.404,-557.487 427.721,-550.191 429.177,-560.685 435.404,-557.487"/>
</g>
<!-- Types&#45;&gt;PersistentUnionFind -->
<g id="edge68" class="edge"><title>Types&#45;&gt;PersistentUnionFind</title>
<path fill="none" stroke="black" d="M669.469,-773.735C594.304,-752.966 411.207,-702.373 312.548,-675.112"/>
<polygon fill="black" stroke="black" points="313.261,-671.678 302.69,-672.388 311.397,-678.425 313.261,-671.678"/>
</g>
<!-- PersistentRef -->
<g id="node44" class="node"><title>PersistentRef</title>
<ellipse fill="green" stroke="green" cx="252" cy="-407" rx="73.8534" ry="18"/>
<text text-anchor="middle" x="252" y="-402.9" font-family="DejaVu Sans, Helvetica, sans" font-size="14.00"><a xlink:href="../doc/PersistentRef.html" target="_parent">PersistentRef</a></text>
</g>
<!-- PersistentUnionFind&#45;&gt;PersistentRef -->
<g id="edge88" class="edge"><title>PersistentUnionFind&#45;&gt;PersistentRef</title>
<path fill="none" stroke="black" d="M247.368,-638.617C248.233,-595.349 250.403,-486.848 251.436,-435.189"/>
<polygon fill="black" stroke="black" points="254.938,-435.141 251.639,-425.073 247.939,-435.001 254.938,-435.141"/>
</g>
<!-- PersistentRef&#45;&gt;Patricia -->
<g id="edge46" class="edge"><title>PersistentRef&#45;&gt;Patricia</title>
<path fill="none" stroke="black" d="M252,-388.824C252,-368.272 252,-334.547 252,-310.489"/>
<polygon fill="black" stroke="black" points="255.5,-310.198 252,-300.198 248.5,-310.198 255.5,-310.198"/>
</g>
<!-- WellKindedness -->
<g id="node46" class="node"><title>WellKindedness</title>
<ellipse fill="green" stroke="green" cx="838" cy="-908" rx="86.1654" ry="18"/>
<text text-anchor="middle" x="838" y="-903.9" font-family="DejaVu Sans, Helvetica, sans" font-size="14.00"><a xlink:href="../doc/WellKindedness.html" target="_parent">WellKindedness</a></text>
</g>
<!-- WellKindedness&#45;&gt;Log -->
<g id="edge54" class="edge"><title>WellKindedness&#45;&gt;Log</title>
<path fill="none" stroke="black" d="M865.219,-890.748C937.108,-845.181 1131.57,-721.923 1205.21,-675.247"/>
<polygon fill="black" stroke="black" points="1207.41,-678 1213.98,-669.691 1203.66,-672.088 1207.41,-678"/>
</g>
<!-- WellKindedness&#45;&gt;Hml_Pprint -->
<g id="edge56" class="edge"><title>WellKindedness&#45;&gt;Hml_Pprint</title>
<path fill="none" stroke="black" d="M843.22,-889.713C852.113,-860.882 872.37,-804.125 904,-765 933.504,-728.504 977.947,-697.661 1009.65,-678.398"/>
<polygon fill="black" stroke="black" points="1011.84,-681.166 1018.64,-673.038 1008.26,-675.153 1011.84,-681.166"/>
</g>
<!-- WellKindedness&#45;&gt;SurfaceSyntax -->
<g id="edge52" class="edge"><title>WellKindedness&#45;&gt;SurfaceSyntax</title>
<path fill="none" stroke="black" d="M834.919,-889.925C830.704,-862.779 824.083,-809.875 828,-765 830.39,-737.618 836.128,-706.771 840.676,-685.076"/>
<polygon fill="black" stroke="black" points="844.116,-685.728 842.794,-675.216 837.272,-684.258 844.116,-685.728"/>
</g>
<!-- WellKindedness&#45;&gt;Variable -->
<g id="edge48" class="edge"><title>WellKindedness&#45;&gt;Variable</title>
<path fill="none" stroke="black" d="M792.932,-892.55C717.291,-863.742 567.885,-793.746 515,-675 495.304,-630.775 537.444,-582.556 568.298,-554.933"/>
<polygon fill="black" stroke="black" points="570.6,-557.569 575.854,-548.369 566.01,-552.284 570.6,-557.569"/>
</g>
<!-- WellKindedness&#45;&gt;Types -->
<g id="edge50" class="edge"><title>WellKindedness&#45;&gt;Types</title>
<path fill="none" stroke="black" d="M818.944,-890.356C795.232,-868.4 754.662,-830.835 728.346,-806.468"/>
<polygon fill="black" stroke="black" points="730.386,-803.588 720.671,-799.362 725.63,-808.724 730.386,-803.588"/>
</g>
<!-- Data -->
<g id="node52" class="node"><title>Data</title>
<ellipse fill="green" stroke="green" cx="50" cy="-657" rx="34.2406" ry="18"/>
<text text-anchor="middle" x="50" y="-652.9" font-family="DejaVu Sans, Helvetica, sans" font-size="14.00"><a xlink:href="../doc/Data.html" target="_parent">Data</a></text>
</g>
<!-- Expressions -->
<g id="node53" class="node"><title>Expressions</title>
<ellipse fill="green" stroke="green" cx="458" cy="-908" rx="68.0985" ry="18"/>
<text text-anchor="middle" x="458" y="-903.9" font-family="DejaVu Sans, Helvetica, sans" font-size="14.00"><a xlink:href="../doc/Expressions.html" target="_parent">Expressions</a></text>
</g>
<!-- Expressions&#45;&gt;Variable -->
<g id="edge58" class="edge"><title>Expressions&#45;&gt;Variable</title>
<path fill="none" stroke="black" d="M455.363,-889.846C449.676,-844.718 439.948,-724.91 482,-639 499.851,-602.532 535.836,-572.29 562.824,-553.368"/>
<polygon fill="black" stroke="black" points="564.948,-556.156 571.236,-547.629 561.003,-550.374 564.948,-556.156"/>
</g>
<!-- Expressions&#45;&gt;Datacon -->
<g id="edge62" class="edge"><title>Expressions&#45;&gt;Datacon</title>
<path fill="none" stroke="black" d="M455.415,-889.85C452.435,-868.586 447.499,-832.279 444,-801 434.209,-713.464 425.33,-609.598 421.293,-560.467"/>
<polygon fill="black" stroke="black" points="424.764,-559.971 420.462,-550.289 417.788,-560.541 424.764,-559.971"/>
</g>
<!-- Expressions&#45;&gt;Types -->
<g id="edge60" class="edge"><title>Expressions&#45;&gt;Types</title>
<path fill="none" stroke="black" d="M489.528,-891.914C535.327,-868.547 619.993,-825.351 667.782,-800.968"/>
<polygon fill="black" stroke="black" points="669.509,-804.016 676.826,-796.354 666.328,-797.781 669.509,-804.016"/>
</g>
<!-- Mode -->
<g id="node57" class="node"><title>Mode</title>
<ellipse fill="green" stroke="green" cx="1192" cy="-1033" rx="36.8288" ry="18"/>
<text text-anchor="middle" x="1192" y="-1028.9" font-family="DejaVu Sans, Helvetica, sans" font-size="14.00"><a xlink:href="../doc/Mode.html" target="_parent">Mode</a></text>
</g>
<!-- ModeDeduction -->
<g id="node58" class="node"><title>ModeDeduction</title>
<ellipse fill="green" stroke="green" cx="1333" cy="-1033" rx="86.1654" ry="18"/>
<text text-anchor="middle" x="1333" y="-1028.9" font-family="DejaVu Sans, Helvetica, sans" font-size="14.00"><a xlink:href="../doc/ModeDeduction.html" target="_parent">ModeDeduction</a></text>
</g>
<!-- PermissionDeduction -->
<g id="node68" class="node"><title>PermissionDeduction</title>
<ellipse fill="green" stroke="green" cx="112" cy="-783" rx="111.876" ry="18"/>
<text text-anchor="middle" x="112" y="-778.9" font-family="DejaVu Sans, Helvetica, sans" font-size="14.00"><a xlink:href="../doc/PermissionDeduction.html" target="_parent">PermissionDeduction</a></text>
</g>
<!-- PermissionDeduction&#45;&gt;Patricia -->
<g id="edge82" class="edge"><title>PermissionDeduction&#45;&gt;Patricia</title>
<path fill="none" stroke="black" d="M111.371,-764.837C110.041,-707.205 110.955,-524.288 169,-389 182.727,-357.006 208.345,-326.224 227.504,-305.956"/>
<polygon fill="black" stroke="black" points="230.062,-308.346 234.493,-298.723 225.028,-303.483 230.062,-308.346"/>
</g>
<!-- PermissionDeduction&#45;&gt;PersistentUnionFind -->
<g id="edge84" class="edge"><title>PermissionDeduction&#45;&gt;PersistentUnionFind</title>
<path fill="none" stroke="black" d="M131.056,-765.215C154.341,-743.482 193.883,-706.576 220.219,-681.996"/>
<polygon fill="black" stroke="black" points="222.681,-684.485 227.604,-675.103 217.905,-679.368 222.681,-684.485"/>
</g>
<!-- PermissionDeduction&#45;&gt;Data -->
<g id="edge86" class="edge"><title>PermissionDeduction&#45;&gt;Data</title>
<path fill="none" stroke="black" d="M103.117,-764.947C92.6528,-743.681 75.1733,-708.159 63.1412,-683.706"/>
<polygon fill="black" stroke="black" points="66.2223,-682.04 58.6667,-674.613 59.9414,-685.131 66.2223,-682.04"/>
</g>
<!-- FactInference -->
<g id="node73" class="node"><title>FactInference</title>
<ellipse fill="green" stroke="green" cx="1091" cy="-908" rx="75.9375" ry="18"/>
<text text-anchor="middle" x="1091" y="-903.9" font-family="DejaVu Sans, Helvetica, sans" font-size="14.00"><a xlink:href="../doc/FactInference.html" target="_parent">FactInference</a></text>
</g>
<!-- FactInference&#45;&gt;Log -->
<g id="edge94" class="edge"><title>FactInference&#45;&gt;Log</title>
<path fill="none" stroke="black" d="M1112.69,-890.56C1135.58,-871.041 1171.18,-837.353 1192,-801 1213.19,-764.009 1224.45,-715.444 1229.82,-685.234"/>
<polygon fill="black" stroke="black" points="1233.27,-685.804 1231.48,-675.362 1226.37,-684.643 1233.27,-685.804"/>
</g>
<!-- FactInference&#45;&gt;Bash -->
<g id="edge90" class="edge"><title>FactInference&#45;&gt;Bash</title>
<path fill="none" stroke="black" d="M1101.69,-889.806C1113.24,-869.091 1131.07,-833.854 1139,-801 1159.66,-715.418 1157.5,-610.232 1154.92,-560.559"/>
<polygon fill="black" stroke="black" points="1158.39,-560.059 1154.33,-550.274 1151.41,-560.456 1158.39,-560.059"/>
</g>
<!-- FactInference&#45;&gt;Hml_List -->
<g id="edge92" class="edge"><title>FactInference&#45;&gt;Hml_List</title>
<path fill="none" stroke="black" d="M1097.94,-889.905C1113.78,-845.889 1149.13,-730.149 1121,-639 1111.28,-607.51 1088.77,-577.01 1071.29,-556.684"/>
<polygon fill="black" stroke="black" points="1073.88,-554.331 1064.64,-549.15 1068.64,-558.963 1073.88,-554.331"/>
</g>
<!-- FactInference&#45;&gt;SurfaceSyntax -->
<g id="edge96" class="edge"><title>FactInference&#45;&gt;SurfaceSyntax</title>
<path fill="none" stroke="black" d="M1061.42,-891.239C1029.47,-872.181 978.303,-838.771 942,-801 907.392,-764.993 877.562,-714.798 860.97,-684.174"/>
<polygon fill="black" stroke="black" points="864.05,-682.512 856.255,-675.336 857.874,-685.807 864.05,-682.512"/>
</g>
<!-- FactInference&#45;&gt;Variable -->
<g id="edge98" class="edge"><title>FactInference&#45;&gt;Variable</title>
<path fill="none" stroke="black" d="M1085.77,-889.885C1070.9,-841.621 1023.76,-708.859 937,-639 854.022,-572.19 728.89,-546.849 655.824,-537.415"/>
<polygon fill="black" stroke="black" points="656.222,-533.938 645.869,-536.187 655.365,-540.885 656.222,-533.938"/>
</g>
<!-- FactInference&#45;&gt;Types -->
<g id="edge100" class="edge"><title>FactInference&#45;&gt;Types</title>
<path fill="none" stroke="black" d="M1045.73,-893.416C969.936,-868.997 818.439,-820.19 744.932,-796.509"/>
<polygon fill="black" stroke="black" points="745.685,-793.074 735.093,-793.339 743.538,-799.737 745.685,-793.074"/>
</g>
<!-- Hamlet -->
<g id="node80" class="node"><title>Hamlet</title>
<ellipse fill="magenta" stroke="magenta" cx="1091" cy="-1033" rx="45.8622" ry="18"/>
<text text-anchor="middle" x="1091" y="-1028.9" font-family="DejaVu Sans, Helvetica, sans" font-size="14.00"><a xlink:href="../doc/Hamlet.html" target="_parent">Hamlet</a></text>
</g>
<!-- Hamlet&#45;&gt;Log -->
<g id="edge106" class="edge"><title>Hamlet&#45;&gt;Log</title>
<path fill="none" stroke="black" d="M1108.05,-1015.94C1127.12,-995.975 1157.72,-961.151 1176,-926 1217.89,-845.444 1229.55,-736.236 1232.78,-685.317"/>
<polygon fill="black" stroke="black" points="1236.28,-685.268 1233.36,-675.085 1229.3,-684.87 1236.28,-685.268"/>
</g>
<!-- Hamlet&#45;&gt;Driver -->
<g id="edge110" class="edge"><title>Hamlet&#45;&gt;Driver</title>
<path fill="none" stroke="black" d="M1124.58,-1020.59C1164,-1004.44 1228.92,-972.664 1268,-926 1296.26,-892.251 1310.97,-842.378 1317.83,-811.331"/>
<polygon fill="black" stroke="black" points="1321.33,-811.695 1319.95,-801.191 1314.48,-810.268 1321.33,-811.695"/>
</g>
<!-- Hamlet&#45;&gt;Types -->
<g id="edge104" class="edge"><title>Hamlet&#45;&gt;Types</title>
<path fill="none" stroke="black" d="M1049.1,-1025.31C966.336,-1009.31 786.128,-970.244 743,-926 712.768,-894.986 704.989,-843.089 703.213,-811.077"/>
<polygon fill="black" stroke="black" points="706.709,-810.896 702.818,-801.042 699.715,-811.172 706.709,-810.896"/>
</g>
<!-- Hamlet&#45;&gt;WellKindedness -->
<g id="edge102" class="edge"><title>Hamlet&#45;&gt;WellKindedness</title>
<path fill="none" stroke="black" d="M1061.98,-1018.66C1017.62,-996.746 932.699,-954.788 881.121,-929.305"/>
<polygon fill="black" stroke="black" points="882.411,-926.038 871.895,-924.747 879.31,-932.314 882.411,-926.038"/>
</g>
<!-- Hamlet&#45;&gt;FactInference -->
<g id="edge108" class="edge"><title>Hamlet&#45;&gt;FactInference</title>
<path fill="none" stroke="black" d="M1091,-1014.82C1091,-994.272 1091,-960.547 1091,-936.489"/>
<polygon fill="black" stroke="black" points="1094.5,-936.198 1091,-926.198 1087.5,-936.198 1094.5,-936.198"/>
</g>
</g>
</svg>
