<?xml version="1.0" encoding="UTF-8" standalone="no"?>
<!DOCTYPE svg PUBLIC "-//W3C//DTD SVG 1.1//EN"
 "http://www.w3.org/Graphics/SVG/1.1/DTD/svg11.dtd">
<!-- Generated by graphviz version 2.26.3 (20100126.1600)
 -->
<!-- Title: G Pages: 1 -->
<svg width="720pt" height="463pt"
 viewBox="0.00 0.00 720.00 463.31" xmlns="http://www.w3.org/2000/svg" xmlns:xlink="http://www.w3.org/1999/xlink">
<g id="graph1" class="graph" transform="scale(0.41497 0.41497) rotate(0) translate(4 1112.5)">
<title>G</title>
<polygon fill="white" stroke="white" points="-4,5 -4,-1112.5 1732.07,-1112.5 1732.07,5 -4,5"/>
<!-- Option -->
<g id="node1" class="node"><title>Option</title>
<ellipse fill="darkturquoise" stroke="darkturquoise" cx="214" cy="-424" rx="43.7776" ry="18"/>
<text text-anchor="middle" x="214" y="-419.9" font-family="DejaVu Sans, Helvetica, sans" font-size="14.00"><a xlink:href="../doc/Option.html" target="_parent">Option</a></text>
</g>
<!-- InfiniteArray -->
<g id="node2" class="node"><title>InfiniteArray</title>
<ellipse fill="darkturquoise" stroke="darkturquoise" cx="1159" cy="-163" rx="71.7694" ry="18"/>
<text text-anchor="middle" x="1159" y="-158.9" font-family="DejaVu Sans, Helvetica, sans" font-size="14.00"><a xlink:href="../doc/InfiniteArray.html" target="_parent">InfiniteArray</a></text>
</g>
<!-- Hml_Pprint -->
<g id="node3" class="node"><title>Hml_Pprint</title>
<ellipse fill="darkturquoise" stroke="darkturquoise" cx="356" cy="-685" rx="64.1231" ry="18"/>
<text text-anchor="middle" x="356" y="-680.9" font-family="DejaVu Sans, Helvetica, sans" font-size="14.00"><a xlink:href="../doc/Hml_Pprint.html" target="_parent">Hml_Pprint</a></text>
</g>
<!-- Hml_List -->
<g id="node5" class="node"><title>Hml_List</title>
<ellipse fill="darkturquoise" stroke="darkturquoise" cx="427" cy="-554" rx="52.8111" ry="18"/>
<text text-anchor="middle" x="427" y="-549.9" font-family="DejaVu Sans, Helvetica, sans" font-size="14.00"><a xlink:href="../doc/Hml_List.html" target="_parent">Hml_List</a></text>
</g>
<!-- Hml_Pprint&#45;&gt;Hml_List -->
<g id="edge2" class="edge"><title>Hml_Pprint&#45;&gt;Hml_List</title>
<path fill="none" stroke="black" d="M365.723,-667.06C377.833,-644.717 398.624,-606.357 412.587,-580.593"/>
<polygon fill="black" stroke="black" points="415.706,-582.183 417.394,-571.724 409.552,-578.848 415.706,-582.183"/>
</g>
<!-- Bash -->
<g id="node7" class="node"><title>Bash</title>
<ellipse fill="darkturquoise" stroke="darkturquoise" cx="322" cy="-554" rx="34.2406" ry="18"/>
<text text-anchor="middle" x="322" y="-549.9" font-family="DejaVu Sans, Helvetica, sans" font-size="14.00"><a xlink:href="../doc/Bash.html" target="_parent">Bash</a></text>
</g>
<!-- Hml_Pprint&#45;&gt;Bash -->
<g id="edge4" class="edge"><title>Hml_Pprint&#45;&gt;Bash</title>
<path fill="none" stroke="black" d="M351.272,-666.785C345.563,-644.788 335.9,-607.555 329.247,-581.924"/>
<polygon fill="black" stroke="black" points="332.587,-580.86 326.687,-572.06 325.812,-582.619 332.587,-580.86"/>
</g>
<!-- Hml_List&#45;&gt;Option -->
<g id="edge6" class="edge"><title>Hml_List&#45;&gt;Option</title>
<path fill="none" stroke="black" d="M400.882,-538.059C362.198,-514.449 289.685,-470.193 247.255,-444.297"/>
<polygon fill="black" stroke="black" points="249.04,-441.286 238.681,-439.064 245.393,-447.261 249.04,-441.286"/>
</g>
<!-- Hml_Map -->
<g id="node8" class="node"><title>Hml_Map</title>
<ellipse fill="darkturquoise" stroke="darkturquoise" cx="975" cy="-685" rx="55.0898" ry="18"/>
<text text-anchor="middle" x="975" y="-680.9" font-family="DejaVu Sans, Helvetica, sans" font-size="14.00"><a xlink:href="../doc/Hml_Map.html" target="_parent">Hml_Map</a></text>
</g>
<!-- Hml_String -->
<g id="node10" class="node"><title>Hml_String</title>
<ellipse fill="darkturquoise" stroke="darkturquoise" cx="168" cy="-554" rx="64.1231" ry="18"/>
<text text-anchor="middle" x="168" y="-549.9" font-family="DejaVu Sans, Helvetica, sans" font-size="14.00"><a xlink:href="../doc/Hml_String.html" target="_parent">Hml_String</a></text>
</g>
<!-- Hml_String&#45;&gt;Option -->
<g id="edge8" class="edge"><title>Hml_String&#45;&gt;Option</title>
<path fill="none" stroke="black" d="M174.396,-535.924C182.155,-513.998 195.311,-476.818 204.314,-451.372"/>
<polygon fill="black" stroke="black" points="207.622,-452.517 207.658,-441.922 201.023,-450.182 207.622,-452.517"/>
</g>
<!-- Log -->
<g id="node12" class="node"><title>Log</title>
<ellipse fill="darkturquoise" stroke="darkturquoise" cx="170" cy="-685" rx="27.9903" ry="18"/>
<text text-anchor="middle" x="170" y="-680.9" font-family="DejaVu Sans, Helvetica, sans" font-size="14.00"><a xlink:href="../doc/Log.html" target="_parent">Log</a></text>
</g>
<!-- Log&#45;&gt;Option -->
<g id="edge14" class="edge"><title>Log&#45;&gt;Option</title>
<path fill="none" stroke="black" d="M184.051,-669.214C201.381,-648.58 229.904,-610.516 241,-572 252.888,-530.736 238.369,-481.428 226.459,-451.43"/>
<polygon fill="black" stroke="black" points="229.627,-449.932 222.562,-442.036 223.161,-452.614 229.627,-449.932"/>
</g>
<!-- Log&#45;&gt;Bash -->
<g id="edge10" class="edge"><title>Log&#45;&gt;Bash</title>
<path fill="none" stroke="black" d="M186.847,-670.48C213.384,-647.61 265.102,-603.037 296.299,-576.151"/>
<polygon fill="black" stroke="black" points="298.848,-578.574 304.138,-569.394 294.278,-573.272 298.848,-578.574"/>
</g>
<!-- Log&#45;&gt;Hml_String -->
<g id="edge12" class="edge"><title>Log&#45;&gt;Hml_String</title>
<path fill="none" stroke="black" d="M169.722,-666.785C169.388,-644.886 168.823,-607.886 168.432,-582.266"/>
<polygon fill="black" stroke="black" points="171.928,-582.006 168.276,-572.06 164.929,-582.113 171.928,-582.006"/>
</g>
<!-- Datacon -->
<g id="node16" class="node"><title>Datacon</title>
<ellipse fill="#eead0e" stroke="#eead0e" cx="1286" cy="-554" rx="50.9221" ry="18"/>
<text text-anchor="middle" x="1286" y="-549.9" font-family="DejaVu Sans, Helvetica, sans" font-size="14.00"><a xlink:href="../doc/Datacon.html" target="_parent">Datacon</a></text>
</g>
<!-- Identifier -->
<g id="node18" class="node"><title>Identifier</title>
<ellipse fill="#eead0e" stroke="#eead0e" cx="1159" cy="-424" rx="54.8957" ry="18"/>
<text text-anchor="middle" x="1159" y="-419.9" font-family="DejaVu Sans, Helvetica, sans" font-size="14.00"><a xlink:href="../doc/Identifier.html" target="_parent">Identifier</a></text>
</g>
<!-- Datacon&#45;&gt;Identifier -->
<g id="edge16" class="edge"><title>Datacon&#45;&gt;Identifier</title>
<path fill="none" stroke="black" d="M1269.14,-536.737C1247.03,-514.107 1208.11,-474.271 1182.95,-448.519"/>
<polygon fill="black" stroke="black" points="1185.43,-446.042 1175.93,-441.334 1180.42,-450.933 1185.43,-446.042"/>
</g>
<!-- Hashcons -->
<g id="node28" class="node"><title>Hashcons</title>
<ellipse fill="#eead0e" stroke="#eead0e" cx="1159" cy="-293" rx="56.9803" ry="18"/>
<text text-anchor="middle" x="1159" y="-288.9" font-family="DejaVu Sans, Helvetica, sans" font-size="14.00"><a xlink:href="../doc/Hashcons.html" target="_parent">Hashcons</a></text>
</g>
<!-- Identifier&#45;&gt;Hashcons -->
<g id="edge30" class="edge"><title>Identifier&#45;&gt;Hashcons</title>
<path fill="none" stroke="black" d="M1159,-405.785C1159,-383.886 1159,-346.886 1159,-321.266"/>
<polygon fill="black" stroke="black" points="1162.5,-321.06 1159,-311.06 1155.5,-321.06 1162.5,-321.06"/>
</g>
<!-- Patricia -->
<g id="node32" class="node"><title>Patricia</title>
<ellipse fill="cyan" stroke="cyan" cx="954" cy="-293" rx="46.7546" ry="18"/>
<text text-anchor="middle" x="954" y="-288.9" font-family="DejaVu Sans, Helvetica, sans" font-size="14.00"><a xlink:href="../doc/Patricia.html" target="_parent">Patricia</a></text>
</g>
<!-- Identifier&#45;&gt;Patricia -->
<g id="edge32" class="edge"><title>Identifier&#45;&gt;Patricia</title>
<path fill="none" stroke="black" d="M1133.86,-407.937C1096.91,-384.322 1027.88,-340.211 986.923,-314.039"/>
<polygon fill="black" stroke="black" points="988.696,-311.018 978.385,-308.582 984.926,-316.916 988.696,-311.018"/>
</g>
<!-- GMap -->
<g id="node34" class="node"><title>GMap</title>
<ellipse fill="cyan" stroke="cyan" cx="992" cy="-163" rx="38.9134" ry="18"/>
<text text-anchor="middle" x="992" y="-158.9" font-family="DejaVu Sans, Helvetica, sans" font-size="14.00"><a xlink:href="../doc/GMap.html" target="_parent">GMap</a></text>
</g>
<!-- Identifier&#45;&gt;GMap -->
<g id="edge34" class="edge"><title>Identifier&#45;&gt;GMap</title>
<path fill="none" stroke="black" d="M1147.52,-406.06C1118.54,-360.77 1042.33,-241.664 1008.54,-188.851"/>
<polygon fill="black" stroke="black" points="1011.46,-186.915 1003.12,-180.378 1005.56,-190.687 1011.46,-186.915"/>
</g>
<!-- Driver -->
<g id="node19" class="node"><title>Driver</title>
<ellipse fill="#eead0e" stroke="#eead0e" cx="1354" cy="-815" rx="41.1906" ry="18"/>
<text text-anchor="middle" x="1354" y="-810.9" font-family="DejaVu Sans, Helvetica, sans" font-size="14.00"><a xlink:href="../doc/Driver.html" target="_parent">Driver</a></text>
</g>
<!-- Driver&#45;&gt;Hml_String -->
<g id="edge18" class="edge"><title>Driver&#45;&gt;Hml_String</title>
<path fill="none" stroke="black" d="M1313.2,-812.634C1128.36,-801.66 374.582,-754.088 283,-703 233.179,-675.208 197.826,-616.024 180.378,-581.191"/>
<polygon fill="black" stroke="black" points="183.457,-579.52 175.935,-572.059 177.163,-582.582 183.457,-579.52"/>
</g>
<!-- Lexer -->
<g id="node22" class="node"><title>Lexer</title>
<ellipse fill="#eead0e" stroke="#eead0e" cx="1419" cy="-685" rx="38.9134" ry="18"/>
<text text-anchor="middle" x="1419" y="-680.9" font-family="DejaVu Sans, Helvetica, sans" font-size="14.00"><a xlink:href="../doc/Lexer.html" target="_parent">Lexer</a></text>
</g>
<!-- Driver&#45;&gt;Lexer -->
<g id="edge20" class="edge"><title>Driver&#45;&gt;Lexer</title>
<path fill="none" stroke="black" d="M1362.9,-797.197C1373.94,-775.122 1392.85,-737.291 1405.64,-711.727"/>
<polygon fill="black" stroke="black" points="1408.86,-713.098 1410.21,-702.588 1402.6,-709.967 1408.86,-713.098"/>
</g>
<!-- SurfaceSyntax -->
<g id="node24" class="node"><title>SurfaceSyntax</title>
<ellipse fill="#eead0e" stroke="#eead0e" cx="1281" cy="-685" rx="80.8024" ry="18"/>
<text text-anchor="middle" x="1281" y="-680.9" font-family="DejaVu Sans, Helvetica, sans" font-size="14.00"><a xlink:href="../doc/SurfaceSyntax.html" target="_parent">SurfaceSyntax</a></text>
</g>
<!-- Driver&#45;&gt;SurfaceSyntax -->
<g id="edge22" class="edge"><title>Driver&#45;&gt;SurfaceSyntax</title>
<path fill="none" stroke="black" d="M1344.15,-797.468C1331.82,-775.493 1310.54,-737.605 1296.13,-711.939"/>
<polygon fill="black" stroke="black" points="1299.11,-710.094 1291.16,-703.089 1293,-713.522 1299.11,-710.094"/>
</g>
<!-- SurfaceSyntax&#45;&gt;Datacon -->
<g id="edge26" class="edge"><title>SurfaceSyntax&#45;&gt;Datacon</title>
<path fill="none" stroke="black" d="M1281.7,-666.785C1282.53,-644.886 1283.94,-607.886 1284.92,-582.266"/>
<polygon fill="black" stroke="black" points="1288.43,-582.187 1285.31,-572.06 1281.43,-581.919 1288.43,-582.187"/>
</g>
<!-- Variable -->
<g id="node26" class="node"><title>Variable</title>
<ellipse fill="#eead0e" stroke="#eead0e" cx="1167" cy="-554" rx="50.0315" ry="18"/>
<text text-anchor="middle" x="1167" y="-549.9" font-family="DejaVu Sans, Helvetica, sans" font-size="14.00"><a xlink:href="../doc/Variable.html" target="_parent">Variable</a></text>
</g>
<!-- SurfaceSyntax&#45;&gt;Variable -->
<g id="edge24" class="edge"><title>SurfaceSyntax&#45;&gt;Variable</title>
<path fill="none" stroke="black" d="M1265.39,-667.06C1245.58,-644.297 1211.3,-604.907 1188.89,-579.152"/>
<polygon fill="black" stroke="black" points="1191.27,-576.553 1182.06,-571.307 1185.99,-581.148 1191.27,-576.553"/>
</g>
<!-- Variable&#45;&gt;Identifier -->
<g id="edge36" class="edge"><title>Variable&#45;&gt;Identifier</title>
<path fill="none" stroke="black" d="M1165.89,-535.924C1164.56,-514.314 1162.32,-477.887 1160.75,-452.48"/>
<polygon fill="black" stroke="black" points="1164.24,-452.108 1160.13,-442.342 1157.25,-452.538 1164.24,-452.108"/>
</g>
<!-- Hashcons&#45;&gt;InfiniteArray -->
<g id="edge28" class="edge"><title>Hashcons&#45;&gt;InfiniteArray</title>
<path fill="none" stroke="black" d="M1159,-274.924C1159,-253.314 1159,-216.887 1159,-191.48"/>
<polygon fill="black" stroke="black" points="1162.5,-191.341 1159,-181.342 1155.5,-191.342 1162.5,-191.341"/>
</g>
<!-- Patricia&#45;&gt;GMap -->
<g id="edge38" class="edge"><title>Patricia&#45;&gt;GMap</title>
<path fill="none" stroke="black" d="M959.284,-274.924C965.665,-253.095 976.465,-216.147 983.9,-190.711"/>
<polygon fill="black" stroke="black" points="987.315,-191.503 986.761,-180.922 980.596,-189.539 987.315,-191.503"/>
</g>
<!-- GSet -->
<g id="node37" class="node"><title>GSet</title>
<ellipse fill="cyan" stroke="cyan" cx="992" cy="-33" rx="34.9399" ry="18"/>
<text text-anchor="middle" x="992" y="-28.9" font-family="DejaVu Sans, Helvetica, sans" font-size="14.00"><a xlink:href="../doc/GSet.html" target="_parent">GSet</a></text>
</g>
<!-- GMap&#45;&gt;GSet -->
<g id="edge40" class="edge"><title>GMap&#45;&gt;GSet</title>
<path fill="none" stroke="black" d="M992,-144.924C992,-123.314 992,-86.8868 992,-61.4801"/>
<polygon fill="black" stroke="black" points="995.5,-61.3415 992,-51.3415 988.5,-61.3415 995.5,-61.3415"/>
</g>
<!-- ModeDeduction -->
<g id="node39" class="node"><title>ModeDeduction</title>
<ellipse fill="green" stroke="green" cx="596" cy="-1076" rx="86.1654" ry="18"/>
<text text-anchor="middle" x="596" y="-1071.9" font-family="DejaVu Sans, Helvetica, sans" font-size="14.00"><a xlink:href="../doc/ModeDeduction.html" target="_parent">ModeDeduction</a></text>
</g>
<!-- FactInference -->
<g id="node40" class="node"><title>FactInference</title>
<ellipse fill="green" stroke="green" cx="304" cy="-945" rx="75.9375" ry="18"/>
<text text-anchor="middle" x="304" y="-940.9" font-family="DejaVu Sans, Helvetica, sans" font-size="14.00"><a xlink:href="../doc/FactInference.html" target="_parent">FactInference</a></text>
</g>
<!-- FactInference&#45;&gt;Option -->
<g id="edge46" class="edge"><title>FactInference&#45;&gt;Option</title>
<path fill="none" stroke="black" d="M288.198,-927.205C254.922,-888.874 177.078,-794.543 133,-703 106.7,-648.38 103.529,-632.019 95,-572 92.7489,-556.159 88.6539,-550.688 95,-536 112.234,-496.112 151.44,-463.864 180.159,-444.391"/>
<polygon fill="black" stroke="black" points="182.275,-447.189 188.699,-438.764 178.423,-441.344 182.275,-447.189"/>
</g>
<!-- FactInference&#45;&gt;Bash -->
<g id="edge42" class="edge"><title>FactInference&#45;&gt;Bash</title>
<path fill="none" stroke="black" d="M299.657,-926.976C289.588,-882.511 266.708,-764.14 283,-667 288.113,-636.512 300.48,-603.246 309.928,-580.757"/>
<polygon fill="black" stroke="black" points="313.163,-582.094 313.898,-571.525 306.732,-579.329 313.163,-582.094"/>
</g>
<!-- FactInference&#45;&gt;Log -->
<g id="edge44" class="edge"><title>FactInference&#45;&gt;Log</title>
<path fill="none" stroke="black" d="M294.79,-927.129C271.633,-882.198 210.892,-764.342 183.61,-711.407"/>
<polygon fill="black" stroke="black" points="186.614,-709.597 178.922,-702.311 180.392,-712.804 186.614,-709.597"/>
</g>
<!-- FactInference&#45;&gt;SurfaceSyntax -->
<g id="edge48" class="edge"><title>FactInference&#45;&gt;SurfaceSyntax</title>
<path fill="none" stroke="black" d="M371.454,-936.686C559.208,-913.403 1076.35,-848.261 1110,-833 1173.23,-804.327 1230.69,-744.654 1260.19,-710.486"/>
<polygon fill="black" stroke="black" points="1262.92,-712.674 1266.73,-702.789 1257.59,-708.14 1262.92,-712.674"/>
</g>
<!-- FactInference&#45;&gt;Variable -->
<g id="edge50" class="edge"><title>FactInference&#45;&gt;Variable</title>
<path fill="none" stroke="black" d="M375.354,-938.657C520.283,-922.563 853.746,-868.856 1071,-703 1112.89,-671.017 1141.7,-615.132 1156.18,-581.646"/>
<polygon fill="black" stroke="black" points="1159.58,-582.599 1160.21,-572.024 1153.12,-579.894 1159.58,-582.599"/>
</g>
<!-- Types -->
<g id="node47" class="node"><title>Types</title>
<ellipse fill="green" stroke="green" cx="542" cy="-815" rx="38.9134" ry="18"/>
<text text-anchor="middle" x="542" y="-810.9" font-family="DejaVu Sans, Helvetica, sans" font-size="14.00"><a xlink:href="../doc/Types.html" target="_parent">Types</a></text>
</g>
<!-- FactInference&#45;&gt;Types -->
<g id="edge52" class="edge"><title>FactInference&#45;&gt;Types</title>
<path fill="none" stroke="black" d="M334.627,-928.271C379.118,-903.969 461.364,-859.045 507.788,-833.687"/>
<polygon fill="black" stroke="black" points="509.476,-836.754 516.574,-828.888 506.12,-830.61 509.476,-836.754"/>
</g>
<!-- Types&#45;&gt;Option -->
<g id="edge60" class="edge"><title>Types&#45;&gt;Option</title>
<path fill="none" stroke="black" d="M540.775,-796.692C536.725,-741.238 522.1,-576.443 489,-536 433.252,-467.885 329.535,-440.808 266.636,-430.328"/>
<polygon fill="black" stroke="black" points="266.95,-426.834 256.526,-428.728 265.856,-433.748 266.95,-426.834"/>
</g>
<!-- Types&#45;&gt;Hml_Pprint -->
<g id="edge66" class="edge"><title>Types&#45;&gt;Hml_Pprint</title>
<path fill="none" stroke="black" d="M520.299,-799.833C487.829,-777.138 426.378,-734.189 388.526,-707.733"/>
<polygon fill="black" stroke="black" points="390.106,-704.567 379.904,-701.707 386.096,-710.305 390.106,-704.567"/>
</g>
<!-- Types&#45;&gt;Hml_List -->
<g id="edge70" class="edge"><title>Types&#45;&gt;Hml_List</title>
<path fill="none" stroke="black" d="M534.096,-797.06C514.318,-752.174 462.594,-634.783 439.02,-581.28"/>
<polygon fill="black" stroke="black" points="442.195,-579.805 434.96,-572.065 435.789,-582.627 442.195,-579.805"/>
</g>
<!-- Types&#45;&gt;Bash -->
<g id="edge74" class="edge"><title>Types&#45;&gt;Bash</title>
<path fill="none" stroke="black" d="M529.69,-797.672C509.513,-769.553 467.761,-712.545 429,-667 401.588,-634.791 367.691,-599.72 345.489,-577.33"/>
<polygon fill="black" stroke="black" points="347.691,-574.581 338.154,-569.965 342.731,-579.521 347.691,-574.581"/>
</g>
<!-- Types&#45;&gt;Hml_Map -->
<g id="edge68" class="edge"><title>Types&#45;&gt;Hml_Map</title>
<path fill="none" stroke="black" d="M574.901,-805.122C650.135,-782.534 835.135,-726.992 924.742,-700.089"/>
<polygon fill="black" stroke="black" points="925.835,-703.415 934.406,-697.188 923.822,-696.711 925.835,-703.415"/>
</g>
<!-- Types&#45;&gt;Log -->
<g id="edge64" class="edge"><title>Types&#45;&gt;Log</title>
<path fill="none" stroke="black" d="M509.381,-804.858C449.807,-786.129 319.62,-744.253 212,-703 208.963,-701.836 205.821,-700.583 202.687,-699.299"/>
<polygon fill="black" stroke="black" points="203.99,-696.051 193.415,-695.416 201.286,-702.507 203.99,-696.051"/>
</g>
<!-- Types&#45;&gt;Datacon -->
<g id="edge72" class="edge"><title>Types&#45;&gt;Datacon</title>
<path fill="none" stroke="black" d="M580.77,-812.064C670.443,-804.165 897.748,-777.752 1071,-703 1145.74,-670.751 1221.23,-610.612 1259.77,-577.451"/>
<polygon fill="black" stroke="black" points="1262.16,-580.005 1267.42,-570.804 1257.57,-574.721 1262.16,-580.005"/>
</g>
<!-- Types&#45;&gt;SurfaceSyntax -->
<g id="edge56" class="edge"><title>Types&#45;&gt;SurfaceSyntax</title>
<path fill="none" stroke="black" d="M578.647,-808.553C694.065,-788.25 1051.6,-725.355 1207.29,-697.966"/>
<polygon fill="black" stroke="black" points="1208.01,-701.394 1217.25,-696.214 1206.8,-694.5 1208.01,-701.394"/>
</g>
<!-- Types&#45;&gt;Variable -->
<g id="edge54" class="edge"><title>Types&#45;&gt;Variable</title>
<path fill="none" stroke="black" d="M579.551,-809.663C681.34,-794.713 960.167,-750.401 1039,-703 1065.7,-686.948 1119.47,-617.93 1148.09,-579.713"/>
<polygon fill="black" stroke="black" points="1150.96,-581.718 1154.12,-571.607 1145.34,-577.537 1150.96,-581.718"/>
</g>
<!-- PersistentUnionFind -->
<g id="node52" class="node"><title>PersistentUnionFind</title>
<ellipse fill="green" stroke="green" cx="892" cy="-554" rx="107.206" ry="18"/>
<text text-anchor="middle" x="892" y="-549.9" font-family="DejaVu Sans, Helvetica, sans" font-size="14.00"><a xlink:href="../doc/PersistentUnionFind.html" target="_parent">PersistentUnionFind</a></text>
</g>
<!-- Types&#45;&gt;PersistentUnionFind -->
<g id="edge58" class="edge"><title>Types&#45;&gt;PersistentUnionFind</title>
<path fill="none" stroke="black" d="M577.944,-807.825C655.519,-791.587 834.731,-749.779 873,-703 900.742,-669.09 900.254,-615.514 896.641,-582.69"/>
<polygon fill="black" stroke="black" points="900.068,-581.89 895.333,-572.412 893.124,-582.774 900.068,-581.89"/>
</g>
<!-- Mark -->
<g id="node55" class="node"><title>Mark</title>
<ellipse fill="green" stroke="green" cx="829" cy="-685" rx="34.9399" ry="18"/>
<text text-anchor="middle" x="829" y="-680.9" font-family="DejaVu Sans, Helvetica, sans" font-size="14.00"><a xlink:href="../doc/Mark.html" target="_parent">Mark</a></text>
</g>
<!-- Types&#45;&gt;Mark -->
<g id="edge62" class="edge"><title>Types&#45;&gt;Mark</title>
<path fill="none" stroke="black" d="M570.041,-802.298C622.55,-778.514 735.606,-727.304 793.401,-701.125"/>
<polygon fill="black" stroke="black" points="794.854,-704.309 802.519,-696.995 791.966,-697.933 794.854,-704.309"/>
</g>
<!-- Mode -->
<g id="node48" class="node"><title>Mode</title>
<ellipse fill="green" stroke="green" cx="737" cy="-1076" rx="36.8288" ry="18"/>
<text text-anchor="middle" x="737" y="-1071.9" font-family="DejaVu Sans, Helvetica, sans" font-size="14.00"><a xlink:href="../doc/Mode.html" target="_parent">Mode</a></text>
</g>
<!-- PersistentRef -->
<g id="node62" class="node"><title>PersistentRef</title>
<ellipse fill="green" stroke="green" cx="947" cy="-424" rx="73.8534" ry="18"/>
<text text-anchor="middle" x="947" y="-419.9" font-family="DejaVu Sans, Helvetica, sans" font-size="14.00"><a xlink:href="../doc/PersistentRef.html" target="_parent">PersistentRef</a></text>
</g>
<!-- PersistentUnionFind&#45;&gt;PersistentRef -->
<g id="edge78" class="edge"><title>PersistentUnionFind&#45;&gt;PersistentRef</title>
<path fill="none" stroke="black" d="M899.648,-535.924C908.924,-513.998 924.654,-476.818 935.419,-451.372"/>
<polygon fill="black" stroke="black" points="938.744,-452.496 939.417,-441.922 932.298,-449.768 938.744,-452.496"/>
</g>
<!-- PersistentRef&#45;&gt;Patricia -->
<g id="edge76" class="edge"><title>PersistentRef&#45;&gt;Patricia</title>
<path fill="none" stroke="black" d="M947.973,-405.785C949.144,-383.886 951.121,-346.886 952.49,-321.266"/>
<polygon fill="black" stroke="black" points="955.996,-321.233 953.035,-311.06 949.006,-320.859 955.996,-321.233"/>
</g>
<!-- Permissions -->
<g id="node65" class="node"><title>Permissions</title>
<ellipse fill="green" stroke="green" cx="228" cy="-1076" rx="66.9043" ry="18"/>
<text text-anchor="middle" x="228" y="-1071.9" font-family="DejaVu Sans, Helvetica, sans" font-size="14.00"><a xlink:href="../doc/Permissions.html" target="_parent">Permissions</a></text>
</g>
<!-- Permissions&#45;&gt;Option -->
<g id="edge84" class="edge"><title>Permissions&#45;&gt;Option</title>
<path fill="none" stroke="black" d="M197.251,-1059.69C135.017,-1024.19 0,-933.529 0,-815 0,-815 0,-815 0,-685 0,-573.251 118.763,-483.153 179.341,-444.465"/>
<polygon fill="black" stroke="black" points="181.575,-447.195 188.187,-438.917 177.855,-441.265 181.575,-447.195"/>
</g>
<!-- Permissions&#45;&gt;Hml_List -->
<g id="edge90" class="edge"><title>Permissions&#45;&gt;Hml_List</title>
<path fill="none" stroke="black" d="M214.94,-1058.25C172.174,-997.796 44.0489,-796.484 133,-667 147.512,-645.875 298.451,-595.086 378.209,-569.412"/>
<polygon fill="black" stroke="black" points="379.583,-572.647 388.036,-566.26 377.445,-565.981 379.583,-572.647"/>
</g>
<!-- Permissions&#45;&gt;Hml_String -->
<g id="edge88" class="edge"><title>Permissions&#45;&gt;Hml_String</title>
<path fill="none" stroke="black" d="M198.033,-1059.88C166.899,-1041.23 119.991,-1007.31 100,-963 45.9033,-843.082 64.801,-793.759 100,-667 109.086,-634.28 130.468,-601.545 146.849,-579.794"/>
<polygon fill="black" stroke="black" points="149.727,-581.794 153.067,-571.739 144.186,-577.516 149.727,-581.794"/>
</g>
<!-- Permissions&#45;&gt;Log -->
<g id="edge86" class="edge"><title>Permissions&#45;&gt;Log</title>
<path fill="none" stroke="black" d="M216.904,-1058.04C204.231,-1036.42 184.194,-998.565 176,-963 155.453,-873.812 162.048,-764.254 166.853,-713.413"/>
<polygon fill="black" stroke="black" points="170.362,-713.499 167.871,-703.201 163.397,-712.805 170.362,-713.499"/>
</g>
<!-- Permissions&#45;&gt;Datacon -->
<g id="edge94" class="edge"><title>Permissions&#45;&gt;Datacon</title>
<path fill="none" stroke="black" d="M289.488,-1068.75C319.994,-1065.28 357.413,-1061.18 391,-1058 524.154,-1045.38 1500.23,-1061.24 1591,-963 1642.18,-907.606 1886.82,-1097.86 1559,-667 1507.55,-599.381 1408.39,-571.958 1344.8,-561.023"/>
<polygon fill="black" stroke="black" points="1345.34,-557.566 1334.91,-559.406 1344.21,-564.474 1345.34,-557.566"/>
</g>
<!-- Permissions&#45;&gt;Variable -->
<g id="edge80" class="edge"><title>Permissions&#45;&gt;Variable</title>
<path fill="none" stroke="black" d="M286.242,-1067.06C510.963,-1032.13 1313.58,-903.412 1404,-833 1466.26,-784.515 1511.9,-731.893 1467,-667 1452.06,-645.411 1296.18,-594.262 1215.23,-568.854"/>
<polygon fill="black" stroke="black" points="1215.86,-565.384 1205.27,-565.74 1213.77,-572.065 1215.86,-565.384"/>
</g>
<!-- Permissions&#45;&gt;FactInference -->
<g id="edge92" class="edge"><title>Permissions&#45;&gt;FactInference</title>
<path fill="none" stroke="black" d="M238.408,-1058.06C251.298,-1035.84 273.377,-997.785 288.321,-972.026"/>
<polygon fill="black" stroke="black" points="291.483,-973.55 293.474,-963.144 285.428,-970.037 291.483,-973.55"/>
</g>
<!-- Permissions&#45;&gt;Types -->
<g id="edge82" class="edge"><title>Permissions&#45;&gt;Types</title>
<path fill="none" stroke="black" d="M254.285,-1059.38C286.935,-1038.34 343.846,-1000.3 389,-963 437.912,-922.6 490.022,-869.834 519.049,-839.452"/>
<polygon fill="black" stroke="black" points="521.906,-841.527 526.259,-831.868 516.832,-836.704 521.906,-841.527"/>
</g>
<!-- PermissionDeduction -->
<g id="node74" class="node"><title>PermissionDeduction</title>
<ellipse fill="green" stroke="green" cx="664" cy="-685" rx="111.876" ry="18"/>
<text text-anchor="middle" x="664" y="-680.9" font-family="DejaVu Sans, Helvetica, sans" font-size="14.00"><a xlink:href="../doc/PermissionDeduction.html" target="_parent">PermissionDeduction</a></text>
</g>
<!-- PermissionDeduction&#45;&gt;Patricia -->
<g id="edge96" class="edge"><title>PermissionDeduction&#45;&gt;Patricia</title>
<path fill="none" stroke="black" d="M662.4,-666.832C660.642,-637.507 660.58,-578.717 683,-536 738.169,-430.886 858.299,-349.189 918.344,-313.143"/>
<polygon fill="black" stroke="black" points="920.28,-316.065 927.1,-307.956 916.712,-310.042 920.28,-316.065"/>
</g>
<!-- PermissionDeduction&#45;&gt;PersistentUnionFind -->
<g id="edge98" class="edge"><title>PermissionDeduction&#45;&gt;PersistentUnionFind</title>
<path fill="none" stroke="black" d="M694.277,-667.604C735.074,-644.164 807.755,-602.404 852.719,-576.569"/>
<polygon fill="black" stroke="black" points="854.671,-579.484 861.598,-571.468 851.184,-573.415 854.671,-579.484"/>
</g>
<!-- Data -->
<g id="node78" class="node"><title>Data</title>
<ellipse fill="green" stroke="green" cx="726" cy="-554" rx="34.2406" ry="18"/>
<text text-anchor="middle" x="726" y="-549.9" font-family="DejaVu Sans, Helvetica, sans" font-size="14.00"><a xlink:href="../doc/Data.html" target="_parent">Data</a></text>
</g>
<!-- PermissionDeduction&#45;&gt;Data -->
<g id="edge100" class="edge"><title>PermissionDeduction&#45;&gt;Data</title>
<path fill="none" stroke="black" d="M672.621,-666.785C683.183,-644.468 701.168,-606.468 713.31,-580.812"/>
<polygon fill="black" stroke="black" points="716.536,-582.178 717.65,-571.642 710.209,-579.183 716.536,-582.178"/>
</g>
<!-- WellKindedness -->
<g id="node79" class="node"><title>WellKindedness</title>
<ellipse fill="green" stroke="green" cx="560" cy="-945" rx="86.1654" ry="18"/>
<text text-anchor="middle" x="560" y="-940.9" font-family="DejaVu Sans, Helvetica, sans" font-size="14.00"><a xlink:href="../doc/WellKindedness.html" target="_parent">WellKindedness</a></text>
</g>
<!-- WellKindedness&#45;&gt;Hml_Pprint -->
<g id="edge110" class="edge"><title>WellKindedness&#45;&gt;Hml_Pprint</title>
<path fill="none" stroke="black" d="M545.978,-927.129C510.591,-882.027 417.548,-763.444 376.248,-710.806"/>
<polygon fill="black" stroke="black" points="378.777,-708.359 369.85,-702.652 373.269,-712.68 378.777,-708.359"/>
</g>
<!-- WellKindedness&#45;&gt;Log -->
<g id="edge108" class="edge"><title>WellKindedness&#45;&gt;Log</title>
<path fill="none" stroke="black" d="M534.109,-927.739C464.118,-881.079 271.519,-752.679 198.538,-704.025"/>
<polygon fill="black" stroke="black" points="200.111,-700.868 189.849,-698.233 196.229,-706.692 200.111,-700.868"/>
</g>
<!-- WellKindedness&#45;&gt;SurfaceSyntax -->
<g id="edge106" class="edge"><title>WellKindedness&#45;&gt;SurfaceSyntax</title>
<path fill="none" stroke="black" d="M645.144,-942.122C807.671,-934.887 1153.66,-910.558 1240,-833 1273.83,-802.613 1280.78,-747.03 1281.65,-713.307"/>
<polygon fill="black" stroke="black" points="1285.15,-713.219 1281.75,-703.186 1278.15,-713.152 1285.15,-713.219"/>
</g>
<!-- WellKindedness&#45;&gt;Variable -->
<g id="edge102" class="edge"><title>WellKindedness&#45;&gt;Variable</title>
<path fill="none" stroke="black" d="M641.543,-939.242C778.253,-927.88 1045.12,-897.836 1110,-833 1178.19,-764.854 1175.57,-638.644 1170.45,-582.366"/>
<polygon fill="black" stroke="black" points="1173.9,-581.679 1169.41,-572.081 1166.93,-582.382 1173.9,-581.679"/>
</g>
<!-- WellKindedness&#45;&gt;Types -->
<g id="edge104" class="edge"><title>WellKindedness&#45;&gt;Types</title>
<path fill="none" stroke="black" d="M557.497,-926.924C554.505,-905.314 549.461,-868.887 545.943,-843.48"/>
<polygon fill="black" stroke="black" points="549.378,-842.767 544.54,-833.342 542.444,-843.727 549.378,-842.767"/>
</g>
<!-- Expressions -->
<g id="node85" class="node"><title>Expressions</title>
<ellipse fill="green" stroke="green" cx="1514" cy="-945" rx="68.0985" ry="18"/>
<text text-anchor="middle" x="1514" y="-940.9" font-family="DejaVu Sans, Helvetica, sans" font-size="14.00"><a xlink:href="../doc/Expressions.html" target="_parent">Expressions</a></text>
</g>
<!-- Expressions&#45;&gt;Datacon -->
<g id="edge116" class="edge"><title>Expressions&#45;&gt;Datacon</title>
<path fill="none" stroke="black" d="M1522.6,-926.914C1543.65,-879.732 1592.24,-750.766 1538,-667 1495.44,-601.276 1404.64,-573.421 1344.46,-561.866"/>
<polygon fill="black" stroke="black" points="1344.8,-558.371 1334.33,-560.02 1343.54,-565.258 1344.8,-558.371"/>
</g>
<!-- Expressions&#45;&gt;Variable -->
<g id="edge112" class="edge"><title>Expressions&#45;&gt;Variable</title>
<path fill="none" stroke="black" d="M1519.38,-926.769C1532.37,-878.678 1560.15,-746.624 1500,-667 1491.09,-655.203 1304.95,-596.544 1214.93,-568.708"/>
<polygon fill="black" stroke="black" points="1215.81,-565.318 1205.23,-565.712 1213.75,-572.006 1215.81,-565.318"/>
</g>
<!-- Expressions&#45;&gt;Types -->
<g id="edge114" class="edge"><title>Expressions&#45;&gt;Types</title>
<path fill="none" stroke="black" d="M1453.2,-936.868C1274.05,-912.908 750.737,-842.918 589.711,-821.381"/>
<polygon fill="black" stroke="black" points="590.011,-817.89 579.636,-820.034 589.083,-824.828 590.011,-817.89"/>
</g>
<!-- Hamlet -->
<g id="node89" class="node"><title>Hamlet</title>
<ellipse fill="magenta" stroke="magenta" cx="446" cy="-1076" rx="45.8622" ry="18"/>
<text text-anchor="middle" x="446" y="-1071.9" font-family="DejaVu Sans, Helvetica, sans" font-size="14.00"><a xlink:href="../doc/Hamlet.html" target="_parent">Hamlet</a></text>
</g>
<!-- Hamlet&#45;&gt;Log -->
<g id="edge122" class="edge"><title>Hamlet&#45;&gt;Log</title>
<path fill="none" stroke="black" d="M405.162,-1067.53C353.24,-1054.51 264.849,-1024.36 219,-963 189.667,-923.742 176.26,-776.158 171.798,-713.46"/>
<polygon fill="black" stroke="black" points="175.265,-712.863 171.089,-703.126 168.282,-713.342 175.265,-712.863"/>
</g>
<!-- Hamlet&#45;&gt;Driver -->
<g id="edge126" class="edge"><title>Hamlet&#45;&gt;Driver</title>
<path fill="none" stroke="black" d="M481.144,-1064.27C487.728,-1062.14 494.563,-1059.97 501,-1058 808.513,-963.917 1181.98,-861.617 1309.14,-827.121"/>
<polygon fill="black" stroke="black" points="1310.18,-830.464 1318.92,-824.469 1308.35,-823.707 1310.18,-830.464"/>
</g>
<!-- Hamlet&#45;&gt;FactInference -->
<g id="edge124" class="edge"><title>Hamlet&#45;&gt;FactInference</title>
<path fill="none" stroke="black" d="M428.016,-1059.41C403.458,-1036.75 359.24,-995.961 330.778,-969.703"/>
<polygon fill="black" stroke="black" points="332.92,-966.918 323.197,-962.71 328.174,-972.063 332.92,-966.918"/>
</g>
<!-- Hamlet&#45;&gt;Types -->
<g id="edge120" class="edge"><title>Hamlet&#45;&gt;Types</title>
<path fill="none" stroke="black" d="M445.604,-1057.91C445.562,-1029.19 447.892,-971.829 465,-927 477.682,-893.768 502.127,-860.839 520.085,-839.378"/>
<polygon fill="black" stroke="black" points="522.777,-841.615 526.611,-831.738 517.455,-837.068 522.777,-841.615"/>
</g>
<!-- Hamlet&#45;&gt;WellKindedness -->
<g id="edge118" class="edge"><title>Hamlet&#45;&gt;WellKindedness</title>
<path fill="none" stroke="black" d="M460.904,-1058.87C480.484,-1036.37 515.04,-996.664 537.731,-970.59"/>
<polygon fill="black" stroke="black" points="540.437,-972.812 544.362,-962.97 535.157,-968.216 540.437,-972.812"/>
</g>
</g>
</svg>
