<?xml version="1.0" encoding="UTF-8" standalone="no"?>
<!DOCTYPE svg PUBLIC "-//W3C//DTD SVG 1.1//EN"
 "http://www.w3.org/Graphics/SVG/1.1/DTD/svg11.dtd">
<!-- Generated by graphviz version 2.26.3 (20100126.1600)
 -->
<!-- Title: G Pages: 1 -->
<svg width="720pt" height="507pt"
 viewBox="0.00 0.00 720.00 507.29" xmlns="http://www.w3.org/2000/svg" xmlns:xlink="http://www.w3.org/1999/xlink">
<g id="graph1" class="graph" transform="scale(0.695399 0.695399) rotate(0) translate(4 725.5)">
<title>G</title>
<polygon fill="white" stroke="white" points="-4,5 -4,-725.5 1032.38,-725.5 1032.38,5 -4,5"/>
<!-- Log -->
<g id="node1" class="node"><title>Log</title>
<ellipse fill="darkturquoise" stroke="darkturquoise" cx="232" cy="-551" rx="27.9903" ry="18"/>
<text text-anchor="middle" x="232" y="-546.9" font-family="Times Roman,serif" font-size="14.00">Log</text>
</g>
<!-- Hml_String -->
<g id="node3" class="node"><title>Hml_String</title>
<ellipse fill="darkturquoise" stroke="darkturquoise" cx="198" cy="-475" rx="64.1231" ry="18"/>
<text text-anchor="middle" x="198" y="-470.9" font-family="Times Roman,serif" font-size="14.00">Hml_String</text>
</g>
<!-- Log&#45;&gt;Hml_String -->
<g id="edge2" class="edge"><title>Log&#45;&gt;Hml_String</title>
<path fill="none" stroke="black" d="M224.114,-533.373C220.011,-524.202 214.903,-512.782 210.294,-502.482"/>
<polygon fill="black" stroke="black" points="213.358,-500.758 206.079,-493.059 206.968,-503.617 213.358,-500.758"/>
</g>
<!-- Option -->
<g id="node5" class="node"><title>Option</title>
<ellipse fill="darkturquoise" stroke="darkturquoise" cx="362" cy="-399" rx="43.7776" ry="18"/>
<text text-anchor="middle" x="362" y="-394.9" font-family="Times Roman,serif" font-size="14.00">Option</text>
</g>
<!-- Hml_String&#45;&gt;Option -->
<g id="edge4" class="edge"><title>Hml_String&#45;&gt;Option</title>
<path fill="none" stroke="black" d="M231.584,-459.437C258.241,-447.083 295.534,-429.801 323.416,-416.88"/>
<polygon fill="black" stroke="black" points="325.251,-419.887 332.853,-412.507 322.308,-413.536 325.251,-419.887"/>
</g>
<!-- Bash -->
<g id="node4" class="node"><title>Bash</title>
<ellipse fill="darkturquoise" stroke="darkturquoise" cx="428" cy="-475" rx="34.2406" ry="18"/>
<text text-anchor="middle" x="428" y="-470.9" font-family="Times Roman,serif" font-size="14.00">Bash</text>
</g>
<!-- Hml_Map -->
<g id="node7" class="node"><title>Hml_Map</title>
<ellipse fill="darkturquoise" stroke="darkturquoise" cx="784" cy="-399" rx="55.0898" ry="18"/>
<text text-anchor="middle" x="784" y="-394.9" font-family="Times Roman,serif" font-size="14.00">Hml_Map</text>
</g>
<!-- Hml_List -->
<g id="node8" class="node"><title>Hml_List</title>
<ellipse fill="darkturquoise" stroke="darkturquoise" cx="533" cy="-475" rx="52.8111" ry="18"/>
<text text-anchor="middle" x="533" y="-470.9" font-family="Times Roman,serif" font-size="14.00">Hml_List</text>
</g>
<!-- Hml_List&#45;&gt;Option -->
<g id="edge6" class="edge"><title>Hml_List&#45;&gt;Option</title>
<path fill="none" stroke="black" d="M500.434,-460.526C472.191,-447.974 431.243,-429.775 401.208,-416.426"/>
<polygon fill="black" stroke="black" points="402.429,-413.138 391.869,-412.275 399.586,-419.535 402.429,-413.138"/>
</g>
<!-- InfiniteArray -->
<g id="node10" class="node"><title>InfiniteArray</title>
<ellipse fill="darkturquoise" stroke="darkturquoise" cx="551" cy="-95" rx="71.7694" ry="18"/>
<text text-anchor="middle" x="551" y="-90.9" font-family="Times Roman,serif" font-size="14.00">InfiniteArray</text>
</g>
<!-- Driver -->
<g id="node11" class="node"><title>Driver</title>
<ellipse fill="#eead0e" stroke="#eead0e" cx="125" cy="-551" rx="41.1906" ry="18"/>
<text text-anchor="middle" x="125" y="-546.9" font-family="Times Roman,serif" font-size="14.00">Driver</text>
</g>
<!-- Driver&#45;&gt;Hml_String -->
<g id="edge8" class="edge"><title>Driver&#45;&gt;Hml_String</title>
<path fill="none" stroke="black" d="M141.201,-534.133C150.825,-524.113 163.211,-511.219 173.958,-500.03"/>
<polygon fill="black" stroke="black" points="176.68,-502.249 181.083,-492.612 171.632,-497.399 176.68,-502.249"/>
</g>
<!-- Lexer -->
<g id="node14" class="node"><title>Lexer</title>
<ellipse fill="#eead0e" stroke="#eead0e" cx="39" cy="-475" rx="38.9134" ry="18"/>
<text text-anchor="middle" x="39" y="-470.9" font-family="Times Roman,serif" font-size="14.00">Lexer</text>
</g>
<!-- Driver&#45;&gt;Lexer -->
<g id="edge10" class="edge"><title>Driver&#45;&gt;Lexer</title>
<path fill="none" stroke="black" d="M106.339,-534.509C94.1982,-523.78 78.1972,-509.639 64.8392,-497.835"/>
<polygon fill="black" stroke="black" points="67.1399,-495.197 57.3289,-491.198 62.5045,-500.442 67.1399,-495.197"/>
</g>
<!-- SurfaceSyntax -->
<g id="node16" class="node"><title>SurfaceSyntax</title>
<ellipse fill="#eead0e" stroke="#eead0e" cx="554" cy="-399" rx="80.8024" ry="18"/>
<text text-anchor="middle" x="554" y="-394.9" font-family="Times Roman,serif" font-size="14.00">SurfaceSyntax</text>
</g>
<!-- Driver&#45;&gt;SurfaceSyntax -->
<g id="edge12" class="edge"><title>Driver&#45;&gt;SurfaceSyntax</title>
<path fill="none" stroke="black" d="M118.712,-533.005C112.665,-512.081 106.851,-477.767 125,-457 126.43,-455.364 349.946,-425.788 473.734,-409.519"/>
<polygon fill="black" stroke="black" points="474.472,-412.953 483.931,-408.18 473.56,-406.012 474.472,-412.953"/>
</g>
<!-- Variable -->
<g id="node19" class="node"><title>Variable</title>
<ellipse fill="#eead0e" stroke="#eead0e" cx="686" cy="-323" rx="50.0315" ry="18"/>
<text text-anchor="middle" x="686" y="-318.9" font-family="Times Roman,serif" font-size="14.00">Variable</text>
</g>
<!-- SurfaceSyntax&#45;&gt;Variable -->
<g id="edge26" class="edge"><title>SurfaceSyntax&#45;&gt;Variable</title>
<path fill="none" stroke="black" d="M583.295,-382.133C603.233,-370.654 629.723,-355.402 650.807,-343.263"/>
<polygon fill="black" stroke="black" points="652.557,-346.294 659.476,-338.271 649.064,-340.228 652.557,-346.294"/>
</g>
<!-- Datacon -->
<g id="node27" class="node"><title>Datacon</title>
<ellipse fill="#eead0e" stroke="#eead0e" cx="553" cy="-323" rx="50.9221" ry="18"/>
<text text-anchor="middle" x="553" y="-318.9" font-family="Times Roman,serif" font-size="14.00">Datacon</text>
</g>
<!-- SurfaceSyntax&#45;&gt;Datacon -->
<g id="edge28" class="edge"><title>SurfaceSyntax&#45;&gt;Datacon</title>
<path fill="none" stroke="black" d="M553.763,-380.989C553.647,-372.157 553.504,-361.31 553.374,-351.396"/>
<polygon fill="black" stroke="black" points="556.87,-351.098 553.239,-341.145 549.871,-351.19 556.87,-351.098"/>
</g>
<!-- Hashcons -->
<g id="node17" class="node"><title>Hashcons</title>
<ellipse fill="#eead0e" stroke="#eead0e" cx="551" cy="-171" rx="56.9803" ry="18"/>
<text text-anchor="middle" x="551" y="-166.9" font-family="Times Roman,serif" font-size="14.00">Hashcons</text>
</g>
<!-- Hashcons&#45;&gt;InfiniteArray -->
<g id="edge14" class="edge"><title>Hashcons&#45;&gt;InfiniteArray</title>
<path fill="none" stroke="black" d="M551,-152.989C551,-144.157 551,-133.31 551,-123.396"/>
<polygon fill="black" stroke="black" points="554.5,-123.145 551,-113.145 547.5,-123.145 554.5,-123.145"/>
</g>
<!-- Identifier -->
<g id="node21" class="node"><title>Identifier</title>
<ellipse fill="#eead0e" stroke="#eead0e" cx="551" cy="-247" rx="54.8957" ry="18"/>
<text text-anchor="middle" x="551" y="-242.9" font-family="Times Roman,serif" font-size="14.00">Identifier</text>
</g>
<!-- Variable&#45;&gt;Identifier -->
<g id="edge16" class="edge"><title>Variable&#45;&gt;Identifier</title>
<path fill="none" stroke="black" d="M659.005,-307.803C638.581,-296.305 610.307,-280.387 587.81,-267.723"/>
<polygon fill="black" stroke="black" points="589.307,-264.549 578.876,-262.693 585.873,-270.649 589.307,-264.549"/>
</g>
<!-- Identifier&#45;&gt;Hashcons -->
<g id="edge18" class="edge"><title>Identifier&#45;&gt;Hashcons</title>
<path fill="none" stroke="black" d="M551,-228.989C551,-220.157 551,-209.31 551,-199.396"/>
<polygon fill="black" stroke="black" points="554.5,-199.145 551,-189.145 547.5,-199.145 554.5,-199.145"/>
</g>
<!-- Patricia -->
<g id="node24" class="node"><title>Patricia</title>
<ellipse fill="cyan" stroke="cyan" cx="385" cy="-171" rx="46.7546" ry="18"/>
<text text-anchor="middle" x="385" y="-166.9" font-family="Times Roman,serif" font-size="14.00">Patricia</text>
</g>
<!-- Identifier&#45;&gt;Patricia -->
<g id="edge20" class="edge"><title>Identifier&#45;&gt;Patricia</title>
<path fill="none" stroke="black" d="M518.994,-232.346C492.076,-220.023 453.477,-202.351 424.614,-189.136"/>
<polygon fill="black" stroke="black" points="425.779,-185.821 415.23,-184.84 422.865,-192.185 425.779,-185.821"/>
</g>
<!-- GMap -->
<g id="node26" class="node"><title>GMap</title>
<ellipse fill="cyan" stroke="cyan" cx="404" cy="-95" rx="38.9134" ry="18"/>
<text text-anchor="middle" x="404" y="-90.9" font-family="Times Roman,serif" font-size="14.00">GMap</text>
</g>
<!-- Identifier&#45;&gt;GMap -->
<g id="edge22" class="edge"><title>Identifier&#45;&gt;GMap</title>
<path fill="none" stroke="black" d="M530.416,-230.183C517.052,-218.961 499.491,-203.632 485,-189 462.849,-166.633 439.595,-139.174 423.714,-119.723"/>
<polygon fill="black" stroke="black" points="426.401,-117.479 417.384,-111.916 420.963,-121.888 426.401,-117.479"/>
</g>
<!-- Patricia&#45;&gt;GMap -->
<g id="edge30" class="edge"><title>Patricia&#45;&gt;GMap</title>
<path fill="none" stroke="black" d="M389.503,-152.989C391.751,-143.997 394.52,-132.918 397.035,-122.862"/>
<polygon fill="black" stroke="black" points="400.5,-123.432 399.53,-112.882 393.709,-121.734 400.5,-123.432"/>
</g>
<!-- GSet -->
<g id="node32" class="node"><title>GSet</title>
<ellipse fill="cyan" stroke="cyan" cx="404" cy="-19" rx="34.9399" ry="18"/>
<text text-anchor="middle" x="404" y="-14.9" font-family="Times Roman,serif" font-size="14.00">GSet</text>
</g>
<!-- GMap&#45;&gt;GSet -->
<g id="edge32" class="edge"><title>GMap&#45;&gt;GSet</title>
<path fill="none" stroke="black" d="M404,-76.9891C404,-68.1566 404,-57.3099 404,-47.3965"/>
<polygon fill="black" stroke="black" points="407.5,-47.145 404,-37.145 400.5,-47.1451 407.5,-47.145"/>
</g>
<!-- Datacon&#45;&gt;Identifier -->
<g id="edge24" class="edge"><title>Datacon&#45;&gt;Identifier</title>
<path fill="none" stroke="black" d="M552.526,-304.989C552.294,-296.157 552.008,-285.31 551.747,-275.396"/>
<polygon fill="black" stroke="black" points="555.239,-275.049 551.478,-265.145 548.242,-275.234 555.239,-275.049"/>
</g>
<!-- PersistentRef -->
<g id="node34" class="node"><title>PersistentRef</title>
<ellipse fill="green" stroke="green" cx="384" cy="-247" rx="73.8534" ry="18"/>
<text text-anchor="middle" x="384" y="-242.9" font-family="Times Roman,serif" font-size="14.00">PersistentRef</text>
</g>
<!-- PersistentRef&#45;&gt;Patricia -->
<g id="edge34" class="edge"><title>PersistentRef&#45;&gt;Patricia</title>
<path fill="none" stroke="black" d="M384.237,-228.989C384.353,-220.157 384.496,-209.31 384.626,-199.396"/>
<polygon fill="black" stroke="black" points="388.129,-199.19 384.761,-189.145 381.13,-199.098 388.129,-199.19"/>
</g>
<!-- WellKindedness -->
<g id="node36" class="node"><title>WellKindedness</title>
<ellipse fill="green" stroke="green" cx="876" cy="-551" rx="86.1654" ry="18"/>
<text text-anchor="middle" x="876" y="-546.9" font-family="Times Roman,serif" font-size="14.00">WellKindedness</text>
</g>
<!-- WellKindedness&#45;&gt;Hml_List -->
<g id="edge42" class="edge"><title>WellKindedness&#45;&gt;Hml_List</title>
<path fill="none" stroke="black" d="M816.646,-537.849C752.167,-523.562 650.028,-500.93 587.513,-487.079"/>
<polygon fill="black" stroke="black" points="587.975,-483.596 577.455,-484.85 586.461,-490.43 587.975,-483.596"/>
</g>
<!-- WellKindedness&#45;&gt;SurfaceSyntax -->
<g id="edge40" class="edge"><title>WellKindedness&#45;&gt;SurfaceSyntax</title>
<path fill="none" stroke="black" d="M809.152,-539.522C767.719,-530.64 714.325,-515.907 671,-493 648.966,-481.35 647.367,-472.69 628,-457 613.821,-445.513 597.913,-432.997 584.491,-422.542"/>
<polygon fill="black" stroke="black" points="586.536,-419.699 576.492,-416.327 582.241,-425.226 586.536,-419.699"/>
</g>
<!-- WellKindedness&#45;&gt;Variable -->
<g id="edge36" class="edge"><title>WellKindedness&#45;&gt;Variable</title>
<path fill="none" stroke="black" d="M878.493,-532.972C882.127,-499.061 884.878,-425.22 848,-381 833.52,-363.637 779.528,-346.53 737.81,-335.446"/>
<polygon fill="black" stroke="black" points="738.6,-332.035 728.04,-332.899 736.834,-338.808 738.6,-332.035"/>
</g>
<!-- Types -->
<g id="node39" class="node"><title>Types</title>
<ellipse fill="green" stroke="green" cx="719" cy="-475" rx="38.9134" ry="18"/>
<text text-anchor="middle" x="719" y="-470.9" font-family="Times Roman,serif" font-size="14.00">Types</text>
</g>
<!-- WellKindedness&#45;&gt;Types -->
<g id="edge38" class="edge"><title>WellKindedness&#45;&gt;Types</title>
<path fill="none" stroke="black" d="M841.546,-534.321C815.981,-521.946 781.202,-505.11 755.225,-492.535"/>
<polygon fill="black" stroke="black" points="756.611,-489.318 746.086,-488.112 753.561,-495.619 756.611,-489.318"/>
</g>
<!-- Types&#45;&gt;Hml_Map -->
<g id="edge48" class="edge"><title>Types&#45;&gt;Hml_Map</title>
<path fill="none" stroke="black" d="M733.426,-458.133C741.973,-448.139 752.966,-435.286 762.519,-424.117"/>
<polygon fill="black" stroke="black" points="765.324,-426.221 769.164,-416.347 760.004,-421.671 765.324,-426.221"/>
</g>
<!-- Types&#45;&gt;SurfaceSyntax -->
<g id="edge46" class="edge"><title>Types&#45;&gt;SurfaceSyntax</title>
<path fill="none" stroke="black" d="M691.383,-462.279C666.134,-450.65 628.334,-433.239 598.772,-419.622"/>
<polygon fill="black" stroke="black" points="600.036,-416.351 589.489,-415.347 597.108,-422.709 600.036,-416.351"/>
</g>
<!-- Types&#45;&gt;Variable -->
<g id="edge44" class="edge"><title>Types&#45;&gt;Variable</title>
<path fill="none" stroke="black" d="M715.085,-456.967C709.404,-430.798 698.821,-382.056 692.109,-351.137"/>
<polygon fill="black" stroke="black" points="695.452,-350.04 689.91,-341.01 688.611,-351.525 695.452,-350.04"/>
</g>
<!-- Types&#45;&gt;Datacon -->
<g id="edge50" class="edge"><title>Types&#45;&gt;Datacon</title>
<path fill="none" stroke="black" d="M707.751,-457.628C694.23,-437.606 670.08,-404.452 644,-381 627.867,-366.492 607.706,-353.241 590.465,-343.078"/>
<polygon fill="black" stroke="black" points="592.163,-340.017 581.751,-338.054 588.667,-346.081 592.163,-340.017"/>
</g>
<!-- Data -->
<g id="node42" class="node"><title>Data</title>
<ellipse fill="green" stroke="green" cx="212" cy="-323" rx="34.2406" ry="18"/>
<text text-anchor="middle" x="212" y="-318.9" font-family="Times Roman,serif" font-size="14.00">Data</text>
</g>
<!-- Mode -->
<g id="node43" class="node"><title>Mode</title>
<ellipse fill="green" stroke="green" cx="469" cy="-551" rx="36.8288" ry="18"/>
<text text-anchor="middle" x="469" y="-546.9" font-family="Times Roman,serif" font-size="14.00">Mode</text>
</g>
<!-- ModeDeduction -->
<g id="node44" class="node"><title>ModeDeduction</title>
<ellipse fill="green" stroke="green" cx="686" cy="-551" rx="86.1654" ry="18"/>
<text text-anchor="middle" x="686" y="-546.9" font-family="Times Roman,serif" font-size="14.00">ModeDeduction</text>
</g>
<!-- Printers -->
<g id="node49" class="node"><title>Printers</title>
<ellipse fill="green" stroke="green" cx="327" cy="-551" rx="48.8383" ry="18"/>
<text text-anchor="middle" x="327" y="-546.9" font-family="Times Roman,serif" font-size="14.00">Printers</text>
</g>
<!-- Printers&#45;&gt;Bash -->
<g id="edge62" class="edge"><title>Printers&#45;&gt;Bash</title>
<path fill="none" stroke="black" d="M348.915,-534.509C363.935,-523.208 383.984,-508.121 400.137,-495.966"/>
<polygon fill="black" stroke="black" points="402.295,-498.723 408.181,-489.913 398.086,-493.129 402.295,-498.723"/>
</g>
<!-- Printers&#45;&gt;Hml_List -->
<g id="edge58" class="edge"><title>Printers&#45;&gt;Hml_List</title>
<path fill="none" stroke="black" d="M361.945,-538.108C396.402,-525.395 449.252,-505.897 487.084,-491.94"/>
<polygon fill="black" stroke="black" points="488.673,-495.084 496.843,-488.339 486.25,-488.517 488.673,-495.084"/>
</g>
<!-- Printers&#45;&gt;SurfaceSyntax -->
<g id="edge56" class="edge"><title>Printers&#45;&gt;SurfaceSyntax</title>
<path fill="none" stroke="black" d="M333.772,-532.82C342.517,-511.718 359.685,-477.233 385,-457 412.34,-435.149 448.408,-421.292 480.201,-412.628"/>
<polygon fill="black" stroke="black" points="481.118,-416.006 489.916,-410.103 479.357,-409.231 481.118,-416.006"/>
</g>
<!-- Printers&#45;&gt;Variable -->
<g id="edge52" class="edge"><title>Printers&#45;&gt;Variable</title>
<path fill="none" stroke="black" d="M327.696,-532.685C329.309,-512.397 334.503,-479.574 351,-457 370.791,-429.918 387.242,-435.832 415,-417 437.363,-401.828 439.604,-392.623 464,-381 471.841,-377.265 572.05,-351.696 635.123,-335.778"/>
<polygon fill="black" stroke="black" points="636.066,-339.15 644.907,-333.311 634.355,-332.363 636.066,-339.15"/>
</g>
<!-- Printers&#45;&gt;Datacon -->
<g id="edge60" class="edge"><title>Printers&#45;&gt;Datacon</title>
<path fill="none" stroke="black" d="M317.745,-533.291C301.564,-499.595 273.106,-425.639 309,-381 360.898,-316.458 410.744,-361.446 491,-341 495.333,-339.896 499.821,-338.699 504.31,-337.465"/>
<polygon fill="black" stroke="black" points="505.397,-340.795 514.081,-334.726 503.507,-334.055 505.397,-340.795"/>
</g>
<!-- Printers&#45;&gt;Types -->
<g id="edge54" class="edge"><title>Printers&#45;&gt;Types</title>
<path fill="none" stroke="black" d="M370.449,-542.576C444.889,-528.144 596.162,-498.816 672.588,-483.998"/>
<polygon fill="black" stroke="black" points="673.709,-487.346 682.86,-482.007 672.376,-480.474 673.709,-487.346"/>
</g>
<!-- PermissionDeduction -->
<g id="node56" class="node"><title>PermissionDeduction</title>
<ellipse fill="green" stroke="green" cx="150" cy="-399" rx="111.876" ry="18"/>
<text text-anchor="middle" x="150" y="-394.9" font-family="Times Roman,serif" font-size="14.00">PermissionDeduction</text>
</g>
<!-- PermissionDeduction&#45;&gt;Patricia -->
<g id="edge64" class="edge"><title>PermissionDeduction&#45;&gt;Patricia</title>
<path fill="none" stroke="black" d="M149.544,-380.729C149.919,-360.48 153.224,-327.693 169,-305 210.917,-244.704 289.607,-206.176 339.552,-186.594"/>
<polygon fill="black" stroke="black" points="341.047,-189.77 349.138,-182.93 338.547,-183.231 341.047,-189.77"/>
</g>
<!-- PermissionDeduction&#45;&gt;Data -->
<g id="edge68" class="edge"><title>PermissionDeduction&#45;&gt;Data</title>
<path fill="none" stroke="black" d="M164.693,-380.989C172.854,-370.985 183.123,-358.397 192.007,-347.508"/>
<polygon fill="black" stroke="black" points="194.862,-349.544 198.472,-339.583 189.438,-345.119 194.862,-349.544"/>
</g>
<!-- PersistentUnionFind -->
<g id="node59" class="node"><title>PersistentUnionFind</title>
<ellipse fill="green" stroke="green" cx="375" cy="-323" rx="107.206" ry="18"/>
<text text-anchor="middle" x="375" y="-318.9" font-family="Times Roman,serif" font-size="14.00">PersistentUnionFind</text>
</g>
<!-- PermissionDeduction&#45;&gt;PersistentUnionFind -->
<g id="edge66" class="edge"><title>PermissionDeduction&#45;&gt;PersistentUnionFind</title>
<path fill="none" stroke="black" d="M198.268,-382.696C233.236,-370.885 280.653,-354.868 317.57,-342.399"/>
<polygon fill="black" stroke="black" points="318.844,-345.663 327.198,-339.146 316.604,-339.031 318.844,-345.663"/>
</g>
<!-- PersistentUnionFind&#45;&gt;PersistentRef -->
<g id="edge70" class="edge"><title>PersistentUnionFind&#45;&gt;PersistentRef</title>
<path fill="none" stroke="black" d="M377.133,-304.989C378.19,-296.063 379.491,-285.079 380.675,-275.08"/>
<polygon fill="black" stroke="black" points="384.151,-275.487 381.851,-265.145 377.199,-274.664 384.151,-275.487"/>
</g>
<!-- FactInference -->
<g id="node62" class="node"><title>FactInference</title>
<ellipse fill="green" stroke="green" cx="501" cy="-627" rx="75.9375" ry="18"/>
<text text-anchor="middle" x="501" y="-622.9" font-family="Times Roman,serif" font-size="14.00">FactInference</text>
</g>
<!-- FactInference&#45;&gt;Log -->
<g id="edge76" class="edge"><title>FactInference&#45;&gt;Log</title>
<path fill="none" stroke="black" d="M441.346,-615.655C393.875,-605.781 326.159,-589.792 269,-569 267.137,-568.322 265.243,-567.58 263.347,-566.795"/>
<polygon fill="black" stroke="black" points="264.539,-563.494 253.98,-562.617 261.687,-569.887 264.539,-563.494"/>
</g>
<!-- FactInference&#45;&gt;Bash -->
<g id="edge72" class="edge"><title>FactInference&#45;&gt;Bash</title>
<path fill="none" stroke="black" d="M509.919,-608.91C518.317,-589.114 527.846,-557.003 515,-533 508.94,-521.676 482.998,-505.15 461.005,-492.632"/>
<polygon fill="black" stroke="black" points="462.638,-489.536 452.202,-487.711 459.222,-495.646 462.638,-489.536"/>
</g>
<!-- FactInference&#45;&gt;Hml_List -->
<g id="edge74" class="edge"><title>FactInference&#45;&gt;Hml_List</title>
<path fill="none" stroke="black" d="M466.454,-610.844C450.096,-601.2 432.169,-587.244 423,-569 415.815,-554.704 414.736,-546.7 423,-533 435.677,-511.985 458.785,-498.197 480.561,-489.361"/>
<polygon fill="black" stroke="black" points="481.985,-492.565 490.103,-485.757 479.512,-486.017 481.985,-492.565"/>
</g>
<!-- FactInference&#45;&gt;SurfaceSyntax -->
<g id="edge80" class="edge"><title>FactInference&#45;&gt;SurfaceSyntax</title>
<path fill="none" stroke="black" d="M518.779,-609.486C541.598,-585.627 580.025,-540.422 595,-493 599.818,-477.743 599.845,-472.249 595,-457 591.303,-445.365 584.334,-434.055 577.176,-424.559"/>
<polygon fill="black" stroke="black" points="579.89,-422.348 570.915,-416.718 574.42,-426.716 579.89,-422.348"/>
</g>
<!-- FactInference&#45;&gt;Variable -->
<g id="edge82" class="edge"><title>FactInference&#45;&gt;Variable</title>
<path fill="none" stroke="black" d="M575.752,-623.528C706.136,-616.7 963.918,-599.476 991,-569 1054.84,-497.155 1044.52,-500.517 871,-381 832.576,-354.534 781.524,-339.724 742.785,-331.707"/>
<polygon fill="black" stroke="black" points="743.201,-328.222 732.712,-329.717 741.844,-335.089 743.201,-328.222"/>
</g>
<!-- FactInference&#45;&gt;Types -->
<g id="edge84" class="edge"><title>FactInference&#45;&gt;Types</title>
<path fill="none" stroke="black" d="M575.441,-623.141C701.353,-615.847 945.268,-598.103 971,-569 1030.65,-501.533 857.396,-482.37 768.308,-477.021"/>
<polygon fill="black" stroke="black" points="768.322,-473.517 758.141,-476.449 767.929,-480.506 768.322,-473.517"/>
</g>
<!-- FactInference&#45;&gt;Mode -->
<g id="edge88" class="edge"><title>FactInference&#45;&gt;Mode</title>
<path fill="none" stroke="black" d="M493.416,-608.989C489.551,-599.808 484.769,-588.451 480.464,-578.228"/>
<polygon fill="black" stroke="black" points="483.635,-576.74 476.529,-568.882 477.184,-579.456 483.635,-576.74"/>
</g>
<!-- FactInference&#45;&gt;ModeDeduction -->
<g id="edge86" class="edge"><title>FactInference&#45;&gt;ModeDeduction</title>
<path fill="none" stroke="black" d="M539.332,-611.253C567.696,-599.601 606.55,-583.639 637.143,-571.071"/>
<polygon fill="black" stroke="black" points="638.841,-574.157 646.761,-567.12 636.181,-567.682 638.841,-574.157"/>
</g>
<!-- FactInference&#45;&gt;Printers -->
<g id="edge78" class="edge"><title>FactInference&#45;&gt;Printers</title>
<path fill="none" stroke="black" d="M464.524,-611.068C436.411,-598.789 397.526,-581.805 368.276,-569.028"/>
<polygon fill="black" stroke="black" points="369.32,-565.665 358.755,-564.87 366.518,-572.08 369.32,-565.665"/>
</g>
<!-- Hamlet -->
<g id="node72" class="node"><title>Hamlet</title>
<ellipse fill="magenta" stroke="magenta" cx="327" cy="-703" rx="45.8622" ry="18"/>
<text text-anchor="middle" x="327" y="-698.9" font-family="Times Roman,serif" font-size="14.00">Hamlet</text>
</g>
<!-- Hamlet&#45;&gt;Log -->
<g id="edge94" class="edge"><title>Hamlet&#45;&gt;Log</title>
<path fill="none" stroke="black" d="M315.916,-685.266C299.166,-658.466 267.318,-607.508 248.037,-576.66"/>
<polygon fill="black" stroke="black" points="250.99,-574.78 242.722,-568.155 245.054,-578.49 250.99,-574.78"/>
</g>
<!-- Hamlet&#45;&gt;Driver -->
<g id="edge98" class="edge"><title>Hamlet&#45;&gt;Driver</title>
<path fill="none" stroke="black" d="M305.764,-687.021C269.374,-659.638 195.056,-603.715 153.951,-572.785"/>
<polygon fill="black" stroke="black" points="156.046,-569.981 145.951,-566.765 151.837,-575.575 156.046,-569.981"/>
</g>
<!-- Hamlet&#45;&gt;WellKindedness -->
<g id="edge90" class="edge"><title>Hamlet&#45;&gt;WellKindedness</title>
<path fill="none" stroke="black" d="M368.561,-694.936C419.966,-684.678 509.994,-665.78 586,-645 669.491,-622.174 764.658,-590.15 822.51,-569.996"/>
<polygon fill="black" stroke="black" points="823.881,-573.224 832.167,-566.621 821.572,-566.616 823.881,-573.224"/>
</g>
<!-- Hamlet&#45;&gt;Printers -->
<g id="edge92" class="edge"><title>Hamlet&#45;&gt;Printers</title>
<path fill="none" stroke="black" d="M327,-684.967C327,-658.798 327,-610.056 327,-579.137"/>
<polygon fill="black" stroke="black" points="330.5,-579.01 327,-569.01 323.5,-579.01 330.5,-579.01"/>
</g>
<!-- Hamlet&#45;&gt;FactInference -->
<g id="edge96" class="edge"><title>Hamlet&#45;&gt;FactInference</title>
<path fill="none" stroke="black" d="M357.707,-689.588C384.762,-677.77 424.546,-660.394 455.333,-646.946"/>
<polygon fill="black" stroke="black" points="456.812,-650.12 464.575,-642.91 454.01,-643.705 456.812,-650.12"/>
</g>
</g>
</svg>
