<?xml version="1.0" encoding="UTF-8" standalone="no"?>
<!DOCTYPE svg PUBLIC "-//W3C//DTD SVG 1.1//EN"
 "http://www.w3.org/Graphics/SVG/1.1/DTD/svg11.dtd">
<!-- Generated by graphviz version 2.26.3 (20100126.1600)
 -->
<!-- Title: G Pages: 1 -->
<svg width="720pt" height="505pt"
 viewBox="0.00 0.00 720.00 505.26" xmlns="http://www.w3.org/2000/svg" xmlns:xlink="http://www.w3.org/1999/xlink">
<g id="graph1" class="graph" transform="scale(0.33241 0.33241) rotate(0) translate(4 1516)">
<title>G</title>
<polygon fill="white" stroke="white" points="-4,5 -4,-1516 2163,-1516 2163,5 -4,5"/>
<!-- Exports -->
<g id="node1" class="node"><title>Exports</title>
<ellipse fill="darkturquoise" stroke="darkturquoise" cx="1800" cy="-700" rx="47.9469" ry="18"/>
<text text-anchor="middle" x="1800" y="-695.9" font-family="DejaVu Sans, Helvetica, sans" font-size="14.00"><a xlink:href="Exports.html" target="_parent">Exports</a></text>
</g>
<!-- KindCheck -->
<g id="node3" class="node"><title>KindCheck</title>
<ellipse fill="darkturquoise" stroke="darkturquoise" cx="1814" cy="-252" rx="61.8445" ry="18"/>
<text text-anchor="middle" x="1814" y="-247.9" font-family="DejaVu Sans, Helvetica, sans" font-size="14.00"><a xlink:href="KindCheck.html" target="_parent">KindCheck</a></text>
</g>
<!-- Exports&#45;&gt;KindCheck -->
<g id="edge2" class="edge"><title>Exports&#45;&gt;KindCheck</title>
<path fill="none" stroke="black" d="M1800.57,-681.883C1802.73,-612.723 1810.47,-364.997 1813.11,-280.486"/>
<polygon fill="black" stroke="black" points="1816.61,-280.447 1813.43,-270.342 1809.62,-280.228 1816.61,-280.447"/>
</g>
<!-- TypeCore -->
<g id="node5" class="node"><title>TypeCore</title>
<ellipse fill="darkturquoise" stroke="darkturquoise" cx="1053" cy="-364" rx="55.0898" ry="18"/>
<text text-anchor="middle" x="1053" y="-359.9" font-family="DejaVu Sans, Helvetica, sans" font-size="14.00"><a xlink:href="TypeCore.html" target="_parent">TypeCore</a></text>
</g>
<!-- Exports&#45;&gt;TypeCore -->
<g id="edge4" class="edge"><title>Exports&#45;&gt;TypeCore</title>
<path fill="none" stroke="black" d="M1792.76,-682.006C1773.26,-636.048 1714.87,-514.035 1624,-458 1539.91,-406.144 1248.01,-378.485 1117.23,-368.45"/>
<polygon fill="black" stroke="black" points="1117.21,-364.938 1106.97,-367.674 1116.68,-371.918 1117.21,-364.938"/>
</g>
<!-- DataTypeFlavor -->
<g id="node12" class="node"><title>DataTypeFlavor</title>
<ellipse fill="darkturquoise" stroke="darkturquoise" cx="592" cy="-140" rx="86.8603" ry="18"/>
<text text-anchor="middle" x="592" y="-135.9" font-family="DejaVu Sans, Helvetica, sans" font-size="14.00"><a xlink:href="DataTypeFlavor.html" target="_parent">DataTypeFlavor</a></text>
</g>
<!-- KindCheck&#45;&gt;DataTypeFlavor -->
<g id="edge30" class="edge"><title>KindCheck&#45;&gt;DataTypeFlavor</title>
<path fill="none" stroke="black" d="M1767.6,-239.839C1757.87,-237.621 1747.64,-235.528 1738,-234 1352.1,-172.833 886.414,-150.25 688.504,-143.007"/>
<polygon fill="black" stroke="black" points="688.546,-139.506 678.426,-142.643 688.293,-146.501 688.546,-139.506"/>
</g>
<!-- Mode -->
<g id="node24" class="node"><title>Mode</title>
<ellipse fill="darkturquoise" stroke="darkturquoise" cx="592" cy="-28" rx="36.8288" ry="18"/>
<text text-anchor="middle" x="592" y="-23.9" font-family="DejaVu Sans, Helvetica, sans" font-size="14.00"><a xlink:href="Mode.html" target="_parent">Mode</a></text>
</g>
<!-- KindCheck&#45;&gt;Mode -->
<g id="edge26" class="edge"><title>KindCheck&#45;&gt;Mode</title>
<path fill="none" stroke="black" d="M1766.66,-240.364C1757.19,-238.156 1747.29,-235.934 1738,-234 1311.9,-145.314 791.928,-60.0932 637.372,-35.2391"/>
<polygon fill="black" stroke="black" points="637.732,-31.752 627.303,-33.6222 636.622,-38.6635 637.732,-31.752"/>
</g>
<!-- Namespace -->
<g id="node27" class="node"><title>Namespace</title>
<ellipse fill="darkturquoise" stroke="darkturquoise" cx="2046" cy="-140" rx="66.0138" ry="18"/>
<text text-anchor="middle" x="2046" y="-135.9" font-family="DejaVu Sans, Helvetica, sans" font-size="14.00"><a xlink:href="Namespace.html" target="_parent">Namespace</a></text>
</g>
<!-- KindCheck&#45;&gt;Namespace -->
<g id="edge28" class="edge"><title>KindCheck&#45;&gt;Namespace</title>
<path fill="none" stroke="black" d="M1846.26,-236.427C1887.41,-216.562 1958.66,-182.165 2004,-160.274"/>
<polygon fill="black" stroke="black" points="2005.78,-163.301 2013.27,-155.802 2002.74,-156.998 2005.78,-163.301"/>
</g>
<!-- TypeCore&#45;&gt;KindCheck -->
<g id="edge110" class="edge"><title>TypeCore&#45;&gt;KindCheck</title>
<path fill="none" stroke="black" d="M1103.23,-356.608C1236.58,-336.981 1599.53,-283.564 1748.68,-261.614"/>
<polygon fill="black" stroke="black" points="1749.23,-265.071 1758.61,-260.152 1748.21,-258.145 1749.23,-265.071"/>
</g>
<!-- TypeCore&#45;&gt;DataTypeFlavor -->
<g id="edge114" class="edge"><title>TypeCore&#45;&gt;DataTypeFlavor</title>
<path fill="none" stroke="black" d="M1056.21,-345.744C1059.99,-317.797 1062.55,-264.45 1034,-234 987.187,-184.07 798.857,-158.535 683.667,-147.335"/>
<polygon fill="black" stroke="black" points="683.73,-143.826 673.443,-146.36 683.065,-150.794 683.73,-143.826"/>
</g>
<!-- Fact -->
<g id="node16" class="node"><title>Fact</title>
<ellipse fill="darkturquoise" stroke="darkturquoise" cx="1319" cy="-252" rx="30.0736" ry="18"/>
<text text-anchor="middle" x="1319" y="-247.9" font-family="DejaVu Sans, Helvetica, sans" font-size="14.00"><a xlink:href="Fact.html" target="_parent">Fact</a></text>
</g>
<!-- TypeCore&#45;&gt;Fact -->
<g id="edge112" class="edge"><title>TypeCore&#45;&gt;Fact</title>
<path fill="none" stroke="black" d="M1086.96,-349.701C1138.01,-328.206 1233.98,-287.797 1285.04,-266.3"/>
<polygon fill="black" stroke="black" points="1286.47,-269.496 1294.32,-262.39 1283.75,-263.045 1286.47,-269.496"/>
</g>
<!-- TypeCore&#45;&gt;Mode -->
<g id="edge108" class="edge"><title>TypeCore&#45;&gt;Mode</title>
<path fill="none" stroke="black" d="M1006.74,-353.973C884.313,-326.406 557.055,-245.677 496,-158 468.244,-118.141 521.931,-72.7399 559.602,-47.5209"/>
<polygon fill="black" stroke="black" points="561.831,-50.2462 568.303,-41.858 558.012,-44.3793 561.831,-50.2462"/>
</g>
<!-- Mark -->
<g id="node77" class="node"><title>Mark</title>
<ellipse fill="darkturquoise" stroke="darkturquoise" cx="990" cy="-252" rx="34.9399" ry="18"/>
<text text-anchor="middle" x="990" y="-247.9" font-family="DejaVu Sans, Helvetica, sans" font-size="14.00"><a xlink:href="Mark.html" target="_parent">Mark</a></text>
</g>
<!-- TypeCore&#45;&gt;Mark -->
<g id="edge106" class="edge"><title>TypeCore&#45;&gt;Mark</title>
<path fill="none" stroke="black" d="M1042.88,-346.005C1032.62,-327.773 1016.64,-299.366 1004.93,-278.548"/>
<polygon fill="black" stroke="black" points="1007.84,-276.581 999.889,-269.581 1001.74,-280.013 1007.84,-276.581"/>
</g>
<!-- KindPrinter -->
<g id="node6" class="node"><title>KindPrinter</title>
<ellipse fill="darkturquoise" stroke="darkturquoise" cx="487" cy="-812" rx="64.8203" ry="18"/>
<text text-anchor="middle" x="487" y="-807.9" font-family="DejaVu Sans, Helvetica, sans" font-size="14.00"><a xlink:href="KindPrinter.html" target="_parent">KindPrinter</a></text>
</g>
<!-- KindPrinter&#45;&gt;TypeCore -->
<g id="edge8" class="edge"><title>KindPrinter&#45;&gt;TypeCore</title>
<path fill="none" stroke="black" d="M489.664,-793.948C496.536,-751.815 517.807,-644.887 566,-570 605.833,-508.103 623.312,-493.119 688,-458 785.765,-404.924 914.648,-380.887 990.204,-370.728"/>
<polygon fill="black" stroke="black" points="991.04,-374.148 1000.5,-369.384 990.135,-367.207 991.04,-374.148"/>
</g>
<!-- Types -->
<g id="node8" class="node"><title>Types</title>
<ellipse fill="darkturquoise" stroke="darkturquoise" cx="789" cy="-700" rx="38.2185" ry="18"/>
<text text-anchor="middle" x="789" y="-695.9" font-family="DejaVu Sans, Helvetica, sans" font-size="14.00"><a xlink:href="Types.html" target="_parent">Types</a></text>
</g>
<!-- KindPrinter&#45;&gt;Types -->
<g id="edge6" class="edge"><title>KindPrinter&#45;&gt;Types</title>
<path fill="none" stroke="black" d="M526.172,-797.473C583.955,-776.043 691.442,-736.18 749.444,-714.67"/>
<polygon fill="black" stroke="black" points="750.836,-717.887 758.995,-711.128 748.402,-711.323 750.836,-717.887"/>
</g>
<!-- Types&#45;&gt;TypeCore -->
<g id="edge38" class="edge"><title>Types&#45;&gt;TypeCore</title>
<path fill="none" stroke="black" d="M807.804,-684.054C828.394,-666.135 861.83,-635.658 887,-606 948.993,-532.955 1009.48,-436.646 1037.22,-390.662"/>
<polygon fill="black" stroke="black" points="1040.34,-392.275 1042.48,-381.899 1034.34,-388.674 1040.34,-392.275"/>
</g>
<!-- Types&#45;&gt;DataTypeFlavor -->
<g id="edge42" class="edge"><title>Types&#45;&gt;DataTypeFlavor</title>
<path fill="none" stroke="black" d="M779.043,-682.598C759.426,-647.744 715.315,-566.496 688,-494 643.521,-375.952 610.393,-228.616 597.684,-168.014"/>
<polygon fill="black" stroke="black" points="601.078,-167.14 595.618,-158.061 594.224,-168.564 601.078,-167.14"/>
</g>
<!-- DeBruijn -->
<g id="node14" class="node"><title>DeBruijn</title>
<ellipse fill="darkturquoise" stroke="darkturquoise" cx="750" cy="-476" rx="53.0059" ry="18"/>
<text text-anchor="middle" x="750" y="-471.9" font-family="DejaVu Sans, Helvetica, sans" font-size="14.00"><a xlink:href="DeBruijn.html" target="_parent">DeBruijn</a></text>
</g>
<!-- Types&#45;&gt;DeBruijn -->
<g id="edge32" class="edge"><title>Types&#45;&gt;DeBruijn</title>
<path fill="none" stroke="black" d="M784.82,-682.047C780.512,-663.181 773.769,-632.605 769,-606 762.739,-571.073 757.071,-530.589 753.587,-504.2"/>
<polygon fill="black" stroke="black" points="757.04,-503.609 752.276,-494.146 750.099,-504.515 757.04,-503.609"/>
</g>
<!-- Types&#45;&gt;Fact -->
<g id="edge40" class="edge"><title>Types&#45;&gt;Fact</title>
<path fill="none" stroke="black" d="M810.534,-684.897C836.131,-666.753 879.923,-635.113 916,-606 1064.43,-486.227 1233.3,-331.525 1294.9,-274.44"/>
<polygon fill="black" stroke="black" points="1297.59,-276.72 1302.54,-267.353 1292.83,-271.589 1297.59,-276.72"/>
</g>
<!-- Types&#45;&gt;Mode -->
<g id="edge34" class="edge"><title>Types&#45;&gt;Mode</title>
<path fill="none" stroke="black" d="M750.966,-697.623C615.704,-686.93 166,-631.28 166,-364 166,-364 166,-364 166,-252 166,-82.4135 433.745,-40.9325 544.706,-31.0232"/>
<polygon fill="black" stroke="black" points="545.27,-34.4881 554.941,-30.1595 544.682,-27.5129 545.27,-34.4881"/>
</g>
<!-- Resugar -->
<g id="node32" class="node"><title>Resugar</title>
<ellipse fill="darkturquoise" stroke="darkturquoise" cx="828" cy="-588" rx="50.0315" ry="18"/>
<text text-anchor="middle" x="828" y="-583.9" font-family="DejaVu Sans, Helvetica, sans" font-size="14.00"><a xlink:href="Resugar.html" target="_parent">Resugar</a></text>
</g>
<!-- Types&#45;&gt;Resugar -->
<g id="edge36" class="edge"><title>Types&#45;&gt;Resugar</title>
<path fill="none" stroke="black" d="M795.266,-682.005C801.52,-664.044 811.214,-636.206 818.431,-615.479"/>
<polygon fill="black" stroke="black" points="821.766,-616.545 821.75,-605.95 815.156,-614.243 821.766,-616.545"/>
</g>
<!-- FactInference -->
<g id="node10" class="node"><title>FactInference</title>
<ellipse fill="darkturquoise" stroke="darkturquoise" cx="234" cy="-1148" rx="75.2406" ry="18"/>
<text text-anchor="middle" x="234" y="-1143.9" font-family="DejaVu Sans, Helvetica, sans" font-size="14.00"><a xlink:href="FactInference.html" target="_parent">FactInference</a></text>
</g>
<!-- FactInference&#45;&gt;TypeCore -->
<g id="edge22" class="edge"><title>FactInference&#45;&gt;TypeCore</title>
<path fill="none" stroke="black" d="M235.096,-1129.72C237.287,-1091.52 242,-1000.47 242,-924 242,-924 242,-924 242,-700 242,-641.246 243.696,-624.356 266,-570 288.836,-514.347 290.811,-489.598 342,-458 449.456,-391.67 832.998,-371.439 987.655,-365.896"/>
<polygon fill="black" stroke="black" points="988.076,-369.384 997.947,-365.537 987.831,-362.388 988.076,-369.384"/>
</g>
<!-- FactInference&#45;&gt;Types -->
<g id="edge20" class="edge"><title>FactInference&#45;&gt;Types</title>
<path fill="none" stroke="black" d="M252.297,-1130.39C308.281,-1076.9 483.122,-912.734 642,-794 679.603,-765.898 725.548,-737.373 755.956,-719.235"/>
<polygon fill="black" stroke="black" points="758.05,-722.062 764.867,-713.952 754.48,-716.041 758.05,-722.062"/>
</g>
<!-- FactInference&#45;&gt;DataTypeFlavor -->
<g id="edge10" class="edge"><title>FactInference&#45;&gt;DataTypeFlavor</title>
<path fill="none" stroke="black" d="M205.775,-1131.19C181.429,-1114.91 147.907,-1087.74 133,-1054 49.2997,-864.542 128,-795.123 128,-588 128,-588 128,-588 128,-476 128,-283.345 393.652,-189.868 522.943,-155.782"/>
<polygon fill="black" stroke="black" points="523.96,-159.134 532.763,-153.238 522.205,-152.358 523.96,-159.134"/>
</g>
<!-- FactInference&#45;&gt;DeBruijn -->
<g id="edge12" class="edge"><title>FactInference&#45;&gt;DeBruijn</title>
<path fill="none" stroke="black" d="M238.126,-1130C255.682,-1054.28 325.525,-761.842 375,-682 447.073,-565.691 609.586,-510.105 695.068,-488.075"/>
<polygon fill="black" stroke="black" points="696.005,-491.448 704.849,-485.614 694.298,-484.66 696.005,-491.448"/>
</g>
<!-- FactInference&#45;&gt;Fact -->
<g id="edge14" class="edge"><title>FactInference&#45;&gt;Fact</title>
<path fill="none" stroke="black" d="M307.451,-1143.97C509.513,-1132.39 1063.33,-1097.04 1133,-1054 1404.19,-886.462 1344.04,-402.167 1324.04,-280.162"/>
<polygon fill="black" stroke="black" points="1327.46,-279.404 1322.35,-270.124 1320.56,-280.566 1327.46,-279.404"/>
</g>
<!-- Hoist -->
<g id="node18" class="node"><title>Hoist</title>
<ellipse fill="darkturquoise" stroke="darkturquoise" cx="178" cy="-1036" rx="36.1339" ry="18"/>
<text text-anchor="middle" x="178" y="-1031.9" font-family="DejaVu Sans, Helvetica, sans" font-size="14.00"><a xlink:href="Hoist.html" target="_parent">Hoist</a></text>
</g>
<!-- FactInference&#45;&gt;Hoist -->
<g id="edge16" class="edge"><title>FactInference&#45;&gt;Hoist</title>
<path fill="none" stroke="black" d="M225.003,-1130.01C215.887,-1111.77 201.683,-1083.37 191.274,-1062.55"/>
<polygon fill="black" stroke="black" points="194.393,-1060.96 186.79,-1053.58 188.132,-1064.09 194.393,-1060.96"/>
</g>
<!-- TypeErrors -->
<g id="node20" class="node"><title>TypeErrors</title>
<ellipse fill="darkturquoise" stroke="darkturquoise" cx="930" cy="-1036" rx="61.8445" ry="18"/>
<text text-anchor="middle" x="930" y="-1031.9" font-family="DejaVu Sans, Helvetica, sans" font-size="14.00"><a xlink:href="TypeErrors.html" target="_parent">TypeErrors</a></text>
</g>
<!-- FactInference&#45;&gt;TypeErrors -->
<g id="edge18" class="edge"><title>FactInference&#45;&gt;TypeErrors</title>
<path fill="none" stroke="black" d="M296.378,-1137.96C427.754,-1116.82 731.793,-1067.9 865.233,-1046.42"/>
<polygon fill="black" stroke="black" points="865.992,-1049.85 875.309,-1044.8 864.88,-1042.93 865.992,-1049.85"/>
</g>
<!-- FactInference&#45;&gt;Mode -->
<g id="edge24" class="edge"><title>FactInference&#45;&gt;Mode</title>
<path fill="none" stroke="black" d="M202.512,-1131.56C175.017,-1115.52 136.275,-1088.51 115,-1054 71.4311,-983.317 52,-793.818 52,-588 52,-588 52,-588 52,-252 52,-164.784 121.617,-162.231 199,-122 314.329,-62.0406 468.585,-39.6336 545.005,-31.8297"/>
<polygon fill="black" stroke="black" points="545.65,-35.2834 555.26,-30.8231 544.966,-28.3168 545.65,-35.2834"/>
</g>
<!-- DataTypeFlavor&#45;&gt;Mode -->
<g id="edge184" class="edge"><title>DataTypeFlavor&#45;&gt;Mode</title>
<path fill="none" stroke="black" d="M592,-121.505C592,-103.728 592,-76.6184 592,-56.1587"/>
<polygon fill="black" stroke="black" points="595.5,-56.1503 592,-46.1504 588.5,-56.1504 595.5,-56.1503"/>
</g>
<!-- DeBruijn&#45;&gt;TypeCore -->
<g id="edge196" class="edge"><title>DeBruijn&#45;&gt;TypeCore</title>
<path fill="none" stroke="black" d="M785.948,-462.712C840.891,-442.403 945.754,-403.642 1006.44,-381.209"/>
<polygon fill="black" stroke="black" points="1007.99,-384.37 1016.15,-377.62 1005.56,-377.804 1007.99,-384.37"/>
</g>
<!-- Fact&#45;&gt;Mode -->
<g id="edge142" class="edge"><title>Fact&#45;&gt;Mode</title>
<path fill="none" stroke="black" d="M1292.26,-243.762C1182.53,-209.953 766.287,-81.7005 633.189,-40.6911"/>
<polygon fill="black" stroke="black" points="633.961,-37.2666 623.374,-37.6668 631.9,-43.9563 633.961,-37.2666"/>
</g>
<!-- Hoist&#45;&gt;TypeCore -->
<g id="edge60" class="edge"><title>Hoist&#45;&gt;TypeCore</title>
<path fill="none" stroke="black" d="M181.506,-1018.08C188.603,-980.198 204,-889.125 204,-812 204,-812 204,-812 204,-700 204,-583.623 204.769,-518.801 304,-458 418.198,-388.028 827.478,-369.868 987.867,-365.389"/>
<polygon fill="black" stroke="black" points="988.164,-368.883 998.066,-365.114 987.975,-361.885 988.164,-368.883"/>
</g>
<!-- TypeErrors&#45;&gt;TypeCore -->
<g id="edge124" class="edge"><title>TypeErrors&#45;&gt;TypeCore</title>
<path fill="none" stroke="black" d="M964.513,-1021.02C996.248,-1005.58 1042.43,-978.594 1070,-942 1138,-851.743 1148,-813.004 1148,-700 1148,-700 1148,-700 1148,-588 1148,-511.028 1099.87,-430.143 1072.12,-389.913"/>
<polygon fill="black" stroke="black" points="1074.82,-387.668 1066.21,-381.502 1069.1,-391.695 1074.82,-387.668"/>
</g>
<!-- TypeErrors&#45;&gt;Types -->
<g id="edge122" class="edge"><title>TypeErrors&#45;&gt;Types</title>
<path fill="none" stroke="black" d="M962.655,-1020.58C991.09,-1005.14 1030.43,-978.454 1048,-942 1076.56,-882.744 1085.75,-847.865 1048,-794 1022.83,-758.092 900.874,-725.404 833.669,-709.741"/>
<polygon fill="black" stroke="black" points="834.303,-706.296 823.773,-707.465 832.734,-713.117 834.303,-706.296"/>
</g>
<!-- ExpressionsCore -->
<g id="node44" class="node"><title>ExpressionsCore</title>
<ellipse fill="darkturquoise" stroke="darkturquoise" cx="1455" cy="-924" rx="89.139" ry="18"/>
<text text-anchor="middle" x="1455" y="-919.9" font-family="DejaVu Sans, Helvetica, sans" font-size="14.00"><a xlink:href="ExpressionsCore.html" target="_parent">ExpressionsCore</a></text>
</g>
<!-- TypeErrors&#45;&gt;ExpressionsCore -->
<g id="edge126" class="edge"><title>TypeErrors&#45;&gt;ExpressionsCore</title>
<path fill="none" stroke="black" d="M976.523,-1023.89C984.666,-1021.86 993.069,-1019.83 1001,-1018 1134.26,-987.329 1290.58,-955.97 1380.68,-938.343"/>
<polygon fill="black" stroke="black" points="1381.38,-941.772 1390.52,-936.419 1380.04,-934.901 1381.38,-941.772"/>
</g>
<!-- Derivations -->
<g id="node55" class="node"><title>Derivations</title>
<ellipse fill="darkturquoise" stroke="darkturquoise" cx="902" cy="-812" rx="66.2071" ry="18"/>
<text text-anchor="middle" x="902" y="-807.9" font-family="DejaVu Sans, Helvetica, sans" font-size="14.00"><a xlink:href="Derivations.html" target="_parent">Derivations</a></text>
</g>
<!-- TypeErrors&#45;&gt;Derivations -->
<g id="edge128" class="edge"><title>TypeErrors&#45;&gt;Derivations</title>
<path fill="none" stroke="black" d="M934.175,-1017.74C939.304,-992.427 946.464,-945.342 939,-906 934.566,-882.631 924.446,-857.64 915.908,-839.304"/>
<polygon fill="black" stroke="black" points="918.98,-837.615 911.5,-830.111 912.668,-840.642 918.98,-837.615"/>
</g>
<!-- DerivationPrinter -->
<g id="node58" class="node"><title>DerivationPrinter</title>
<ellipse fill="darkturquoise" stroke="darkturquoise" cx="835" cy="-924" rx="95.1989" ry="18"/>
<text text-anchor="middle" x="835" y="-919.9" font-family="DejaVu Sans, Helvetica, sans" font-size="14.00"><a xlink:href="DerivationPrinter.html" target="_parent">DerivationPrinter</a></text>
</g>
<!-- TypeErrors&#45;&gt;DerivationPrinter -->
<g id="edge120" class="edge"><title>TypeErrors&#45;&gt;DerivationPrinter</title>
<path fill="none" stroke="black" d="M915.156,-1018.5C899.516,-1000.06 874.72,-970.828 856.847,-949.756"/>
<polygon fill="black" stroke="black" points="859.507,-947.481 850.369,-942.119 854.168,-952.009 859.507,-947.481"/>
</g>
<!-- NamespaceSignature -->
<g id="node75" class="node"><title>NamespaceSignature</title>
<ellipse fill="darkturquoise" stroke="darkturquoise" cx="2046" cy="-28" rx="112.071" ry="18"/>
<text text-anchor="middle" x="2046" y="-23.9" font-family="DejaVu Sans, Helvetica, sans" font-size="14.00"><a xlink:href="NamespaceSignature.html" target="_parent">NamespaceSignature</a></text>
</g>
<!-- Namespace&#45;&gt;NamespaceSignature -->
<g id="edge104" class="edge"><title>Namespace&#45;&gt;NamespaceSignature</title>
<path fill="none" stroke="black" d="M2046,-121.505C2046,-103.728 2046,-76.6184 2046,-56.1587"/>
<polygon fill="black" stroke="black" points="2049.5,-56.1503 2046,-46.1504 2042.5,-56.1504 2049.5,-56.1503"/>
</g>
<!-- Resugar&#45;&gt;TypeCore -->
<g id="edge58" class="edge"><title>Resugar&#45;&gt;TypeCore</title>
<path fill="none" stroke="black" d="M845.282,-570.795C884.955,-531.298 982.659,-434.028 1028.5,-388.387"/>
<polygon fill="black" stroke="black" points="1031.04,-390.799 1035.66,-381.264 1026.1,-385.839 1031.04,-390.799"/>
</g>
<!-- Resugar&#45;&gt;DeBruijn -->
<g id="edge56" class="edge"><title>Resugar&#45;&gt;DeBruijn</title>
<path fill="none" stroke="black" d="M815.812,-570.5C803.066,-552.197 782.912,-523.258 768.263,-502.224"/>
<polygon fill="black" stroke="black" points="770.946,-499.953 762.359,-493.747 765.202,-503.953 770.946,-499.953"/>
</g>
<!-- Expressions -->
<g id="node36" class="node"><title>Expressions</title>
<ellipse fill="darkturquoise" stroke="darkturquoise" cx="1247" cy="-1260" rx="66.9043" ry="18"/>
<text text-anchor="middle" x="1247" y="-1255.9" font-family="DejaVu Sans, Helvetica, sans" font-size="14.00"><a xlink:href="Expressions.html" target="_parent">Expressions</a></text>
</g>
<!-- Expressions&#45;&gt;TypeCore -->
<g id="edge52" class="edge"><title>Expressions&#45;&gt;TypeCore</title>
<path fill="none" stroke="black" d="M1248.05,-1241.66C1251.47,-1180.64 1262,-978.927 1262,-812 1262,-812 1262,-812 1262,-588 1262,-490.107 1153.97,-417.191 1093.25,-383.937"/>
<polygon fill="black" stroke="black" points="1094.76,-380.776 1084.29,-379.132 1091.45,-386.944 1094.76,-380.776"/>
</g>
<!-- Expressions&#45;&gt;Types -->
<g id="edge48" class="edge"><title>Expressions&#45;&gt;Types</title>
<path fill="none" stroke="black" d="M1189.32,-1250.66C1102.82,-1235.62 945.153,-1203.85 903,-1166 851.937,-1120.16 826.743,-1078.57 859,-1018 887.45,-964.579 935.231,-990.076 972,-942 1013.26,-888.057 1047.46,-850.644 1010,-794 971.619,-735.966 889.369,-713.65 836.752,-705.145"/>
<polygon fill="black" stroke="black" points="837.055,-701.651 826.645,-703.621 836.012,-708.573 837.055,-701.651"/>
</g>
<!-- Expressions&#45;&gt;FactInference -->
<g id="edge46" class="edge"><title>Expressions&#45;&gt;FactInference</title>
<path fill="none" stroke="black" d="M1184.78,-1253.12C1008.64,-1233.65 506.786,-1178.16 312.322,-1156.66"/>
<polygon fill="black" stroke="black" points="312.507,-1153.16 302.183,-1155.54 311.738,-1160.12 312.507,-1153.16"/>
</g>
<!-- Expressions&#45;&gt;DeBruijn -->
<g id="edge44" class="edge"><title>Expressions&#45;&gt;DeBruijn</title>
<path fill="none" stroke="black" d="M1245.03,-1241.93C1237.16,-1176.37 1203.23,-946.93 1100,-794 1023.14,-680.135 991.544,-659.127 887,-570 854.516,-542.307 813.808,-515.22 785.239,-497.292"/>
<polygon fill="black" stroke="black" points="786.756,-494.113 776.416,-491.804 783.058,-500.057 786.756,-494.113"/>
</g>
<!-- Variance -->
<g id="node41" class="node"><title>Variance</title>
<ellipse fill="darkturquoise" stroke="darkturquoise" cx="1148" cy="-1148" rx="52.1162" ry="18"/>
<text text-anchor="middle" x="1148" y="-1143.9" font-family="DejaVu Sans, Helvetica, sans" font-size="14.00"><a xlink:href="Variance.html" target="_parent">Variance</a></text>
</g>
<!-- Expressions&#45;&gt;Variance -->
<g id="edge50" class="edge"><title>Expressions&#45;&gt;Variance</title>
<path fill="none" stroke="black" d="M1231.09,-1242.01C1214.52,-1223.25 1188.43,-1193.74 1169.91,-1172.78"/>
<polygon fill="black" stroke="black" points="1172.46,-1170.39 1163.22,-1165.21 1167.22,-1175.02 1172.46,-1170.39"/>
</g>
<!-- Expressions&#45;&gt;ExpressionsCore -->
<g id="edge54" class="edge"><title>Expressions&#45;&gt;ExpressionsCore</title>
<path fill="none" stroke="black" d="M1258.18,-1241.94C1292.68,-1186.22 1397.55,-1016.81 1438.43,-950.765"/>
<polygon fill="black" stroke="black" points="1441.47,-952.499 1443.76,-942.154 1435.52,-948.815 1441.47,-952.499"/>
</g>
<!-- Variance&#45;&gt;TypeCore -->
<g id="edge140" class="edge"><title>Variance&#45;&gt;TypeCore</title>
<path fill="none" stroke="black" d="M1152.81,-1129.79C1157.5,-1110.98 1164.33,-1080.67 1167,-1054 1168.59,-1038.08 1167.09,-1034 1167,-1018 1165.89,-818.88 1185.76,-767.7 1162,-570 1155.9,-519.264 1159.4,-503.427 1136,-458 1122.13,-431.075 1098.82,-405.652 1080.43,-388.052"/>
<polygon fill="black" stroke="black" points="1082.59,-385.277 1072.89,-381.006 1077.81,-390.391 1082.59,-385.277"/>
</g>
<!-- Variance&#45;&gt;Types -->
<g id="edge138" class="edge"><title>Variance&#45;&gt;Types</title>
<path fill="none" stroke="black" d="M1150.08,-1129.62C1155.53,-1071.73 1164.04,-891.233 1072,-794 1038.97,-759.106 905.052,-725.394 833.917,-709.495"/>
<polygon fill="black" stroke="black" points="834.416,-706.021 823.897,-707.281 832.906,-712.856 834.416,-706.021"/>
</g>
<!-- Variance&#45;&gt;TypeErrors -->
<g id="edge136" class="edge"><title>Variance&#45;&gt;TypeErrors</title>
<path fill="none" stroke="black" d="M1118.6,-1132.9C1080.16,-1113.15 1012.69,-1078.48 969.727,-1056.41"/>
<polygon fill="black" stroke="black" points="971.181,-1053.22 960.687,-1051.77 967.982,-1059.45 971.181,-1053.22"/>
</g>
<!-- ExpressionsCore&#45;&gt;TypeCore -->
<g id="edge198" class="edge"><title>ExpressionsCore&#45;&gt;TypeCore</title>
<path fill="none" stroke="black" d="M1443.85,-905.889C1422.07,-868.74 1376,-780.617 1376,-700 1376,-700 1376,-700 1376,-588 1376,-529.246 1390.93,-502.002 1352,-458 1319.99,-421.827 1188.59,-390.619 1111.04,-374.885"/>
<polygon fill="black" stroke="black" points="1111.42,-371.393 1100.93,-372.861 1110.05,-378.257 1111.42,-371.393"/>
</g>
<!-- Permissions -->
<g id="node48" class="node"><title>Permissions</title>
<ellipse fill="darkturquoise" stroke="darkturquoise" cx="333" cy="-1260" rx="66.9043" ry="18"/>
<text text-anchor="middle" x="333" y="-1255.9" font-family="DejaVu Sans, Helvetica, sans" font-size="14.00"><a xlink:href="Permissions.html" target="_parent">Permissions</a></text>
</g>
<!-- Permissions&#45;&gt;TypeCore -->
<g id="edge70" class="edge"><title>Permissions&#45;&gt;TypeCore</title>
<path fill="none" stroke="black" d="M284.617,-1247.47C200.926,-1222.56 38,-1158.34 38,-1036 38,-1036 38,-1036 38,-924 38,-695.346 70.6125,-591.843 256,-458 315.077,-415.349 809.782,-379.636 988.726,-368.001"/>
<polygon fill="black" stroke="black" points="989.031,-371.489 998.785,-367.351 988.58,-364.503 989.031,-371.489"/>
</g>
<!-- Permissions&#45;&gt;Types -->
<g id="edge68" class="edge"><title>Permissions&#45;&gt;Types</title>
<path fill="none" stroke="black" d="M343.674,-1242.09C382.933,-1177.11 525.102,-949.365 680,-794 706.241,-767.68 738.784,-740.213 761.448,-721.817"/>
<polygon fill="black" stroke="black" points="763.733,-724.47 769.321,-715.469 759.339,-719.021 763.733,-724.47"/>
</g>
<!-- Permissions&#45;&gt;FactInference -->
<g id="edge64" class="edge"><title>Permissions&#45;&gt;FactInference</title>
<path fill="none" stroke="black" d="M317.094,-1242.01C300.712,-1223.47 275.036,-1194.42 256.561,-1173.52"/>
<polygon fill="black" stroke="black" points="259.112,-1171.12 249.867,-1165.95 253.867,-1175.76 259.112,-1171.12"/>
</g>
<!-- Permissions&#45;&gt;DeBruijn -->
<g id="edge62" class="edge"><title>Permissions&#45;&gt;DeBruijn</title>
<path fill="none" stroke="black" d="M333.363,-1241.91C335.205,-1178.12 346.317,-958.732 413,-794 458.237,-682.246 475.514,-649.671 566,-570 606.666,-534.194 663.4,-507.917 703.083,-492.389"/>
<polygon fill="black" stroke="black" points="704.448,-495.615 712.533,-488.768 701.943,-489.078 704.448,-495.615"/>
</g>
<!-- Permissions&#45;&gt;Hoist -->
<g id="edge66" class="edge"><title>Permissions&#45;&gt;Hoist</title>
<path fill="none" stroke="black" d="M280.081,-1248.76C236.723,-1236.46 178.104,-1212.03 150,-1166 130.414,-1133.92 147.064,-1090.07 161.782,-1062.39"/>
<polygon fill="black" stroke="black" points="165.027,-1063.76 166.845,-1053.32 158.915,-1060.34 165.027,-1063.76"/>
</g>
<!-- Permissions&#45;&gt;Derivations -->
<g id="edge72" class="edge"><title>Permissions&#45;&gt;Derivations</title>
<path fill="none" stroke="black" d="M351.723,-1242.32C418.999,-1178.98 648.848,-964.005 731,-906 772.409,-876.763 823.83,-849.59 859.413,-832.057"/>
<polygon fill="black" stroke="black" points="861.104,-835.126 868.554,-827.593 858.032,-828.836 861.104,-835.126"/>
</g>
<!-- Derivations&#45;&gt;TypeCore -->
<g id="edge118" class="edge"><title>Derivations&#45;&gt;TypeCore</title>
<path fill="none" stroke="black" d="M908.106,-793.883C931.464,-724.582 1015.25,-475.986 1043.57,-391.971"/>
<polygon fill="black" stroke="black" points="1046.94,-392.937 1046.82,-382.342 1040.31,-390.701 1046.94,-392.937"/>
</g>
<!-- Derivations&#45;&gt;Types -->
<g id="edge116" class="edge"><title>Derivations&#45;&gt;Types</title>
<path fill="none" stroke="black" d="M884.344,-794.5C865.021,-775.348 833.949,-744.551 812.558,-723.35"/>
<polygon fill="black" stroke="black" points="814.997,-720.84 805.431,-716.286 810.07,-725.811 814.997,-720.84"/>
</g>
<!-- Interfaces -->
<g id="node56" class="node"><title>Interfaces</title>
<ellipse fill="darkturquoise" stroke="darkturquoise" cx="1422" cy="-1484" rx="59.065" ry="18"/>
<text text-anchor="middle" x="1422" y="-1479.9" font-family="DejaVu Sans, Helvetica, sans" font-size="14.00"><a xlink:href="Interfaces.html" target="_parent">Interfaces</a></text>
</g>
<!-- Interfaces&#45;&gt;Exports -->
<g id="edge76" class="edge"><title>Interfaces&#45;&gt;Exports</title>
<path fill="none" stroke="black" d="M1477.99,-1478.05C1574.99,-1466.58 1768.3,-1438.17 1814,-1390 1854.43,-1347.37 1838,-1318.75 1838,-1260 1838,-1260 1838,-1260 1838,-924 1838,-852.547 1818.97,-770.056 1807.85,-727.926"/>
<polygon fill="black" stroke="black" points="1811.18,-726.861 1805.2,-718.116 1804.43,-728.682 1811.18,-726.861"/>
</g>
<!-- Interfaces&#45;&gt;KindCheck -->
<g id="edge86" class="edge"><title>Interfaces&#45;&gt;KindCheck</title>
<path fill="none" stroke="black" d="M1477.49,-1477.68C1582.39,-1464.89 1804.92,-1433.38 1868,-1390 1924.68,-1351.02 1952,-1328.79 1952,-1260 1952,-1260 1952,-1260 1952,-924 1952,-773.715 1914,-738.285 1914,-588 1914,-588 1914,-588 1914,-476 1914,-398.432 1863.38,-317.852 1834.17,-277.81"/>
<polygon fill="black" stroke="black" points="1836.89,-275.604 1828.12,-269.668 1831.27,-279.781 1836.89,-275.604"/>
</g>
<!-- Interfaces&#45;&gt;TypeCore -->
<g id="edge98" class="edge"><title>Interfaces&#45;&gt;TypeCore</title>
<path fill="none" stroke="black" d="M1431.19,-1466.07C1440.4,-1447.47 1454.4,-1417.34 1463,-1390 1541.45,-1140.63 1572,-1073.42 1572,-812 1572,-812 1572,-812 1572,-588 1572,-488.169 1244.21,-405.539 1109.63,-375.821"/>
<polygon fill="black" stroke="black" points="1110.03,-372.327 1099.51,-373.607 1108.53,-379.165 1110.03,-372.327"/>
</g>
<!-- Interfaces&#45;&gt;Types -->
<g id="edge94" class="edge"><title>Interfaces&#45;&gt;Types</title>
<path fill="none" stroke="black" d="M1363.36,-1481.28C1240.4,-1474.39 961.3,-1452.15 893,-1390 769.619,-1277.72 762.445,-1164.08 843,-1018 869.278,-970.347 907.642,-986.475 939,-942 978.134,-886.498 1012.7,-851.769 977,-794 946.144,-744.074 879.853,-719.778 834.831,-708.614"/>
<polygon fill="black" stroke="black" points="835.541,-705.186 825.006,-706.301 833.937,-711.999 835.541,-705.186"/>
</g>
<!-- Interfaces&#45;&gt;FactInference -->
<g id="edge84" class="edge"><title>Interfaces&#45;&gt;FactInference</title>
<path fill="none" stroke="black" d="M1363.69,-1480.95C1157.21,-1469.85 468.318,-1430.15 378,-1390 311.038,-1360.23 292.104,-1342.32 257,-1278 239.65,-1246.21 234.956,-1204.13 233.904,-1176.58"/>
<polygon fill="black" stroke="black" points="237.399,-1176.35 233.657,-1166.43 230.401,-1176.52 237.399,-1176.35"/>
</g>
<!-- Interfaces&#45;&gt;Fact -->
<g id="edge82" class="edge"><title>Interfaces&#45;&gt;Fact</title>
<path fill="none" stroke="black" d="M1478.41,-1478.46C1580.11,-1467.35 1788.42,-1439.11 1840,-1390 1883.42,-1348.66 1876,-1319.95 1876,-1260 1876,-1260 1876,-1260 1876,-812 1876,-556.406 1750.08,-490.13 1539,-346 1480.16,-305.826 1401.41,-277.287 1355.83,-262.827"/>
<polygon fill="black" stroke="black" points="1356.68,-259.424 1346.09,-259.789 1354.59,-266.107 1356.68,-259.424"/>
</g>
<!-- Interfaces&#45;&gt;TypeErrors -->
<g id="edge92" class="edge"><title>Interfaces&#45;&gt;TypeErrors</title>
<path fill="none" stroke="black" d="M1382.5,-1470.5C1341.7,-1455.26 1277.59,-1427.6 1231,-1390 1116.28,-1297.41 1123.36,-1239.83 1025,-1130 1002.86,-1105.28 975.81,-1078.84 956.244,-1060.32"/>
<polygon fill="black" stroke="black" points="958.557,-1057.69 948.877,-1053.39 953.759,-1062.79 958.557,-1057.69"/>
</g>
<!-- Interfaces&#45;&gt;Expressions -->
<g id="edge78" class="edge"><title>Interfaces&#45;&gt;Expressions</title>
<path fill="none" stroke="black" d="M1423.05,-1465.9C1423.71,-1439.1 1421.4,-1388.33 1398,-1354 1373.68,-1318.32 1330.86,-1293.57 1297.02,-1278.45"/>
<polygon fill="black" stroke="black" points="1298.31,-1275.2 1287.74,-1274.45 1295.53,-1281.62 1298.31,-1275.2"/>
</g>
<!-- Interfaces&#45;&gt;Variance -->
<g id="edge96" class="edge"><title>Interfaces&#45;&gt;Variance</title>
<path fill="none" stroke="black" d="M1391.34,-1468.42C1337.15,-1439.14 1225.09,-1370.45 1171,-1278 1152.61,-1246.56 1148.19,-1204.06 1147.48,-1176.35"/>
<polygon fill="black" stroke="black" points="1150.98,-1176.12 1147.37,-1166.15 1143.98,-1176.19 1150.98,-1176.12"/>
</g>
<!-- Interfaces&#45;&gt;ExpressionsCore -->
<g id="edge80" class="edge"><title>Interfaces&#45;&gt;ExpressionsCore</title>
<path fill="none" stroke="black" d="M1427.2,-1465.88C1437.61,-1428 1460,-1337.51 1460,-1260 1460,-1260 1460,-1260 1460,-1148 1460,-1077.69 1457.51,-994.986 1456.04,-952.45"/>
<polygon fill="black" stroke="black" points="1459.53,-952.16 1455.68,-942.289 1452.54,-952.406 1459.53,-952.16"/>
</g>
<!-- Interfaces&#45;&gt;Permissions -->
<g id="edge88" class="edge"><title>Interfaces&#45;&gt;Permissions</title>
<path fill="none" stroke="black" d="M1363.53,-1481.45C1161.42,-1472.25 500.197,-1438.66 419,-1390 380.211,-1366.75 355.417,-1318.46 342.876,-1287.73"/>
<polygon fill="black" stroke="black" points="345.989,-1286.08 339.09,-1278.04 339.47,-1288.63 345.989,-1286.08"/>
</g>
<!-- Interfaces&#45;&gt;DerivationPrinter -->
<g id="edge74" class="edge"><title>Interfaces&#45;&gt;DerivationPrinter</title>
<path fill="none" stroke="black" d="M1364.22,-1480.08C1209.75,-1469.03 796.182,-1435.43 756,-1390 646.444,-1266.15 690.578,-1172.31 750,-1018 760.771,-990.029 784.149,-965.208 803.666,-948.106"/>
<polygon fill="black" stroke="black" points="806.107,-950.625 811.471,-941.488 801.58,-945.286 806.107,-950.625"/>
</g>
<!-- TransSurface -->
<g id="node67" class="node"><title>TransSurface</title>
<ellipse fill="darkturquoise" stroke="darkturquoise" cx="1650" cy="-1372" rx="72.9626" ry="18"/>
<text text-anchor="middle" x="1650" y="-1367.9" font-family="DejaVu Sans, Helvetica, sans" font-size="14.00"><a xlink:href="TransSurface.html" target="_parent">TransSurface</a></text>
</g>
<!-- Interfaces&#45;&gt;TransSurface -->
<g id="edge90" class="edge"><title>Interfaces&#45;&gt;TransSurface</title>
<path fill="none" stroke="black" d="M1453.22,-1468.66C1493.3,-1448.97 1563,-1414.74 1607.78,-1392.74"/>
<polygon fill="black" stroke="black" points="1609.51,-1395.79 1616.94,-1388.24 1606.42,-1389.51 1609.51,-1395.79"/>
</g>
<!-- DerivationPrinter&#45;&gt;Types -->
<g id="edge100" class="edge"><title>DerivationPrinter&#45;&gt;Types</title>
<path fill="none" stroke="black" d="M831.236,-905.669C823.193,-866.507 804.292,-774.467 794.74,-727.952"/>
<polygon fill="black" stroke="black" points="798.128,-727.05 792.688,-717.958 791.271,-728.458 798.128,-727.05"/>
</g>
<!-- DerivationPrinter&#45;&gt;Derivations -->
<g id="edge102" class="edge"><title>DerivationPrinter&#45;&gt;Derivations</title>
<path fill="none" stroke="black" d="M845.765,-906.005C856.656,-887.799 873.618,-859.445 886.066,-838.636"/>
<polygon fill="black" stroke="black" points="889.132,-840.329 891.262,-829.95 883.125,-836.735 889.132,-840.329"/>
</g>
<!-- TransSurface&#45;&gt;KindCheck -->
<g id="edge180" class="edge"><title>TransSurface&#45;&gt;KindCheck</title>
<path fill="none" stroke="black" d="M1661.71,-1354.04C1673.16,-1335.66 1690.26,-1305.92 1700,-1278 1719.36,-1222.53 1724,-1206.75 1724,-1148 1724,-1148 1724,-1148 1724,-812 1724,-605.617 1784.33,-361.809 1806.2,-280.193"/>
<polygon fill="black" stroke="black" points="1809.67,-280.765 1808.9,-270.198 1802.91,-278.937 1809.67,-280.765"/>
</g>
<!-- TransSurface&#45;&gt;TypeCore -->
<g id="edge178" class="edge"><title>TransSurface&#45;&gt;TypeCore</title>
<path fill="none" stroke="black" d="M1644.52,-1353.9C1633.57,-1316.06 1610,-1225.63 1610,-1148 1610,-1148 1610,-1148 1610,-588 1610,-529.246 1627.71,-499.379 1586,-458 1520.89,-393.408 1245.15,-372.666 1117.87,-366.457"/>
<polygon fill="black" stroke="black" points="1118.02,-362.961 1107.86,-365.984 1117.69,-369.953 1118.02,-362.961"/>
</g>
<!-- TransSurface&#45;&gt;DataTypeFlavor -->
<g id="edge168" class="edge"><title>TransSurface&#45;&gt;DataTypeFlavor</title>
<path fill="none" stroke="black" d="M1651.68,-1353.8C1662.7,-1234.57 1724,-566.92 1724,-476 1724,-476 1724,-476 1724,-364 1724,-191.377 1526.01,-273.64 1358,-234 1120.34,-177.927 832.838,-154.051 686.915,-144.948"/>
<polygon fill="black" stroke="black" points="686.852,-141.438 676.656,-144.318 686.422,-148.425 686.852,-141.438"/>
</g>
<!-- TransSurface&#45;&gt;Fact -->
<g id="edge172" class="edge"><title>TransSurface&#45;&gt;Fact</title>
<path fill="none" stroke="black" d="M1653.04,-1353.69C1656.01,-1334.8 1660.32,-1304.43 1662,-1278 1663.02,-1262.03 1662.26,-1258 1662,-1242 1658.89,-1050.81 1648,-1003.21 1648,-812 1648,-812 1648,-812 1648,-700 1648,-591.261 1669.1,-550.541 1612,-458 1549.7,-357.034 1417.52,-292.142 1354.22,-265.635"/>
<polygon fill="black" stroke="black" points="1355.25,-262.276 1344.67,-261.711 1352.59,-268.75 1355.25,-262.276"/>
</g>
<!-- TransSurface&#45;&gt;Hoist -->
<g id="edge174" class="edge"><title>TransSurface&#45;&gt;Hoist</title>
<path fill="none" stroke="black" d="M1590.83,-1361.28C1500.19,-1344.66 1321.64,-1311.12 1171,-1278 800.682,-1196.58 356.726,-1082.48 220.073,-1046.98"/>
<polygon fill="black" stroke="black" points="220.584,-1043.49 210.025,-1044.36 218.822,-1050.27 220.584,-1043.49"/>
</g>
<!-- TransSurface&#45;&gt;Mode -->
<g id="edge176" class="edge"><title>TransSurface&#45;&gt;Mode</title>
<path fill="none" stroke="black" d="M1666.07,-1354.09C1681.63,-1335.98 1705,-1306.66 1720,-1278 1870.04,-991.357 1952,-911.537 1952,-588 1952,-588 1952,-588 1952,-252 1952,-115.98 879.185,-44.8772 639.225,-30.6746"/>
<polygon fill="black" stroke="black" points="639.27,-27.1712 629.082,-30.0788 638.86,-34.1592 639.27,-27.1712"/>
</g>
<!-- TransSurface&#45;&gt;Expressions -->
<g id="edge170" class="edge"><title>TransSurface&#45;&gt;Expressions</title>
<path fill="none" stroke="black" d="M1601.39,-1358.49C1526.4,-1337.65 1382.9,-1297.77 1303.44,-1275.68"/>
<polygon fill="black" stroke="black" points="1304.17,-1272.26 1293.6,-1272.95 1302.3,-1279 1304.17,-1272.26"/>
</g>
<!-- TransSurface&#45;&gt;ExpressionsCore -->
<g id="edge182" class="edge"><title>TransSurface&#45;&gt;ExpressionsCore</title>
<path fill="none" stroke="black" d="M1638.66,-1354.04C1627.15,-1335.43 1609.19,-1305.28 1596,-1278 1538.85,-1159.76 1485.55,-1012.03 1464.49,-951.647"/>
<polygon fill="black" stroke="black" points="1467.75,-950.366 1461.17,-942.066 1461.14,-952.661 1467.75,-950.366"/>
</g>
<!-- Modules -->
<g id="node89" class="node"><title>Modules</title>
<ellipse fill="darkturquoise" stroke="darkturquoise" cx="952" cy="-1372" rx="50.2242" ry="18"/>
<text text-anchor="middle" x="952" y="-1367.9" font-family="DejaVu Sans, Helvetica, sans" font-size="14.00"><a xlink:href="Modules.html" target="_parent">Modules</a></text>
</g>
<!-- Modules&#45;&gt;TypeCore -->
<g id="edge132" class="edge"><title>Modules&#45;&gt;TypeCore</title>
<path fill="none" stroke="black" d="M929.148,-1355.7C821.577,-1278.06 372.543,-943.319 413,-794 459.239,-623.342 477.887,-554.564 626,-458 685.845,-418.983 888.537,-386.523 991.656,-372.072"/>
<polygon fill="black" stroke="black" points="992.194,-375.531 1001.62,-370.688 991.231,-368.597 992.194,-375.531"/>
</g>
<!-- Modules&#45;&gt;TypeErrors -->
<g id="edge134" class="edge"><title>Modules&#45;&gt;TypeErrors</title>
<path fill="none" stroke="black" d="M962.733,-1354.28C985.865,-1313.72 1036.07,-1211.35 1007,-1130 997.249,-1102.71 975.79,-1077.64 957.997,-1060.27"/>
<polygon fill="black" stroke="black" points="960.31,-1057.64 950.64,-1053.31 955.5,-1062.72 960.31,-1057.64"/>
</g>
<!-- Modules&#45;&gt;Expressions -->
<g id="edge130" class="edge"><title>Modules&#45;&gt;Expressions</title>
<path fill="none" stroke="black" d="M986.418,-1358.93C1038.82,-1339.04 1138.83,-1301.07 1198.55,-1278.39"/>
<polygon fill="black" stroke="black" points="1200.03,-1281.58 1208.14,-1274.76 1197.54,-1275.03 1200.03,-1281.58"/>
</g>
<!-- TypeChecker -->
<g id="node97" class="node"><title>TypeChecker</title>
<ellipse fill="darkturquoise" stroke="darkturquoise" cx="599" cy="-1484" rx="71.7694" ry="18"/>
<text text-anchor="middle" x="599" y="-1479.9" font-family="DejaVu Sans, Helvetica, sans" font-size="14.00"><a xlink:href="TypeChecker.html" target="_parent">TypeChecker</a></text>
</g>
<!-- TypeChecker&#45;&gt;Exports -->
<g id="edge150" class="edge"><title>TypeChecker&#45;&gt;Exports</title>
<path fill="none" stroke="black" d="M670.893,-1482.03C906.255,-1475.03 1643.7,-1448.59 1732,-1390 1786.33,-1353.95 1800,-1325.2 1800,-1260 1800,-1260 1800,-1260 1800,-924 1800,-853.524 1800,-770.575 1800,-728.13"/>
<polygon fill="black" stroke="black" points="1803.5,-728.002 1800,-718.002 1796.5,-728.002 1803.5,-728.002"/>
</g>
<!-- TypeChecker&#45;&gt;TypeCore -->
<g id="edge164" class="edge"><title>TypeChecker&#45;&gt;TypeCore</title>
<path fill="none" stroke="black" d="M663.876,-1476.03C827.149,-1454.44 1247.44,-1388.9 1323,-1278 1439.68,-1106.75 1338,-1019.22 1338,-812 1338,-812 1338,-812 1338,-588 1338,-470.831 1187.26,-405.61 1105.03,-378.75"/>
<polygon fill="black" stroke="black" points="1105.95,-375.369 1095.36,-375.664 1103.82,-382.038 1105.95,-375.369"/>
</g>
<!-- TypeChecker&#45;&gt;Types -->
<g id="edge162" class="edge"><title>TypeChecker&#45;&gt;Types</title>
<path fill="none" stroke="black" d="M600.138,-1465.85C601.84,-1440.67 605.454,-1393.73 611,-1354 646.395,-1100.44 659.661,-1035.02 746,-794 754.349,-770.693 766.187,-745.209 775.328,-726.662"/>
<polygon fill="black" stroke="black" points="778.495,-728.154 779.831,-717.644 772.232,-725.027 778.495,-728.154"/>
</g>
<!-- TypeChecker&#45;&gt;FactInference -->
<g id="edge154" class="edge"><title>TypeChecker&#45;&gt;FactInference</title>
<path fill="none" stroke="black" d="M532.532,-1477.05C435.259,-1465.35 261.573,-1438.15 224,-1390 174.976,-1327.17 204.019,-1224.74 222.409,-1175.77"/>
<polygon fill="black" stroke="black" points="225.781,-1176.76 226.139,-1166.17 219.256,-1174.22 225.781,-1176.76"/>
</g>
<!-- TypeChecker&#45;&gt;DataTypeFlavor -->
<g id="edge144" class="edge"><title>TypeChecker&#45;&gt;DataTypeFlavor</title>
<path fill="none" stroke="black" d="M537.711,-1474.51C385.047,-1449.17 0,-1373.94 0,-1260 0,-1260 0,-1260 0,-364 0,-255.49 352.316,-181.09 513.363,-152.75"/>
<polygon fill="black" stroke="black" points="513.972,-156.197 523.222,-151.03 512.769,-149.301 513.972,-156.197"/>
</g>
<!-- TypeChecker&#45;&gt;DeBruijn -->
<g id="edge146" class="edge"><title>TypeChecker&#45;&gt;DeBruijn</title>
<path fill="none" stroke="black" d="M598.973,-1465.88C599.069,-1440.73 599.728,-1393.83 603,-1354 623.555,-1103.73 633.563,-1041.15 678,-794 697.433,-685.92 728.76,-559.031 742.795,-503.906"/>
<polygon fill="black" stroke="black" points="746.199,-504.722 745.285,-494.166 739.417,-502.987 746.199,-504.722"/>
</g>
<!-- TypeChecker&#45;&gt;TypeErrors -->
<g id="edge160" class="edge"><title>TypeChecker&#45;&gt;TypeErrors</title>
<path fill="none" stroke="black" d="M612.18,-1466.16C663.457,-1396.76 849.809,-1144.54 910.645,-1062.2"/>
<polygon fill="black" stroke="black" points="913.655,-1064.01 916.782,-1053.89 908.025,-1059.85 913.655,-1064.01"/>
</g>
<!-- TypeChecker&#45;&gt;Expressions -->
<g id="edge152" class="edge"><title>TypeChecker&#45;&gt;Expressions</title>
<path fill="none" stroke="black" d="M662.014,-1475.23C744.242,-1462.53 891.703,-1435.44 1011,-1390 1087.23,-1360.97 1169.11,-1311.17 1213.57,-1282.37"/>
<polygon fill="black" stroke="black" points="1215.49,-1285.29 1221.95,-1276.9 1211.66,-1279.43 1215.49,-1285.29"/>
</g>
<!-- TypeChecker&#45;&gt;ExpressionsCore -->
<g id="edge166" class="edge"><title>TypeChecker&#45;&gt;ExpressionsCore</title>
<path fill="none" stroke="black" d="M668.697,-1479.22C840.238,-1466.85 1272.59,-1431.85 1322,-1390 1390.86,-1331.68 1437.7,-1043.91 1451.08,-952.162"/>
<polygon fill="black" stroke="black" points="1454.55,-952.608 1452.51,-942.212 1447.62,-951.612 1454.55,-952.608"/>
</g>
<!-- TypeChecker&#45;&gt;Permissions -->
<g id="edge158" class="edge"><title>TypeChecker&#45;&gt;Permissions</title>
<path fill="none" stroke="black" d="M539.417,-1473.85C488.438,-1462.14 416.58,-1437.96 373,-1390 347.373,-1361.8 338.16,-1317.49 334.851,-1288.59"/>
<polygon fill="black" stroke="black" points="338.305,-1287.95 333.85,-1278.33 331.338,-1288.63 338.305,-1287.95"/>
</g>
<!-- TypeChecker&#45;&gt;DerivationPrinter -->
<g id="edge148" class="edge"><title>TypeChecker&#45;&gt;DerivationPrinter</title>
<path fill="none" stroke="black" d="M601.739,-1465.88C613.503,-1389.66 661.452,-1095.48 712,-1018 732.055,-987.261 765.715,-962.568 792.758,-946.218"/>
<polygon fill="black" stroke="black" points="794.797,-949.079 801.646,-940.996 791.251,-943.044 794.797,-949.079"/>
</g>
<!-- Merge -->
<g id="node105" class="node"><title>Merge</title>
<ellipse fill="darkturquoise" stroke="darkturquoise" cx="469" cy="-1372" rx="40.9981" ry="18"/>
<text text-anchor="middle" x="469" y="-1367.9" font-family="DejaVu Sans, Helvetica, sans" font-size="14.00"><a xlink:href="Merge.html" target="_parent">Merge</a></text>
</g>
<!-- TypeChecker&#45;&gt;Merge -->
<g id="edge156" class="edge"><title>TypeChecker&#45;&gt;Merge</title>
<path fill="none" stroke="black" d="M578.688,-1466.5C556.36,-1447.26 520.399,-1416.28 495.781,-1395.07"/>
<polygon fill="black" stroke="black" points="497.764,-1392.16 487.903,-1388.29 493.195,-1397.46 497.764,-1392.16"/>
</g>
<!-- Merge&#45;&gt;TypeCore -->
<g id="edge194" class="edge"><title>Merge&#45;&gt;TypeCore</title>
<path fill="none" stroke="black" d="M465.271,-1353.85C447.953,-1268.47 377.004,-906.319 396,-794 413.579,-690.057 420.984,-661.118 474,-570 507.264,-512.83 514.681,-491.007 572,-458 642.698,-417.288 877.376,-384.824 990.697,-371.095"/>
<polygon fill="black" stroke="black" points="991.435,-374.532 1000.95,-369.865 990.601,-367.582 991.435,-374.532"/>
</g>
<!-- Merge&#45;&gt;Types -->
<g id="edge192" class="edge"><title>Merge&#45;&gt;Types</title>
<path fill="none" stroke="black" d="M472.5,-1353.7C485.336,-1289.24 533.741,-1067.85 622,-906 632.857,-886.09 725.927,-774.8 768.228,-724.586"/>
<polygon fill="black" stroke="black" points="771.027,-726.695 774.797,-716.794 765.675,-722.183 771.027,-726.695"/>
</g>
<!-- Merge&#45;&gt;FactInference -->
<g id="edge186" class="edge"><title>Merge&#45;&gt;FactInference</title>
<path fill="none" stroke="black" d="M464.631,-1353.95C457.252,-1326.75 440.007,-1274.94 409,-1242 375.551,-1206.46 325.61,-1181.49 287.629,-1166.26"/>
<polygon fill="black" stroke="black" points="288.836,-1162.98 278.248,-1162.6 286.291,-1169.5 288.836,-1162.98"/>
</g>
<!-- Merge&#45;&gt;TypeErrors -->
<g id="edge190" class="edge"><title>Merge&#45;&gt;TypeErrors</title>
<path fill="none" stroke="black" d="M490.31,-1356.47C564.429,-1302.45 811.213,-1122.58 898.819,-1058.73"/>
<polygon fill="black" stroke="black" points="901.009,-1061.46 907.029,-1052.74 896.886,-1055.8 901.009,-1061.46"/>
</g>
<!-- Merge&#45;&gt;Permissions -->
<g id="edge188" class="edge"><title>Merge&#45;&gt;Permissions</title>
<path fill="none" stroke="black" d="M449.515,-1355.95C426.484,-1336.99 387.962,-1305.26 361.561,-1283.52"/>
<polygon fill="black" stroke="black" points="363.732,-1280.77 353.787,-1277.12 359.282,-1286.18 363.732,-1280.77"/>
</g>
<!-- Configure -->
<g id="node127" class="node"><title>Configure</title>
<ellipse fill="#eead0e" stroke="#eead0e" cx="1067" cy="-1036" rx="57.1737" ry="18"/>
<text text-anchor="middle" x="1067" y="-1031.9" font-family="DejaVu Sans, Helvetica, sans" font-size="14.00"><a xlink:href="Configure.html" target="_parent">Configure</a></text>
</g>
<!-- Mezzo -->
<g id="node128" class="node"><title>Mezzo</title>
<ellipse fill="#eead0e" stroke="#eead0e" cx="955" cy="-1148" rx="43.0827" ry="18"/>
<text text-anchor="middle" x="955" y="-1143.9" font-family="DejaVu Sans, Helvetica, sans" font-size="14.00"><a xlink:href="Mezzo.html" target="_parent">Mezzo</a></text>
</g>
<!-- Mezzo&#45;&gt;Types -->
<g id="edge200" class="edge"><title>Mezzo&#45;&gt;Types</title>
<path fill="none" stroke="black" d="M928.425,-1133.68C878.488,-1105.04 771.984,-1035.37 731,-942 724.569,-927.349 728.811,-921.85 731,-906 740.051,-840.455 764.577,-766.414 778.668,-727.416"/>
<polygon fill="black" stroke="black" points="782.025,-728.426 782.177,-717.832 775.452,-726.019 782.025,-728.426"/>
</g>
<!-- Mezzo&#45;&gt;TypeErrors -->
<g id="edge202" class="edge"><title>Mezzo&#45;&gt;TypeErrors</title>
<path fill="none" stroke="black" d="M950.983,-1130.01C947.016,-1112.23 940.89,-1084.79 936.279,-1064.13"/>
<polygon fill="black" stroke="black" points="939.684,-1063.32 934.09,-1054.32 932.852,-1064.84 939.684,-1063.32"/>
</g>
<!-- Mezzo&#45;&gt;Configure -->
<g id="edge204" class="edge"><title>Mezzo&#45;&gt;Configure</title>
<path fill="none" stroke="black" d="M972.01,-1130.99C990.841,-1112.16 1021.35,-1081.65 1042.7,-1060.3"/>
<polygon fill="black" stroke="black" points="1045.23,-1062.72 1049.83,-1053.17 1040.28,-1057.77 1045.23,-1062.72"/>
</g>
</g>
</svg>
